<?xml version="1.0" encoding="UTF-8"?>
<svg xmlns:foaf="http://xmlns.com/foaf/0.1/" xmlns:svg="http://www.w3.org/2000/svg"
     xmlns:dc="http://purl.org/dc/elements/1.1/"
     xmlns:crm="http://www.cidoc-crm.org/cidoc-crm/"
     xmlns="http://www.w3.org/2000/svg"
     xmlns:sodipodi="http://sodipodi.sourceforge.net/DTD/sodipodi-0.dtd"
     xmlns:cc="http://creativecommons.org/ns#"
     xmlns:inkscape="http://www.inkscape.org/namespaces/inkscape"
     xmlns:nmo="http://nomisma.org/ontology#"
     xmlns:rdf="http://www.w3.org/1999/02/22-rdf-syntax-ns#"
     viewBox="0 0 533.33331 533.33331"
     height="533.33331"
     width="533.33331"
     xml:space="preserve"
     id="svg2"
     version="1.1"><metadata><rdf:RDF><cc:Work rdf:about="https://nomisma.org/svg/monogram.02684.svg"><dc:title>Monogram 2684</dc:title><dc:description>Monogram 2684 published by Nomisma.org. See matching URIs and bibliographic references for further information about the usage of this symbol on coinage.</dc:description><foaf:focus rdf:resource="http://nomisma.org/symbol/monogram.02684"/><dc:format>image/svg+xml</dc:format><dc:type rdf:resource="http://purl.org/dc/dcmitype/StillImage"/><dc:creator rdf:resource="https://orcid.org/0000-0001-7542-4252"/><cc:license rdf:resource="https://creativecommons.org/choose/mark/"/><crm:P106_is_composed_of>Κ</crm:P106_is_composed_of><crm:P106_is_composed_of>Β</crm:P106_is_composed_of><crm:P106_is_composed_of>Ρ</crm:P106_is_composed_of><crm:P106_is_composed_of>Υ</crm:P106_is_composed_of><crm:P106_is_composed_of>Ε</crm:P106_is_composed_of></cc:Work></rdf:RDF></metadata><defs id="defs6"><clipPath id="clipPath42" clipPathUnits="userSpaceOnUse"><path id="path40" d="M 0,400 H 400 V 0 H 0 Z"/></clipPath></defs><g transform="matrix(1.3333333,0,0,-1.3333333,0,533.33333)" id="g10"><g transform="translate(65.3794,257.8965)" id="g12"><path id="path14"
               style="fill:none;stroke:#000000;stroke-width:20;stroke-linecap:round;stroke-linejoin:round;stroke-miterlimit:10;stroke-dasharray:none;stroke-opacity:1"
               d="M 0,0 V -177.012"/></g><g transform="translate(65.3794,257.8965)" id="g16"><path id="path18"
               style="fill:none;stroke:#000000;stroke-width:20;stroke-linecap:round;stroke-linejoin:round;stroke-miterlimit:10;stroke-dasharray:none;stroke-opacity:1"
               d="M 0,0 H 265.517"/></g><g transform="translate(198.1377,151.6895)" id="g20"><path id="path22"
               style="fill:none;stroke:#000000;stroke-width:20;stroke-linecap:round;stroke-linejoin:round;stroke-miterlimit:10;stroke-dasharray:none;stroke-opacity:1"
               d="M 0,0 V 106.207"/></g><g transform="translate(145.0347,311)" id="g24"><path id="path26"
               style="fill:none;stroke:#000000;stroke-width:20;stroke-linecap:round;stroke-linejoin:round;stroke-miterlimit:10;stroke-dasharray:none;stroke-opacity:1"
               d="M 0,0 53.103,-53.104"/></g><g transform="translate(251.2412,311)" id="g28"><path id="path30"
               style="fill:none;stroke:#000000;stroke-width:20;stroke-linecap:round;stroke-linejoin:round;stroke-miterlimit:10;stroke-dasharray:none;stroke-opacity:1"
               d="M 0,0 -53.104,-53.104"/></g><g transform="translate(330.8965,257.8965)" id="g32"><path id="path34"
               style="fill:none;stroke:#000000;stroke-width:20;stroke-linecap:round;stroke-linejoin:round;stroke-miterlimit:10;stroke-dasharray:none;stroke-opacity:1"
               d="M 0,0 V -177.012"/></g><g id="g36"><g clip-path="url(#clipPath42)" id="g38"><g transform="translate(330.8291,257.8823)" id="g44"><path id="path46"
                     style="fill:none;stroke:#000000;stroke-width:20;stroke-linecap:round;stroke-linejoin:round;stroke-miterlimit:10;stroke-dasharray:none;stroke-opacity:1"
                     d="m 0,0 c 2.88,0.59 5.863,0.899 8.918,0.899 24.44,0 44.253,-19.813 44.253,-44.253 0,-24.439 -19.813,-44.253 -44.253,-44.253 -3.031,0 -5.991,0.306 -8.851,0.886"/></g><g transform="translate(330.8291,167.6064)" id="g48"><path id="path50"
                     style="fill:none;stroke:#000000;stroke-width:20;stroke-linecap:round;stroke-linejoin:round;stroke-miterlimit:10;stroke-dasharray:none;stroke-opacity:1"
                     d="m 0,0 c 2.88,0.59 5.863,0.899 8.918,0.899 24.44,0 44.253,-19.812 44.253,-44.253 0,-24.44 -19.813,-44.252 -44.253,-44.252 -3.031,0 -5.991,0.304 -8.851,0.884"/></g><g transform="translate(65.1714,257.8823)" id="g52"><path id="path54"
                     style="fill:none;stroke:#000000;stroke-width:20;stroke-linecap:round;stroke-linejoin:round;stroke-miterlimit:10;stroke-dasharray:none;stroke-opacity:1"
                     d="m 0,0 c -2.881,0.59 -5.863,0.899 -8.918,0.899 -24.441,0 -44.253,-19.813 -44.253,-44.253 0,-24.439 19.812,-44.253 44.253,-44.253 3.031,0 5.99,0.306 8.85,0.886"/></g></g></g></g></svg>