<?xml version="1.0" encoding="UTF-8"?>
<svg xmlns:foaf="http://xmlns.com/foaf/0.1/" xmlns:svg="http://www.w3.org/2000/svg"
     xmlns:dc="http://purl.org/dc/elements/1.1/"
     xmlns:crm="http://www.cidoc-crm.org/cidoc-crm/"
     xmlns="http://www.w3.org/2000/svg"
     xmlns:sodipodi="http://sodipodi.sourceforge.net/DTD/sodipodi-0.dtd"
     xmlns:cc="http://creativecommons.org/ns#"
     xmlns:inkscape="http://www.inkscape.org/namespaces/inkscape"
     xmlns:nmo="http://nomisma.org/ontology#"
     xmlns:rdf="http://www.w3.org/1999/02/22-rdf-syntax-ns#"
     viewBox="0 0 146.59332 121.408"
     height="121.408"
     width="146.59332"
     xml:space="preserve"
     id="svg2"
     version="1.1"
     sodipodi:docname="pg_0001.svg"
     inkscape:version="0.92.3 (2405546, 2018-03-11)"><sodipodi:namedview pagecolor="#ffffff" bordercolor="#666666" borderopacity="1"
                       objecttolerance="10"
                       gridtolerance="10"
                       guidetolerance="10"
                       inkscape:pageopacity="0"
                       inkscape:pageshadow="2"
                       inkscape:window-width="614"
                       inkscape:window-height="450"
                       id="namedview14"
                       showgrid="false"
                       inkscape:zoom="0.88500003"
                       inkscape:cx="73.296663"
                       inkscape:cy="62.739077"
                       inkscape:window-x="83"
                       inkscape:window-y="27"
                       inkscape:window-maximized="0"
                       inkscape:current-layer="svg2"/><metadata><rdf:RDF><cc:Work rdf:about="https://nomisma.org/svg/monogram.01522.svg"><dc:title>Monogram 1522</dc:title><dc:description>Monogram 1522 published by Nomisma.org. See matching URIs and bibliographic references for further information about the usage of this symbol on coinage.</dc:description><foaf:focus rdf:resource="http://nomisma.org/symbol/monogram.01522"/><dc:format>image/svg+xml</dc:format><dc:type rdf:resource="http://purl.org/dc/dcmitype/StillImage"/><cc:license rdf:resource="https://creativecommons.org/choose/mark/"/><crm:P106_is_composed_of>T</crm:P106_is_composed_of><crm:P106_is_composed_of>E</crm:P106_is_composed_of><crm:P106_is_composed_of>O</crm:P106_is_composed_of><crm:P106_is_composed_of>Δ</crm:P106_is_composed_of></cc:Work></rdf:RDF></metadata><defs id="defs6"><clipPath id="clipPath18" clipPathUnits="userSpaceOnUse"><path id="path16" d="M 0,200 H 200 V 0 H 0 Z" inkscape:connector-curvature="0"/></clipPath></defs><g transform="matrix(1.3333333,0,0,-1.3333333,-60.036665,192.00226)" id="g10"><g id="g12"><g clip-path="url(#clipPath18)" id="g14"><g transform="translate(99.7085,97.6707)" id="g20"><path id="path22" style="fill:#231f20;fill-opacity:1;fill-rule:nonzero;stroke:none"
                     d="m 0,0 27.998,-39.952 h -55.996 z m 37.363,12.028 h 15.514 c 1.32,0 2.387,1.068 2.387,2.387 0,1.32 -1.067,2.387 -2.387,2.387 H 37.363 v 22.89 h 15.514 c 1.32,0 2.387,1.068 2.387,2.387 0,1.319 -1.067,2.387 -2.387,2.387 H 34.976 c -1.319,0 -2.387,-1.068 -2.387,-2.387 V 8.364 H 1.328 c -0.008,0 -0.017,0 -0.025,0 h -2.606 c -0.008,0 -0.016,0 -0.025,0 h -31.624 v 33.193 h 17.207 c 1.319,0 2.387,1.067 2.387,2.387 0,1.319 -1.068,2.387 -2.387,2.387 h -36.549 c -1.32,0 -2.387,-1.068 -2.387,-2.387 0,-1.32 1.067,-2.387 2.387,-2.387 h 14.568 v -76.082 c 0,-1.319 1.067,-2.387 2.387,-2.387 1.319,0 2.387,1.068 2.387,2.387 V 3.59 h 29.641 l -31.226,-44.558 c -0.003,-0.004 -0.005,-0.008 -0.007,-0.012 -0.075,-0.108 -0.137,-0.224 -0.194,-0.345 -0.011,-0.024 -0.028,-0.046 -0.039,-0.071 -0.036,-0.085 -0.058,-0.176 -0.085,-0.266 -0.018,-0.062 -0.044,-0.122 -0.057,-0.185 -0.01,-0.047 -0.01,-0.097 -0.017,-0.145 -0.016,-0.109 -0.032,-0.218 -0.033,-0.327 0,-0.007 -0.002,-0.013 -0.002,-0.019 0,-0.055 0.013,-0.106 0.016,-0.159 0.007,-0.096 0.011,-0.192 0.029,-0.287 0.015,-0.079 0.041,-0.153 0.063,-0.229 0.021,-0.071 0.039,-0.143 0.066,-0.212 0.032,-0.08 0.074,-0.154 0.114,-0.229 0.033,-0.061 0.061,-0.123 0.098,-0.181 0.05,-0.076 0.109,-0.144 0.167,-0.214 0.04,-0.049 0.076,-0.101 0.12,-0.147 0.08,-0.082 0.169,-0.153 0.259,-0.223 0.03,-0.023 0.053,-0.051 0.084,-0.073 0.005,-0.003 0.009,-0.005 0.014,-0.008 0.041,-0.028 0.085,-0.05 0.128,-0.075 0.08,-0.049 0.161,-0.095 0.244,-0.133 0.048,-0.022 0.097,-0.04 0.147,-0.058 0.09,-0.034 0.181,-0.063 0.274,-0.085 0.045,-0.011 0.089,-0.023 0.135,-0.031 0.142,-0.026 0.285,-0.043 0.429,-0.043 h 65.168 c 0.144,0 0.287,0.017 0.429,0.043 0.046,0.008 0.09,0.02 0.135,0.031 0.093,0.022 0.184,0.051 0.275,0.085 0.049,0.018 0.098,0.036 0.146,0.058 0.083,0.038 0.164,0.084 0.244,0.133 0.043,0.025 0.088,0.047 0.128,0.075 0.005,0.003 0.01,0.005 0.014,0.008 0.031,0.022 0.054,0.05 0.084,0.072 0.09,0.071 0.179,0.142 0.259,0.224 0.044,0.046 0.08,0.097 0.12,0.146 0.058,0.07 0.117,0.139 0.167,0.215 0.038,0.058 0.066,0.12 0.098,0.181 0.04,0.075 0.082,0.149 0.114,0.229 0.028,0.069 0.045,0.141 0.066,0.212 0.022,0.076 0.049,0.15 0.064,0.229 0.017,0.095 0.022,0.191 0.028,0.287 0.004,0.053 0.016,0.104 0.016,0.159 0,0.006 -0.002,0.012 -0.002,0.019 0,0.11 -0.017,0.22 -0.033,0.33 -0.007,0.047 -0.007,0.095 -0.016,0.141 -0.014,0.065 -0.04,0.128 -0.06,0.192 -0.026,0.087 -0.047,0.177 -0.083,0.26 -0.011,0.025 -0.028,0.049 -0.041,0.075 -0.056,0.118 -0.117,0.234 -0.192,0.341 -0.002,0.004 -0.003,0.008 -0.006,0.012 L 3.312,3.59 h 29.277 v -38.115 c 0,-1.319 1.068,-2.387 2.387,-2.387 h 17.901 c 1.32,0 2.387,1.068 2.387,2.387 0,1.319 -1.067,2.387 -2.387,2.387 H 37.363 Z"
                     inkscape:connector-curvature="0"/></g><g transform="translate(98.4336,128.8501)" id="g24"><path id="path26" style="fill:#231f20;fill-opacity:1;fill-rule:nonzero;stroke:none"
                     d="m 0,0 c 3.781,0 6.853,-3.072 6.853,-6.853 0,-3.776 -3.072,-6.848 -6.853,-6.848 -3.781,0 -6.853,3.072 -6.853,6.848 C -6.853,-3.072 -3.781,0 0,0 m 0,-18.475 c 6.41,0 11.627,5.212 11.627,11.622 0,6.41 -5.217,11.627 -11.627,11.627 -6.41,0 -11.627,-5.217 -11.627,-11.627 0,-6.41 5.217,-11.622 11.627,-11.622"
                     inkscape:connector-curvature="0"/></g></g></g></g></svg>