<?xml version="1.0" encoding="UTF-8"?>
<svg xmlns:foaf="http://xmlns.com/foaf/0.1/" xmlns:svg="http://www.w3.org/2000/svg"
     xmlns:dc="http://purl.org/dc/elements/1.1/"
     xmlns:crm="http://www.cidoc-crm.org/cidoc-crm/"
     xmlns="http://www.w3.org/2000/svg"
     xmlns:sodipodi="http://sodipodi.sourceforge.net/DTD/sodipodi-0.dtd"
     xmlns:cc="http://creativecommons.org/ns#"
     xmlns:inkscape="http://www.inkscape.org/namespaces/inkscape"
     xmlns:nmo="http://nomisma.org/ontology#"
     xmlns:rdf="http://www.w3.org/1999/02/22-rdf-syntax-ns#"
     width="400"
     height="400"
     xml:space="preserve"
     viewBox="0 0 392 312">
  <title property="dc:title">Monogram 1319</title><desc proprety="dc:description">Monogram 1319 published by Nomisma.org. See matching URIs and bibliographic references for further information about the usage of this symbol on coinage.</desc>
    <desc xmlns:xlink="http://www.w3.org/1999/xlink" property="dc:creator">Corpus Nummorum https://www.corpus-nummorum.eu</desc>
    <desc xmlns:xlink="http://www.w3.org/1999/xlink">lettercomb: ΑΔΡ</desc>    
    <metadata><rdf:RDF><cc:Work rdf:about="https://nomisma.org/svg/monogram.01319.svg"><dc:title>Monogram 1319</dc:title><dc:description>Monogram 1319 published by Nomisma.org. See matching URIs and bibliographic references for further information about the usage of this symbol on coinage.</dc:description><foaf:focus rdf:resource="http://nomisma.org/symbol/monogram.01319"/><dc:format>image/svg+xml</dc:format><dc:type rdf:resource="http://purl.org/dc/dcmitype/StillImage"/><dc:creator rdf:resource="http://nomisma.org/editor/vstolba"/><cc:license rdf:resource="https://creativecommons.org/choose/mark/"/><crm:P106_is_composed_of>Α</crm:P106_is_composed_of><crm:P106_is_composed_of>Δ</crm:P106_is_composed_of><crm:P106_is_composed_of>Ρ</crm:P106_is_composed_of></cc:Work></rdf:RDF></metadata>
    <path xmlns:xlink="http://www.w3.org/1999/xlink"
         d="M192.2 1.3c-2.9 1.6-2.2.6-53.2 80.7-3.7 5.8-12.4 19.5-19.5 30.5-7 11-18 28.1-24.2 38-6.3 9.9-12.1 18.6-12.8 19.4-1.1 1.1-1.3-10.6-1.4-65.8-.1-37.4-.5-68.1-1-69.5-.5-1.3-2.2-3.3-3.8-4.6-2.7-2.1-3.4-2.2-15.3-1.7-33.1 1.4-51.5 14-58.6 39.8C-.1 77-.1 99.9 2.3 109c6.6 24.6 22.7 37.5 49.4 39.8l8.8.7.8 26.3.7 26.4-9.3 14.6c-5.1 8.1-19 29.8-30.7 48.2-24.1 37.7-24.5 38.5-18.2 44.1L7 312h188.6c206.8 0 192.7.4 195.4-6 1.9-4.5.8-7.8-6.6-19.2-3.7-5.6-21.6-33.9-39.9-62.8-18.3-28.9-48.7-76.8-67.5-106.5-18.8-29.7-42.9-67.8-53.6-84.6C210 11.7 203.3 2 201.5 1.2c-3.3-1.5-6.4-1.5-9.3.1zm36.3 77.2c16.4 25.8 37.1 58.5 46 72.5 8.8 14 17 26.9 18 28.7l1.8 3.1-3.9 4.5c-2.1 2.5-24.1 25.7-48.9 51.6l-45 47.1-3.1-3.3C172.3 261.1 99 183.5 99 182.8c0-.5 8.4-14.1 18.7-30.1C153 97.5 159.4 87.5 165.5 78c3.3-5.2 11.7-18.4 18.5-29.2 9.5-14.9 12.8-19.4 13.6-18.5.7.7 14.6 22.3 30.9 48.2zM61.2 102.9l.3 26.3-6.6-.6c-3.7-.3-9.8-1.5-13.5-2.7-5.5-1.7-7.8-3.1-11.5-6.8-6.5-6.7-8.1-11.8-8.6-27.8-.5-11.4-.2-14.1 1.5-20 4.3-14 14.8-20.8 34.7-22.5l3-.3.2 14c.2 7.7.4 25.9.5 40.4zm62.9 136.3c20.1 21.1 39.6 41.6 43.3 45.5l6.8 7.3H82v-41.6c0-41.2 0-41.5 2.3-45.4 1.2-2.2 2.5-4 2.8-4 .3 0 17 17.2 37 38.2zm192.9-21c5.7 9 16.6 26.2 24.3 38.3 7.7 12.1 15.9 25 18.3 28.7l4.4 6.8H218.8l6.8-7.3c33-35.1 79.8-83.6 80.4-83.2.4.3 5.4 7.8 11 16.7zM61.7 291.7c-.2.2-7.7.2-16.6.1l-16.2-.3 6.7-10.5c3.7-5.8 11-17.3 16.3-25.5l9.6-15 .3 25.4c.1 14 .1 25.6-.1 25.8z"/>
</svg>