<?xml version="1.0" encoding="UTF-8"?>
<svg xmlns:foaf="http://xmlns.com/foaf/0.1/" xmlns:svg="http://www.w3.org/2000/svg"
     xmlns:dc="http://purl.org/dc/elements/1.1/"
     xmlns:crm="http://www.cidoc-crm.org/cidoc-crm/"
     xmlns="http://www.w3.org/2000/svg"
     xmlns:sodipodi="http://sodipodi.sourceforge.net/DTD/sodipodi-0.dtd"
     xmlns:cc="http://creativecommons.org/ns#"
     xmlns:inkscape="http://www.inkscape.org/namespaces/inkscape"
     xmlns:nmo="http://nomisma.org/ontology#"
     xmlns:rdf="http://www.w3.org/1999/02/22-rdf-syntax-ns#"
     viewBox="0 0 144.56267 108.504"
     height="108.504"
     width="144.56267"
     xml:space="preserve"
     id="svg2"
     version="1.1"
     sodipodi:docname="pg_0037.svg"
     inkscape:version="0.92.3 (2405546, 2018-03-11)"><sodipodi:namedview pagecolor="#ffffff" bordercolor="#666666" borderopacity="1"
                       objecttolerance="10"
                       gridtolerance="10"
                       guidetolerance="10"
                       inkscape:pageopacity="0"
                       inkscape:pageshadow="2"
                       inkscape:window-width="640"
                       inkscape:window-height="480"
                       id="namedview12"
                       showgrid="false"
                       inkscape:zoom="0.88500003"
                       inkscape:cx="80.94533"
                       inkscape:cy="42.932811"
                       inkscape:window-x="83"
                       inkscape:window-y="27"
                       inkscape:window-maximized="0"
                       inkscape:current-layer="svg2"/><metadata><rdf:RDF><cc:Work rdf:about="https://nomisma.org/svg/monogram.01561.svg"><dc:title>Monogram 1561</dc:title><dc:description>Monogram 1561 published by Nomisma.org. See matching URIs and bibliographic references for further information about the usage of this symbol on coinage.</dc:description><foaf:focus rdf:resource="http://nomisma.org/symbol/monogram.01561"/><dc:format>image/svg+xml</dc:format><dc:type rdf:resource="http://purl.org/dc/dcmitype/StillImage"/><cc:license rdf:resource="https://creativecommons.org/choose/mark/"/><crm:P106_is_composed_of>N</crm:P106_is_composed_of><crm:P106_is_composed_of>Z</crm:P106_is_composed_of><crm:P106_is_composed_of>O</crm:P106_is_composed_of><crm:P106_is_composed_of>E</crm:P106_is_composed_of></cc:Work></rdf:RDF></metadata><defs id="defs6"><clipPath id="clipPath18" clipPathUnits="userSpaceOnUse"><path id="path16" d="M 0,200 H 200 V 0 H 0 Z" inkscape:connector-curvature="0"/></clipPath></defs><g transform="matrix(1.3333333,0,0,-1.3333333,-52.387999,198.90453)" id="g10"><g id="g12"><g clip-path="url(#clipPath18)" id="g14"><g transform="translate(127.424,144.4044)" id="g20"><path id="path22" style="fill:#231f20;fill-opacity:1;fill-rule:nonzero;stroke:none"
                     d="m 0,0 c 3.781,0 6.853,-3.072 6.853,-6.853 0,-3.781 -3.072,-6.853 -6.853,-6.853 -3.781,0 -6.853,3.072 -6.853,6.853 C -6.853,-3.072 -3.781,0 0,0 m -2.387,-70.648 -55.904,23.106 h 55.904 z m -9.24,63.795 c 0,-5.592 3.971,-10.273 9.24,-11.378 v -24.537 h -65.541 v 20.498 h 9.323 c 1.32,0 2.387,1.068 2.387,2.387 0,1.319 -1.067,2.387 -2.387,2.387 h -17.444 l 19.09,18.153 c 0.709,0.672 0.933,1.707 0.569,2.616 -0.359,0.904 -1.24,1.501 -2.215,1.501 h -23.421 c -1.319,0 -2.387,-1.068 -2.387,-2.387 0,-1.319 1.068,-2.387 2.387,-2.387 h 17.445 l -19.091,-18.153 c -0.708,-0.672 -0.932,-1.707 -0.568,-2.616 0.359,-0.904 1.24,-1.501 2.214,-1.501 h 9.324 v -45.584 c 0,-0.011 0,-0.034 0,-0.052 -0.01,-1.142 -0.42,-3.057 -3.072,-3.057 -5.828,0 -7.585,0 -7.585,9.972 0,1.319 -1.068,2.386 -2.387,2.386 -1.319,0 -2.387,-1.067 -2.387,-2.386 0,-12.616 3.814,-14.746 12.359,-14.746 2.751,0 4.468,1.066 5.459,2.018 0.991,-0.952 2.713,-2.018 5.464,-2.018 8.545,0 12.358,2.13 12.358,14.746 0,1.319 -1.067,2.386 -2.387,2.386 -1.319,0 -2.387,-1.067 -2.387,-2.386 0,-9.972 -1.757,-9.972 -7.584,-9.972 -2.657,0 -3.068,1.91 -3.077,3.057 0,0.018 0,0.041 0,0.052 v 19.13 l 66.991,-27.689 c 0.006,-0.002 0.011,-0.004 0.016,-0.006 l 0.007,-0.003 c 0.036,-0.015 0.072,-0.02 0.108,-0.033 0.11,-0.039 0.219,-0.078 0.335,-0.102 0.158,-0.031 0.315,-0.047 0.471,-0.047 h 17.902 c 1.319,0 2.387,1.067 2.387,2.387 0,1.319 -1.068,2.387 -2.387,2.387 H 2.387 v 52.418 h 14.927 c 1.32,0 2.387,1.067 2.387,2.387 0,1.319 -1.067,2.387 -2.387,2.387 H 8.61 c 1.868,2.063 3.017,4.789 3.017,7.785 0,6.41 -5.217,11.627 -11.627,11.627 -6.41,0 -11.627,-5.217 -11.627,-11.627"
                     inkscape:connector-curvature="0"/></g></g></g></g></svg>