<?xml version="1.0" encoding="UTF-8"?>
<svg xmlns:foaf="http://xmlns.com/foaf/0.1/" xmlns:svg="http://www.w3.org/2000/svg"
     xmlns:dc="http://purl.org/dc/elements/1.1/"
     xmlns:crm="http://www.cidoc-crm.org/cidoc-crm/"
     xmlns="http://www.w3.org/2000/svg"
     xmlns:sodipodi="http://sodipodi.sourceforge.net/DTD/sodipodi-0.dtd"
     xmlns:cc="http://creativecommons.org/ns#"
     xmlns:inkscape="http://www.inkscape.org/namespaces/inkscape"
     xmlns:nmo="http://nomisma.org/ontology#"
     xmlns:rdf="http://www.w3.org/1999/02/22-rdf-syntax-ns#"
     viewBox="0 0 147.85601 135.624"
     height="135.62399"
     width="147.856"
     xml:space="preserve"
     id="svg2"
     version="1.1"
     sodipodi:docname="pg_0022.svg"
     inkscape:version="0.92.3 (2405546, 2018-03-11)"><sodipodi:namedview pagecolor="#ffffff" bordercolor="#666666" borderopacity="1"
                       objecttolerance="10"
                       gridtolerance="10"
                       guidetolerance="10"
                       inkscape:pageopacity="0"
                       inkscape:pageshadow="2"
                       inkscape:window-width="614"
                       inkscape:window-height="450"
                       id="namedview12"
                       showgrid="false"
                       inkscape:zoom="0.83090395"
                       inkscape:cx="78.925609"
                       inkscape:cy="67.811728"
                       inkscape:window-x="83"
                       inkscape:window-y="27"
                       inkscape:window-maximized="0"
                       inkscape:current-layer="svg2"/><metadata><rdf:RDF><cc:Work rdf:about="https://nomisma.org/svg/monogram.01546.svg"><dc:title>Monogram 1546</dc:title><dc:description>Monogram 1546 published by Nomisma.org. See matching URIs and bibliographic references for further information about the usage of this symbol on coinage.</dc:description><foaf:focus rdf:resource="http://nomisma.org/symbol/monogram.01546"/><dc:format>image/svg+xml</dc:format><dc:type rdf:resource="http://purl.org/dc/dcmitype/StillImage"/><cc:license rdf:resource="https://creativecommons.org/choose/mark/"/></cc:Work></rdf:RDF></metadata><defs id="defs6"><clipPath id="clipPath18" clipPathUnits="userSpaceOnUse"><path id="path16" d="M 0,213.021 H 213.021 V 0 H 0 Z"
               inkscape:connector-curvature="0"/></clipPath></defs><g transform="matrix(1.3333333,0,0,-1.3333333,-63.088398,209.82626)" id="g10"><g id="g12"><g clip-path="url(#clipPath18)" id="g14"><g transform="translate(101.6553,117.2517)" id="g20"><path id="path22" style="fill:#231f20;fill-opacity:1;fill-rule:nonzero;stroke:none"
                     d="m 0,0 c 14.075,11.574 28.268,14.223 33.878,14.827 v -51.453 z m -34.05,35.344 c 3.781,0 6.853,-3.072 6.853,-6.848 0,-3.781 -3.072,-6.853 -6.853,-6.853 -3.776,0 -6.848,3.072 -6.848,6.853 0,3.776 3.072,6.848 6.848,6.848 m 88.217,-20.34 c 1.319,0 2.386,1.068 2.386,2.387 0,1.319 -1.067,2.387 -2.386,2.387 H 36.265 c -0.01,0 -0.019,-0.003 -0.029,-0.003 -0.004,0.001 -0.008,0.002 -0.013,0.003 C 35.631,19.769 21.473,19.414 5.352,9.489 -6.971,1.902 -22.393,-12.745 -31.663,-40.566 v 53.859 h 15.514 c 1.32,0 2.387,1.068 2.387,2.387 0,1.32 -1.067,2.387 -2.387,2.387 h -12.794 c 3.854,1.896 6.519,5.852 6.519,10.429 0,6.41 -5.216,11.622 -11.626,11.622 -6.41,0 -11.622,-5.212 -11.622,-11.622 0,-4.577 2.663,-8.533 6.516,-10.429 h -12.796 c -1.319,0 -2.387,-1.067 -2.387,-2.387 0,-1.319 1.068,-2.387 2.387,-2.387 h 15.515 v -72.506 c 0,-0.003 10e-4,-0.006 10e-4,-0.009 0,-0.12 0.017,-0.238 0.036,-0.355 0.006,-0.041 0.005,-0.084 0.014,-0.124 0.013,-0.066 0.04,-0.128 0.059,-0.193 0.16,-0.535 0.492,-0.995 0.945,-1.3 0.042,-0.029 0.091,-0.048 0.135,-0.074 0.09,-0.052 0.177,-0.106 0.274,-0.146 0.061,-0.026 0.129,-0.04 0.194,-0.061 0.086,-0.027 0.169,-0.06 0.259,-0.077 0.006,-0.002 0.011,-0.005 0.018,-0.006 0.132,-0.025 0.268,-0.034 0.404,-0.037 0.016,0 0.031,-0.005 0.048,-0.005 h 17.901 c 1.32,0 2.387,1.068 2.387,2.387 0,1.319 -1.067,2.387 -2.387,2.387 h -14.975 c 5.617,26.411 16.298,43.11 27.537,53.669 l 37.465,-40.504 v -15.552 c 0,-1.319 1.068,-2.387 2.387,-2.387 h 17.902 c 1.319,0 2.386,1.068 2.386,2.387 0,1.319 -1.067,2.387 -2.386,2.387 H 38.652 v 33.528 h 15.515 c 1.319,0 2.386,1.068 2.386,2.387 0,1.319 -1.067,2.387 -2.386,2.387 H 38.652 v 33.528 z"
                     inkscape:connector-curvature="0"/></g></g></g></g></svg>