<?xml version="1.0" encoding="UTF-8"?>
<svg xmlns:foaf="http://xmlns.com/foaf/0.1/" xmlns:svg="http://www.w3.org/2000/svg"
     xmlns:dc="http://purl.org/dc/elements/1.1/"
     xmlns:crm="http://www.cidoc-crm.org/cidoc-crm/"
     xmlns="http://www.w3.org/2000/svg"
     xmlns:sodipodi="http://sodipodi.sourceforge.net/DTD/sodipodi-0.dtd"
     xmlns:cc="http://creativecommons.org/ns#"
     xmlns:inkscape="http://www.inkscape.org/namespaces/inkscape"
     xmlns:nmo="http://nomisma.org/ontology#"
     xmlns:rdf="http://www.w3.org/1999/02/22-rdf-syntax-ns#"
     width="400"
     height="400"
     xml:space="preserve"
     viewBox="0 0 369 367">
  <title property="dc:title">Monogram 1316</title><desc proprety="dc:description">Monogram 1316 published by Nomisma.org. See matching URIs and bibliographic references for further information about the usage of this symbol on coinage.</desc>
    <desc xmlns:xlink="http://www.w3.org/1999/xlink" property="dc:creator">Corpus Nummorum https://www.corpus-nummorum.eu</desc>
    <desc xmlns:xlink="http://www.w3.org/1999/xlink">lettercomb: ΑΗΙΠΡΥ</desc>    
    <metadata><rdf:RDF><cc:Work rdf:about="https://nomisma.org/svg/monogram.01316.svg"><dc:title>Monogram 1316</dc:title><dc:description>Monogram 1316 published by Nomisma.org. See matching URIs and bibliographic references for further information about the usage of this symbol on coinage.</dc:description><foaf:focus rdf:resource="http://nomisma.org/symbol/monogram.01316"/><dc:format>image/svg+xml</dc:format><dc:type rdf:resource="http://purl.org/dc/dcmitype/StillImage"/><dc:creator rdf:resource="http://nomisma.org/editor/vstolba"/><cc:license rdf:resource="https://creativecommons.org/choose/mark/"/><crm:P106_is_composed_of>Α</crm:P106_is_composed_of><crm:P106_is_composed_of>Η</crm:P106_is_composed_of><crm:P106_is_composed_of>Ι</crm:P106_is_composed_of><crm:P106_is_composed_of>Π</crm:P106_is_composed_of><crm:P106_is_composed_of>Ρ</crm:P106_is_composed_of><crm:P106_is_composed_of>Υ</crm:P106_is_composed_of><crm:P106_is_composed_of>Ο</crm:P106_is_composed_of><crm:P106_is_composed_of>Ω</crm:P106_is_composed_of><crm:P106_is_composed_of>Δ</crm:P106_is_composed_of><crm:P106_is_composed_of>Ε</crm:P106_is_composed_of></cc:Work></rdf:RDF></metadata>
    <path xmlns:xlink="http://www.w3.org/1999/xlink"
         d="M142.1 2.7c-1.6 1.6-15 21.5-29.8 44.3-61.4 94.4-91.6 140.6-92.9 142-1.2 1.2-1.4-12.1-1.4-90.4V6.8l-2.9-2.9c-4-4-8.2-3.9-12.3.2L-.3 7.2l.6 99.6c.4 54.9.7 134.3.7 176.5v76.9l2.9 2.9c2 2 3.9 2.9 6.1 2.9 2.2 0 4.1-.9 6.1-2.9l2.9-2.9V227H139.7l.6 36.2c.4 19.9.7 50 .7 67v31l2.9 2.9c4 3.9 8.2 3.9 12.2-.1l3-3-.7-67-.7-67H282v133.2l2.9 2.9c4 3.9 8.2 3.9 12.2 0l2.9-2.9V228.4l8.9-1.2c16.6-2.2 31.3-8 42.6-16.5 27.2-20.7 21.6-53.6-12-70.1-9-4.5-23-8.5-32.2-9.3l-7.3-.6V5.8l-2.9-2.9c-3.7-3.6-7.9-3.8-11.8-.5l-2.8 2.4L282 98l-.5 93.2-17.1-25.3c-22.7-33.7-76.1-113-94.2-139.9-7.9-11.8-15.5-22.5-16.9-23.8-3.3-3-7.6-2.8-11.2.5zM170 57.8c11.5 17.2 21 31.4 21 31.7 0 .4-40.7 61.3-42 62.8-.3.4-10.2-13.3-21.9-30.4-17-24.7-21.2-31.4-20.5-32.9 2.1-4.4 40.9-63 41.6-62.8.4.2 10.2 14.4 21.8 31.6zm67.1 99.5c19 28.1 34.4 51.5 34.2 51.9-.2.5-25.8.8-56.9.8H158v-39l21.8-32.4c11.9-17.9 21.9-32.5 22.2-32.6.3 0 16.1 23.1 35.1 51.3zM118.4 141l21.6 31.5V210H84c-30.8 0-56-.2-56-.5 0-.5 3.5-5.9 35-54 10.7-16.5 22.3-34.1 25.5-39.2 4.7-7.1 6.3-8.9 7.2-8 .6.7 10.9 15.4 22.7 32.7zm197.1 10.1c20.4 4.9 35.5 17 35.5 28.4 0 11.4-14.9 23.2-35.9 28.4-4.7 1.2-10 2.1-11.8 2.1H300v-61.9l3.8.5c2 .3 7.3 1.4 11.7 2.5z"/>
</svg>