<?xml version="1.0" encoding="UTF-8"?>
<svg xmlns:foaf="http://xmlns.com/foaf/0.1/" xmlns:svg="http://www.w3.org/2000/svg"
     xmlns:dc="http://purl.org/dc/elements/1.1/"
     xmlns:crm="http://www.cidoc-crm.org/cidoc-crm/"
     xmlns="http://www.w3.org/2000/svg"
     xmlns:sodipodi="http://sodipodi.sourceforge.net/DTD/sodipodi-0.dtd"
     xmlns:cc="http://creativecommons.org/ns#"
     xmlns:inkscape="http://www.inkscape.org/namespaces/inkscape"
     xmlns:nmo="http://nomisma.org/ontology#"
     xmlns:rdf="http://www.w3.org/1999/02/22-rdf-syntax-ns#"
     viewBox="0 0 162.57626 108.5592"
     height="108.5592"
     width="162.57626"
     xml:space="preserve"
     id="svg2"
     version="1.1"
     sodipodi:docname="pg_0010.svg"
     inkscape:version="0.92.3 (2405546, 2018-03-11)"><sodipodi:namedview pagecolor="#ffffff" bordercolor="#666666" borderopacity="1"
                       objecttolerance="10"
                       gridtolerance="10"
                       guidetolerance="10"
                       inkscape:pageopacity="0"
                       inkscape:pageshadow="2"
                       inkscape:window-width="614"
                       inkscape:window-height="450"
                       id="namedview14"
                       showgrid="false"
                       inkscape:zoom="0.89388969"
                       inkscape:cx="90.215207"
                       inkscape:cy="56.655999"
                       inkscape:window-x="83"
                       inkscape:window-y="27"
                       inkscape:window-maximized="0"
                       inkscape:current-layer="svg2"/><metadata><rdf:RDF><cc:Work rdf:about="https://nomisma.org/svg/monogram.01540.svg"><dc:title>Monogram 1540</dc:title><dc:description>Monogram 1540 published by Nomisma.org. See matching URIs and bibliographic references for further information about the usage of this symbol on coinage.</dc:description><foaf:focus rdf:resource="http://nomisma.org/symbol/monogram.01540"/><dc:format>image/svg+xml</dc:format><dc:type rdf:resource="http://purl.org/dc/dcmitype/StillImage"/><cc:license rdf:resource="https://creativecommons.org/choose/mark/"/><crm:P106_is_composed_of>S</crm:P106_is_composed_of><crm:P106_is_composed_of>R</crm:P106_is_composed_of><crm:P106_is_composed_of>M</crm:P106_is_composed_of></cc:Work></rdf:RDF></metadata><defs id="defs6"><clipPath id="clipPath18" clipPathUnits="userSpaceOnUse"><path id="path16" d="M 0,198.011 H 198.011 V 0 H 0 Z"
               inkscape:connector-curvature="0"/></clipPath></defs><g transform="matrix(1.3333333,0,0,-1.3333333,-41.792132,183.91053)" id="g10"><g id="g12"><g clip-path="url(#clipPath18)" id="g14"><g transform="translate(95.9851,110.0039)" id="g20"><path id="path22" style="fill:#231f20;fill-opacity:1;fill-rule:nonzero;stroke:none"
                     d="M 0,0 25.888,19.038 V -19.038 Z M -36.371,-20.828 V 20.828 L -8.049,0 Z M 41.371,6.447 c 0,-9.721 -6.592,-15.131 -10.709,-17.566 V 20.819 C 34.555,19.666 41.371,16.25 41.371,6.447 m 15.034,-41.099 -23.714,19.197 c 5.012,2.869 13.453,9.536 13.453,21.902 0,14.058 -11.375,18.994 -17.499,19.663 -0.013,0.002 -0.024,0.003 -0.037,0.004 -0.029,0.003 -0.061,0.008 -0.09,0.011 -0.039,0.005 -0.077,-0.001 -0.116,0.001 -0.043,0.003 -0.084,0.013 -0.127,0.013 -0.015,0 -0.028,-0.004 -0.043,-0.004 -0.04,-0.001 -0.078,-0.003 -0.117,-0.006 C 28.04,26.125 27.968,26.113 27.896,26.101 27.85,26.094 27.803,26.09 27.758,26.08 27.726,26.072 27.694,26.063 27.663,26.055 27.595,26.036 27.53,26.013 27.465,25.989 27.411,25.969 27.357,25.953 27.306,25.93 27.277,25.917 27.25,25.902 27.223,25.888 27.172,25.863 27.125,25.834 27.077,25.806 27.011,25.768 26.946,25.73 26.885,25.686 26.878,25.681 26.87,25.678 26.863,25.673 L -4.024,2.959 -37.346,27.463 c -0.007,0.006 -0.015,0.008 -0.022,0.014 -0.087,0.062 -0.18,0.114 -0.275,0.164 -0.05,0.027 -0.097,0.058 -0.148,0.081 -0.07,0.031 -0.144,0.051 -0.217,0.076 -0.078,0.026 -0.156,0.055 -0.235,0.072 -0.058,0.013 -0.119,0.017 -0.179,0.025 -0.097,0.014 -0.194,0.028 -0.291,0.03 -0.016,0 -0.03,0.004 -0.045,0.004 -0.046,0 -0.09,-0.011 -0.135,-0.013 -0.046,0.002 -0.089,0.013 -0.135,0.013 h -23.226 c -1.319,0 -2.387,-1.067 -2.387,-2.387 0,-1.319 1.068,-2.386 2.387,-2.386 h 21.109 v -70.488 h -20.834 c -1.319,0 -2.387,-1.068 -2.387,-2.387 0,-1.319 1.068,-2.387 2.387,-2.387 h 23.221 c 1.32,0 2.387,1.068 2.387,2.387 v 22.972 l 32.347,23.788 29.912,-21.997 v -24.763 c 0,-1.319 1.068,-2.387 2.387,-2.387 1.32,0 2.387,1.068 2.387,2.387 v 29.765 l 22.741,-18.409 c 0.443,-0.359 0.974,-0.531 1.501,-0.531 0.695,0 1.385,0.303 1.855,0.886 0.83,1.025 0.672,2.526 -0.354,3.356"
                     inkscape:connector-curvature="0"/></g><g transform="translate(91.9392,86.9275)" id="g24"><path id="path26" style="fill:#231f20;fill-opacity:1;fill-rule:nonzero;stroke:none"
                     d="m 0,0 c -7.547,0.671 -10.153,-4.07 -10.592,-6.876 -0.172,-0.672 -0.377,-2.149 0.457,-3.879 1.087,-2.256 3.488,-4.014 7.133,-5.235 5.743,-1.921 6.61,-3.315 6.294,-6.541 -0.136,-1.422 -0.705,-1.991 -1.119,-2.294 -1.515,-1.109 -4.392,-0.815 -5.352,-0.61 -0.886,0.172 -3.389,0.969 -4.35,2.61 -0.666,1.133 -2.125,1.506 -3.268,0.854 -1.137,-0.667 -1.519,-2.131 -0.853,-3.268 2.233,-3.814 7.063,-4.793 7.515,-4.872 0.257,-0.056 1.459,-0.303 3.026,-0.303 1.841,0 4.177,0.34 6.079,1.72 1.776,1.287 2.839,3.263 3.077,5.702 0.727,7.454 -4.313,9.785 -9.539,11.533 -3.962,1.324 -4.573,2.909 -4.517,3.273 l 0.121,0.489 c 0.126,0.802 0.933,3.427 5.422,2.942 4.312,-0.42 5.026,-3.044 5.1,-3.371 0.242,-1.286 1.525,-2.135 2.741,-1.916 1.301,0.219 2.178,1.455 1.958,2.751 C 9.287,-7.025 8.14,-0.793 0,0"
                     inkscape:connector-curvature="0"/></g></g></g></g></svg>