<?xml version="1.0" encoding="UTF-8"?>
<svg xmlns:foaf="http://xmlns.com/foaf/0.1/" xmlns:svg="http://www.w3.org/2000/svg"
     xmlns:dc="http://purl.org/dc/elements/1.1/"
     xmlns:crm="http://www.cidoc-crm.org/cidoc-crm/"
     xmlns="http://www.w3.org/2000/svg"
     xmlns:sodipodi="http://sodipodi.sourceforge.net/DTD/sodipodi-0.dtd"
     xmlns:cc="http://creativecommons.org/ns#"
     xmlns:inkscape="http://www.inkscape.org/namespaces/inkscape"
     xmlns:nmo="http://nomisma.org/ontology#"
     xmlns:rdf="http://www.w3.org/1999/02/22-rdf-syntax-ns#"
     viewBox="0 0 144.56267 108.504"
     height="108.504"
     width="144.56267"
     xml:space="preserve"
     id="svg2"
     version="1.1"
     sodipodi:docname="pg_0040.svg"
     inkscape:version="0.92.3 (2405546, 2018-03-11)"><sodipodi:namedview pagecolor="#ffffff" bordercolor="#666666" borderopacity="1"
                       objecttolerance="10"
                       gridtolerance="10"
                       guidetolerance="10"
                       inkscape:pageopacity="0"
                       inkscape:pageshadow="2"
                       inkscape:window-width="640"
                       inkscape:window-height="480"
                       id="namedview12"
                       showgrid="false"
                       inkscape:zoom="0.88500003"
                       inkscape:cx="67.873463"
                       inkscape:cy="54.251477"
                       inkscape:window-x="83"
                       inkscape:window-y="27"
                       inkscape:window-maximized="0"
                       inkscape:current-layer="svg2"/><metadata><rdf:RDF><cc:Work rdf:about="https://nomisma.org/svg/monogram.01564.svg"><dc:title>Monogram 1564</dc:title><dc:description>Monogram 1564 published by Nomisma.org. See matching URIs and bibliographic references for further information about the usage of this symbol on coinage.</dc:description><foaf:focus rdf:resource="http://nomisma.org/symbol/monogram.01564"/><dc:format>image/svg+xml</dc:format><dc:type rdf:resource="http://purl.org/dc/dcmitype/StillImage"/><cc:license rdf:resource="https://creativecommons.org/choose/mark/"/><crm:P106_is_composed_of>N</crm:P106_is_composed_of><crm:P106_is_composed_of>Z</crm:P106_is_composed_of><crm:P106_is_composed_of>O</crm:P106_is_composed_of><crm:P106_is_composed_of>E</crm:P106_is_composed_of></cc:Work></rdf:RDF></metadata><defs id="defs6"><clipPath id="clipPath18" clipPathUnits="userSpaceOnUse"><path id="path16" d="M 0,200 H 200 V 0 H 0 Z" inkscape:connector-curvature="0"/></clipPath></defs><g transform="matrix(1.3333333,0,0,-1.3333333,-65.459865,187.58586)" id="g10"><g id="g12"><g clip-path="url(#clipPath18)" id="g14"><g transform="translate(134.8409,92.5084)" id="g20"><path id="path22" style="fill:#231f20;fill-opacity:1;fill-rule:nonzero;stroke:none"
                     d="M 0,0 V -25.95 L -33.58,0 Z m -4.466,36.558 c 0,3.777 3.072,6.849 6.853,6.849 3.776,0 6.848,-3.072 6.848,-6.849 0,-3.78 -3.072,-6.852 -6.848,-6.852 -3.781,0 -6.853,3.072 -6.853,6.852 M 20.289,-28.424 H 4.774 v 52.423 h 14.923 c 1.319,0 2.386,1.068 2.386,2.387 0,1.32 -1.067,2.387 -2.386,2.387 h -8.703 c 1.867,2.064 3.015,4.79 3.015,7.785 0,6.411 -5.212,11.623 -11.622,11.623 -6.41,0 -11.627,-5.212 -11.627,-11.623 0,-5.591 3.971,-10.273 9.24,-11.377 V 4.774 h -39.757 l -21.18,16.368 h 4.719 c 1.32,0 2.387,1.067 2.387,2.387 0,1.319 -1.067,2.386 -2.387,2.386 h -17.444 l 19.09,18.149 c 0.709,0.671 0.932,1.706 0.569,2.615 -0.359,0.905 -1.24,1.502 -2.215,1.502 h -23.421 c -1.319,0 -2.387,-1.068 -2.387,-2.387 0,-1.32 1.068,-2.387 2.387,-2.387 h 17.445 L -81.285,25.258 c -0.708,-0.671 -0.932,-1.706 -0.568,-2.615 0.359,-0.905 1.24,-1.501 2.214,-1.501 h 9.324 v -45.584 c 0,-0.011 0,-0.032 0,-0.047 -0.01,-1.147 -0.42,-3.063 -3.072,-3.063 -5.828,0 -7.585,0 -7.585,9.972 0,1.319 -1.068,2.387 -2.387,2.387 -1.319,0 -2.387,-1.068 -2.387,-2.387 0,-12.615 3.813,-14.746 12.359,-14.746 2.751,0 4.468,1.066 5.459,2.019 0.99,-0.953 2.708,-2.019 5.459,-2.019 8.545,0 12.358,2.131 12.358,14.746 0,1.319 -1.067,2.387 -2.386,2.387 -1.32,0 -2.387,-1.068 -2.387,-2.387 0,-9.972 -1.758,-9.972 -7.585,-9.972 -2.652,0 -3.063,1.911 -3.072,3.058 0,0.017 0,0.04 0,0.052 v 43.11 L 0.928,-32.698 c 0.02,-0.016 0.041,-0.026 0.062,-0.041 0.053,-0.039 0.109,-0.073 0.166,-0.108 0.071,-0.042 0.142,-0.082 0.215,-0.116 0.055,-0.026 0.109,-0.05 0.165,-0.071 0.088,-0.034 0.177,-0.06 0.267,-0.083 0.049,-0.013 0.097,-0.027 0.147,-0.036 0.145,-0.027 0.29,-0.044 0.437,-0.044 h 17.902 c 1.319,0 2.387,1.067 2.387,2.387 0,1.319 -1.068,2.386 -2.387,2.386"
                     inkscape:connector-curvature="0"/></g></g></g></g></svg>