<?xml version="1.0" encoding="UTF-8"?>
<svg xmlns:foaf="http://xmlns.com/foaf/0.1/" xmlns:svg="http://www.w3.org/2000/svg"
     xmlns:dc="http://purl.org/dc/elements/1.1/"
     xmlns:crm="http://www.cidoc-crm.org/cidoc-crm/"
     xmlns="http://www.w3.org/2000/svg"
     xmlns:sodipodi="http://sodipodi.sourceforge.net/DTD/sodipodi-0.dtd"
     xmlns:cc="http://creativecommons.org/ns#"
     xmlns:inkscape="http://www.inkscape.org/namespaces/inkscape"
     xmlns:nmo="http://nomisma.org/ontology#"
     xmlns:rdf="http://www.w3.org/1999/02/22-rdf-syntax-ns#"
     id="Export"
     viewBox="0 0 270.99921 271.9993"
     version="1.1"
     sodipodi:docname="monogram.bop.297.svg"
     width="270.99921"
     height="271.9993"
     inkscape:version="0.92.5 (2060ec1f9f, 2020-04-08)">
   <metadata>
      <rdf:RDF>
         <cc:Work rdf:about="https://nomisma.org/svg/monogram.00289.svg">
            <dc:title>Monogram 289</dc:title>
            <dc:description>Monogram 289 published by Nomisma.org. See matching URIs and bibliographic references for further information about the usage of this symbol on coinage.</dc:description>
            <foaf:focus rdf:resource="http://nomisma.org/symbol/monogram.00289"/>
            <dc:format>image/svg+xml</dc:format>
            <dc:type rdf:resource="http://purl.org/dc/dcmitype/StillImage"/>
            <dc:creator rdf:resource="http://nomisma.org/editor/ltomanelli"/>
            <cc:license rdf:resource="https://creativecommons.org/choose/mark/"/>
         </cc:Work>
      </rdf:RDF>
   </metadata>
   <sodipodi:namedview pagecolor="#ffffff" bordercolor="#666666" borderopacity="1"
                       objecttolerance="10"
                       gridtolerance="10"
                       guidetolerance="10"
                       inkscape:pageopacity="0"
                       inkscape:pageshadow="2"
                       inkscape:window-width="640"
                       inkscape:window-height="480"
                       id="namedview69"
                       showgrid="false"
                       inkscape:zoom="0.44277674"
                       inkscape:cx="121.49974"
                       inkscape:cy="143.49969"
                       inkscape:window-x="88"
                       inkscape:window-y="27"
                       inkscape:window-maximized="0"
                       inkscape:current-layer="Export"/>
   <defs id="defs4">
      <style id="style2">.cls-1{fill:none;}.cls-1,.cls-2{stroke:#000;stroke-linecap:round;stroke-linejoin:round;stroke-width:20px;}</style>
   </defs>
   <title property="dc:title">Monogram 289</title>
   <desc proprety="dc:description">Monogram 289 published by Nomisma.org. See matching URIs and bibliographic references for further information about the usage of this symbol on coinage.</desc>
   <polygon class="cls-1"
            points="328,178 354,203 371,224 371,292 323,347 243,347 178,284 178,238 252,178 "
            id="polygon8"
            style="fill:none;stroke:#000000;stroke-width:20px;stroke-linecap:round;stroke-linejoin:round"
            transform="translate(-145.00026,-138.00039)"/>
   <polyline class="cls-2" points="174 234 155 201 189 169 247 178" id="polyline10"
             style="stroke:#000000;stroke-width:20px;stroke-linecap:round;stroke-linejoin:round"
             transform="translate(-145.00026,-138.00039)"/>
   <polyline class="cls-2" points="253 169 253 148 328 173" id="polyline12"
             style="stroke:#000000;stroke-width:20px;stroke-linecap:round;stroke-linejoin:round"
             transform="translate(-145.00026,-138.00039)"/>
   <polyline class="cls-2" points="353 194 386 194 403 214 403 234 378 250" id="polyline14"
             style="stroke:#000000;stroke-width:20px;stroke-linecap:round;stroke-linejoin:round"
             transform="translate(-145.00026,-138.00039)"/>
   <polyline class="cls-2" points="378 298 406 320 356 368 334 368 328 353" id="polyline16"
             style="stroke:#000000;stroke-width:20px;stroke-linecap:round;stroke-linejoin:round"
             transform="translate(-145.00026,-138.00039)"/>
   <polyline class="cls-2" points="176 292 176 350 239 350" id="polyline18"
             style="stroke:#000000;stroke-width:20px;stroke-linecap:round;stroke-linejoin:round"
             transform="translate(-145.00026,-138.00039)"/>
   <polyline class="cls-2" points="247 356 247 400 328 378 325 353" id="polyline20"
             style="stroke:#000000;stroke-width:20px;stroke-linecap:round;stroke-linejoin:round"
             transform="translate(-145.00026,-138.00039)"/>
   <polyline class="cls-2" points="208 360 236 376 247 347" id="polyline22"
             style="stroke:#000000;stroke-width:20px;stroke-linecap:round;stroke-linejoin:round"
             transform="translate(-145.00026,-138.00039)"/>
   <line class="cls-2" x1="207.99974" y1="72.999611" x2="207.99974" y2="116.99961"
         id="line24"
         style="stroke:#000000;stroke-width:20px;stroke-linecap:round;stroke-linejoin:round"/>
   <polyline class="cls-2" points="204 298 228 298 228 321 253 333" id="polyline26"
             style="stroke:#000000;stroke-width:20px;stroke-linecap:round;stroke-linejoin:round"
             transform="translate(-145.00026,-138.00039)"/>
   <polyline class="cls-2" points="259 340 259 321 290 321 287.5 347" id="polyline28"
             style="stroke:#000000;stroke-width:20px;stroke-linecap:round;stroke-linejoin:round"
             transform="translate(-145.00026,-138.00039)"/>
   <polyline class="cls-2" points="315 339 319.85 333 353 292" id="polyline30"
             style="stroke:#000000;stroke-width:20px;stroke-linecap:round;stroke-linejoin:round"
             transform="translate(-145.00026,-138.00039)"/>
   <line class="cls-2" x1="212.99974" y1="121.99961" x2="212.99974" y2="153.99962"
         id="line32"
         style="stroke:#000000;stroke-width:20px;stroke-linecap:round;stroke-linejoin:round"/>
   <line class="cls-2" x1="212.99974" y1="245.99962" x2="212.99974" y2="223.99962"
         id="line34"
         style="stroke:#000000;stroke-width:20px;stroke-linecap:round;stroke-linejoin:round"/>
   <line class="cls-2" x1="165.99974" y1="200.99962" x2="145.49974" y2="200.99962"
         id="line36"
         style="stroke:#000000;stroke-width:20px;stroke-linecap:round;stroke-linejoin:round"/>
   <polygon class="cls-1"
            points="328,178 354,203 371,224 371,292 323,347 243,347 178,284 178,238 252,178 "
            id="polygon38"
            style="fill:none;stroke:#000000;stroke-width:20px;stroke-linecap:round;stroke-linejoin:round"
            transform="translate(-145.00026,-138.00039)"/>
   <polyline class="cls-1" points="174 234 155 201 189 169 247 178" id="polyline40"
             style="fill:none;stroke:#000000;stroke-width:20px;stroke-linecap:round;stroke-linejoin:round"
             transform="translate(-145.00026,-138.00039)"/>
   <polyline class="cls-1" points="253 169 253 148 328 173" id="polyline42"
             style="fill:none;stroke:#000000;stroke-width:20px;stroke-linecap:round;stroke-linejoin:round"
             transform="translate(-145.00026,-138.00039)"/>
   <polyline class="cls-1" points="353 194 386 194 403 214 403 234 378 250" id="polyline44"
             style="fill:none;stroke:#000000;stroke-width:20px;stroke-linecap:round;stroke-linejoin:round"
             transform="translate(-145.00026,-138.00039)"/>
   <polyline class="cls-1" points="378 298 406 320 356 368 334 368 328 353" id="polyline46"
             style="fill:none;stroke:#000000;stroke-width:20px;stroke-linecap:round;stroke-linejoin:round"
             transform="translate(-145.00026,-138.00039)"/>
   <polyline class="cls-1" points="176 292 176 350 239 350" id="polyline48"
             style="fill:none;stroke:#000000;stroke-width:20px;stroke-linecap:round;stroke-linejoin:round"
             transform="translate(-145.00026,-138.00039)"/>
   <polyline class="cls-1" points="247 356 247 400 328 378 325 353" id="polyline50"
             style="fill:none;stroke:#000000;stroke-width:20px;stroke-linecap:round;stroke-linejoin:round"
             transform="translate(-145.00026,-138.00039)"/>
   <polyline class="cls-1" points="208 360 236 376 247 347" id="polyline52"
             style="fill:none;stroke:#000000;stroke-width:20px;stroke-linecap:round;stroke-linejoin:round"
             transform="translate(-145.00026,-138.00039)"/>
   <line class="cls-1" x1="207.99974" y1="72.999611" x2="207.99974" y2="116.99961"
         id="line54"
         style="fill:none;stroke:#000000;stroke-width:20px;stroke-linecap:round;stroke-linejoin:round"/>
   <polyline class="cls-1" points="204 298 228 298 228 321 253 333" id="polyline56"
             style="fill:none;stroke:#000000;stroke-width:20px;stroke-linecap:round;stroke-linejoin:round"
             transform="translate(-145.00026,-138.00039)"/>
   <polyline class="cls-1" points="259 340 259 321 290 321 287.5 347" id="polyline58"
             style="fill:none;stroke:#000000;stroke-width:20px;stroke-linecap:round;stroke-linejoin:round"
             transform="translate(-145.00026,-138.00039)"/>
   <polyline class="cls-1" points="315 339 319.85 333 353 292" id="polyline60"
             style="fill:none;stroke:#000000;stroke-width:20px;stroke-linecap:round;stroke-linejoin:round"
             transform="translate(-145.00026,-138.00039)"/>
   <line class="cls-1" x1="212.99974" y1="121.99961" x2="212.99974" y2="153.99962"
         id="line62"
         style="fill:none;stroke:#000000;stroke-width:20px;stroke-linecap:round;stroke-linejoin:round"/>
   <line class="cls-1" x1="212.99974" y1="245.99962" x2="212.99974" y2="223.99962"
         id="line64"
         style="fill:none;stroke:#000000;stroke-width:20px;stroke-linecap:round;stroke-linejoin:round"/>
   <line class="cls-1" x1="165.99974" y1="200.99962" x2="145.49974" y2="200.99962"
         id="line66"
         style="fill:none;stroke:#000000;stroke-width:20px;stroke-linecap:round;stroke-linejoin:round"/>
</svg>