<?xml version="1.0" encoding="UTF-8"?>
<svg xmlns:foaf="http://xmlns.com/foaf/0.1/" xmlns:svg="http://www.w3.org/2000/svg"
     xmlns:dc="http://purl.org/dc/elements/1.1/"
     xmlns:crm="http://www.cidoc-crm.org/cidoc-crm/"
     xmlns="http://www.w3.org/2000/svg"
     xmlns:sodipodi="http://sodipodi.sourceforge.net/DTD/sodipodi-0.dtd"
     xmlns:cc="http://creativecommons.org/ns#"
     xmlns:inkscape="http://www.inkscape.org/namespaces/inkscape"
     xmlns:nmo="http://nomisma.org/ontology#"
     xmlns:rdf="http://www.w3.org/1999/02/22-rdf-syntax-ns#"
     viewBox="0 0 138.70438 138.40351"
     height="138.4035"
     width="138.70438"
     xml:space="preserve"
     id="svg2"
     version="1.1"
     sodipodi:docname="monogram.ric.10.leo_i.1_1.svg"
     inkscape:version="0.92.3 (2405546, 2018-03-11)"><sodipodi:namedview pagecolor="#ffffff" bordercolor="#666666" borderopacity="1"
                       objecttolerance="10"
                       gridtolerance="10"
                       guidetolerance="10"
                       inkscape:pageopacity="0"
                       inkscape:pageshadow="2"
                       inkscape:window-width="1320"
                       inkscape:window-height="905"
                       id="namedview16"
                       showgrid="false"
                       inkscape:zoom="3.3236158"
                       inkscape:cx="57.392565"
                       inkscape:cy="58.906037"
                       inkscape:window-x="758"
                       inkscape:window-y="753"
                       inkscape:window-maximized="0"
                       inkscape:current-layer="svg2"/><metadata><rdf:RDF><cc:Work rdf:about="https://nomisma.org/svg/monogram.01517.svg"><dc:title>Monogram 1517</dc:title><dc:description>Monogram 1517 published by Nomisma.org. See matching URIs and bibliographic references for further information about the usage of this symbol on coinage.</dc:description><foaf:focus rdf:resource="http://nomisma.org/symbol/monogram.01517"/><dc:format>image/svg+xml</dc:format><dc:type rdf:resource="http://purl.org/dc/dcmitype/StillImage"/><cc:license rdf:resource="https://creativecommons.org/choose/mark/"/><crm:P106_is_composed_of>N</crm:P106_is_composed_of><crm:P106_is_composed_of>S</crm:P106_is_composed_of><crm:P106_is_composed_of>E</crm:P106_is_composed_of><crm:P106_is_composed_of>O</crm:P106_is_composed_of></cc:Work></rdf:RDF></metadata><defs id="defs6"><clipPath id="clipPath18" clipPathUnits="userSpaceOnUse"><path id="path16" d="M 0,213.021 H 213.021 V 0 H 0 Z"
               inkscape:connector-curvature="0"/></clipPath></defs><g transform="matrix(1.3333333,0,0,-1.3333333,-74.704483,212.71063)" id="g10"><g id="g12"><g clip-path="url(#clipPath18)" id="g14"><g transform="translate(61.6587,146.724)" id="g20"><path id="path22" style="fill:#231f20;fill-opacity:1;fill-rule:nonzero;stroke:none"
                     d="m 0,0 c 0,3.781 3.074,6.853 6.853,6.853 3.778,0 6.851,-3.072 6.851,-6.853 0,-3.776 -3.073,-6.848 -6.851,-6.848 C 3.074,-6.848 0,-3.776 0,0 m 95.07,-13.487 c 1.319,0 2.387,1.068 2.387,2.387 0,1.319 -1.068,2.387 -2.387,2.387 H 77.168 c -1.319,0 -2.387,-1.068 -2.387,-2.387 v -70.364 l -63.403,70.758 c 4.168,1.768 7.099,5.9 7.099,10.706 0,6.41 -5.214,11.627 -11.624,11.627 C 0.443,11.627 -4.774,6.41 -4.774,0 c 0,-5.592 3.971,-10.27 9.24,-11.374 v -76.33 c 0,-1.319 1.067,-2.387 2.387,-2.387 h 17.902 c 1.319,0 2.386,1.068 2.386,2.387 0,1.319 -1.067,2.387 -2.386,2.387 H 9.24 v 69.839 l 66.152,-73.82 c 0.013,-0.015 0.028,-0.024 0.041,-0.038 0.074,-0.078 0.156,-0.148 0.24,-0.216 0.045,-0.036 0.087,-0.077 0.134,-0.11 0.089,-0.062 0.186,-0.112 0.284,-0.161 0.045,-0.023 0.088,-0.054 0.135,-0.074 0.129,-0.055 0.265,-0.096 0.405,-0.128 0.017,-0.004 0.034,-0.013 0.052,-0.017 0.157,-0.032 0.319,-0.049 0.485,-0.049 H 95.07 c 1.319,0 2.387,1.068 2.387,2.387 0,1.319 -1.068,2.387 -2.387,2.387 H 79.555 v 29.463 H 95.07 c 1.319,0 2.387,1.067 2.387,2.387 0,1.319 -1.068,2.387 -2.387,2.387 H 79.555 v 37.593 z"
                     inkscape:connector-curvature="0"/></g><g transform="translate(103.2007,116.17)" id="g24"><path id="path26" style="fill:#231f20;fill-opacity:1;fill-rule:nonzero;stroke:none"
                     d="m 0,0 c 0.256,-0.056 1.459,-0.303 3.03,-0.303 1.837,0 4.173,0.34 6.075,1.72 1.776,1.287 2.839,3.259 3.081,5.702 0.723,7.459 -4.317,9.785 -9.543,11.533 -3.962,1.324 -4.573,2.909 -4.517,3.273 l 0.126,0.527 c 0.046,0.345 0.587,3.398 5.417,2.904 4.312,-0.42 5.025,-3.044 5.1,-3.375 0.233,-1.282 1.487,-2.126 2.741,-1.916 1.301,0.219 2.177,1.45 1.958,2.75 -0.046,0.266 -1.184,6.504 -9.333,7.296 C -3.343,30.792 -6.014,26.041 -6.457,23.235 -6.629,22.568 -6.834,21.086 -6,19.356 -4.914,17.1 -2.513,15.342 1.133,14.121 6.881,12.2 7.748,10.806 7.431,7.585 7.296,6.158 6.727,5.59 6.308,5.286 4.797,4.177 1.921,4.475 0.956,4.676 0.07,4.848 -2.434,5.646 -3.394,7.286 -4.061,8.424 -5.52,8.797 -6.662,8.14 -7.799,7.473 -8.182,6.009 -7.515,4.872 -5.282,1.058 -0.452,0.079 0,0"
                     inkscape:connector-curvature="0"/></g><text id="text30"
                  style="font-variant:normal;font-weight:normal;font-stretch:normal;font-size:99.54199982px;font-family:'Myriad Pro';-inkscape-font-specification:MyriadPro-Regular;writing-mode:lr-tb;fill:#231f20;fill-opacity:1;fill-rule:nonzero;stroke:none"
                  transform="matrix(1,0,0,-1,-0.001,286.9922)"><tspan id="tspan28" y="0" x="0 45.590237 95.460777">Leo</tspan></text>


</g></g></g></svg>