<?xml version="1.0" encoding="UTF-8"?>
<svg xmlns:foaf="http://xmlns.com/foaf/0.1/" xmlns:svg="http://www.w3.org/2000/svg"
     xmlns:dc="http://purl.org/dc/elements/1.1/"
     xmlns:crm="http://www.cidoc-crm.org/cidoc-crm/"
     xmlns="http://www.w3.org/2000/svg"
     xmlns:sodipodi="http://sodipodi.sourceforge.net/DTD/sodipodi-0.dtd"
     xmlns:cc="http://creativecommons.org/ns#"
     xmlns:inkscape="http://www.inkscape.org/namespaces/inkscape"
     xmlns:nmo="http://nomisma.org/ontology#"
     xmlns:rdf="http://www.w3.org/1999/02/22-rdf-syntax-ns#"
     viewBox="0 0 123.988 114.34053"
     height="114.34053"
     width="123.988"
     xml:space="preserve"
     id="svg2"
     version="1.1"
     sodipodi:docname="pg_0051.svg"
     inkscape:version="0.92.3 (2405546, 2018-03-11)"><sodipodi:namedview pagecolor="#ffffff" bordercolor="#666666" borderopacity="1"
                       objecttolerance="10"
                       gridtolerance="10"
                       guidetolerance="10"
                       inkscape:pageopacity="0"
                       inkscape:pageshadow="2"
                       inkscape:window-width="614"
                       inkscape:window-height="450"
                       id="namedview14"
                       showgrid="false"
                       inkscape:zoom="0.88500003"
                       inkscape:cx="55.216397"
                       inkscape:cy="64.58361"
                       inkscape:window-x="83"
                       inkscape:window-y="27"
                       inkscape:window-maximized="0"
                       inkscape:current-layer="svg2"/><metadata><rdf:RDF><cc:Work rdf:about="https://nomisma.org/svg/monogram.01556.svg"><dc:title>Monogram 1556</dc:title><dc:description>Monogram 1556 published by Nomisma.org. See matching URIs and bibliographic references for further information about the usage of this symbol on coinage.</dc:description><foaf:focus rdf:resource="http://nomisma.org/symbol/monogram.01556"/><dc:format>image/svg+xml</dc:format><dc:type rdf:resource="http://purl.org/dc/dcmitype/StillImage"/><cc:license rdf:resource="https://creativecommons.org/choose/mark/"/><crm:P106_is_composed_of>A</crm:P106_is_composed_of><crm:P106_is_composed_of>E</crm:P106_is_composed_of><crm:P106_is_composed_of>T</crm:P106_is_composed_of><crm:P106_is_composed_of>N</crm:P106_is_composed_of></cc:Work></rdf:RDF></metadata><defs id="defs6"><clipPath id="clipPath18" clipPathUnits="userSpaceOnUse"><path id="path16" d="M 0,200 H 200 V 0 H 0 Z" inkscape:connector-curvature="0"/></clipPath></defs><g transform="matrix(1.3333333,0,0,-1.3333333,-78.116931,183.09026)" id="g10"><g id="g12"><g clip-path="url(#clipPath18)" id="g14"><g transform="translate(63.3617,64.9367)" id="g20"><path id="path22" style="fill:#231f20;fill-opacity:1;fill-rule:nonzero;stroke:none"
                     d="M 0,0 V 63.92 L 30.987,30.558 Z m 85.83,67.607 c 1.319,0 2.387,1.068 2.387,2.387 0,1.319 -1.068,2.387 -2.387,2.387 H 50.027 c -1.32,0 -2.387,-1.068 -2.387,-2.387 0,-1.319 1.067,-2.387 2.387,-2.387 H 65.542 V 0.364 L 36.028,32.139 c -0.006,0.006 -0.009,0.013 -0.015,0.019 -0.003,0.003 -0.007,0.005 -0.01,0.008 l -36.642,39.45 c -0.006,0.007 -0.014,0.012 -0.02,0.019 -0.082,0.086 -0.173,0.161 -0.267,0.235 -0.032,0.025 -0.061,0.054 -0.094,0.077 -0.085,0.06 -0.178,0.108 -0.271,0.156 -0.046,0.024 -0.091,0.054 -0.138,0.075 -0.075,0.033 -0.155,0.054 -0.233,0.079 -0.072,0.023 -0.142,0.05 -0.215,0.066 -0.059,0.013 -0.121,0.016 -0.181,0.025 -0.098,0.013 -0.195,0.028 -0.294,0.029 -0.012,0 -0.023,0.004 -0.035,0.004 -0.046,0 -0.088,-0.011 -0.133,-0.014 -0.101,-0.005 -0.201,-0.012 -0.301,-0.03 -0.065,-0.012 -0.126,-0.032 -0.189,-0.048 -0.085,-0.024 -0.17,-0.046 -0.253,-0.079 -0.072,-0.029 -0.14,-0.066 -0.209,-0.101 -0.066,-0.034 -0.132,-0.065 -0.195,-0.106 -0.089,-0.057 -0.17,-0.123 -0.25,-0.191 -0.03,-0.025 -0.063,-0.043 -0.092,-0.07 -0.007,-0.006 -0.012,-0.015 -0.019,-0.021 -0.08,-0.076 -0.151,-0.162 -0.22,-0.248 -0.031,-0.039 -0.067,-0.075 -0.095,-0.116 -0.051,-0.073 -0.09,-0.152 -0.133,-0.23 -0.033,-0.06 -0.07,-0.118 -0.097,-0.18 -0.028,-0.062 -0.044,-0.129 -0.066,-0.194 -0.028,-0.084 -0.059,-0.166 -0.078,-0.251 -0.012,-0.055 -0.014,-0.111 -0.022,-0.167 -0.015,-0.101 -0.03,-0.202 -0.031,-0.304 0,-0.013 -0.004,-0.025 -0.004,-0.037 V -5.688 -5.7 -5.71 c 0,-0.028 0.007,-0.053 0.008,-0.08 0.005,-0.129 0.014,-0.257 0.039,-0.383 0.012,-0.062 0.035,-0.119 0.051,-0.179 0.025,-0.09 0.048,-0.18 0.083,-0.268 0.025,-0.061 0.06,-0.116 0.09,-0.174 0.041,-0.081 0.079,-0.163 0.13,-0.24 0.033,-0.049 0.074,-0.091 0.11,-0.137 0.057,-0.073 0.108,-0.15 0.175,-0.218 0.054,-0.054 0.117,-0.095 0.175,-0.144 0.065,-0.054 0.126,-0.112 0.196,-0.159 0.049,-0.033 0.102,-0.055 0.152,-0.083 0.087,-0.049 0.171,-0.101 0.263,-0.14 0.065,-0.026 0.132,-0.04 0.198,-0.061 0.083,-0.026 0.163,-0.057 0.249,-0.074 0.155,-0.031 0.311,-0.047 0.468,-0.047 0.157,0 0.313,0.016 0.467,0.047 0.061,0.012 0.118,0.035 0.177,0.051 0.09,0.026 0.181,0.048 0.269,0.084 0.057,0.024 0.109,0.057 0.164,0.085 0.084,0.043 0.169,0.082 0.249,0.135 0.042,0.028 0.078,0.064 0.118,0.095 0.08,0.06 0.162,0.116 0.235,0.188 L 34.241,27.054 66.18,-7.333 c 0.007,-0.007 0.014,-0.011 0.02,-0.018 0.096,-0.101 0.202,-0.191 0.314,-0.274 0.02,-0.014 0.037,-0.033 0.057,-0.047 0.386,-0.267 0.852,-0.425 1.357,-0.425 H 85.83 c 1.319,0 2.387,1.067 2.387,2.387 0,1.319 -1.068,2.386 -2.387,2.386 H 70.315 V 28.093 H 85.83 c 1.319,0 2.387,1.067 2.387,2.387 0,1.319 -1.068,2.387 -2.387,2.387 H 70.315 v 34.74 z"
                     inkscape:connector-curvature="0"/></g><g transform="translate(103.095,62.4523)" id="g24"><path id="path26" style="fill:#231f20;fill-opacity:1;fill-rule:nonzero;stroke:none"
                     d="m 0,0 c 0,1.319 -1.068,2.387 -2.387,2.387 h -2.741 l 1.939,1.939 c 0.933,0.933 0.933,2.443 0,3.375 -0.932,0.933 -2.443,0.933 -3.375,0 L -8.503,5.762 v 2.741 c 0,1.32 -1.068,2.387 -2.387,2.387 -1.319,0 -2.387,-1.067 -2.387,-2.387 V 5.762 l -1.939,1.939 c -0.933,0.933 -2.443,0.933 -3.376,0 -0.932,-0.932 -0.932,-2.442 0,-3.375 l 1.94,-1.939 h -2.741 c -1.32,0 -2.387,-1.068 -2.387,-2.387 0,-1.319 1.067,-2.387 2.387,-2.387 h 2.741 l -1.94,-1.939 c -0.932,-0.933 -0.932,-2.443 0,-3.376 0.467,-0.466 1.077,-0.699 1.688,-0.699 0.611,0 1.222,0.233 1.688,0.699 l 1.939,1.94 v -2.741 c 0,-1.32 1.068,-2.387 2.387,-2.387 1.319,0 2.387,1.067 2.387,2.387 v 2.741 l 1.939,-1.94 c 0.466,-0.466 1.077,-0.699 1.688,-0.699 0.61,0 1.221,0.233 1.687,0.699 0.933,0.933 0.933,2.443 0,3.376 l -1.939,1.939 h 2.741 C -1.068,-2.387 0,-1.319 0,0"
                     inkscape:connector-curvature="0"/></g></g></g></g></svg>