<?xml version="1.0" encoding="UTF-8"?>
<svg xmlns:foaf="http://xmlns.com/foaf/0.1/" xmlns:svg="http://www.w3.org/2000/svg"
     xmlns:dc="http://purl.org/dc/elements/1.1/"
     xmlns:crm="http://www.cidoc-crm.org/cidoc-crm/"
     xmlns="http://www.w3.org/2000/svg"
     xmlns:sodipodi="http://sodipodi.sourceforge.net/DTD/sodipodi-0.dtd"
     xmlns:cc="http://creativecommons.org/ns#"
     xmlns:inkscape="http://www.inkscape.org/namespaces/inkscape"
     xmlns:nmo="http://nomisma.org/ontology#"
     xmlns:rdf="http://www.w3.org/1999/02/22-rdf-syntax-ns#"
     viewBox="0 0 121.17867 108.5592"
     height="108.5592"
     width="121.17867"
     xml:space="preserve"
     id="svg2"
     version="1.1"
     sodipodi:docname="pg_0006.svg"
     inkscape:version="0.92.3 (2405546, 2018-03-11)"><sodipodi:namedview pagecolor="#ffffff" bordercolor="#666666" borderopacity="1"
                       objecttolerance="10"
                       gridtolerance="10"
                       guidetolerance="10"
                       inkscape:pageopacity="0"
                       inkscape:pageshadow="2"
                       inkscape:window-width="640"
                       inkscape:window-height="480"
                       id="namedview14"
                       showgrid="false"
                       inkscape:zoom="0.89388969"
                       inkscape:cx="59.263475"
                       inkscape:cy="56.655999"
                       inkscape:window-x="83"
                       inkscape:window-y="27"
                       inkscape:window-maximized="0"
                       inkscape:current-layer="svg2"/><metadata><rdf:RDF><cc:Work rdf:about="https://nomisma.org/svg/monogram.01512.svg"><dc:title>Monogram 1512</dc:title><dc:description>Monogram 1512 published by Nomisma.org. See matching URIs and bibliographic references for further information about the usage of this symbol on coinage.</dc:description><foaf:focus rdf:resource="http://nomisma.org/symbol/monogram.01512"/><dc:format>image/svg+xml</dc:format><dc:type rdf:resource="http://purl.org/dc/dcmitype/StillImage"/><cc:license rdf:resource="https://creativecommons.org/choose/mark/"/><crm:P106_is_composed_of>S</crm:P106_is_composed_of><crm:P106_is_composed_of>R</crm:P106_is_composed_of><crm:P106_is_composed_of>M</crm:P106_is_composed_of></cc:Work></rdf:RDF></metadata><defs id="defs6"><clipPath id="clipPath18" clipPathUnits="userSpaceOnUse"><path id="path16" d="M 0,198.011 H 198.011 V 0 H 0 Z"
               inkscape:connector-curvature="0"/></clipPath></defs><g transform="matrix(1.3333333,0,0,-1.3333333,-72.743865,183.91053)" id="g10"><g id="g12"><g clip-path="url(#clipPath18)" id="g14"><g transform="translate(96.4539,110.0039)" id="g20"><path id="path22" style="fill:#231f20;fill-opacity:1;fill-rule:nonzero;stroke:none"
                     d="M 0,0 25.888,19.038 V -19.038 Z M -37.122,-21.38 V 21.38 L -8.049,0 Z M 44.214,6.377 c 0,-10.021 -8.742,-15.519 -13.552,-17.788 V 20.926 C 35.243,19.877 44.214,16.529 44.214,6.377 m -12.843,-22.88 c -0.024,0.046 -0.057,0.084 -0.083,0.127 5.287,2.198 17.7,8.835 17.7,22.753 0,14.177 -13.408,19.119 -20.498,19.753 -0.032,0.002 -0.062,-0.004 -0.093,-0.003 -0.041,0.002 -0.08,0.012 -0.122,0.012 -0.015,0 -0.029,-0.004 -0.045,-0.004 -0.097,-0.002 -0.194,-0.016 -0.291,-0.03 C 27.879,26.097 27.818,26.093 27.76,26.08 27.68,26.063 27.604,26.034 27.525,26.007 27.452,25.983 27.378,25.963 27.308,25.932 27.258,25.909 27.21,25.878 27.16,25.851 27.065,25.801 26.972,25.749 26.885,25.687 26.878,25.681 26.87,25.678 26.863,25.673 L -4.024,2.959 -37.345,27.463 c -0.537,0.4 -1.191,0.534 -1.807,0.43 -0.117,0.018 -0.234,0.036 -0.357,0.036 -1.319,0 -2.387,-1.067 -2.387,-2.387 v -73.476 c 0,-1.319 1.068,-2.386 2.387,-2.386 1.32,0 2.387,1.067 2.387,2.386 v 20.635 l 33.098,24.34 29.912,-21.998 v -24.762 c 0,-1.319 1.068,-2.387 2.387,-2.387 1.319,0 2.387,1.068 2.387,2.387 v 24.118 l 10.531,-20.584 c 0.424,-0.826 1.259,-1.301 2.126,-1.301 0.368,0 0.741,0.084 1.086,0.261 1.175,0.601 1.641,2.037 1.04,3.212 z"
                     inkscape:connector-curvature="0"/></g><g transform="translate(92.4082,86.9275)" id="g24"><path id="path26" style="fill:#231f20;fill-opacity:1;fill-rule:nonzero;stroke:none"
                     d="m 0,0 c -7.552,0.685 -10.154,-4.07 -10.597,-6.876 -0.172,-0.667 -0.377,-2.149 0.457,-3.879 1.087,-2.256 3.487,-4.014 7.133,-5.235 5.748,-1.921 6.615,-3.315 6.298,-6.536 -0.135,-1.427 -0.704,-1.996 -1.123,-2.299 -1.515,-1.109 -4.397,-0.815 -5.347,-0.61 -0.886,0.172 -3.394,0.969 -4.35,2.606 -0.667,1.142 -2.135,1.534 -3.263,0.858 -1.138,-0.662 -1.525,-2.126 -0.858,-3.264 2.228,-3.818 7.063,-4.797 7.515,-4.876 0.256,-0.056 1.459,-0.303 3.025,-0.303 1.837,0 4.173,0.34 6.075,1.715 1.776,1.292 2.839,3.264 3.081,5.707 0.723,7.459 -4.317,9.785 -9.543,11.533 -3.962,1.324 -4.573,2.909 -4.517,3.273 l 0.121,0.489 c 0.126,0.797 0.933,3.408 5.427,2.942 4.307,-0.415 5.025,-3.035 5.1,-3.371 0.233,-1.277 1.482,-2.14 2.741,-1.916 1.301,0.219 2.177,1.455 1.958,2.751 C 9.286,-7.025 8.14,-0.793 0,0"
                     inkscape:connector-curvature="0"/></g></g></g></g></svg>