<?xml version="1.0" encoding="UTF-8"?>
<svg xmlns:foaf="http://xmlns.com/foaf/0.1/" xmlns:svg="http://www.w3.org/2000/svg"
     xmlns:dc="http://purl.org/dc/elements/1.1/"
     xmlns:crm="http://www.cidoc-crm.org/cidoc-crm/"
     xmlns="http://www.w3.org/2000/svg"
     xmlns:sodipodi="http://sodipodi.sourceforge.net/DTD/sodipodi-0.dtd"
     xmlns:cc="http://creativecommons.org/ns#"
     xmlns:inkscape="http://www.inkscape.org/namespaces/inkscape"
     xmlns:nmo="http://nomisma.org/ontology#"
     xmlns:rdf="http://www.w3.org/1999/02/22-rdf-syntax-ns#"
     viewBox="0 0 136.30666 112.33866"
     height="112.33866"
     width="136.30666"
     xml:space="preserve"
     id="svg2"
     version="1.1"
     sodipodi:docname="pg_0038.svg"
     inkscape:version="0.92.3 (2405546, 2018-03-11)"><sodipodi:namedview pagecolor="#ffffff" bordercolor="#666666" borderopacity="1"
                       objecttolerance="10"
                       gridtolerance="10"
                       guidetolerance="10"
                       inkscape:pageopacity="0"
                       inkscape:pageshadow="2"
                       inkscape:window-width="614"
                       inkscape:window-height="450"
                       id="namedview12"
                       showgrid="false"
                       inkscape:zoom="0.88500003"
                       inkscape:cx="68.153063"
                       inkscape:cy="65.259877"
                       inkscape:window-x="83"
                       inkscape:window-y="27"
                       inkscape:window-maximized="0"
                       inkscape:current-layer="svg2"/><metadata><rdf:RDF><cc:Work rdf:about="https://nomisma.org/svg/monogram.01564.svg"><dc:title>Monogram 1564</dc:title><dc:description>Monogram 1564 published by Nomisma.org. See matching URIs and bibliographic references for further information about the usage of this symbol on coinage.</dc:description><foaf:focus rdf:resource="http://nomisma.org/symbol/monogram.01564"/><dc:format>image/svg+xml</dc:format><dc:type rdf:resource="http://purl.org/dc/dcmitype/StillImage"/><cc:license rdf:resource="https://creativecommons.org/choose/mark/"/><crm:P106_is_composed_of>N</crm:P106_is_composed_of><crm:P106_is_composed_of>Z</crm:P106_is_composed_of><crm:P106_is_composed_of>O</crm:P106_is_composed_of></cc:Work></rdf:RDF></metadata><defs id="defs6"><clipPath id="clipPath18" clipPathUnits="userSpaceOnUse"><path id="path16" d="M 0,200 H 200 V 0 H 0 Z" inkscape:connector-curvature="0"/></clipPath></defs><g transform="matrix(1.3333333,0,0,-1.3333333,-65.180265,180.41213)" id="g10"><g id="g12"><g clip-path="url(#clipPath18)" id="g14"><g transform="translate(59.0942,123.6871)" id="g20"><path id="path22" style="fill:#231f20;fill-opacity:1;fill-rule:nonzero;stroke:none"
                     d="m 0,0 c 0,3.776 3.072,6.848 6.853,6.848 3.781,0 6.853,-3.072 6.853,-6.848 0,-3.781 -3.072,-6.853 -6.853,-6.853 C 3.072,-6.853 0,-3.781 0,0 M 75.537,-66.195 16.846,-33.691 H 75.537 Z M 92.021,6.359 c 0,1.319 -1.068,2.387 -2.387,2.387 H 66.213 C 65.239,8.746 64.357,8.149 63.998,7.245 63.635,6.336 63.859,5.301 64.567,4.629 L 83.658,-13.519 H 66.213 c -1.319,0 -2.387,-1.068 -2.387,-2.387 0,-1.32 1.068,-2.387 2.387,-2.387 h 9.324 V -28.918 H 9.995 v 17.735 C 14.882,-9.807 18.48,-5.32 18.48,0 18.48,6.41 13.263,11.622 6.853,11.622 0.443,11.622 -4.774,6.41 -4.774,0 c 0,-5.855 4.357,-10.701 9.995,-11.499 v -52.378 c 0,-0.012 0,-0.034 0,-0.052 -0.009,-1.142 -0.42,-3.058 -3.072,-3.058 -5.827,0 -7.585,0 -7.585,9.972 0,1.319 -1.067,2.387 -2.387,2.387 -1.319,0 -2.386,-1.068 -2.386,-2.387 0,-12.615 3.813,-14.745 12.358,-14.745 2.751,0 4.469,1.065 5.459,2.018 0.991,-0.953 2.713,-2.018 5.464,-2.018 8.545,0 12.359,2.13 12.359,14.745 0,1.319 -1.068,2.387 -2.387,2.387 -1.32,0 -2.387,-1.068 -2.387,-2.387 0,-9.972 -1.758,-9.972 -7.585,-9.972 -2.657,0 -3.067,1.911 -3.077,3.058 0,0.018 0,0.04 0,0.052 v 28.522 l 66.772,-36.979 c 0.026,-0.014 0.055,-0.018 0.081,-0.032 0.129,-0.065 0.263,-0.117 0.404,-0.159 0.041,-0.012 0.081,-0.028 0.123,-0.038 0.177,-0.042 0.359,-0.069 0.548,-0.069 0.196,0 0.384,0.03 0.566,0.074 0.049,0.012 0.096,0.03 0.145,0.045 0.138,0.044 0.27,0.098 0.396,0.164 0.047,0.025 0.093,0.047 0.137,0.075 0.162,0.099 0.316,0.212 0.449,0.346 0.005,0.005 0.009,0.011 0.013,0.016 0.132,0.135 0.242,0.289 0.34,0.453 0.012,0.021 0.031,0.036 0.043,0.058 0.019,0.034 0.028,0.071 0.045,0.106 0.038,0.076 0.072,0.154 0.101,0.235 0.027,0.073 0.05,0.147 0.069,0.222 0.019,0.072 0.034,0.144 0.046,0.219 0.013,0.086 0.022,0.172 0.026,0.259 0.002,0.039 0.011,0.075 0.011,0.115 v 51.952 h 9.324 c 0.974,0 1.856,0.596 2.215,1.501 0.363,0.909 0.139,1.944 -0.569,2.615 L 72.189,3.972 h 17.445 c 1.319,0 2.387,1.067 2.387,2.387"
                     inkscape:connector-curvature="0"/></g></g></g></g></svg>