<?xml version="1.0" encoding="UTF-8"?>
<svg xmlns:foaf="http://xmlns.com/foaf/0.1/" xmlns:svg="http://www.w3.org/2000/svg"
     xmlns:dc="http://purl.org/dc/elements/1.1/"
     xmlns:crm="http://www.cidoc-crm.org/cidoc-crm/"
     xmlns="http://www.w3.org/2000/svg"
     xmlns:sodipodi="http://sodipodi.sourceforge.net/DTD/sodipodi-0.dtd"
     xmlns:cc="http://creativecommons.org/ns#"
     xmlns:inkscape="http://www.inkscape.org/namespaces/inkscape"
     xmlns:nmo="http://nomisma.org/ontology#"
     xmlns:rdf="http://www.w3.org/1999/02/22-rdf-syntax-ns#"
     viewBox="0 0 144.56133 114.372"
     height="114.37199"
     width="144.56133"
     xml:space="preserve"
     id="svg2"
     version="1.1"
     sodipodi:docname="pg_0034.svg"
     inkscape:version="0.92.3 (2405546, 2018-03-11)"><sodipodi:namedview pagecolor="#ffffff" bordercolor="#666666" borderopacity="1"
                       objecttolerance="10"
                       gridtolerance="10"
                       guidetolerance="10"
                       inkscape:pageopacity="0"
                       inkscape:pageshadow="2"
                       inkscape:window-width="614"
                       inkscape:window-height="450"
                       id="namedview12"
                       showgrid="false"
                       inkscape:zoom="0.88500003"
                       inkscape:cx="72.28053"
                       inkscape:cy="61.66401"
                       inkscape:window-x="83"
                       inkscape:window-y="27"
                       inkscape:window-maximized="0"
                       inkscape:current-layer="svg2"/><metadata><rdf:RDF><cc:Work rdf:about="https://nomisma.org/svg/monogram.01547.svg"><dc:title>Monogram 1547</dc:title><dc:description>Monogram 1547 published by Nomisma.org. See matching URIs and bibliographic references for further information about the usage of this symbol on coinage.</dc:description><foaf:focus rdf:resource="http://nomisma.org/symbol/monogram.01547"/><dc:format>image/svg+xml</dc:format><dc:type rdf:resource="http://purl.org/dc/dcmitype/StillImage"/><cc:license rdf:resource="https://creativecommons.org/choose/mark/"/><crm:P106_is_composed_of>N</crm:P106_is_composed_of><crm:P106_is_composed_of>Z</crm:P106_is_composed_of><crm:P106_is_composed_of>O</crm:P106_is_composed_of><crm:P106_is_composed_of>E</crm:P106_is_composed_of></cc:Work></rdf:RDF></metadata><defs id="defs6"><clipPath id="clipPath18" clipPathUnits="userSpaceOnUse"><path id="path16" d="M 0,200 H 200 V 0 H 0 Z" inkscape:connector-curvature="0"/></clipPath></defs><g transform="matrix(1.3333333,0,0,-1.3333333,-61.052798,186.04133)" id="g10"><g id="g12"><g clip-path="url(#clipPath18)" id="g14"><g transform="translate(65.9986,91.989)" id="g20"><path id="path22" style="fill:#231f20;fill-opacity:1;fill-rule:nonzero;stroke:none"
                     d="M 0,0 V 18.025 L 23.325,0 Z m 65.537,-4.774 v -21.815 l -28.23,21.815 z m -4.462,40.689 c 0,3.781 3.073,6.853 6.849,6.853 3.78,0 6.853,-3.072 6.853,-6.853 0,-3.781 -3.073,-6.853 -6.853,-6.853 -3.776,0 -6.849,3.072 -6.849,6.853 M 13.044,-21.104 c -1.319,0 -2.387,-1.068 -2.387,-2.387 0,-9.972 -1.757,-9.972 -7.585,-9.972 -2.652,0 -3.063,1.915 -3.072,3.062 0,0.018 0,0.04 0,0.052 v 25.575 h 29.502 l 36.962,-28.563 c 0.02,-0.016 0.042,-0.026 0.062,-0.04 0.054,-0.039 0.11,-0.074 0.167,-0.108 0.07,-0.043 0.142,-0.082 0.215,-0.117 0.054,-0.026 0.108,-0.049 0.165,-0.071 0.088,-0.034 0.177,-0.06 0.267,-0.083 0.049,-0.012 0.097,-0.027 0.147,-0.036 0.144,-0.027 0.29,-0.044 0.437,-0.044 h 17.901 c 1.32,0 2.387,1.068 2.387,2.387 0,1.319 -1.067,2.387 -2.387,2.387 H 70.311 v 52.418 h 14.927 c 1.319,0 2.387,1.068 2.387,2.387 0,1.319 -1.068,2.387 -2.387,2.387 h -8.705 c 1.868,2.064 3.017,4.79 3.017,7.785 0,6.41 -5.216,11.627 -11.626,11.627 -6.41,0 -11.622,-5.217 -11.622,-11.627 0,-5.592 3.967,-10.273 9.235,-11.378 L 65.537,0 H 31.13 L 4.604,20.498 h 4.72 c 1.319,0 2.387,1.068 2.387,2.387 0,1.32 -1.068,2.387 -2.387,2.387 H -8.121 l 19.09,18.153 c 0.709,0.672 0.933,1.707 0.569,2.616 -0.359,0.904 -1.24,1.501 -2.214,1.501 h -23.422 c -1.319,0 -2.386,-1.068 -2.386,-2.387 0,-1.319 1.067,-2.387 2.386,-2.387 H 3.347 l -19.09,-18.153 c -0.709,-0.672 -0.933,-1.706 -0.569,-2.616 0.359,-0.904 1.24,-1.501 2.214,-1.501 h 9.324 v -50.847 c 0,-0.017 0,-0.046 0,-0.075 0,-0.019 -0.048,-1.474 -0.872,-2.312 -0.48,-0.489 -1.202,-0.727 -2.205,-0.727 -5.827,0 -7.585,0 -7.585,9.972 0,1.319 -1.067,2.387 -2.386,2.387 -1.32,0 -2.387,-1.068 -2.387,-2.387 0,-12.615 3.813,-14.746 12.358,-14.746 2.752,0 4.47,1.066 5.464,2.019 0.994,-0.953 2.708,-2.019 5.459,-2.019 8.545,0 12.359,2.131 12.359,14.746 0,1.319 -1.068,2.387 -2.387,2.387"
                     inkscape:connector-curvature="0"/></g></g></g></g></svg>