<?xml version="1.0" encoding="UTF-8"?>
<svg xmlns:foaf="http://xmlns.com/foaf/0.1/" xmlns:svg="http://www.w3.org/2000/svg"
     xmlns:dc="http://purl.org/dc/elements/1.1/"
     xmlns:crm="http://www.cidoc-crm.org/cidoc-crm/"
     xmlns="http://www.w3.org/2000/svg"
     xmlns:sodipodi="http://sodipodi.sourceforge.net/DTD/sodipodi-0.dtd"
     xmlns:cc="http://creativecommons.org/ns#"
     xmlns:inkscape="http://www.inkscape.org/namespaces/inkscape"
     xmlns:nmo="http://nomisma.org/ontology#"
     xmlns:rdf="http://www.w3.org/1999/02/22-rdf-syntax-ns#"
     width="400"
     height="400"
     xml:space="preserve"
     viewBox="0 0 400 400">
  <title property="dc:title">Monogram 648</title><desc proprety="dc:description">Monogram 648 published by Nomisma.org. See matching URIs and bibliographic references for further information about the usage of this symbol on coinage.</desc>
    <desc xmlns:xlink="http://www.w3.org/1999/xlink" property="dc:creator">Corpus Nummorum https://www.corpus-nummorum.eu</desc>
    <desc xmlns:xlink="http://www.w3.org/1999/xlink">lettercomb: ΤΦΕΜ</desc>    
    <metadata><rdf:RDF><cc:Work rdf:about="https://nomisma.org/svg/monogram.00648.svg"><dc:title>Monogram 648</dc:title><dc:description>Monogram 648 published by Nomisma.org. See matching URIs and bibliographic references for further information about the usage of this symbol on coinage.</dc:description><foaf:focus rdf:resource="http://nomisma.org/symbol/monogram.00648"/><dc:format>image/svg+xml</dc:format><dc:type rdf:resource="http://purl.org/dc/dcmitype/StillImage"/><dc:creator rdf:resource="http://nomisma.org/editor/vstolba"/><cc:license rdf:resource="https://creativecommons.org/choose/mark/"/><crm:P106_is_composed_of>Τ</crm:P106_is_composed_of><crm:P106_is_composed_of>Φ</crm:P106_is_composed_of><crm:P106_is_composed_of>Ε</crm:P106_is_composed_of><crm:P106_is_composed_of>Μ</crm:P106_is_composed_of></cc:Work></rdf:RDF></metadata>
    <g xmlns:xlink="http://www.w3.org/1999/xlink">
	<g>
		<path d="M181.072,365.667c0-41.862,0-83.726,0-125.588c0-54.18,0-108.36,0-162.541c0-2.942,0-5.883,0-8.825    c0-12.897-20-12.897-20,0c0,41.862,0,83.725,0,125.587c0,54.181,0,108.361,0,162.541c0,2.941,0,5.884,0,8.825    C161.072,378.564,181.072,378.564,181.072,365.667L181.072,365.667z"/>
	</g>
</g>
<g xmlns:xlink="http://www.w3.org/1999/xlink">
	<g>
		<path d="M24,69.515c41.542,0,83.084,0,124.626,0c55.1,0,110.2,0,165.299,0c3.678,0,7.355,0,11.033,0c12.897,0,12.897-20,0-20    c-41.542,0-83.084,0-124.626,0c-55.1,0-110.2,0-165.299,0c-3.678,0-7.355,0-11.033,0C11.103,49.515,11.103,69.515,24,69.515    L24,69.515z"/>
	</g>
</g>
<g xmlns:xlink="http://www.w3.org/1999/xlink">
	<g>
		<path d="M95.624,226.2c0.013-1.544,0.078-3.079,0.197-4.618c0.021-0.267,0.426-3.272,0.087-0.993    c0.135-0.908,0.318-1.809,0.502-2.707c0.368-1.8,0.882-3.565,1.444-5.313c0.283-0.878,0.614-1.737,0.945-2.597    c-0.761,1.975,0.402-0.826,0.486-1.004c0.67-1.412,1.448-2.771,2.249-4.111c0.487-0.816,1.021-1.604,1.554-2.392    c0.045-0.067,1.938-2.562,0.75-1.066c2.52-3.173,5.489-5.964,8.634-8.504c14.056-11.352,37.016-14.604,56.079-14.697    c12.894-0.063,12.9-20.063,0-20c-24.989,0.123-50.149,4.924-70.221,20.555C83.815,190.058,75.778,207.98,75.624,226.2    C75.515,239.102,95.515,239.092,95.624,226.2L95.624,226.2z"/>
	</g>
</g>
<g xmlns:xlink="http://www.w3.org/1999/xlink">
	<g>
		<path d="M75.624,226.2c0.159,18.748,8.788,34.477,23.913,45.345c19.338,13.896,46,16.36,69.015,16.448    c12.899,0.049,12.895-19.951,0-20c-19.791-0.075-40.952-2.159-57.267-12.596c-4.951-3.167-8.997-7.469-12-12.967    c-2.339-4.283-3.613-10.612-3.661-16.23C95.515,213.309,75.515,213.299,75.624,226.2L75.624,226.2z"/>
	</g>
</g>
<g xmlns:xlink="http://www.w3.org/1999/xlink">
	<g>
		<path d="M264.039,223.09c-0.175-19.322-9.544-35.396-24.766-46.853c-19.447-14.64-46.348-17.948-69.921-18.05    c-12.9-0.056-12.895,19.944,0,20c20.285,0.088,41.323,2.781,58.12,14.104c10.699,7.213,16.456,18.603,16.566,30.799    C244.156,235.98,264.156,235.992,264.039,223.09L264.039,223.09z"/>
	</g>
</g>
<g xmlns:xlink="http://www.w3.org/1999/xlink">
	<g>
		<path d="M244.039,223.09c-0.112,12.357-5.937,23.354-16.566,30.789c-16.479,11.524-38.087,14.016-58.12,14.103    c-12.895,0.056-12.9,20.056,0,20c23.901-0.104,50.062-3.642,69.921-18.05c15.335-11.124,24.593-27.768,24.766-46.842    C264.156,210.188,244.156,210.199,244.039,223.09L244.039,223.09z"/>
	</g>
</g>
<g xmlns:xlink="http://www.w3.org/1999/xlink">
	<g>
		<path d="M52.865,106.699c0,44.992,0,89.983,0,134.975c0,41.331,0,82.662,0,123.993c0,12.897,20,12.897,20,0    c0-44.991,0-89.983,0-134.975c0-41.332,0-82.663,0-123.994C72.865,93.801,52.865,93.801,52.865,106.699L52.865,106.699z"/>
	</g>
</g>
<g xmlns:xlink="http://www.w3.org/1999/xlink">
	<g>
		<path d="M371.333,99.107c-31.162,0-62.323,0-93.485,0c-5.451,0-10,4.549-10,10c0,45.418,0,90.837,0,136.256    c0,39.101,0,78.202,0,117.304c0,5.451,4.549,10,10,10c31.162,0,62.323,0,93.485,0c12.897,0,12.897-20,0-20    c-31.162,0-62.323,0-93.485,0c3.333,3.333,6.667,6.667,10,10c0-45.419,0-90.837,0-136.256c0-39.101,0-78.202,0-117.304    c-3.333,3.333-6.667,6.667-10,10c31.162,0,62.323,0,93.485,0C384.23,119.107,384.23,99.107,371.333,99.107L371.333,99.107z"/>
	</g>
</g>
<g xmlns:xlink="http://www.w3.org/1999/xlink">
	<g>
		<path d="M279.248,248.052c30.695,0.002,61.39,0.005,92.085,0.007c12.897,0.001,12.897-19.999,0-20    c-30.695-0.002-61.39-0.005-92.085-0.007C266.351,228.051,266.351,248.051,279.248,248.052L279.248,248.052z"/>
	</g>
</g>
<g xmlns:xlink="http://www.w3.org/1999/xlink">
	<g>
		<path d="M57.817,115.333c32.329,18.324,64.658,36.648,96.987,54.972c11.236,6.369,21.312-10.912,10.095-17.27    c-32.329-18.324-64.658-36.648-96.987-54.972C56.676,91.695,46.601,108.976,57.817,115.333L57.817,115.333z"/>
	</g>
</g>
<g xmlns:xlink="http://www.w3.org/1999/xlink">
	<g>
		<path d="M271.801,100.473c-34.456,18.693-68.912,37.386-103.369,56.08c-11.338,6.151-1.243,23.42,10.095,17.27    c34.456-18.693,68.912-37.386,103.368-56.08C293.233,111.591,283.138,94.322,271.801,100.473L271.801,100.473z"/>
	</g>
</g>
</svg>