<?xml version="1.0" encoding="UTF-8"?>
<svg xmlns:foaf="http://xmlns.com/foaf/0.1/" xmlns:svg="http://www.w3.org/2000/svg"
     xmlns:dc="http://purl.org/dc/elements/1.1/"
     xmlns:crm="http://www.cidoc-crm.org/cidoc-crm/"
     xmlns="http://www.w3.org/2000/svg"
     xmlns:sodipodi="http://sodipodi.sourceforge.net/DTD/sodipodi-0.dtd"
     xmlns:cc="http://creativecommons.org/ns#"
     xmlns:inkscape="http://www.inkscape.org/namespaces/inkscape"
     xmlns:nmo="http://nomisma.org/ontology#"
     xmlns:rdf="http://www.w3.org/1999/02/22-rdf-syntax-ns#"
     viewBox="0 0 156.73867 136.18933"
     height="136.18933"
     width="156.73866"
     xml:space="preserve"
     id="svg2"
     version="1.1"
     sodipodi:docname="pg_0025.svg"
     inkscape:version="0.92.3 (2405546, 2018-03-11)"><sodipodi:namedview pagecolor="#ffffff" bordercolor="#666666" borderopacity="1"
                       objecttolerance="10"
                       gridtolerance="10"
                       guidetolerance="10"
                       inkscape:pageopacity="0"
                       inkscape:pageshadow="2"
                       inkscape:window-width="614"
                       inkscape:window-height="450"
                       id="namedview12"
                       showgrid="false"
                       inkscape:zoom="0.7953412"
                       inkscape:cx="93.508675"
                       inkscape:cy="68.094937"
                       inkscape:window-x="83"
                       inkscape:window-y="27"
                       inkscape:window-maximized="0"
                       inkscape:current-layer="svg2"/><metadata><rdf:RDF><cc:Work rdf:about="https://nomisma.org/svg/monogram.01521.svg"><dc:title>Monogram 1521</dc:title><dc:description>Monogram 1521 published by Nomisma.org. See matching URIs and bibliographic references for further information about the usage of this symbol on coinage.</dc:description><foaf:focus rdf:resource="http://nomisma.org/symbol/monogram.01521"/><dc:format>image/svg+xml</dc:format><dc:type rdf:resource="http://purl.org/dc/dcmitype/StillImage"/><cc:license rdf:resource="https://creativecommons.org/choose/mark/"/><crm:P106_is_composed_of>Β</crm:P106_is_composed_of><crm:P106_is_composed_of>Α</crm:P106_is_composed_of><crm:P106_is_composed_of>Κ</crm:P106_is_composed_of><crm:P106_is_composed_of>Υ</crm:P106_is_composed_of></cc:Work></rdf:RDF></metadata><defs id="defs6"><clipPath id="clipPath18" clipPathUnits="userSpaceOnUse"><path id="path16" d="M 0,222.546 H 213.021 V 0 H 0 Z"
               inkscape:connector-curvature="0"/></clipPath></defs><g transform="matrix(1.3333333,0,0,-1.3333333,-48.505332,216.45839)" id="g10"><g id="g12"><g clip-path="url(#clipPath18)" id="g14"><g transform="translate(136.241,65.5998)" id="g20"><path id="path22" style="fill:#231f20;fill-opacity:1;fill-rule:nonzero;stroke:none"
                     d="M 0,0 V 31.186 C 0.165,31.241 0.333,31.3 0.502,31.36 5.02,30.214 12.918,26.717 12.918,16.257 12.918,5.404 4.491,1.376 0,0 m -37.006,1.88 -12.568,13.625 12.495,11.561 12.816,-12.192 z m -35.696,90.09 c 3.781,0 6.853,-3.072 6.853,-6.853 0,-3.78 -3.072,-6.853 -6.853,-6.853 -3.781,0 -6.853,3.073 -6.853,6.853 0,3.781 3.072,6.853 6.853,6.853 M 9.328,63.766 c 2.383,-2.308 3.59,-5.571 3.59,-9.706 C 12.918,43.298 4.742,38.32 0.121,36.363 0.081,36.37 0.04,36.379 0,36.386 v 31.352 c 2.477,-0.29 6.44,-1.183 9.328,-3.972 M 6.443,34.299 c 5.71,3.673 11.249,10.028 11.249,19.761 0,5.478 -1.697,9.897 -5.049,13.137 C 8.584,71.121 3.126,72.229 0,72.539 v 0.579 L 9.501,84.88 c 0.83,1.025 0.671,2.531 -0.354,3.356 C 8.121,89.071 6.615,88.908 5.79,87.882 L -2.577,77.524 -13.142,88.068 c -0.932,0.933 -2.443,0.933 -3.375,0 -0.932,-0.932 -0.932,-2.447 0,-3.375 L -4.774,72.972 V 2.923 L -35.412,32.07 c -0.036,0.034 -0.077,0.058 -0.114,0.089 -0.07,0.059 -0.14,0.118 -0.215,0.168 -0.056,0.037 -0.113,0.067 -0.171,0.098 -0.08,0.044 -0.16,0.087 -0.244,0.121 -0.057,0.024 -0.115,0.041 -0.173,0.059 -0.09,0.029 -0.179,0.056 -0.271,0.073 -0.056,0.011 -0.111,0.016 -0.167,0.023 -0.097,0.012 -0.193,0.021 -0.291,0.021 -0.054,0 -0.106,-0.006 -0.16,-0.009 -0.099,-0.007 -0.197,-0.017 -0.294,-0.036 -0.054,-0.01 -0.106,-0.026 -0.16,-0.04 -0.094,-0.026 -0.187,-0.053 -0.279,-0.09 -0.056,-0.023 -0.109,-0.051 -0.163,-0.078 -0.085,-0.042 -0.168,-0.085 -0.248,-0.137 -0.056,-0.037 -0.108,-0.08 -0.161,-0.121 -0.052,-0.041 -0.108,-0.073 -0.157,-0.118 L -70.315,2.82 v 70.92 c 5.269,1.104 9.24,5.786 9.24,11.377 0,6.411 -5.217,11.627 -11.627,11.627 -6.41,0 -11.627,-5.216 -11.627,-11.627 0,-2.586 0.86,-4.97 2.295,-6.904 h -15.441 c -1.32,0 -2.387,-1.067 -2.387,-2.387 0,-1.319 1.067,-2.387 2.387,-2.387 h 22.386 V 41.364 l -12.666,9.81 c -1.045,0.797 -2.541,0.616 -3.352,-0.424 -0.807,-1.044 -0.616,-2.545 0.424,-3.352 L -76.674,36.555 -91.331,25.879 c -1.068,-0.779 -1.301,-2.27 -0.527,-3.333 0.466,-0.644 1.194,-0.984 1.93,-0.984 0.49,0 0.979,0.149 1.403,0.457 l 13.436,9.785 v -32.06 h -20.288 c -1.32,0 -2.387,-1.067 -2.387,-2.387 0,-1.319 1.067,-2.386 2.387,-2.386 h 22.675 c 0.154,0 0.307,0.016 0.458,0.046 0.056,0.011 0.109,0.031 0.164,0.046 0.091,0.024 0.183,0.048 0.272,0.084 0.062,0.025 0.118,0.058 0.178,0.088 0.075,0.038 0.151,0.075 0.224,0.122 0.059,0.038 0.113,0.084 0.168,0.128 0.053,0.041 0.109,0.074 0.158,0.12 l 18.005,16.659 14.265,-15.466 c 0.443,-0.48 1.063,-0.76 1.716,-0.769 h 0.037 c 0.638,0 1.254,0.256 1.706,0.718 L -20.804,11.583 -4.634,-3.8 c 0.33,-0.948 1.228,-1.598 2.242,-1.598 0.112,0 0.224,0.01 0.336,0.024 6.83,0.951 19.748,6.694 19.748,21.631 0,9.788 -5.504,15.271 -11.249,18.042"
                     inkscape:connector-curvature="0"/></g></g></g></g></svg>