<?xml version="1.0" encoding="UTF-8"?>
<svg xmlns:foaf="http://xmlns.com/foaf/0.1/" xmlns:svg="http://www.w3.org/2000/svg"
     xmlns:dc="http://purl.org/dc/elements/1.1/"
     xmlns:crm="http://www.cidoc-crm.org/cidoc-crm/"
     xmlns="http://www.w3.org/2000/svg"
     xmlns:sodipodi="http://sodipodi.sourceforge.net/DTD/sodipodi-0.dtd"
     xmlns:cc="http://creativecommons.org/ns#"
     xmlns:inkscape="http://www.inkscape.org/namespaces/inkscape"
     xmlns:nmo="http://nomisma.org/ontology#"
     xmlns:rdf="http://www.w3.org/1999/02/22-rdf-syntax-ns#"
     viewBox="0 0 130.13281 131.39016"
     height="131.39015"
     width="130.13281"
     xml:space="preserve"
     id="svg2"
     version="1.1"
     sodipodi:docname="monogram.ric.10.basiliscus_marcus.1_1.svg"
     inkscape:version="0.92.3 (2405546, 2018-03-11)"><sodipodi:namedview pagecolor="#ffffff" bordercolor="#666666" borderopacity="1"
                       objecttolerance="10"
                       gridtolerance="10"
                       guidetolerance="10"
                       inkscape:pageopacity="0"
                       inkscape:pageshadow="2"
                       inkscape:window-width="1247"
                       inkscape:window-height="859"
                       id="namedview16"
                       showgrid="false"
                       inkscape:zoom="3.1813648"
                       inkscape:cx="56.513434"
                       inkscape:cy="53.653423"
                       inkscape:window-x="820"
                       inkscape:window-y="567"
                       inkscape:window-maximized="0"
                       inkscape:current-layer="svg2"
                       fit-margin-top="0"
                       fit-margin-left="0"
                       fit-margin-right="0"
                       fit-margin-bottom="0"/><metadata><rdf:RDF><cc:Work rdf:about="https://nomisma.org/svg/monogram.01515.svg"><dc:title>Monogram 1515</dc:title><dc:description>Monogram 1515 published by Nomisma.org. See matching URIs and bibliographic references for further information about the usage of this symbol on coinage.</dc:description><foaf:focus rdf:resource="http://nomisma.org/symbol/monogram.01515"/><dc:format>image/svg+xml</dc:format><dc:type rdf:resource="http://purl.org/dc/dcmitype/StillImage"/><cc:license rdf:resource="https://creativecommons.org/choose/mark/"/><crm:P106_is_composed_of>S</crm:P106_is_composed_of><crm:P106_is_composed_of>R</crm:P106_is_composed_of><crm:P106_is_composed_of>M</crm:P106_is_composed_of></cc:Work></rdf:RDF></metadata><defs id="defs6"><clipPath id="clipPath18" clipPathUnits="userSpaceOnUse"><path id="path16" d="M 0,222.546 H 213.021 V 0 H 0 Z"
               inkscape:connector-curvature="0"/></clipPath></defs><g transform="matrix(1.3333333,0,0,-1.3333333,-92.91138,198.0282)" id="g10"><g id="g12"><g clip-path="url(#clipPath18)" id="g14"><g transform="translate(105.9832,117.6358)" id="g20"><path id="path22" style="fill:#231f20;fill-opacity:1;fill-rule:nonzero;stroke:none"
                     d="m 0,0 c 0.238,-0.047 1.282,-0.238 2.667,-0.238 1.883,0 4.401,0.35 6.396,1.87 1.743,1.333 2.76,3.328 2.941,5.78 0.541,7.469 -4.55,9.674 -9.813,11.296 -3.995,1.231 -4.643,2.802 -4.597,3.161 l 0.112,0.494 c 0.103,0.802 0.807,3.45 5.352,3.072 4.317,-0.312 5.096,-2.918 5.175,-3.244 0.27,-1.278 1.58,-2.08 2.788,-1.851 1.296,0.252 2.14,1.506 1.892,2.797 -0.051,0.266 -1.347,6.471 -9.51,7.063 -7.394,0.517 -10.051,-4.308 -10.424,-7.128 -0.154,-0.672 -0.321,-2.159 0.555,-3.87 1.142,-2.223 3.58,-3.925 7.249,-5.053 C 6.578,12.363 7.478,10.988 7.24,7.757 7.137,6.331 6.583,5.748 6.172,5.436 4.69,4.294 1.809,4.522 0.844,4.695 -0.047,4.844 -2.573,5.585 -3.566,7.198 -4.261,8.326 -5.734,8.657 -6.853,7.977 -7.972,7.282 -8.321,5.813 -7.631,4.69 -5.315,0.932 -0.457,0.07 0,0"
                     inkscape:connector-curvature="0"/></g><g transform="translate(83.1353,61.861)" id="g24"><path id="path26" style="fill:#231f20;fill-opacity:1;fill-rule:nonzero;stroke:none"
                     d="M 0,0 C 0,-3.165 -3.433,-5.906 -7.902,-6.646 V 6.65 C -3.433,5.911 0,3.169 0,0 m 33.196,29.305 -7.346,-7.031 -8.094,6.785 7.928,6.603 z m 42.135,18.162 c 0,-10.859 -8.319,-15.828 -12.918,-17.748 V 64.262 C 66.94,62.719 75.331,58.386 75.331,47.467 m -85.62,-59.089 c 8.308,0 15.063,5.212 15.063,11.622 0,5.782 -5.502,10.579 -12.676,11.466 V 64.085 L 21.985,38.792 12.57,30.951 c -0.016,-0.012 -0.03,-0.025 -0.046,-0.038 l -9.69,-8.07 C 1.823,21.999 1.688,20.498 2.531,19.482 c 0.471,-0.564 1.152,-0.858 1.833,-0.858 0.54,0 1.081,0.182 1.529,0.555 l 8.137,6.777 12.035,-10.087 10.796,10.334 8.289,-7.015 c 0.448,-0.377 0.998,-0.564 1.543,-0.564 0.677,0 1.352,0.289 1.823,0.844 0.853,1.007 0.728,2.513 -0.28,3.366 L 29.411,38.766 57.64,62.275 v -71.51 c 0,-1.32 1.067,-2.387 2.386,-2.387 1.32,0 2.387,1.067 2.387,2.387 V 19.059 L 79.429,0.121 c 0.471,-0.527 1.124,-0.792 1.776,-0.792 0.569,0 1.138,0.2 1.595,0.61 0.983,0.881 1.063,2.392 0.182,3.371 L 63.506,24.985 c 6.957,2.674 16.599,9.635 16.599,22.482 0,14.815 -12.751,21.006 -19.576,22.234 -0.016,0.003 -0.032,0.006 -0.049,0.009 -0.014,0.003 -0.029,0.006 -0.043,0.009 -0.034,0.007 -0.067,0.004 -0.101,0.01 -0.059,0.007 -0.118,0.014 -0.178,0.018 -0.609,0.049 -1.19,-0.155 -1.644,-0.534 -0.005,-0.005 -0.011,-0.008 -0.017,-0.012 L 25.712,41.896 -8.746,71.056 c -0.033,0.028 -0.07,0.046 -0.104,0.072 -0.068,0.051 -0.136,0.098 -0.209,0.142 -0.059,0.036 -0.119,0.068 -0.181,0.098 -0.081,0.04 -0.165,0.075 -0.251,0.106 -0.057,0.02 -0.113,0.038 -0.171,0.053 -0.095,0.026 -0.191,0.046 -0.291,0.06 -0.053,0.007 -0.106,0.012 -0.16,0.016 -0.059,0.004 -0.115,0.018 -0.176,0.018 -0.048,0 -0.092,-0.012 -0.14,-0.015 -0.045,-0.002 -0.09,-0.008 -0.135,-0.013 -0.113,-0.013 -0.223,-0.031 -0.33,-0.059 -0.039,-0.01 -0.076,-0.024 -0.114,-0.036 -0.107,-0.034 -0.212,-0.072 -0.312,-0.12 -0.044,-0.021 -0.086,-0.046 -0.13,-0.07 -0.087,-0.05 -0.173,-0.101 -0.253,-0.161 -0.052,-0.037 -0.1,-0.079 -0.148,-0.122 -0.067,-0.057 -0.131,-0.116 -0.19,-0.181 -0.022,-0.024 -0.049,-0.042 -0.071,-0.067 -0.028,-0.034 -0.046,-0.072 -0.072,-0.106 -0.05,-0.066 -0.096,-0.133 -0.139,-0.203 -0.039,-0.065 -0.074,-0.13 -0.107,-0.197 -0.035,-0.072 -0.065,-0.145 -0.093,-0.221 -0.027,-0.073 -0.049,-0.145 -0.068,-0.22 -0.02,-0.074 -0.035,-0.148 -0.047,-0.224 -0.013,-0.083 -0.021,-0.166 -0.025,-0.249 -0.002,-0.042 -0.013,-0.081 -0.013,-0.123 V -9.235 c 0,-1.32 1.068,-2.387 2.387,-2.387"
                     inkscape:connector-curvature="0"/></g><text id="text30"
                  style="font-variant:normal;font-weight:normal;font-stretch:normal;font-size:99.54199982px;font-family:'Myriad Pro';-inkscape-font-specification:MyriadPro-Regular;writing-mode:lr-tb;fill:#231f20;fill-opacity:1;fill-rule:nonzero;stroke:none"
                  transform="matrix(1,0,0,-1,6.5107,-80.4844)"><tspan id="tspan28" y="0" x="0 53.852222 103.72276 158.96857">Zeno</tspan></text>



</g></g></g></svg>