<?xml version="1.0" encoding="UTF-8"?>
<svg xmlns:foaf="http://xmlns.com/foaf/0.1/" xmlns:svg="http://www.w3.org/2000/svg"
     xmlns:dc="http://purl.org/dc/elements/1.1/"
     xmlns:crm="http://www.cidoc-crm.org/cidoc-crm/"
     xmlns="http://www.w3.org/2000/svg"
     xmlns:sodipodi="http://sodipodi.sourceforge.net/DTD/sodipodi-0.dtd"
     xmlns:cc="http://creativecommons.org/ns#"
     xmlns:inkscape="http://www.inkscape.org/namespaces/inkscape"
     xmlns:nmo="http://nomisma.org/ontology#"
     xmlns:rdf="http://www.w3.org/1999/02/22-rdf-syntax-ns#"
     viewBox="0 0 149.84131 108.91413"
     height="108.91413"
     width="149.84131"
     xml:space="preserve"
     id="svg2"
     version="1.1"
     sodipodi:docname="pg_0013.svg"
     inkscape:version="0.92.3 (2405546, 2018-03-11)"><sodipodi:namedview pagecolor="#ffffff" bordercolor="#666666" borderopacity="1"
                       objecttolerance="10"
                       gridtolerance="10"
                       guidetolerance="10"
                       inkscape:pageopacity="0"
                       inkscape:pageshadow="2"
                       inkscape:window-width="614"
                       inkscape:window-height="450"
                       id="namedview14"
                       showgrid="false"
                       inkscape:zoom="0.89388969"
                       inkscape:cx="77.005741"
                       inkscape:cy="51.715466"
                       inkscape:window-x="83"
                       inkscape:window-y="27"
                       inkscape:window-maximized="0"
                       inkscape:current-layer="svg2"/><metadata><rdf:RDF><cc:Work rdf:about="https://nomisma.org/svg/monogram.01553.svg"><dc:title>Monogram 1553</dc:title><dc:description>Monogram 1553 published by Nomisma.org. See matching URIs and bibliographic references for further information about the usage of this symbol on coinage.</dc:description><foaf:focus rdf:resource="http://nomisma.org/symbol/monogram.01553"/><dc:format>image/svg+xml</dc:format><dc:type rdf:resource="http://purl.org/dc/dcmitype/StillImage"/><cc:license rdf:resource="https://creativecommons.org/choose/mark/"/><crm:P106_is_composed_of>S</crm:P106_is_composed_of><crm:P106_is_composed_of>R</crm:P106_is_composed_of><crm:P106_is_composed_of>M</crm:P106_is_composed_of></cc:Work></rdf:RDF></metadata><defs id="defs6"><clipPath id="clipPath18" clipPathUnits="userSpaceOnUse"><path id="path16" d="M 0,198.011 H 198.011 V 0 H 0 Z"
               inkscape:connector-curvature="0"/></clipPath></defs><g transform="matrix(1.3333333,0,0,-1.3333333,-55.001599,189.206)" id="g10"><g id="g12"><g clip-path="url(#clipPath18)" id="g14"><g transform="translate(104.3412,91.2425)" id="g20"><path id="path22" style="fill:#231f20;fill-opacity:1;fill-rule:nonzero;stroke:none"
                     d="M 0,0 -14.857,17.316 20.078,43.502 V 9.308 Z m -42.177,2.807 v 39.02 L -21.802,18.079 Z M 35.561,29.18 c 0,-9.721 -6.592,-15.132 -10.709,-17.566 v 33.362 c 4,-1.697 10.709,-6.003 10.709,-15.796 M 48.474,-15.891 24.852,4.738 v 1.477 c 4.231,2.008 15.482,8.684 15.482,22.965 0,13.971 -11.356,20.125 -17.365,21.426 -0.027,0.006 -0.053,0.004 -0.08,0.009 -0.085,0.016 -0.17,0.023 -0.256,0.03 -0.075,0.005 -0.15,0.012 -0.224,0.01 -0.073,-10e-4 -0.144,-0.01 -0.216,-0.018 -0.084,-0.01 -0.167,-0.019 -0.249,-0.037 -0.065,-0.014 -0.127,-0.036 -0.191,-0.056 -0.085,-0.026 -0.168,-0.053 -0.248,-0.088 -0.06,-0.026 -0.116,-0.059 -0.173,-0.09 -0.081,-0.044 -0.16,-0.089 -0.235,-0.142 -0.021,-0.014 -0.043,-0.023 -0.063,-0.038 L -17.973,20.949 -42.75,49.827 c -0.019,0.022 -0.042,0.038 -0.062,0.059 -0.062,0.067 -0.128,0.128 -0.198,0.188 -0.049,0.042 -0.097,0.085 -0.148,0.122 -0.077,0.057 -0.158,0.105 -0.242,0.151 -0.05,0.028 -0.098,0.058 -0.149,0.081 -0.093,0.044 -0.189,0.078 -0.288,0.109 -0.047,0.015 -0.093,0.032 -0.14,0.044 -0.102,0.026 -0.206,0.041 -0.312,0.053 -0.049,0.006 -0.098,0.012 -0.148,0.015 -0.042,0.002 -0.083,0.013 -0.126,0.013 h -16.065 c -1.32,0 -2.387,-1.068 -2.387,-2.387 0,-1.319 1.067,-2.387 2.387,-2.387 H -46.95 V -24.6 h -13.753 c -1.319,0 -2.387,-1.067 -2.387,-2.387 0,-1.319 1.068,-2.386 2.387,-2.386 h 16.065 c 0.013,0 0.025,0.003 0.037,0.003 0.013,0 0.025,-0.003 0.038,-0.003 1.319,0 2.386,1.067 2.386,2.386 v 23.826 l 23.491,17.608 16.238,-18.926 c 0.005,-0.006 0.012,-0.01 0.017,-0.016 0.029,-0.033 0.064,-0.056 0.094,-0.087 0.116,-0.119 0.239,-0.225 0.372,-0.315 0.056,-0.037 0.113,-0.068 0.172,-0.1 0.126,-0.071 0.257,-0.13 0.393,-0.176 0.057,-0.019 0.112,-0.041 0.171,-0.056 0.195,-0.051 0.393,-0.084 0.594,-0.084 0.155,0 0.308,0.018 0.46,0.048 0.054,0.011 0.106,0.028 0.159,0.043 0.1,0.026 0.198,0.058 0.295,0.098 0.029,0.012 0.06,0.016 0.089,0.03 l 19.71,9.137 v -31.03 c 0,-1.319 1.068,-2.386 2.387,-2.386 1.319,0 2.387,1.067 2.387,2.386 v 25.382 l 20.48,-17.885 c 0.452,-0.392 1.011,-0.588 1.571,-0.588 0.661,0 1.324,0.275 1.799,0.816 0.867,0.993 0.765,2.504 -0.228,3.371"
                     inkscape:connector-curvature="0"/></g><g transform="translate(87.5067,90.6329)" id="g24"><path id="path26" style="fill:#231f20;fill-opacity:1;fill-rule:nonzero;stroke:none"
                     d="m 0,0 c -7.45,0.653 -10.149,-4.07 -10.592,-6.876 -0.172,-0.667 -0.378,-2.149 0.457,-3.879 1.086,-2.256 3.487,-4.014 7.133,-5.235 5.748,-1.921 6.615,-3.315 6.298,-6.536 -0.135,-1.427 -0.704,-1.995 -1.124,-2.299 -1.51,-1.109 -4.382,-0.811 -5.347,-0.61 -0.886,0.172 -3.394,0.974 -4.349,2.606 -0.667,1.142 -2.14,1.51 -3.264,0.858 -1.142,-0.667 -1.524,-2.126 -0.858,-3.264 2.229,-3.813 7.059,-4.792 7.516,-4.876 0.256,-0.056 1.459,-0.303 3.025,-0.303 1.837,0 4.172,0.34 6.074,1.715 1.777,1.292 2.84,3.264 3.082,5.707 0.722,7.459 -4.317,9.785 -9.543,11.533 -3.963,1.324 -4.573,2.909 -4.517,3.273 l 0.126,0.527 c 0.046,0.345 0.601,3.421 5.417,2.904 4.312,-0.415 5.025,-3.035 5.1,-3.371 0.238,-1.282 1.478,-2.13 2.741,-1.916 1.301,0.219 2.177,1.45 1.958,2.751 C 9.286,-7.025 8.149,-0.792 0,0"
                     inkscape:connector-curvature="0"/></g></g></g></g></svg>