<?xml version="1.0" encoding="UTF-8"?>
<svg xmlns:foaf="http://xmlns.com/foaf/0.1/" xmlns:svg="http://www.w3.org/2000/svg"
     xmlns:dc="http://purl.org/dc/elements/1.1/"
     xmlns:crm="http://www.cidoc-crm.org/cidoc-crm/"
     xmlns="http://www.w3.org/2000/svg"
     xmlns:sodipodi="http://sodipodi.sourceforge.net/DTD/sodipodi-0.dtd"
     xmlns:cc="http://creativecommons.org/ns#"
     xmlns:inkscape="http://www.inkscape.org/namespaces/inkscape"
     xmlns:nmo="http://nomisma.org/ontology#"
     xmlns:rdf="http://www.w3.org/1999/02/22-rdf-syntax-ns#"
     viewBox="0 0 52.255801 75.166663"
     height="75.166664"
     width="52.255802"
     xml:space="preserve"
     id="svg2"
     version="1.1"
     sodipodi:docname="pg_0058.svg"
     inkscape:version="0.92.3 (2405546, 2018-03-11)"><sodipodi:namedview pagecolor="#ffffff" bordercolor="#666666" borderopacity="1"
                       objecttolerance="10"
                       gridtolerance="10"
                       guidetolerance="10"
                       inkscape:pageopacity="0"
                       inkscape:pageshadow="2"
                       inkscape:window-width="614"
                       inkscape:window-height="450"
                       id="namedview12"
                       showgrid="false"
                       inkscape:zoom="0.96711798"
                       inkscape:cx="24.050871"
                       inkscape:cy="42.173868"
                       inkscape:window-x="83"
                       inkscape:window-y="27"
                       inkscape:window-maximized="0"
                       inkscape:current-layer="svg2"/><metadata><rdf:RDF><cc:Work rdf:about="https://nomisma.org/svg/monogram.01509.svg"><dc:title>Monogram 1509</dc:title><dc:description>Monogram 1509 published by Nomisma.org. See matching URIs and bibliographic references for further information about the usage of this symbol on coinage.</dc:description><foaf:focus rdf:resource="http://nomisma.org/symbol/monogram.01509"/><dc:format>image/svg+xml</dc:format><dc:type rdf:resource="http://purl.org/dc/dcmitype/StillImage"/><cc:license rdf:resource="https://creativecommons.org/choose/mark/"/></cc:Work></rdf:RDF></metadata><defs id="defs6"><clipPath id="clipPath18" clipPathUnits="userSpaceOnUse"><path id="path16" d="M 0,183.018 H 178.031 V 0 H 0 Z"
               inkscape:connector-curvature="0"/></clipPath></defs><g transform="matrix(1.3333333,0,0,-1.3333333,-94.636461,155.0048)" id="g10"><g id="g12"><g clip-path="url(#clipPath18)" id="g14"><g transform="translate(86.2592,107.1806)" id="g20"><path id="path22" style="fill:#231f20;fill-opacity:1;fill-rule:nonzero;stroke:none"
                     d="m 0,0 c -3.805,-4.769 -5.043,-10.888 -3.616,-18.466 0.387,-1.549 0.991,-6.493 -1.193,-8.821 -4.291,-4.566 -8.852,-8.578 -8.907,-8.627 -1.913,-1.68 -2.098,-4.593 -0.418,-6.507 1.675,-1.913 4.597,-2.102 6.506,-0.418 0.203,0.175 4.972,4.381 9.537,9.239 6.034,6.421 3.697,16.318 3.476,17.12 -0.855,4.584 -0.27,8.082 1.797,10.698 1.959,2.472 4.957,3.832 7.506,4.575 v -41.484 c 0,-2.548 2.062,-4.611 4.611,-4.611 2.548,0 4.611,2.063 4.611,4.611 V 9.073 L 19.119,8.888 C 18.615,8.87 6.633,8.312 0,0"
                     inkscape:connector-curvature="0"/></g></g></g></g></svg>