<?xml version="1.0" encoding="UTF-8"?>
<svg xmlns:foaf="http://xmlns.com/foaf/0.1/" xmlns:svg="http://www.w3.org/2000/svg"
     xmlns:dc="http://purl.org/dc/elements/1.1/"
     xmlns:crm="http://www.cidoc-crm.org/cidoc-crm/"
     xmlns="http://www.w3.org/2000/svg"
     xmlns:sodipodi="http://sodipodi.sourceforge.net/DTD/sodipodi-0.dtd"
     xmlns:cc="http://creativecommons.org/ns#"
     xmlns:inkscape="http://www.inkscape.org/namespaces/inkscape"
     xmlns:nmo="http://nomisma.org/ontology#"
     xmlns:rdf="http://www.w3.org/1999/02/22-rdf-syntax-ns#"
     viewBox="0 0 346.66931 427.04645"
     height="427.04645"
     width="346.66931"
     xml:space="preserve"
     id="svg2"
     version="1.1"
     sodipodi:docname="monogram.houghton.432.svg"
     inkscape:version="0.92.3 (2405546, 2018-03-11)"><sodipodi:namedview pagecolor="#ffffff" bordercolor="#666666" borderopacity="1"
                       objecttolerance="10"
                       gridtolerance="10"
                       guidetolerance="10"
                       inkscape:pageopacity="0"
                       inkscape:pageshadow="2"
                       inkscape:window-width="640"
                       inkscape:window-height="480"
                       id="namedview22"
                       showgrid="false"
                       inkscape:zoom="0.44250002"
                       inkscape:cx="173.33466"
                       inkscape:cy="213.52324"
                       inkscape:window-x="83"
                       inkscape:window-y="27"
                       inkscape:window-maximized="0"
                       inkscape:current-layer="svg2"/><metadata><rdf:RDF><cc:Work rdf:about="https://nomisma.org/svg/monogram.03216.svg"><dc:title>Monogram 3216</dc:title><dc:description>Monogram 3216 published by Nomisma.org. See matching URIs and bibliographic references for further information about the usage of this symbol on coinage.</dc:description><foaf:focus rdf:resource="http://nomisma.org/symbol/monogram.03216"/><dc:format>image/svg+xml</dc:format><dc:type rdf:resource="http://purl.org/dc/dcmitype/StillImage"/><dc:creator rdf:resource="https://orcid.org/0000-0001-7542-4252"/><cc:license rdf:resource="https://creativecommons.org/choose/mark/"/><crm:P106_is_composed_of>Η</crm:P106_is_composed_of></cc:Work></rdf:RDF></metadata><defs id="defs6"><clipPath id="clipPath26" clipPathUnits="userSpaceOnUse"><path id="path24" d="M 0,400 H 400 V 0 H 0 Z" inkscape:connector-curvature="0"/></clipPath></defs><g transform="matrix(1.3333333,0,0,-1.3333333,-93.331998,480.18989)" id="g10"><g transform="translate(80,350)" id="g12"><path id="path14"
               style="fill:none;stroke:#000000;stroke-width:20;stroke-linecap:round;stroke-linejoin:round;stroke-miterlimit:10;stroke-dasharray:none;stroke-opacity:1"
               d="M 0,0 V -300"
               inkscape:connector-curvature="0"/></g><g transform="translate(320,350)" id="g16"><path id="path18"
               style="fill:none;stroke:#000000;stroke-width:20;stroke-linecap:round;stroke-linejoin:round;stroke-miterlimit:10;stroke-dasharray:none;stroke-opacity:1"
               d="M 0,0 V -300"
               inkscape:connector-curvature="0"/></g><g id="g20"><g clip-path="url(#clipPath26)" id="g22"><g transform="translate(126.9395,167.3682)" id="g28"><path id="path30"
                     style="fill:none;stroke:#000000;stroke-width:20;stroke-linecap:round;stroke-linejoin:round;stroke-miterlimit:10;stroke-dasharray:none;stroke-opacity:1"
                     d="m 0,0 c -6.27,1.099 -12.221,3.407 -17.539,6.73 -5.316,3.325 -10,7.662 -13.734,12.817 -3.735,5.155 -6.52,11.127 -8.041,17.72 -1.521,6.592 -1.635,13.181 -0.537,19.451 1.099,6.27 3.408,12.221 6.731,17.539 3.324,5.317 7.662,10 12.816,13.735 5.155,3.734 11.128,6.519 17.72,8.041 6.593,1.521 13.182,1.634 19.452,0.536"
                     inkscape:connector-curvature="0"/></g><g transform="translate(269.4199,242.6318)" id="g32"><path id="path34"
                     style="fill:none;stroke:#000000;stroke-width:20;stroke-linecap:round;stroke-linejoin:round;stroke-miterlimit:10;stroke-dasharray:none;stroke-opacity:1"
                     d="m 0,0 c 6.271,-1.098 12.222,-3.408 17.539,-6.731 5.317,-3.323 10,-7.661 13.734,-12.816 3.735,-5.155 6.52,-11.127 8.041,-17.72 1.522,-6.592 1.635,-13.181 0.537,-19.452 -1.098,-6.269 -3.408,-12.22 -6.731,-17.538 -3.323,-5.317 -7.661,-10.001 -12.816,-13.735 -5.155,-3.735 -11.127,-6.52 -17.72,-8.04 -6.593,-1.522 -13.182,-1.635 -19.451,-0.537"
                     inkscape:connector-curvature="0"/></g><g transform="translate(252.5527,146.0625)" id="g36"><path id="path38"
                     style="fill:none;stroke:#000000;stroke-width:20;stroke-linecap:round;stroke-linejoin:round;stroke-miterlimit:10;stroke-dasharray:none;stroke-opacity:1"
                     d="M 0,0 -125.613,21.306"
                     inkscape:connector-curvature="0"/></g><g transform="translate(269.4199,242.6318)" id="g40"><path id="path42"
                     style="fill:none;stroke:#000000;stroke-width:20;stroke-linecap:round;stroke-linejoin:round;stroke-miterlimit:10;stroke-dasharray:none;stroke-opacity:1"
                     d="M 0,0 -125.613,21.305"
                     inkscape:connector-curvature="0"/></g></g></g></g></svg>