<?xml version="1.0" encoding="UTF-8"?>
<svg xmlns:foaf="http://xmlns.com/foaf/0.1/" xmlns:svg="http://www.w3.org/2000/svg"
     xmlns:dc="http://purl.org/dc/elements/1.1/"
     xmlns:crm="http://www.cidoc-crm.org/cidoc-crm/"
     xmlns="http://www.w3.org/2000/svg"
     xmlns:sodipodi="http://sodipodi.sourceforge.net/DTD/sodipodi-0.dtd"
     xmlns:cc="http://creativecommons.org/ns#"
     xmlns:inkscape="http://www.inkscape.org/namespaces/inkscape"
     xmlns:nmo="http://nomisma.org/ontology#"
     xmlns:rdf="http://www.w3.org/1999/02/22-rdf-syntax-ns#"
     viewBox="0 0 141.82318 108.91686"
     height="108.91685"
     width="141.82318"
     xml:space="preserve"
     id="svg2"
     version="1.1"
     sodipodi:docname="pg_0015.svg"
     inkscape:version="0.92.3 (2405546, 2018-03-11)"><sodipodi:namedview pagecolor="#ffffff" bordercolor="#666666" borderopacity="1"
                       objecttolerance="10"
                       gridtolerance="10"
                       guidetolerance="10"
                       inkscape:pageopacity="0"
                       inkscape:pageshadow="2"
                       inkscape:window-width="614"
                       inkscape:window-height="450"
                       id="namedview14"
                       showgrid="false"
                       inkscape:zoom="0.89388969"
                       inkscape:cx="62.176808"
                       inkscape:cy="56.775466"
                       inkscape:window-x="83"
                       inkscape:window-y="27"
                       inkscape:window-maximized="0"
                       inkscape:current-layer="svg2"/><metadata><rdf:RDF><cc:Work rdf:about="https://nomisma.org/svg/monogram.01558.svg"><dc:title>Monogram 1558</dc:title><dc:description>Monogram 1558 published by Nomisma.org. See matching URIs and bibliographic references for further information about the usage of this symbol on coinage.</dc:description><foaf:focus rdf:resource="http://nomisma.org/symbol/monogram.01558"/><dc:format>image/svg+xml</dc:format><dc:type rdf:resource="http://purl.org/dc/dcmitype/StillImage"/><cc:license rdf:resource="https://creativecommons.org/choose/mark/"/><crm:P106_is_composed_of>S</crm:P106_is_composed_of><crm:P106_is_composed_of>R</crm:P106_is_composed_of><crm:P106_is_composed_of>M</crm:P106_is_composed_of></cc:Work></rdf:RDF></metadata><defs id="defs6"><clipPath id="clipPath18" clipPathUnits="userSpaceOnUse"><path id="path16" d="M 0,198.011 H 198.011 V 0 H 0 Z"
               inkscape:connector-curvature="0"/></clipPath></defs><g transform="matrix(1.3333333,0,0,-1.3333333,-69.830532,184.14872)" id="g10"><g id="g12"><g clip-path="url(#clipPath18)" id="g14"><g transform="translate(135.5459,96.7553)" id="g20"><path id="path22" style="fill:#231f20;fill-opacity:1;fill-rule:nonzero;stroke:none"
                     d="m 0,0 -18.874,-8.747 c -1.209,6.326 -4.817,20.563 -13.909,30.002 0.071,0.047 0.138,0.094 0.21,0.141 C -18.33,30.701 -5.469,34.623 0,35.991 Z m -62.26,-0.705 v 36.008 c 4.825,-2.247 14.105,-7.001 21.87,-13.508 -11.456,-8.37 -18.093,-16.472 -21.87,-22.5 M 4.774,35.623 C 9.349,33.73 17.636,28.925 17.636,18.954 17.636,8.879 9.386,3.886 4.774,1.88 Z M 22.377,-19.945 4.774,-4.57 v 1.297 C 11.718,-0.812 22.41,6.198 22.41,18.954 22.41,32.888 9.678,39.657 2.951,41.289 2.937,41.292 2.923,41.291 2.909,41.294 2.611,41.365 2.299,41.377 1.991,41.321 1.282,41.2 -15.501,38.249 -35.183,25.396 c -0.397,-0.259 -0.773,-0.518 -1.161,-0.777 -11.507,10.028 -26.318,16.121 -27.366,16.544 -0.006,0.002 -0.011,0.004 -0.016,0.006 -0.008,0.004 -0.024,0.01 -0.03,0.012 -0.04,0.016 -0.081,0.022 -0.122,0.035 -0.105,0.036 -0.211,0.072 -0.323,0.093 -0.078,0.015 -0.155,0.016 -0.233,0.024 -0.071,0.006 -0.14,0.021 -0.212,0.021 h -16.065 c -1.32,0 -2.387,-1.068 -2.387,-2.387 0,-1.319 1.067,-2.387 2.387,-2.387 h 13.678 v -70.487 h -13.753 c -1.319,0 -2.387,-1.068 -2.387,-2.387 0,-1.32 1.068,-2.387 2.387,-2.387 h 16.065 c 0.013,0 0.025,0.003 0.037,0.003 0.013,0 0.025,-0.003 0.038,-0.003 1.319,0 2.386,1.067 2.386,2.387 v 24.689 c 0.596,1.962 5.358,15.665 25.484,30.119 0.055,-0.054 0.112,-0.107 0.166,-0.162 10.937,-10.941 13.501,-30.68 13.524,-30.88 0.005,-0.04 0.019,-0.077 0.026,-0.116 0.013,-0.078 0.029,-0.155 0.051,-0.232 0.021,-0.078 0.049,-0.152 0.077,-0.226 0.018,-0.044 0.026,-0.091 0.047,-0.135 0.008,-0.017 0.022,-0.03 0.031,-0.047 0.088,-0.18 0.197,-0.345 0.324,-0.495 0.03,-0.034 0.062,-0.064 0.093,-0.097 0.124,-0.129 0.259,-0.246 0.408,-0.344 0.021,-0.014 0.038,-0.031 0.059,-0.043 0.166,-0.103 0.346,-0.179 0.534,-0.239 0.041,-0.013 0.082,-0.024 0.123,-0.035 0.191,-0.049 0.387,-0.084 0.591,-0.084 0.001,0 0.002,0 0.003,0 0.001,0 0.001,0 0.002,0 0.002,0 0.004,0 0.006,0 0.094,0.001 0.189,0.005 0.287,0.018 0.036,0.005 0.068,0.018 0.102,0.024 0.081,0.013 0.16,0.032 0.239,0.054 0.084,0.024 0.166,0.05 0.245,0.082 0.041,0.016 0.083,0.022 0.123,0.041 L 0,-5.265 v -31.029 c 0,-1.32 1.068,-2.387 2.387,-2.387 1.319,0 2.387,1.067 2.387,2.387 v 25.381 l 14.461,-12.631 c 0.452,-0.392 1.012,-0.588 1.571,-0.588 0.662,0 1.324,0.276 1.799,0.816 0.868,0.993 0.765,2.504 -0.228,3.371"
                     inkscape:connector-curvature="0"/></g><g transform="translate(98.6331,86.8379)" id="g24"><path id="path26" style="fill:#231f20;fill-opacity:1;fill-rule:nonzero;stroke:none"
                     d="m 0,0 c -7.548,0.676 -10.154,-4.07 -10.592,-6.876 -0.172,-0.672 -0.377,-2.149 0.457,-3.879 1.086,-2.256 3.482,-4.014 7.128,-5.235 5.748,-1.921 6.615,-3.315 6.298,-6.536 -0.135,-1.427 -0.704,-1.996 -1.123,-2.299 -1.511,-1.109 -4.396,-0.811 -5.347,-0.61 -0.886,0.172 -3.394,0.969 -4.35,2.606 -0.667,1.142 -2.135,1.533 -3.263,0.858 -1.138,-0.662 -1.525,-2.126 -0.858,-3.264 2.228,-3.818 7.063,-4.797 7.515,-4.876 0.256,-0.056 1.459,-0.303 3.026,-0.303 1.836,0 4.172,0.34 6.074,1.715 1.776,1.292 2.839,3.264 3.082,5.707 0.722,7.459 -4.318,9.785 -9.543,11.533 -3.958,1.324 -4.569,2.909 -4.513,3.268 l 0.121,0.494 c 0.126,0.802 0.923,3.422 5.422,2.942 4.308,-0.415 5.025,-3.04 5.1,-3.375 0.238,-1.282 1.478,-2.126 2.741,-1.916 1.301,0.219 2.177,1.449 1.958,2.75 C 9.287,-7.03 8.14,-0.793 0,0"
                     inkscape:connector-curvature="0"/></g></g></g></g></svg>