<?xml version="1.0" encoding="UTF-8"?>
<svg xmlns:foaf="http://xmlns.com/foaf/0.1/" xmlns:svg="http://www.w3.org/2000/svg"
     xmlns:dc="http://purl.org/dc/elements/1.1/"
     xmlns:crm="http://www.cidoc-crm.org/cidoc-crm/"
     xmlns="http://www.w3.org/2000/svg"
     xmlns:sodipodi="http://sodipodi.sourceforge.net/DTD/sodipodi-0.dtd"
     xmlns:cc="http://creativecommons.org/ns#"
     xmlns:inkscape="http://www.inkscape.org/namespaces/inkscape"
     xmlns:nmo="http://nomisma.org/ontology#"
     xmlns:rdf="http://www.w3.org/1999/02/22-rdf-syntax-ns#"
     viewBox="0 0 136.308 135.624"
     height="135.62399"
     width="136.308"
     xml:space="preserve"
     id="svg2"
     version="1.1"
     sodipodi:docname="pg_0019.svg"
     inkscape:version="0.92.3 (2405546, 2018-03-11)"><sodipodi:namedview pagecolor="#ffffff" bordercolor="#666666" borderopacity="1"
                       objecttolerance="10"
                       gridtolerance="10"
                       guidetolerance="10"
                       inkscape:pageopacity="0"
                       inkscape:pageshadow="2"
                       inkscape:window-width="640"
                       inkscape:window-height="480"
                       id="namedview14"
                       showgrid="false"
                       inkscape:zoom="0.83090395"
                       inkscape:cx="54.74001"
                       inkscape:cy="74.397461"
                       inkscape:window-x="83"
                       inkscape:window-y="27"
                       inkscape:window-maximized="0"
                       inkscape:current-layer="svg2"/><metadata><rdf:RDF><cc:Work rdf:about="https://nomisma.org/svg/monogram.01532.svg"><dc:title>Monogram 1532</dc:title><dc:description>Monogram 1532 published by Nomisma.org. See matching URIs and bibliographic references for further information about the usage of this symbol on coinage.</dc:description><foaf:focus rdf:resource="http://nomisma.org/symbol/monogram.01532"/><dc:format>image/svg+xml</dc:format><dc:type rdf:resource="http://purl.org/dc/dcmitype/StillImage"/><cc:license rdf:resource="https://creativecommons.org/choose/mark/"/><crm:P106_is_composed_of>N</crm:P106_is_composed_of><crm:P106_is_composed_of>S</crm:P106_is_composed_of><crm:P106_is_composed_of>O</crm:P106_is_composed_of></cc:Work></rdf:RDF></metadata><defs id="defs6"><clipPath id="clipPath18" clipPathUnits="userSpaceOnUse"><path id="path16" d="M 0,213.021 H 213.021 V 0 H 0 Z"
               inkscape:connector-curvature="0"/></clipPath></defs><g transform="matrix(1.3333333,0,0,-1.3333333,-87.273998,203.24053)" id="g10"><g id="g12"><g clip-path="url(#clipPath18)" id="g14"><g transform="translate(70.2295,140.8034)" id="g20"><path id="path22" style="fill:#231f20;fill-opacity:1;fill-rule:nonzero;stroke:none"
                     d="m 0,0 c 0,3.781 3.072,6.853 6.853,6.853 3.781,0 6.853,-3.072 6.853,-6.853 0,-3.776 -3.072,-6.848 -6.853,-6.848 C 3.072,-6.848 0,-3.776 0,0 m 95.07,-13.487 c 1.319,0 2.387,1.068 2.387,2.387 0,1.319 -1.068,2.387 -2.387,2.387 H 77.168 c -1.319,0 -2.387,-1.068 -2.387,-2.387 v -70.364 l -63.405,70.758 c 4.17,1.766 7.103,5.899 7.103,10.706 0,6.41 -5.216,11.627 -11.626,11.627 C 0.443,11.627 -4.774,6.41 -4.774,0 c 0,-5.592 3.971,-10.27 9.24,-11.374 v -76.33 c 0,-1.319 1.068,-2.387 2.387,-2.387 h 17.901 c 1.32,0 2.387,1.068 2.387,2.387 0,1.319 -1.067,2.387 -2.387,2.387 H 9.24 v 69.842 l 66.152,-73.823 c 0.012,-0.015 0.028,-0.024 0.041,-0.038 0.074,-0.078 0.156,-0.148 0.241,-0.216 0.044,-0.036 0.086,-0.077 0.132,-0.11 0.09,-0.062 0.187,-0.112 0.285,-0.161 0.045,-0.024 0.088,-0.054 0.135,-0.074 0.129,-0.055 0.267,-0.097 0.407,-0.129 0.017,-0.004 0.033,-0.012 0.05,-0.015 0.157,-0.033 0.319,-0.05 0.485,-0.05 H 95.07 c 1.319,0 2.387,1.068 2.387,2.387 0,1.319 -1.068,2.387 -2.387,2.387 H 79.555 v 71.83 z"
                     inkscape:connector-curvature="0"/></g><g transform="translate(111.7759,110.2494)" id="g24"><path id="path26" style="fill:#231f20;fill-opacity:1;fill-rule:nonzero;stroke:none"
                     d="m 0,0 c 0.257,-0.056 1.459,-0.303 3.026,-0.303 1.836,0 4.172,0.34 6.074,1.715 1.776,1.292 2.839,3.264 3.082,5.707 0.722,7.459 -4.317,9.785 -9.543,11.533 -3.963,1.324 -4.574,2.909 -4.517,3.273 l 0.121,0.489 c 0.126,0.797 0.937,3.417 5.426,2.942 4.308,-0.415 5.025,-3.04 5.1,-3.375 0.238,-1.282 1.473,-2.126 2.741,-1.916 1.301,0.219 2.178,1.45 1.958,2.75 -0.046,0.266 -1.193,6.504 -9.333,7.296 -7.538,0.685 -10.154,-4.07 -10.596,-6.876 -0.173,-0.667 -0.378,-2.149 0.457,-3.879 C -4.918,17.1 -2.517,15.342 1.128,14.121 6.876,12.2 7.744,10.806 7.427,7.585 7.292,6.158 6.723,5.59 6.303,5.286 4.788,4.177 1.907,4.475 0.956,4.676 0.07,4.848 -2.438,5.646 -3.394,7.282 -4.061,8.424 -5.524,8.816 -6.657,8.14 -7.794,7.478 -8.182,6.014 -7.515,4.876 -5.286,1.058 -0.452,0.079 0,0"
                     inkscape:connector-curvature="0"/></g></g></g></g></svg>