<?xml version="1.0" encoding="UTF-8"?>
<svg xmlns:foaf="http://xmlns.com/foaf/0.1/" xmlns:svg="http://www.w3.org/2000/svg"
     xmlns:dc="http://purl.org/dc/elements/1.1/"
     xmlns:crm="http://www.cidoc-crm.org/cidoc-crm/"
     xmlns="http://www.w3.org/2000/svg"
     xmlns:sodipodi="http://sodipodi.sourceforge.net/DTD/sodipodi-0.dtd"
     xmlns:cc="http://creativecommons.org/ns#"
     xmlns:inkscape="http://www.inkscape.org/namespaces/inkscape"
     xmlns:nmo="http://nomisma.org/ontology#"
     xmlns:rdf="http://www.w3.org/1999/02/22-rdf-syntax-ns#"
     viewBox="0 0 131.2424 125.96442"
     height="125.96442"
     width="131.2424"
     xml:space="preserve"
     id="svg2"
     version="1.1"
     sodipodi:docname="pg_0016.svg"
     inkscape:version="0.92.3 (2405546, 2018-03-11)"><sodipodi:namedview pagecolor="#ffffff" bordercolor="#666666" borderopacity="1"
                       objecttolerance="10"
                       gridtolerance="10"
                       guidetolerance="10"
                       inkscape:pageopacity="0"
                       inkscape:pageshadow="2"
                       inkscape:window-width="614"
                       inkscape:window-height="450"
                       id="namedview14"
                       showgrid="false"
                       inkscape:zoom="0.89388969"
                       inkscape:cx="55.289075"
                       inkscape:cy="54.525866"
                       inkscape:window-x="83"
                       inkscape:window-y="27"
                       inkscape:window-maximized="0"
                       inkscape:current-layer="svg2"/><metadata><rdf:RDF><cc:Work rdf:about="https://nomisma.org/svg/monogram.01561.svg"><dc:title>Monogram 1561</dc:title><dc:description>Monogram 1561 published by Nomisma.org. See matching URIs and bibliographic references for further information about the usage of this symbol on coinage.</dc:description><foaf:focus rdf:resource="http://nomisma.org/symbol/monogram.01561"/><dc:format>image/svg+xml</dc:format><dc:type rdf:resource="http://purl.org/dc/dcmitype/StillImage"/><cc:license rdf:resource="https://creativecommons.org/choose/mark/"/><crm:P106_is_composed_of>S</crm:P106_is_composed_of><crm:P106_is_composed_of>R</crm:P106_is_composed_of><crm:P106_is_composed_of>M</crm:P106_is_composed_of></cc:Work></rdf:RDF></metadata><defs id="defs6"><clipPath id="clipPath18" clipPathUnits="userSpaceOnUse"><path id="path16" d="M 0,198.011 H 198.011 V 0 H 0 Z"
               inkscape:connector-curvature="0"/></clipPath></defs><g transform="matrix(1.3333333,0,0,-1.3333333,-76.718265,203.44589)" id="g10"><g id="g12"><g clip-path="url(#clipPath18)" id="g14"><g transform="translate(73.8837,90.6981)" id="g20"><path id="path22" style="fill:#231f20;fill-opacity:1;fill-rule:nonzero;stroke:none"
                     d="m 0,0 -11.571,7.273 v 17.91 L 5.847,9.392 Z M 50.684,37.362 V -24.815 L 18.693,4.188 Z M 66.166,25.971 C 66.166,16.25 59.575,10.84 55.458,8.405 V 40.343 C 59.351,39.19 66.166,35.774 66.166,25.971 M 81.2,-15.128 57.487,4.069 c 5.011,2.869 13.452,9.536 13.452,21.902 0,14.154 -11.533,19.063 -17.626,19.678 -0.037,0.004 -0.072,-10e-4 -0.109,10e-4 -0.045,0.002 -0.088,0.013 -0.133,0.013 -0.009,0 -0.018,-0.002 -0.028,-0.003 -0.035,0 -0.069,-0.007 -0.105,-0.009 -0.078,-0.004 -0.155,-0.013 -0.231,-0.025 -0.077,-0.011 -0.15,-0.026 -0.224,-0.044 -0.077,-0.02 -0.151,-0.043 -0.225,-0.07 -0.074,-0.027 -0.146,-0.057 -0.217,-0.091 -0.065,-0.031 -0.128,-0.065 -0.19,-0.103 -0.041,-0.024 -0.086,-0.043 -0.125,-0.07 -0.02,-0.014 -0.037,-0.032 -0.056,-0.047 -0.009,-0.006 -0.016,-0.014 -0.025,-0.02 -0.055,-0.041 -0.107,-0.085 -0.158,-0.13 -0.041,-0.036 -0.084,-0.068 -0.121,-0.107 -0.005,-0.005 -0.011,-0.008 -0.015,-0.013 L 15.154,7.396 10.575,11.547 c -0.002,0.002 -0.004,0.004 -0.006,0.006 l -22.14,20.072 v 11.05 H 2.177 c 1.319,0 2.386,1.067 2.386,2.387 0,1.319 -1.067,2.387 -2.386,2.387 h -16.06 c -0.013,0 -0.025,-0.004 -0.038,-0.004 -0.013,0 -0.024,0.004 -0.037,0.004 -1.319,0 -2.387,-1.068 -2.387,-2.387 V -30.2 c 0,-1.319 1.068,-2.387 2.387,-2.387 h 16.06 c 1.319,0 2.387,1.068 2.387,2.387 0,1.32 -1.068,2.387 -2.387,2.387 H -11.571 V 1.633 l 11.063,-6.952 c 0.382,-0.238 0.82,-0.364 1.268,-0.364 0.177,0 0.359,0.019 0.536,0.061 0.62,0.144 1.156,0.527 1.492,1.063 L 9.445,6.13 51.467,-31.967 c 0.037,-0.034 0.08,-0.058 0.119,-0.089 0.067,-0.053 0.132,-0.107 0.204,-0.153 0.064,-0.04 0.13,-0.072 0.197,-0.106 0.066,-0.034 0.13,-0.07 0.2,-0.098 0.083,-0.033 0.168,-0.056 0.254,-0.079 0.059,-0.016 0.115,-0.037 0.175,-0.049 0.151,-0.029 0.302,-0.046 0.455,-0.046 0.336,0 0.656,0.071 0.946,0.197 0.014,0.006 0.028,0.016 0.043,0.023 0.132,0.06 0.258,0.13 0.376,0.213 0.032,0.022 0.06,0.051 0.092,0.075 0.097,0.076 0.191,0.156 0.276,0.246 0.01,0.011 0.023,0.018 0.033,0.03 0.029,0.032 0.049,0.068 0.076,0.102 0.063,0.077 0.124,0.156 0.178,0.241 0.033,0.053 0.059,0.108 0.088,0.163 0.043,0.082 0.084,0.164 0.117,0.251 0.024,0.064 0.041,0.128 0.059,0.192 0.024,0.083 0.047,0.166 0.062,0.252 0.013,0.075 0.017,0.15 0.022,0.225 0.005,0.059 0.019,0.116 0.019,0.177 v 29.77 l 22.74,-18.409 c 0.443,-0.359 0.974,-0.531 1.501,-0.531 0.695,0 1.385,0.303 1.856,0.886 0.83,1.025 0.671,2.526 -0.355,3.356"
                     inkscape:connector-curvature="0"/></g><g transform="translate(90.4984,122.4083)" id="g24"><path id="path26" style="fill:#231f20;fill-opacity:1;fill-rule:nonzero;stroke:none"
                     d="m 0,0 c 0.256,-0.056 1.459,-0.303 3.03,-0.303 1.837,0 4.173,0.34 6.074,1.72 1.777,1.287 2.84,3.259 3.082,5.702 0.723,7.459 -4.317,9.785 -9.543,11.533 -3.962,1.324 -4.573,2.914 -4.517,3.277 l 0.121,0.485 c 0.126,0.807 0.9,3.441 5.422,2.942 4.312,-0.415 5.025,-3.035 5.1,-3.371 0.233,-1.282 1.478,-2.13 2.741,-1.916 1.301,0.219 2.177,1.45 1.958,2.751 -0.047,0.266 -1.184,6.499 -9.333,7.291 C -3.403,30.787 -6.014,26.041 -6.457,23.239 -6.629,22.573 -6.834,21.09 -5.995,19.356 -4.909,17.1 -2.513,15.342 1.133,14.121 6.881,12.2 7.748,10.806 7.431,7.585 7.296,6.158 6.727,5.59 6.308,5.287 4.797,4.182 1.92,4.466 0.946,4.68 0.13,4.83 -2.424,5.627 -3.394,7.286 -4.065,8.429 -5.534,8.792 -6.662,8.14 -7.799,7.473 -8.182,6.009 -7.515,4.872 -5.282,1.063 -0.457,0.084 0,0"
                     inkscape:connector-curvature="0"/></g></g></g></g></svg>