<?xml version="1.0" encoding="UTF-8"?>
<svg xmlns:foaf="http://xmlns.com/foaf/0.1/" xmlns:svg="http://www.w3.org/2000/svg"
     xmlns:dc="http://purl.org/dc/elements/1.1/"
     xmlns:crm="http://www.cidoc-crm.org/cidoc-crm/"
     xmlns="http://www.w3.org/2000/svg"
     xmlns:sodipodi="http://sodipodi.sourceforge.net/DTD/sodipodi-0.dtd"
     xmlns:cc="http://creativecommons.org/ns#"
     xmlns:inkscape="http://www.inkscape.org/namespaces/inkscape"
     xmlns:nmo="http://nomisma.org/ontology#"
     xmlns:rdf="http://www.w3.org/1999/02/22-rdf-syntax-ns#"
     viewBox="0 0 136.30133 150.93334"
     height="150.93333"
     width="136.30133"
     xml:space="preserve"
     id="svg2"
     version="1.1"
     sodipodi:docname="pg_0018.svg"
     inkscape:version="0.92.3 (2405546, 2018-03-11)"><sodipodi:namedview pagecolor="#ffffff" bordercolor="#666666" borderopacity="1"
                       objecttolerance="10"
                       gridtolerance="10"
                       guidetolerance="10"
                       inkscape:pageopacity="0"
                       inkscape:pageshadow="2"
                       inkscape:window-width="640"
                       inkscape:window-height="480"
                       id="namedview14"
                       showgrid="false"
                       inkscape:zoom="0.83090395"
                       inkscape:cx="67.584676"
                       inkscape:cy="88.41706"
                       inkscape:window-x="83"
                       inkscape:window-y="27"
                       inkscape:window-maximized="0"
                       inkscape:current-layer="svg2"/><metadata><rdf:RDF><cc:Work rdf:about="https://nomisma.org/svg/monogram.01527.svg"><dc:title>Monogram 1527</dc:title><dc:description>Monogram 1527 published by Nomisma.org. See matching URIs and bibliographic references for further information about the usage of this symbol on coinage.</dc:description><foaf:focus rdf:resource="http://nomisma.org/symbol/monogram.01527"/><dc:format>image/svg+xml</dc:format><dc:type rdf:resource="http://purl.org/dc/dcmitype/StillImage"/><cc:license rdf:resource="https://creativecommons.org/choose/mark/"/><crm:P106_is_composed_of>N</crm:P106_is_composed_of><crm:P106_is_composed_of>S</crm:P106_is_composed_of><crm:P106_is_composed_of>O</crm:P106_is_composed_of></cc:Work></rdf:RDF></metadata><defs id="defs6"><clipPath id="clipPath18" clipPathUnits="userSpaceOnUse"><path id="path16" d="M 0,213.021 H 213.021 V 0 H 0 Z"
               inkscape:connector-curvature="0"/></clipPath></defs><g transform="matrix(1.3333333,0,0,-1.3333333,-74.429331,204.53026)" id="g10"><g id="g12"><g clip-path="url(#clipPath18)" id="g14"><g transform="translate(102.1379,111.2167)" id="g20"><path id="path22" style="fill:#231f20;fill-opacity:1;fill-rule:nonzero;stroke:none"
                     d="m 0,0 c 0.256,-0.056 1.459,-0.303 3.025,-0.303 1.837,0 4.173,0.34 6.075,1.716 1.776,1.291 2.839,3.263 3.081,5.706 0.723,7.459 -4.316,9.785 -9.543,11.533 -3.957,1.324 -4.568,2.909 -4.512,3.268 l 0.121,0.494 c 0.13,0.802 0.919,3.418 5.422,2.942 4.307,-0.415 5.025,-3.04 5.1,-3.375 0.233,-1.282 1.487,-2.126 2.741,-1.916 1.301,0.219 2.177,1.45 1.958,2.75 -0.047,0.266 -1.193,6.504 -9.333,7.296 C -3.427,30.796 -6.019,26.041 -6.457,23.235 -6.629,22.563 -6.834,21.086 -6,19.356 -4.914,17.1 -2.518,15.342 1.128,14.121 6.876,12.2 7.743,10.806 7.426,7.585 7.291,6.158 6.722,5.59 6.303,5.287 4.792,4.177 1.907,4.475 0.956,4.676 0.07,4.848 -2.438,5.646 -3.394,7.282 -4.061,8.424 -5.524,8.816 -6.657,8.14 -7.795,7.478 -8.182,6.014 -7.515,4.876 -5.287,1.058 -0.452,0.079 0,0"
                     inkscape:connector-curvature="0"/></g><g transform="translate(67.444,148.6237)" id="g24"><path id="path26" style="fill:#231f20;fill-opacity:1;fill-rule:nonzero;stroke:none"
                     d="m 0,0 c 3.781,0 6.853,-3.072 6.853,-6.853 0,-3.776 -3.072,-6.848 -6.853,-6.848 -3.776,0 -6.848,3.072 -6.848,6.848 C -6.848,-3.072 -3.776,0 0,0 m -2.387,-18.227 v -76.33 c 0,-0.062 0.014,-0.12 0.018,-0.181 0.007,-0.086 0.01,-0.172 0.026,-0.256 0.015,-0.081 0.041,-0.157 0.064,-0.235 0.02,-0.069 0.037,-0.139 0.064,-0.206 0.031,-0.08 0.072,-0.153 0.111,-0.228 0.032,-0.061 0.061,-0.123 0.099,-0.182 0.045,-0.07 0.099,-0.134 0.151,-0.199 0.044,-0.055 0.085,-0.111 0.133,-0.162 0.064,-0.066 0.136,-0.124 0.206,-0.182 0.047,-0.039 0.09,-0.081 0.14,-0.116 0.102,-0.071 0.211,-0.131 0.324,-0.187 0.024,-0.011 0.043,-0.028 0.067,-0.038 l 0.027,-0.012 c 0.015,-0.007 0.029,-0.014 0.045,-0.021 l 25.252,-11.45 c 0.317,-0.144 0.652,-0.214 0.983,-0.214 0.905,0 1.777,0.522 2.173,1.403 0.545,1.198 0.014,2.615 -1.189,3.156 l -23.92,10.846 v 70.693 l 66.152,-73.823 c 0.013,-0.015 0.028,-0.024 0.041,-0.037 0.074,-0.079 0.156,-0.149 0.241,-0.217 0.044,-0.036 0.086,-0.077 0.133,-0.11 0.089,-0.062 0.186,-0.111 0.284,-0.161 0.045,-0.023 0.088,-0.053 0.135,-0.074 0.129,-0.055 0.265,-0.096 0.405,-0.128 0.017,-0.004 0.034,-0.013 0.052,-0.016 0.157,-0.033 0.319,-0.05 0.485,-0.05 h 17.902 c 1.319,0 2.387,1.068 2.387,2.387 0,1.319 -1.068,2.387 -2.387,2.387 H 72.702 v 33.528 h 15.515 c 1.319,0 2.387,1.068 2.387,2.387 0,1.319 -1.068,2.387 -2.387,2.387 H 72.702 v 33.528 h 15.515 c 1.319,0 2.387,1.068 2.387,2.387 0,1.319 -1.068,2.387 -2.387,2.387 H 70.315 c -1.319,0 -2.387,-1.068 -2.387,-2.387 V -88.317 L 4.523,-17.559 c 4.17,1.767 7.104,5.899 7.104,10.706 0,6.41 -5.217,11.627 -11.627,11.627 -6.41,0 -11.622,-5.217 -11.622,-11.627 0,-5.592 3.967,-10.27 9.235,-11.374"
                     inkscape:connector-curvature="0"/></g></g></g></g></svg>