<?xml version="1.0" encoding="UTF-8"?>
<svg xmlns:foaf="http://xmlns.com/foaf/0.1/" xmlns:svg="http://www.w3.org/2000/svg"
     xmlns:dc="http://purl.org/dc/elements/1.1/"
     xmlns:crm="http://www.cidoc-crm.org/cidoc-crm/"
     xmlns="http://www.w3.org/2000/svg"
     xmlns:sodipodi="http://sodipodi.sourceforge.net/DTD/sodipodi-0.dtd"
     xmlns:cc="http://creativecommons.org/ns#"
     xmlns:inkscape="http://www.inkscape.org/namespaces/inkscape"
     xmlns:nmo="http://nomisma.org/ontology#"
     xmlns:rdf="http://www.w3.org/1999/02/22-rdf-syntax-ns#"
     viewBox="0 0 346.82202 451.58536"
     height="451.58536"
     width="346.82202"
     xml:space="preserve"
     id="svg2"
     version="1.1"
     sodipodi:docname="monogram.lorber.77.svg"
     inkscape:version="0.92.3 (2405546, 2018-03-11)"><sodipodi:namedview pagecolor="#ffffff" bordercolor="#666666" borderopacity="1"
                       objecttolerance="10"
                       gridtolerance="10"
                       guidetolerance="10"
                       inkscape:pageopacity="0"
                       inkscape:pageshadow="2"
                       inkscape:window-width="640"
                       inkscape:window-height="480"
                       id="namedview16"
                       showgrid="false"
                       inkscape:zoom="0.44250002"
                       inkscape:cx="239.10155"
                       inkscape:cy="238.25257"
                       inkscape:window-x="83"
                       inkscape:window-y="27"
                       inkscape:window-maximized="0"
                       inkscape:current-layer="svg2"/><metadata><rdf:RDF><cc:Work rdf:about="https://nomisma.org/svg/monogram.01637.svg"><dc:title>Monogram 1637</dc:title><dc:description>Monogram 1637 published by Nomisma.org. See matching URIs and bibliographic references for further information about the usage of this symbol on coinage.</dc:description><foaf:focus rdf:resource="http://nomisma.org/symbol/monogram.01637"/><dc:format>image/svg+xml</dc:format><dc:type rdf:resource="http://purl.org/dc/dcmitype/StillImage"/><dc:creator rdf:resource="https://orcid.org/0000-0001-7542-4252"/><cc:license rdf:resource="https://creativecommons.org/choose/mark/"/><crm:P106_is_composed_of>Ε</crm:P106_is_composed_of></cc:Work></rdf:RDF></metadata><defs id="defs6"><clipPath id="clipPath18" clipPathUnits="userSpaceOnUse"><path id="path16" d="M 0,400 H 400 V 0 H 0 Z" inkscape:connector-curvature="0"/></clipPath></defs><g transform="matrix(1.3333333,0,0,-1.3333333,-27.565103,479.99945)" id="g10"><g id="g12"><g clip-path="url(#clipPath18)" id="g14"><g transform="translate(270.7109,93.9336)" id="g20"><path id="path22"
                     style="fill:none;stroke:#000000;stroke-width:20;stroke-linecap:round;stroke-linejoin:round;stroke-miterlimit:10;stroke-dasharray:none;stroke-opacity:1"
                     d="m 0,0 c -9.049,-13.572 -19.822,-24.556 -31.786,-32.146 -11.964,-7.59 -25.118,-11.788 -38.925,-11.788 -13.807,0 -26.96,4.198 -38.924,11.788 -11.964,7.59 -22.739,18.574 -31.786,32.146 -9.049,13.572 -16.371,29.733 -21.432,47.68 -5.06,17.945 -7.858,37.675 -7.858,58.386 0,20.711 2.798,40.441 7.858,58.387 5.061,17.946 12.383,34.107 21.432,47.679 9.047,13.573 19.822,24.556 31.786,32.147 11.964,7.59 25.117,11.787 38.924,11.787 13.807,0 26.961,-4.197 38.925,-11.787 C -19.822,236.688 -9.049,225.705 0,212.132"
                     inkscape:connector-curvature="0"/></g><g transform="translate(230,200)" id="g24"><path id="path26"
                     style="fill:none;stroke:#000000;stroke-width:20;stroke-linecap:round;stroke-linejoin:round;stroke-miterlimit:10;stroke-dasharray:none;stroke-opacity:1"
                     d="M 0,0 H -130"
                     inkscape:connector-curvature="0"/></g></g></g><text id="text30"
            style="font-variant:normal;font-weight:normal;font-stretch:normal;font-size:12px;font-family:'Myriad Pro';-inkscape-font-specification:MyriadPro-Regular;writing-mode:lr-tb;fill:#000000;fill-opacity:1;fill-rule:nonzero;stroke:none"
            transform="matrix(1,0,0,-1,20,21.4805)"><tspan id="tspan28" y="0"
                x="0 8.2679996 14.928 17.472 21.336 27.120001 29.927999 34.68 40.692001 47.459999 50.004002 56.832001 63.419998 68.171997">On raised boss</tspan></text>

</g></svg>