<?xml version="1.0" encoding="UTF-8"?>
<svg xmlns:foaf="http://xmlns.com/foaf/0.1/" xmlns:svg="http://www.w3.org/2000/svg"
     xmlns:dc="http://purl.org/dc/elements/1.1/"
     xmlns:crm="http://www.cidoc-crm.org/cidoc-crm/"
     xmlns="http://www.w3.org/2000/svg"
     xmlns:sodipodi="http://sodipodi.sourceforge.net/DTD/sodipodi-0.dtd"
     xmlns:cc="http://creativecommons.org/ns#"
     xmlns:inkscape="http://www.inkscape.org/namespaces/inkscape"
     xmlns:nmo="http://nomisma.org/ontology#"
     xmlns:rdf="http://www.w3.org/1999/02/22-rdf-syntax-ns#"
     viewBox="0 0 533.33331 533.33331"
     height="533.33331"
     width="533.33331"
     xml:space="preserve"
     id="svg2"
     version="1.1"><metadata><rdf:RDF><cc:Work rdf:about="https://nomisma.org/svg/monogram.01894.svg"><dc:title>Monogram 1894</dc:title><dc:description>Monogram 1894 published by Nomisma.org. See matching URIs and bibliographic references for further information about the usage of this symbol on coinage.</dc:description><foaf:focus rdf:resource="http://nomisma.org/symbol/monogram.01894"/><dc:format>image/svg+xml</dc:format><dc:type rdf:resource="http://purl.org/dc/dcmitype/StillImage"/><dc:creator rdf:resource="https://orcid.org/0000-0001-7542-4252"/><cc:license rdf:resource="https://creativecommons.org/choose/mark/"/><crm:P106_is_composed_of>Ο</crm:P106_is_composed_of><crm:P106_is_composed_of>Α</crm:P106_is_composed_of><crm:P106_is_composed_of>Ε</crm:P106_is_composed_of></cc:Work></rdf:RDF></metadata><defs id="defs6"><clipPath id="clipPath18" clipPathUnits="userSpaceOnUse"><path id="path16" d="M 0,400 H 400 V 0 H 0 Z"/></clipPath></defs><g transform="matrix(1.3333333,0,0,-1.3333333,0,533.33333)" id="g10"><g id="g12"><g clip-path="url(#clipPath18)" id="g14"><g transform="translate(350,350)" id="g20"><path id="path22"
                     style="fill:none;stroke:#000000;stroke-width:20;stroke-linecap:round;stroke-linejoin:miter;stroke-miterlimit:10;stroke-dasharray:none;stroke-opacity:1"
                     d="m 0,0 h -99.5 c -0.275,0 -0.5,-0.225 -0.5,-0.5 V -300"/></g><g transform="translate(250,206.2051)" id="g24"><path id="path26"
                     style="fill:none;stroke:#000000;stroke-width:20;stroke-linecap:round;stroke-linejoin:miter;stroke-miterlimit:10;stroke-dasharray:none;stroke-opacity:1"
                     d="M 0,0 H 100"/></g><g transform="translate(198.9731,200)" id="g28"><path id="path30"
                     style="fill:none;stroke:#000000;stroke-width:20;stroke-linecap:round;stroke-linejoin:miter;stroke-miterlimit:10;stroke-dasharray:none;stroke-opacity:1"
                     d="m 0,0 c 0,0 -10.307,-19.333 -48.986,-19.08 -41.322,0.269 -50.785,18.636 -50.785,18.636 -0.126,0.244 -0.301,0.231 -0.39,-0.029 l -50.705,-149.053 c -0.089,-0.261 -0.089,-0.261 0,0 l 101.732,299.053 c 0.089,0.26 0.232,0.26 0.319,-10e-4 l 99.684,-299.051 c 0.087,-0.261 0.382,-0.475 0.658,-0.475 h 99.5"/></g><g transform="translate(159.6514,224.5679)" id="g32"><path id="path34" style="fill:#000000;fill-opacity:1;fill-rule:nonzero;stroke:none"
                     d="m 0,0 c 0,-5.939 -4.814,-10.754 -10.754,-10.754 -5.939,0 -10.754,4.815 -10.754,10.754 0,5.939 4.815,10.754 10.754,10.754 C -4.814,10.754 0,5.939 0,0"/></g><g transform="translate(159.6514,224.5679)" id="g36"><path id="path38"
                     style="fill:none;stroke:#000000;stroke-width:20;stroke-linecap:round;stroke-linejoin:miter;stroke-miterlimit:10;stroke-dasharray:none;stroke-opacity:1"
                     d="m 0,0 c 0,-5.939 -4.814,-10.754 -10.754,-10.754 -5.939,0 -10.754,4.815 -10.754,10.754 0,5.939 4.815,10.754 10.754,10.754 C -4.814,10.754 0,5.939 0,0 Z"/></g></g></g></g></svg>