<?xml version="1.0" encoding="UTF-8"?>
<svg xmlns:foaf="http://xmlns.com/foaf/0.1/" xmlns:svg="http://www.w3.org/2000/svg"
     xmlns:dc="http://purl.org/dc/elements/1.1/"
     xmlns:crm="http://www.cidoc-crm.org/cidoc-crm/"
     xmlns="http://www.w3.org/2000/svg"
     xmlns:sodipodi="http://sodipodi.sourceforge.net/DTD/sodipodi-0.dtd"
     xmlns:cc="http://creativecommons.org/ns#"
     xmlns:inkscape="http://www.inkscape.org/namespaces/inkscape"
     xmlns:nmo="http://nomisma.org/ontology#"
     xmlns:rdf="http://www.w3.org/1999/02/22-rdf-syntax-ns#"
     viewBox="0 0 123.988 109.25414"
     height="109.25414"
     width="123.988"
     xml:space="preserve"
     id="svg2"
     version="1.1"
     sodipodi:docname="pg_0043.svg"
     inkscape:version="0.92.3 (2405546, 2018-03-11)"><sodipodi:namedview pagecolor="#ffffff" bordercolor="#666666" borderopacity="1"
                       objecttolerance="10"
                       gridtolerance="10"
                       guidetolerance="10"
                       inkscape:pageopacity="0"
                       inkscape:pageshadow="2"
                       inkscape:window-width="640"
                       inkscape:window-height="480"
                       id="namedview14"
                       showgrid="false"
                       inkscape:zoom="0.88500003"
                       inkscape:cx="52.628397"
                       inkscape:cy="69.995743"
                       inkscape:window-x="83"
                       inkscape:window-y="27"
                       inkscape:window-maximized="0"
                       inkscape:current-layer="svg2"/><metadata><rdf:RDF><cc:Work rdf:about="https://nomisma.org/svg/monogram.01516.svg"><dc:title>Monogram 1516</dc:title><dc:description>Monogram 1516 published by Nomisma.org. See matching URIs and bibliographic references for further information about the usage of this symbol on coinage.</dc:description><foaf:focus rdf:resource="http://nomisma.org/symbol/monogram.01516"/><dc:format>image/svg+xml</dc:format><dc:type rdf:resource="http://purl.org/dc/dcmitype/StillImage"/><cc:license rdf:resource="https://creativecommons.org/choose/mark/"/><crm:P106_is_composed_of>R</crm:P106_is_composed_of><crm:P106_is_composed_of>C</crm:P106_is_composed_of><crm:P106_is_composed_of>V</crm:P106_is_composed_of><crm:P106_is_composed_of>E</crm:P106_is_composed_of></cc:Work></rdf:RDF></metadata><defs id="defs6"><clipPath id="clipPath18" clipPathUnits="userSpaceOnUse"><path id="path16" d="M 0,200 H 200 V 0 H 0 Z" inkscape:connector-curvature="0"/></clipPath></defs><g transform="matrix(1.3333333,0,0,-1.3333333,-80.704931,172.59174)" id="g10"><g id="g12"><g clip-path="url(#clipPath18)" id="g14"><g transform="translate(65.3027,122.8722)" id="g20"><path id="path22" style="fill:#231f20;fill-opacity:1;fill-rule:nonzero;stroke:none"
                     d="M 0,0 C 4.881,-0.886 15.016,-3.99 15.016,-14.452 15.016,-28.61 4.779,-31.813 0,-32.535 Z m 85.83,0.331 c 1.319,0 2.387,1.068 2.387,2.387 0,1.319 -1.068,2.387 -2.387,2.387 H 67.928 c -1.319,0 -2.386,-1.068 -2.386,-2.387 v -20.434 l -31.667,-48.341 -31,29.24 c 3.23,0.77 7.381,2.388 10.789,5.778 4.065,4.042 6.126,9.622 6.126,16.587 C 19.79,-0.121 5.385,4.601 -2.233,5.1 l -2.541,0.163 v -78.245 c 0,-1.319 1.068,-2.387 2.387,-2.387 1.319,0 2.387,1.068 2.387,2.387 v 32.321 l 32.616,-30.764 c 0.01,-0.01 0.021,-0.02 0.031,-0.029 l 0.028,-0.027 c 0.037,-0.035 0.08,-0.059 0.118,-0.092 0.069,-0.057 0.132,-0.118 0.208,-0.169 0.007,-0.004 0.015,-0.005 0.021,-0.009 0.176,-0.114 0.363,-0.196 0.556,-0.258 0.046,-0.015 0.091,-0.027 0.138,-0.039 0.196,-0.051 0.395,-0.085 0.596,-0.085 0.178,0 0.354,0.025 0.529,0.064 0.055,0.013 0.107,0.034 0.162,0.05 0.115,0.035 0.228,0.076 0.338,0.129 0.065,0.031 0.126,0.066 0.188,0.103 0.09,0.054 0.176,0.115 0.26,0.182 0.065,0.052 0.129,0.104 0.189,0.164 0.022,0.021 0.047,0.036 0.068,0.058 0.063,0.067 0.11,0.142 0.164,0.213 0.03,0.041 0.069,0.071 0.097,0.114 l 29.235,44.628 v -46.554 c 0,-1.319 1.067,-2.387 2.386,-2.387 H 85.83 c 1.319,0 2.387,1.068 2.387,2.387 0,1.32 -1.068,2.387 -2.387,2.387 H 70.315 v 33.076 H 85.83 c 1.319,0 2.387,1.068 2.387,2.387 0,1.319 -1.068,2.387 -2.387,2.387 H 70.315 V 0.331 Z"
                     inkscape:connector-curvature="0"/></g><g transform="translate(108.8308,124.6483)" id="g24"><path id="path26" style="fill:#231f20;fill-opacity:1;fill-rule:nonzero;stroke:none"
                     d="M 0,0 C 0.555,0.051 2.256,-0.009 2.946,-0.723 3.86,-1.664 5.37,-1.692 6.322,-0.769 7.268,0.149 7.286,1.66 6.368,2.606 c -2.443,2.518 -6.41,2.196 -6.61,2.154 -7.744,0 -14.042,-6.135 -14.042,-13.678 0,-7.538 6.298,-13.673 14.042,-13.673 5.491,0 6.96,3.207 7.109,3.571 0.499,1.221 -0.042,2.708 -1.263,3.207 -1.213,0.485 -2.569,0 -3.068,-1.217 -0.005,-0.009 -0.559,-0.788 -2.778,-0.788 -5.11,0 -9.268,3.991 -9.268,8.9 0,4.909 4.158,8.904 9.51,8.918"
                     inkscape:connector-curvature="0"/></g></g></g></g></svg>