<?xml version="1.0" encoding="UTF-8"?>
<svg xmlns:foaf="http://xmlns.com/foaf/0.1/" xmlns:svg="http://www.w3.org/2000/svg"
     xmlns:dc="http://purl.org/dc/elements/1.1/"
     xmlns:crm="http://www.cidoc-crm.org/cidoc-crm/"
     xmlns="http://www.w3.org/2000/svg"
     xmlns:sodipodi="http://sodipodi.sourceforge.net/DTD/sodipodi-0.dtd"
     xmlns:cc="http://creativecommons.org/ns#"
     xmlns:inkscape="http://www.inkscape.org/namespaces/inkscape"
     xmlns:nmo="http://nomisma.org/ontology#"
     xmlns:rdf="http://www.w3.org/1999/02/22-rdf-syntax-ns#"
     viewBox="0 0 125.52074 68.06092"
     height="68.060921"
     width="125.52074"
     xml:space="preserve"
     id="svg2"
     version="1.1"
     sodipodi:docname="pg_0057.svg"
     inkscape:version="0.92.3 (2405546, 2018-03-11)"><sodipodi:namedview pagecolor="#ffffff" bordercolor="#666666" borderopacity="1"
                       objecttolerance="10"
                       gridtolerance="10"
                       guidetolerance="10"
                       inkscape:pageopacity="0"
                       inkscape:pageshadow="2"
                       inkscape:window-width="640"
                       inkscape:window-height="480"
                       id="namedview12"
                       showgrid="false"
                       inkscape:zoom="0.96711798"
                       inkscape:cx="66.263376"
                       inkscape:cy="49.191601"
                       inkscape:window-x="83"
                       inkscape:window-y="27"
                       inkscape:window-maximized="0"
                       inkscape:current-layer="svg2"/><metadata><rdf:RDF><cc:Work rdf:about="https://nomisma.org/svg/monogram.01506.svg"><dc:title>Monogram 1506</dc:title><dc:description>Monogram 1506 published by Nomisma.org. See matching URIs and bibliographic references for further information about the usage of this symbol on coinage.</dc:description><foaf:focus rdf:resource="http://nomisma.org/symbol/monogram.01506"/><dc:format>image/svg+xml</dc:format><dc:type rdf:resource="http://purl.org/dc/dcmitype/StillImage"/><cc:license rdf:resource="https://creativecommons.org/choose/mark/"/></cc:Work></rdf:RDF></metadata><defs id="defs6"><clipPath id="clipPath18" clipPathUnits="userSpaceOnUse"><path id="path16" d="M 0,183.018 H 178.031 V 0 H 0 Z"
               inkscape:connector-curvature="0"/></clipPath></defs><g transform="matrix(1.3333333,0,0,-1.3333333,-52.423956,140.88132)" id="g10"><g id="g12"><g clip-path="url(#clipPath18)" id="g14"><g transform="translate(112.6647,77.3193)" id="g20"><path id="path22" style="fill:#231f20;fill-opacity:1;fill-rule:nonzero;stroke:none"
                     d="m 0,0 c -9.809,0.197 -22.878,0.857 -28.965,1.185 l -3.512,13.45 27.515,-3.842 c 0.234,-0.029 0.464,-0.046 0.689,-0.046 2.247,0 4.215,1.528 4.557,3.661 0.373,2.351 -1.36,4.538 -3.877,4.89 l -34.175,4.773 c -0.054,0.009 -0.107,0.015 -0.161,0.022 l -30.121,4.206 c -2.562,0.328 -4.868,-1.268 -5.246,-3.614 -0.374,-2.351 1.36,-4.539 3.877,-4.891 l 27.092,-3.783 9.074,-34.76 c 0.513,-1.965 2.4,-3.283 4.476,-3.283 0.36,0 0.729,0.038 1.094,0.122 2.476,0.562 3.994,2.888 3.391,5.193 l -2.394,9.17 c 6.803,-0.353 17.865,-0.877 26.488,-1.051 9.42,-0.189 11.752,-10.155 11.86,-10.642 0.433,-2.045 2.36,-3.464 4.517,-3.464 0.292,0 0.585,0.025 0.882,0.08 2.499,0.454 4.134,2.708 3.647,5.038 C 19.466,-11.621 13.54,-0.273 0,0"
                     inkscape:connector-curvature="0"/></g></g></g></g></svg>