<?xml version="1.0" encoding="UTF-8"?>
<svg xmlns:foaf="http://xmlns.com/foaf/0.1/" xmlns:svg="http://www.w3.org/2000/svg"
     xmlns:dc="http://purl.org/dc/elements/1.1/"
     xmlns:crm="http://www.cidoc-crm.org/cidoc-crm/"
     xmlns="http://www.w3.org/2000/svg"
     xmlns:sodipodi="http://sodipodi.sourceforge.net/DTD/sodipodi-0.dtd"
     xmlns:cc="http://creativecommons.org/ns#"
     xmlns:inkscape="http://www.inkscape.org/namespaces/inkscape"
     xmlns:nmo="http://nomisma.org/ontology#"
     xmlns:rdf="http://www.w3.org/1999/02/22-rdf-syntax-ns#"
     viewBox="0 0 112.432 135.624"
     height="135.62399"
     width="112.432"
     xml:space="preserve"
     id="svg2"
     version="1.1"
     sodipodi:docname="pg_0021.svg"
     inkscape:version="0.92.3 (2405546, 2018-03-11)"><sodipodi:namedview pagecolor="#ffffff" bordercolor="#666666" borderopacity="1"
                       objecttolerance="10"
                       gridtolerance="10"
                       guidetolerance="10"
                       inkscape:pageopacity="0"
                       inkscape:pageshadow="2"
                       inkscape:window-width="640"
                       inkscape:window-height="480"
                       id="namedview14"
                       showgrid="false"
                       inkscape:zoom="0.83090395"
                       inkscape:cx="62.348276"
                       inkscape:cy="77.580527"
                       inkscape:window-x="83"
                       inkscape:window-y="27"
                       inkscape:window-maximized="0"
                       inkscape:current-layer="svg2"/><metadata><rdf:RDF><cc:Work rdf:about="https://nomisma.org/svg/monogram.01543.svg"><dc:title>Monogram 1543</dc:title><dc:description>Monogram 1543 published by Nomisma.org. See matching URIs and bibliographic references for further information about the usage of this symbol on coinage.</dc:description><foaf:focus rdf:resource="http://nomisma.org/symbol/monogram.01543"/><dc:format>image/svg+xml</dc:format><dc:type rdf:resource="http://purl.org/dc/dcmitype/StillImage"/><cc:license rdf:resource="https://creativecommons.org/choose/mark/"/><crm:P106_is_composed_of>N</crm:P106_is_composed_of><crm:P106_is_composed_of>S</crm:P106_is_composed_of><crm:P106_is_composed_of>O</crm:P106_is_composed_of></cc:Work></rdf:RDF></metadata><defs id="defs6"><clipPath id="clipPath18" clipPathUnits="userSpaceOnUse"><path id="path16" d="M 0,213.021 H 213.021 V 0 H 0 Z"
               inkscape:connector-curvature="0"/></clipPath></defs><g transform="matrix(1.3333333,0,0,-1.3333333,-79.665731,200.05746)" id="g10"><g id="g12"><g clip-path="url(#clipPath18)" id="g14"><g transform="translate(94.4615,111.0465)" id="g20"><path id="path22" style="fill:#231f20;fill-opacity:1;fill-rule:nonzero;stroke:none"
                     d="m 0,0 c 0.256,-0.056 1.459,-0.303 3.03,-0.303 1.837,0 4.173,0.34 6.074,1.72 1.777,1.287 2.84,3.259 3.082,5.702 0.723,7.459 -4.317,9.785 -9.543,11.533 -3.962,1.324 -4.573,2.909 -4.517,3.273 l 0.126,0.527 c 0.046,0.345 0.573,3.398 5.417,2.904 4.312,-0.42 5.025,-3.044 5.1,-3.375 0.233,-1.282 1.492,-2.126 2.741,-1.916 1.301,0.219 2.178,1.45 1.958,2.75 -0.047,0.266 -1.184,6.504 -9.333,7.296 C -3.329,30.792 -6.014,26.041 -6.457,23.235 -6.629,22.568 -6.834,21.086 -6,19.356 -4.914,17.1 -2.513,15.342 1.133,14.121 6.881,12.2 7.748,10.806 7.431,7.585 7.296,6.158 6.727,5.59 6.308,5.287 4.792,4.177 1.921,4.475 0.956,4.676 0.07,4.848 -2.434,5.646 -3.394,7.287 -4.056,8.424 -5.52,8.797 -6.662,8.14 -7.799,7.473 -8.182,6.009 -7.515,4.872 -5.282,1.058 -0.452,0.079 0,0"
                     inkscape:connector-curvature="0"/></g><g transform="translate(132.4513,131.5681)" id="g24"><path id="path26" style="fill:#231f20;fill-opacity:1;fill-rule:nonzero;stroke:none"
                     d="m 0,0 c -3.781,0 -6.853,3.072 -6.853,6.853 0,3.776 3.072,6.848 6.853,6.848 3.776,0 6.848,-3.072 6.848,-6.848 C 6.848,3.072 3.776,0 0,0 m 11.622,6.853 c 0,6.41 -5.212,11.622 -11.622,11.622 -6.41,0 -11.627,-5.212 -11.627,-11.622 0,-5.592 3.971,-10.274 9.24,-11.378 v -70.203 l -62.499,68.089 h 12.472 c 1.32,0 2.387,1.068 2.387,2.387 0,1.32 -1.067,2.387 -2.387,2.387 h -17.901 c -0.095,0 -0.185,-0.017 -0.276,-0.028 -0.036,-0.004 -0.072,-0.005 -0.107,-0.01 -0.118,-0.019 -0.231,-0.05 -0.342,-0.086 -0.037,-0.011 -0.074,-0.02 -0.11,-0.034 -0.106,-0.04 -0.206,-0.089 -0.305,-0.143 -0.04,-0.022 -0.081,-0.041 -0.119,-0.065 -0.094,-0.058 -0.179,-0.125 -0.264,-0.196 -0.029,-0.024 -0.062,-0.041 -0.09,-0.067 -0.01,-0.009 -0.016,-0.019 -0.025,-0.028 -0.076,-0.072 -0.142,-0.151 -0.208,-0.232 -0.035,-0.043 -0.075,-0.084 -0.107,-0.13 -0.05,-0.072 -0.09,-0.15 -0.132,-0.228 -0.034,-0.06 -0.071,-0.117 -0.098,-0.179 -0.03,-0.07 -0.051,-0.145 -0.075,-0.218 -0.024,-0.075 -0.052,-0.148 -0.069,-0.224 -0.015,-0.067 -0.02,-0.138 -0.029,-0.208 -0.011,-0.087 -0.024,-0.172 -0.026,-0.26 0,-0.017 -0.005,-0.033 -0.005,-0.051 v -76.604 c 0,-1.319 1.067,-2.387 2.387,-2.387 h 17.901 c 1.32,0 2.387,1.068 2.387,2.387 0,1.32 -1.067,2.387 -2.387,2.387 h -15.514 v 27.058 h 15.514 c 1.32,0 2.387,1.067 2.387,2.387 0,1.319 -1.067,2.387 -2.387,2.387 h -15.514 v 36.257 l 66.17,-72.089 c 0.009,-0.009 0.019,-0.015 0.028,-0.024 0.089,-0.095 0.188,-0.179 0.293,-0.258 0.026,-0.02 0.049,-0.044 0.076,-0.062 0.125,-0.088 0.258,-0.162 0.399,-0.225 0.007,-0.003 0.013,-0.008 0.02,-0.01 0.289,-0.125 0.607,-0.195 0.942,-0.195 0.152,0 0.305,0.017 0.455,0.046 0.066,0.013 0.127,0.036 0.191,0.054 0.08,0.023 0.161,0.043 0.239,0.074 0.076,0.03 0.146,0.07 0.218,0.108 0.06,0.031 0.121,0.06 0.179,0.097 0.079,0.05 0.15,0.109 0.222,0.169 0.036,0.028 0.075,0.05 0.109,0.082 0.01,0.008 0.016,0.019 0.025,0.028 0.075,0.071 0.142,0.151 0.208,0.232 0.035,0.043 0.074,0.084 0.106,0.129 0.051,0.072 0.091,0.151 0.133,0.229 0.033,0.059 0.07,0.116 0.097,0.178 0.031,0.07 0.051,0.145 0.075,0.219 0.025,0.074 0.053,0.147 0.07,0.223 0.015,0.068 0.019,0.138 0.028,0.208 0.012,0.087 0.025,0.173 0.027,0.261 0,0.017 0.005,0.033 0.005,0.05 v 76.331 c 5.268,1.105 9.235,5.786 9.235,11.378"
                     inkscape:connector-curvature="0"/></g></g></g></g></svg>