<?xml version="1.0" encoding="UTF-8"?>
<svg xmlns:foaf="http://xmlns.com/foaf/0.1/" xmlns:svg="http://www.w3.org/2000/svg"
     xmlns:dc="http://purl.org/dc/elements/1.1/"
     xmlns:crm="http://www.cidoc-crm.org/cidoc-crm/"
     xmlns="http://www.w3.org/2000/svg"
     xmlns:sodipodi="http://sodipodi.sourceforge.net/DTD/sodipodi-0.dtd"
     xmlns:cc="http://creativecommons.org/ns#"
     xmlns:inkscape="http://www.inkscape.org/namespaces/inkscape"
     xmlns:nmo="http://nomisma.org/ontology#"
     xmlns:rdf="http://www.w3.org/1999/02/22-rdf-syntax-ns#"
     viewBox="0 0 533.33331 533.33331"
     height="533.33331"
     width="533.33331"
     xml:space="preserve"
     id="svg2"
     version="1.1"><metadata><rdf:RDF><cc:Work rdf:about="https://nomisma.org/svg/monogram.02516.svg"><dc:title>Monogram 2516</dc:title><dc:description>Monogram 2516 published by Nomisma.org. See matching URIs and bibliographic references for further information about the usage of this symbol on coinage.</dc:description><foaf:focus rdf:resource="http://nomisma.org/symbol/monogram.02516"/><dc:format>image/svg+xml</dc:format><dc:type rdf:resource="http://purl.org/dc/dcmitype/StillImage"/><dc:creator rdf:resource="https://orcid.org/0000-0001-7542-4252"/><cc:license rdf:resource="https://creativecommons.org/choose/mark/"/><crm:P106_is_composed_of>Ο</crm:P106_is_composed_of><crm:P106_is_composed_of>Β</crm:P106_is_composed_of><crm:P106_is_composed_of>Υ</crm:P106_is_composed_of><crm:P106_is_composed_of>Τ</crm:P106_is_composed_of><crm:P106_is_composed_of>Ω</crm:P106_is_composed_of></cc:Work></rdf:RDF></metadata><defs id="defs6"><clipPath id="clipPath18" clipPathUnits="userSpaceOnUse"><path id="path16" d="M 0,400 H 400 V 0 H 0 Z"/></clipPath></defs><g transform="matrix(1.3333333,0,0,-1.3333333,0,533.33333)" id="g10"><g id="g12"><g clip-path="url(#clipPath18)" id="g14"><g transform="translate(350,200)" id="g20"><path id="path22"
                     style="fill:none;stroke:#000000;stroke-width:20;stroke-linecap:round;stroke-linejoin:round;stroke-miterlimit:10;stroke-dasharray:none;stroke-opacity:1"
                     d="m 0,0 c 0,-82.843 -67.157,-150 -150,-150 -82.843,0 -150,67.157 -150,150 0,82.843 67.157,150 150,150 C -67.157,150 0,82.843 0,0 Z"/></g><g transform="translate(269,290)" id="g24"><path id="path26"
                     style="fill:none;stroke:#000000;stroke-width:20;stroke-linecap:round;stroke-linejoin:round;stroke-miterlimit:10;stroke-dasharray:none;stroke-opacity:1"
                     d="M 0,0 V -180"/></g><g transform="translate(109,290)" id="g28"><path id="path30"
                     style="fill:none;stroke:#000000;stroke-width:20;stroke-linecap:round;stroke-linejoin:round;stroke-miterlimit:10;stroke-dasharray:none;stroke-opacity:1"
                     d="M 0,0 V -180"/></g><g transform="translate(189,200)" id="g32"><path id="path34"
                     style="fill:none;stroke:#000000;stroke-width:20;stroke-linecap:round;stroke-linejoin:round;stroke-miterlimit:10;stroke-dasharray:none;stroke-opacity:1"
                     d="M 0,0 80,90"/></g><g transform="translate(109,290)" id="g36"><path id="path38"
                     style="fill:none;stroke:#000000;stroke-width:20;stroke-linecap:round;stroke-linejoin:round;stroke-miterlimit:10;stroke-dasharray:none;stroke-opacity:1"
                     d="M 0,0 160,-180"/></g><g transform="translate(189,200)" id="g40"><path id="path42"
                     style="fill:none;stroke:#000000;stroke-width:20;stroke-linecap:round;stroke-linejoin:round;stroke-miterlimit:10;stroke-dasharray:none;stroke-opacity:1"
                     d="M 0,0 V -90"/></g><g transform="translate(109,200)" id="g44"><path id="path46"
                     style="fill:none;stroke:#000000;stroke-width:20;stroke-linecap:round;stroke-linejoin:round;stroke-miterlimit:10;stroke-dasharray:none;stroke-opacity:1"
                     d="M 0,0 H 160"/></g><g transform="translate(269,290)" id="g48"><path id="path50"
                     style="fill:none;stroke:#000000;stroke-width:20;stroke-linecap:round;stroke-linejoin:round;stroke-miterlimit:10;stroke-dasharray:none;stroke-opacity:1"
                     d="M 0,0 C 24.853,0 45,-20.147 45,-45 45,-69.853 24.853,-90 0,-90"/></g><g transform="translate(269,200)" id="g52"><path id="path54"
                     style="fill:none;stroke:#000000;stroke-width:20;stroke-linecap:round;stroke-linejoin:round;stroke-miterlimit:10;stroke-dasharray:none;stroke-opacity:1"
                     d="M 0,0 C 24.853,0 45,-20.147 45,-45 45,-69.853 24.853,-90 0,-90"/></g><g transform="translate(171.6772,289.9971)" id="g56"><path id="path58"
                     style="fill:none;stroke:#000000;stroke-width:20;stroke-linecap:round;stroke-linejoin:round;stroke-miterlimit:10;stroke-dasharray:none;stroke-opacity:1"
                     d="m 0,0 c -1.703,2.942 -2.677,6.359 -2.677,10.003 0,11.046 8.954,20 20,20 11.046,0 20,-8.954 20,-20 C 37.323,6.359 36.348,2.942 34.645,0"/></g><g transform="translate(109,290)" id="g60"><path id="path62"
                     style="fill:none;stroke:#000000;stroke-width:20;stroke-linecap:round;stroke-linejoin:round;stroke-miterlimit:10;stroke-dasharray:none;stroke-opacity:1"
                     d="M 0,0 H 62.682"/></g><g transform="translate(269,290)" id="g64"><path id="path66"
                     style="fill:none;stroke:#000000;stroke-width:20;stroke-linecap:round;stroke-linejoin:round;stroke-miterlimit:10;stroke-dasharray:none;stroke-opacity:1"
                     d="M 0,0 H -62.683"/></g></g></g></g></svg>