<?xml version="1.0" encoding="UTF-8"?>
<svg xmlns:foaf="http://xmlns.com/foaf/0.1/" xmlns:svg="http://www.w3.org/2000/svg"
     xmlns:dc="http://purl.org/dc/elements/1.1/"
     xmlns:crm="http://www.cidoc-crm.org/cidoc-crm/"
     xmlns="http://www.w3.org/2000/svg"
     xmlns:sodipodi="http://sodipodi.sourceforge.net/DTD/sodipodi-0.dtd"
     xmlns:cc="http://creativecommons.org/ns#"
     xmlns:inkscape="http://www.inkscape.org/namespaces/inkscape"
     xmlns:nmo="http://nomisma.org/ontology#"
     xmlns:rdf="http://www.w3.org/1999/02/22-rdf-syntax-ns#"
     viewBox="0 0 126.44028 116.85239"
     height="116.85239"
     width="126.44028"
     xml:space="preserve"
     id="svg2"
     version="1.1"
     sodipodi:docname="monogram.ric.10.julius_nepos.1_1.svg"
     inkscape:version="0.92.3 (2405546, 2018-03-11)"><sodipodi:namedview pagecolor="#ffffff" bordercolor="#666666" borderopacity="1"
                       objecttolerance="10"
                       gridtolerance="10"
                       guidetolerance="10"
                       inkscape:pageopacity="0"
                       inkscape:pageshadow="2"
                       inkscape:window-width="1339"
                       inkscape:window-height="1001"
                       id="namedview15"
                       showgrid="false"
                       inkscape:zoom="5.0063162"
                       inkscape:cx="54.198804"
                       inkscape:cy="79.643768"
                       inkscape:window-x="1107"
                       inkscape:window-y="453"
                       inkscape:window-maximized="0"
                       inkscape:current-layer="svg2"/><metadata><rdf:RDF><cc:Work rdf:about="https://nomisma.org/svg/monogram.01518.svg"><dc:title>Monogram 1518</dc:title><dc:description>Monogram 1518 published by Nomisma.org. See matching URIs and bibliographic references for further information about the usage of this symbol on coinage.</dc:description><foaf:focus rdf:resource="http://nomisma.org/symbol/monogram.01518"/><dc:format>image/svg+xml</dc:format><dc:type rdf:resource="http://purl.org/dc/dcmitype/StillImage"/><cc:license rdf:resource="https://creativecommons.org/choose/mark/"/><crm:P106_is_composed_of>N</crm:P106_is_composed_of><crm:P106_is_composed_of>S</crm:P106_is_composed_of><crm:P106_is_composed_of>E</crm:P106_is_composed_of><crm:P106_is_composed_of>O</crm:P106_is_composed_of></cc:Work></rdf:RDF></metadata><defs id="defs6"><clipPath id="clipPath18" clipPathUnits="userSpaceOnUse"><path id="path16" d="M 0,200 H 200 V 0 H 0 Z" inkscape:connector-curvature="0"/></clipPath></defs><g transform="matrix(1.3333333,0,0,-1.3333333,-79.499573,191.75776)" id="g10"><g id="g12"><g clip-path="url(#clipPath18)" id="g14"><g transform="translate(72.407,129.7148)" id="g20"><path id="path22" style="fill:#231f20;fill-opacity:1;fill-rule:nonzero;stroke:none"
                     d="M 0,0 C 0.005,-0.037 0.326,-3.879 -2.019,-6.485 -3.19,-7.781 -4.885,-8.6 -7.077,-8.931 V 5.633 C -4.474,5.349 -2.499,4.582 -1.315,3.361 0.019,1.986 -0.009,0.429 0,0 m 53.999,1.655 c 0,3.776 3.072,6.848 6.853,6.848 3.78,0 6.853,-3.072 6.853,-6.848 0,-3.781 -3.073,-6.853 -6.853,-6.853 -3.781,0 -6.853,3.072 -6.853,6.853 m 24.754,-13.492 c 1.32,0 2.387,1.068 2.387,2.387 0,1.32 -1.067,2.387 -2.387,2.387 H 68.518 c 2.422,2.133 3.96,5.246 3.96,8.718 0,6.41 -5.216,11.622 -11.626,11.622 -6.411,0 -11.627,-5.212 -11.627,-11.622 0,-5.592 3.971,-10.274 9.24,-11.378 v -55.484 l -31.237,26.136 c -2.829,2.825 -2.694,4.471 -2.492,4.764 l 0.326,0.392 c 0.462,0.666 2.275,2.671 6.163,0.284 3.692,-2.256 3.194,-4.923 3.114,-5.258 -0.345,-1.255 0.383,-2.555 1.632,-2.919 1.282,-0.373 2.592,0.359 2.96,1.618 0.08,0.261 1.767,6.363 -5.216,10.634 -6.382,3.892 -10.909,0.774 -12.531,-1.571 -0.297,-0.353 -0.762,-1.033 -1.042,-2.016 l -24.003,20.084 c 2.158,0.689 3.968,1.808 5.385,3.381 3.735,4.14 3.265,9.758 3.231,9.77 0.024,0.376 0.148,3.611 -2.522,6.463 -2.471,2.643 -6.405,3.981 -11.697,3.981 -1.319,0 -2.387,-1.068 -2.387,-2.387 V -70.32 c 0,-1.319 1.068,-2.387 2.387,-2.387 1.32,0 2.387,1.068 2.387,2.387 v 53.721 l 31.11,-26.03 c 10e-4,-0.001 0.002,-0.003 0.004,-0.004 4.335,-4.233 4.503,-5.869 2.815,-8.634 -0.746,-1.221 -1.505,-1.487 -2.009,-1.58 -1.879,-0.336 -4.307,1.184 -5.081,1.79 -0.723,0.541 -2.63,2.35 -2.779,4.238 -0.098,1.319 -1.338,2.377 -2.559,2.195 -1.315,-0.097 -2.299,-1.244 -2.196,-2.559 0.34,-4.41 4.261,-7.398 4.634,-7.664 0.401,-0.322 3.678,-2.82 7.422,-2.82 0.456,0 0.923,0.037 1.389,0.121 2.158,0.387 3.977,1.697 5.254,3.79 0.885,1.449 1.373,2.786 1.577,4.039 l 26.814,-22.435 c 0.039,-0.033 0.084,-0.057 0.125,-0.087 0.045,-0.033 0.091,-0.066 0.139,-0.096 0.079,-0.049 0.16,-0.092 0.243,-0.132 0.051,-0.024 0.101,-0.049 0.154,-0.07 0.091,-0.036 0.184,-0.062 0.278,-0.086 0.05,-0.013 0.098,-0.029 0.149,-0.039 0.147,-0.028 0.296,-0.045 0.446,-0.045 h 17.901 c 1.32,0 2.387,1.068 2.387,2.387 0,1.32 -1.067,2.387 -2.387,2.387 H 63.238 v 25.664 h 15.515 c 1.32,0 2.387,1.067 2.387,2.387 0,1.319 -1.067,2.386 -2.387,2.386 H 63.238 v 25.659 z"
                     inkscape:connector-curvature="0"/></g><text id="text28"
                  style="font-variant:normal;font-weight:normal;font-stretch:normal;font-size:99.54199982px;font-family:'Myriad Pro';-inkscape-font-specification:MyriadPro-Regular;writing-mode:lr-tb;fill:#231f20;fill-opacity:1;fill-rule:nonzero;stroke:none"
                  transform="matrix(1,0,0,-1,-21.002,215.002)"><tspan id="tspan24" y="0"
                      x="0 36.83054 91.678185 115.1701 138.46292 193.31056 232.7292 253.83211 319.33075 369.20126 425.84067 480.48923">Julius Nepos</tspan><tspan id="tspan26" y="282.0025"
                      x="0 68.982605 125.12429 179.07607 226.55759 274.53683 319.13165 367.1109">Odovacar</tspan></text>


</g></g></g></svg>