<?xml version="1.0" encoding="UTF-8"?>
<svg xmlns:foaf="http://xmlns.com/foaf/0.1/" xmlns:svg="http://www.w3.org/2000/svg"
     xmlns:dc="http://purl.org/dc/elements/1.1/"
     xmlns:crm="http://www.cidoc-crm.org/cidoc-crm/"
     xmlns="http://www.w3.org/2000/svg"
     xmlns:sodipodi="http://sodipodi.sourceforge.net/DTD/sodipodi-0.dtd"
     xmlns:cc="http://creativecommons.org/ns#"
     xmlns:inkscape="http://www.inkscape.org/namespaces/inkscape"
     xmlns:nmo="http://nomisma.org/ontology#"
     xmlns:rdf="http://www.w3.org/1999/02/22-rdf-syntax-ns#"
     viewBox="0 0 136.30133 113.23467"
     height="113.23466"
     width="136.30133"
     xml:space="preserve"
     id="svg2"
     version="1.1"
     sodipodi:docname="pg_0030.svg"
     inkscape:version="0.92.3 (2405546, 2018-03-11)"><sodipodi:namedview pagecolor="#ffffff" bordercolor="#666666" borderopacity="1"
                       objecttolerance="10"
                       gridtolerance="10"
                       guidetolerance="10"
                       inkscape:pageopacity="0"
                       inkscape:pageshadow="2"
                       inkscape:window-width="614"
                       inkscape:window-height="450"
                       id="namedview14"
                       showgrid="false"
                       inkscape:zoom="0.88500003"
                       inkscape:cx="60.860263"
                       inkscape:cy="61.09521"
                       inkscape:window-x="83"
                       inkscape:window-y="27"
                       inkscape:window-maximized="0"
                       inkscape:current-layer="svg2"/><metadata><rdf:RDF><cc:Work rdf:about="https://nomisma.org/svg/monogram.01520.svg"><dc:title>Monogram 1520</dc:title><dc:description>Monogram 1520 published by Nomisma.org. See matching URIs and bibliographic references for further information about the usage of this symbol on coinage.</dc:description><foaf:focus rdf:resource="http://nomisma.org/symbol/monogram.01520"/><dc:format>image/svg+xml</dc:format><dc:type rdf:resource="http://purl.org/dc/dcmitype/StillImage"/><cc:license rdf:resource="https://creativecommons.org/choose/mark/"/><crm:P106_is_composed_of>N</crm:P106_is_composed_of><crm:P106_is_composed_of>Z</crm:P106_is_composed_of><crm:P106_is_composed_of>O</crm:P106_is_composed_of><crm:P106_is_composed_of>T</crm:P106_is_composed_of></cc:Work></rdf:RDF></metadata><defs id="defs6"><clipPath id="clipPath18" clipPathUnits="userSpaceOnUse"><path id="path16" d="M 0,200 H 200 V 0 H 0 Z" inkscape:connector-curvature="0"/></clipPath></defs><g transform="matrix(1.3333333,0,0,-1.3333333,-72.473065,185.4728)" id="g10"><g id="g12"><g clip-path="url(#clipPath18)" id="g14"><g transform="translate(59.1288,127.4776)" id="g20"><path id="path22" style="fill:#231f20;fill-opacity:1;fill-rule:nonzero;stroke:none"
                     d="m 0,0 c 0,3.781 3.072,6.853 6.851,6.853 3.778,0 6.853,-3.072 6.853,-6.853 0,-3.781 -3.075,-6.853 -6.853,-6.853 C 3.072,-6.853 0,-3.781 0,0 m 75.588,-72.707 c 0.042,-0.036 0.089,-0.062 0.133,-0.096 0.056,-0.042 0.111,-0.085 0.17,-0.123 0.068,-0.042 0.137,-0.077 0.208,-0.112 0.062,-0.032 0.124,-0.064 0.19,-0.09 0.082,-0.033 0.167,-0.056 0.252,-0.079 0.058,-0.015 0.114,-0.035 0.174,-0.047 0.148,-0.028 0.298,-0.045 0.448,-0.045 h 17.902 c 1.319,0 2.387,1.068 2.387,2.387 0,1.319 -1.068,2.387 -2.387,2.387 H 79.55 v 71.83 h 15.515 c 1.319,0 2.387,1.068 2.387,2.387 0,1.319 -1.068,2.387 -2.387,2.387 H 77.163 c -1.319,0 -2.386,-1.068 -2.386,-2.387 V -65.642 L 11.873,-10.47 c 3.899,1.879 6.604,5.86 6.604,10.47 0,6.41 -5.216,11.627 -11.626,11.627 C 0.44,11.627 -4.774,6.41 -4.774,0 c 0,-5.592 3.969,-10.273 9.238,-11.378 v -59.534 c 0,-1.319 1.067,-2.387 2.387,-2.387 1.319,0 2.386,1.068 2.386,2.387 v 56.404 z"
                     inkscape:connector-curvature="0"/></g><g transform="translate(91.7572,130.7829)" id="g24"><path id="path26" style="fill:#231f20;fill-opacity:1;fill-rule:nonzero;stroke:none"
                     d="M 0,0 H 17.445 L -1.646,-18.153 c -0.708,-0.672 -0.932,-1.707 -0.568,-2.616 0.359,-0.904 1.24,-1.501 2.214,-1.501 h 23.421 c 1.32,0 2.387,1.068 2.387,2.387 0,1.319 -1.067,2.387 -2.387,2.387 H 5.977 l 19.09,18.153 c 0.709,0.672 0.932,1.707 0.569,2.616 -0.359,0.904 -1.24,1.501 -2.215,1.501 H 0 C -1.319,4.774 -2.387,3.706 -2.387,2.387 -2.387,1.068 -1.319,0 0,0"
                     inkscape:connector-curvature="0"/></g></g></g></g></svg>