<?xml version="1.0" encoding="UTF-8"?>
<svg xmlns:foaf="http://xmlns.com/foaf/0.1/" xmlns:svg="http://www.w3.org/2000/svg"
     xmlns:dc="http://purl.org/dc/elements/1.1/"
     xmlns:crm="http://www.cidoc-crm.org/cidoc-crm/"
     xmlns="http://www.w3.org/2000/svg"
     xmlns:sodipodi="http://sodipodi.sourceforge.net/DTD/sodipodi-0.dtd"
     xmlns:cc="http://creativecommons.org/ns#"
     xmlns:inkscape="http://www.inkscape.org/namespaces/inkscape"
     xmlns:nmo="http://nomisma.org/ontology#"
     xmlns:rdf="http://www.w3.org/1999/02/22-rdf-syntax-ns#"
     viewBox="0 0 149.15254 114.95422"
     height="114.95422"
     width="149.15254"
     xml:space="preserve"
     id="svg2"
     version="1.1"
     sodipodi:docname="monogram.ric.10.odoacar.1_1.svg"
     inkscape:version="0.92.3 (2405546, 2018-03-11)"><sodipodi:namedview pagecolor="#ffffff" bordercolor="#666666" borderopacity="1"
                       objecttolerance="10"
                       gridtolerance="10"
                       guidetolerance="10"
                       inkscape:pageopacity="0"
                       inkscape:pageshadow="2"
                       inkscape:window-width="1399"
                       inkscape:window-height="1198"
                       id="namedview16"
                       showgrid="false"
                       inkscape:zoom="3.5400001"
                       inkscape:cx="61.131596"
                       inkscape:cy="94.281849"
                       inkscape:window-x="1157"
                       inkscape:window-y="146"
                       inkscape:window-maximized="0"
                       inkscape:current-layer="svg2"
                       fit-margin-top="-0.3"
                       fit-margin-left="0"
                       fit-margin-right="0"
                       fit-margin-bottom="0"/><metadata><rdf:RDF><cc:Work rdf:about="https://nomisma.org/svg/monogram.01515.svg"><dc:title>Monogram 1515</dc:title><dc:description>Monogram 1515 published by Nomisma.org. See matching URIs and bibliographic references for further information about the usage of this symbol on coinage.</dc:description><foaf:focus rdf:resource="http://nomisma.org/symbol/monogram.01515"/><dc:format>image/svg+xml</dc:format><dc:type rdf:resource="http://purl.org/dc/dcmitype/StillImage"/><cc:license rdf:resource="https://creativecommons.org/choose/mark/"/><crm:P106_is_composed_of>A</crm:P106_is_composed_of><crm:P106_is_composed_of>O</crm:P106_is_composed_of><crm:P106_is_composed_of>D</crm:P106_is_composed_of></cc:Work></rdf:RDF></metadata><defs id="defs6"><clipPath id="clipPath18" clipPathUnits="userSpaceOnUse"><path id="path16" d="M 0,200 H 200 V 0 H 0 Z" inkscape:connector-curvature="0"/></clipPath></defs><g transform="matrix(1.3333333,0,0,-1.3333333,-89.548019,168.92963)" id="g10"><g id="g12"><g clip-path="url(#clipPath18)" id="g14"><g transform="translate(143.7877,47.3816)" id="g20"><path id="path22" style="fill:#231f20;fill-opacity:1;fill-rule:nonzero;stroke:none"
                     d="M 0,0 V 72.231 C 7.935,69.523 29.291,59.943 29.291,35.412 29.291,10.554 7.874,2.224 0,0 m -70.311,2.625 v 66.682 c 6.246,-6.916 18.876,-21.02 31.928,-35.619 z m 68.456,75.14 c -0.709,0.163 -1.45,-0.014 -2.019,-0.462 -0.569,-0.452 -0.9,-1.137 -0.9,-1.864 V 3.23 c -48.195,54.015 -61.508,68.92 -65.69,73.028 -0.301,0.822 -1.037,1.424 -1.933,1.537 -0.111,0.029 -0.202,0.03 -0.301,0.03 -1.319,0 -2.386,-1.067 -2.386,-2.386 V -3.03 c 0,-0.961 0.573,-1.828 1.459,-2.201 0.298,-0.125 0.615,-0.186 0.927,-0.186 0.611,0 1.213,0.233 1.665,0.676 l 35.835,34.867 C -23.3,16.815 -11.458,3.551 -4.168,-4.62 c 0.043,-0.047 0.093,-0.081 0.138,-0.124 0.04,-0.038 0.071,-0.083 0.114,-0.118 0.024,-0.02 0.051,-0.034 0.075,-0.053 0.049,-0.038 0.099,-0.071 0.151,-0.105 0.082,-0.054 0.167,-0.103 0.255,-0.146 0.051,-0.025 0.102,-0.05 0.155,-0.071 0.098,-0.04 0.199,-0.071 0.302,-0.097 0.046,-0.012 0.09,-0.027 0.136,-0.036 0.15,-0.029 0.301,-0.047 0.455,-0.047 0.145,0 0.284,0.014 0.429,0.037 0.359,0.065 36.022,6.97 36.022,40.792 0,33.733 -35.56,42.269 -35.919,42.353"
                     inkscape:connector-curvature="0"/></g><g transform="translate(111.7979,117.9531)" id="g24"><path id="path26" style="fill:#231f20;fill-opacity:1;fill-rule:nonzero;stroke:none"
                     d="m 0,0 c 3.781,0 6.853,-3.072 6.853,-6.853 0,-3.776 -3.072,-6.848 -6.853,-6.848 -3.781,0 -6.853,3.072 -6.853,6.848 C -6.853,-3.072 -3.781,0 0,0 m -11.627,-6.853 c 0,-6.41 5.217,-11.622 11.627,-11.622 6.41,0 11.627,5.212 11.627,11.622 0,6.41 -5.217,11.627 -11.627,11.627 -6.41,0 -11.627,-5.217 -11.627,-11.627"
                     inkscape:connector-curvature="0"/></g><text id="text30"
                  style="font-variant:normal;font-weight:normal;font-stretch:normal;font-size:99.54199982px;font-family:'Myriad Pro';-inkscape-font-specification:MyriadPro-Regular;writing-mode:lr-tb;fill:#231f20;fill-opacity:1;fill-rule:nonzero;stroke:none"
                  transform="matrix(1,0,0,-1,-13.498,224.002)"><tspan id="tspan28" y="0"
                      x="0 68.982605 125.12429 179.07607 226.55759 274.53683 319.13165 367.1109">Odovacar</tspan></text>


</g></g></g></svg>