<?xml version="1.0" encoding="UTF-8"?>
<svg xmlns:foaf="http://xmlns.com/foaf/0.1/" xmlns:svg="http://www.w3.org/2000/svg"
     xmlns:dc="http://purl.org/dc/elements/1.1/"
     xmlns:crm="http://www.cidoc-crm.org/cidoc-crm/"
     xmlns="http://www.w3.org/2000/svg"
     xmlns:sodipodi="http://sodipodi.sourceforge.net/DTD/sodipodi-0.dtd"
     xmlns:cc="http://creativecommons.org/ns#"
     xmlns:inkscape="http://www.inkscape.org/namespaces/inkscape"
     xmlns:nmo="http://nomisma.org/ontology#"
     xmlns:rdf="http://www.w3.org/1999/02/22-rdf-syntax-ns#"
     viewBox="0 0 131.24251 108.5592"
     height="108.5592"
     width="131.24251"
     xml:space="preserve"
     id="svg2"
     version="1.1"
     sodipodi:docname="pg_0008.svg"
     inkscape:version="0.92.3 (2405546, 2018-03-11)"><sodipodi:namedview pagecolor="#ffffff" bordercolor="#666666" borderopacity="1"
                       objecttolerance="10"
                       gridtolerance="10"
                       guidetolerance="10"
                       inkscape:pageopacity="0"
                       inkscape:pageshadow="2"
                       inkscape:window-width="614"
                       inkscape:window-height="450"
                       id="namedview14"
                       showgrid="false"
                       inkscape:zoom="0.89388969"
                       inkscape:cx="65.503474"
                       inkscape:cy="56.655999"
                       inkscape:window-x="83"
                       inkscape:window-y="27"
                       inkscape:window-maximized="0"
                       inkscape:current-layer="svg2"/><metadata><rdf:RDF><cc:Work rdf:about="https://nomisma.org/svg/monogram.01528.svg"><dc:title>Monogram 1528</dc:title><dc:description>Monogram 1528 published by Nomisma.org. See matching URIs and bibliographic references for further information about the usage of this symbol on coinage.</dc:description><foaf:focus rdf:resource="http://nomisma.org/symbol/monogram.01528"/><dc:format>image/svg+xml</dc:format><dc:type rdf:resource="http://purl.org/dc/dcmitype/StillImage"/><cc:license rdf:resource="https://creativecommons.org/choose/mark/"/><crm:P106_is_composed_of>S</crm:P106_is_composed_of><crm:P106_is_composed_of>R</crm:P106_is_composed_of><crm:P106_is_composed_of>M</crm:P106_is_composed_of></cc:Work></rdf:RDF></metadata><defs id="defs6"><clipPath id="clipPath18" clipPathUnits="userSpaceOnUse"><path id="path16" d="M 0,198.011 H 198.011 V 0 H 0 Z"
               inkscape:connector-curvature="0"/></clipPath></defs><g transform="matrix(1.3333333,0,0,-1.3333333,-66.503865,183.91053)" id="g10"><g id="g12"><g clip-path="url(#clipPath18)" id="g14"><g transform="translate(91.0209,110.0039)" id="g20"><path id="path22" style="fill:#231f20;fill-opacity:1;fill-rule:nonzero;stroke:none"
                     d="M 0,0 25.886,19.037 V -19.037 Z M -36.369,-20.828 V 20.827 L -8.048,0 Z M 41.373,6.447 c 0,-9.721 -6.595,-15.132 -10.713,-17.566 V 20.819 C 34.554,19.666 41.373,16.251 41.373,6.447 m 15.03,-41.099 -23.713,19.196 c 5.012,2.869 13.456,9.537 13.456,21.903 0,14.066 -11.379,18.996 -17.507,19.663 -0.011,0.002 -0.021,0.003 -0.031,0.004 -0.03,0.003 -0.063,0.008 -0.092,0.011 -0.039,0.005 -0.078,-0.001 -0.117,0.001 -0.042,0.003 -0.083,0.013 -0.126,0.013 -0.015,0 -0.029,-0.004 -0.044,-0.004 -0.04,-0.001 -0.078,-0.003 -0.118,-0.006 C 28.037,26.125 27.966,26.113 27.894,26.101 27.848,26.094 27.801,26.09 27.757,26.08 27.724,26.072 27.691,26.063 27.659,26.054 27.592,26.036 27.527,26.013 27.462,25.989 27.409,25.969 27.355,25.953 27.304,25.93 27.275,25.917 27.248,25.901 27.22,25.887 27.17,25.862 27.123,25.834 27.074,25.806 27.009,25.768 26.944,25.73 26.883,25.686 26.876,25.681 26.868,25.678 26.86,25.673 L -4.024,2.959 -37.343,27.463 c -0.007,0.005 -0.015,0.008 -0.023,0.014 -0.087,0.062 -0.18,0.114 -0.275,0.164 -0.049,0.027 -0.097,0.058 -0.148,0.081 -0.07,0.031 -0.144,0.051 -0.217,0.076 -0.078,0.026 -0.155,0.055 -0.235,0.072 -0.058,0.013 -0.119,0.017 -0.178,0.025 -0.098,0.014 -0.194,0.028 -0.292,0.03 -0.015,0 -0.029,0.004 -0.045,0.004 -0.051,0 -0.099,-0.012 -0.149,-0.015 -0.09,-0.006 -0.178,-0.011 -0.267,-0.027 -0.079,-0.014 -0.154,-0.036 -0.231,-0.058 -0.07,-0.019 -0.139,-0.038 -0.207,-0.064 -0.083,-0.032 -0.161,-0.072 -0.24,-0.112 -0.057,-0.03 -0.114,-0.058 -0.168,-0.092 -0.083,-0.052 -0.159,-0.112 -0.235,-0.173 -0.043,-0.035 -0.087,-0.067 -0.128,-0.106 -0.086,-0.08 -0.162,-0.168 -0.235,-0.26 -0.019,-0.024 -0.042,-0.042 -0.06,-0.067 -0.006,-0.007 -0.008,-0.015 -0.013,-0.022 -0.069,-0.096 -0.126,-0.198 -0.18,-0.303 -0.02,-0.038 -0.045,-0.075 -0.062,-0.114 -0.039,-0.087 -0.066,-0.18 -0.095,-0.272 -0.018,-0.06 -0.042,-0.118 -0.055,-0.179 -0.017,-0.075 -0.023,-0.153 -0.032,-0.23 -0.01,-0.081 -0.023,-0.161 -0.024,-0.241 -10e-4,-0.018 -0.006,-0.034 -0.006,-0.052 v -75.261 c 0,-1.319 1.068,-2.387 2.387,-2.387 1.32,0 2.387,1.068 2.387,2.387 v 22.972 l 32.345,23.787 29.91,-21.996 v -24.763 c 0,-1.319 1.068,-2.387 2.387,-2.387 h 23.226 c 1.319,0 2.386,1.068 2.386,2.387 0,1.319 -1.067,2.387 -2.386,2.387 H 30.66 v 27.378 L 53.4,-38.363 c 0.443,-0.359 0.975,-0.531 1.502,-0.531 0.694,0 1.384,0.303 1.855,0.886 0.83,1.025 0.671,2.526 -0.354,3.356"
                     inkscape:connector-curvature="0"/></g><g transform="translate(86.9779,86.9275)" id="g24"><path id="path26" style="fill:#231f20;fill-opacity:1;fill-rule:nonzero;stroke:none"
                     d="m 0,0 c -7.566,0.671 -10.159,-4.07 -10.597,-6.876 -0.172,-0.667 -0.377,-2.149 0.457,-3.879 1.086,-2.256 3.487,-4.014 7.133,-5.235 5.748,-1.921 6.615,-3.315 6.298,-6.536 -0.135,-1.427 -0.704,-1.996 -1.124,-2.299 -1.515,-1.109 -4.396,-0.815 -5.347,-0.61 -0.885,0.172 -3.393,0.969 -4.349,2.606 -0.667,1.142 -2.131,1.534 -3.263,0.858 -1.138,-0.662 -1.525,-2.126 -0.858,-3.264 2.228,-3.818 7.063,-4.797 7.515,-4.876 0.256,-0.056 1.459,-0.303 3.025,-0.303 1.837,0 4.173,0.34 6.075,1.715 1.776,1.292 2.839,3.264 3.081,5.707 0.723,7.459 -4.317,9.785 -9.543,11.533 -3.962,1.324 -4.573,2.909 -4.517,3.273 l 0.121,0.489 c 0.126,0.797 0.928,3.427 5.427,2.942 4.307,-0.415 5.025,-3.035 5.1,-3.371 0.233,-1.277 1.482,-2.135 2.741,-1.916 1.301,0.219 2.177,1.455 1.958,2.751 C 9.286,-7.025 8.14,-0.793 0,0"
                     inkscape:connector-curvature="0"/></g></g></g></g></svg>