<?xml version="1.0" encoding="UTF-8"?>
<svg xmlns:foaf="http://xmlns.com/foaf/0.1/" xmlns:svg="http://www.w3.org/2000/svg"
     xmlns:dc="http://purl.org/dc/elements/1.1/"
     xmlns:crm="http://www.cidoc-crm.org/cidoc-crm/"
     xmlns="http://www.w3.org/2000/svg"
     xmlns:sodipodi="http://sodipodi.sourceforge.net/DTD/sodipodi-0.dtd"
     xmlns:cc="http://creativecommons.org/ns#"
     xmlns:inkscape="http://www.inkscape.org/namespaces/inkscape"
     xmlns:nmo="http://nomisma.org/ontology#"
     xmlns:rdf="http://www.w3.org/1999/02/22-rdf-syntax-ns#"
     viewBox="0 0 128.32797 108.91386"
     height="108.91386"
     width="128.32797"
     xml:space="preserve"
     id="svg2"
     version="1.1"
     sodipodi:docname="pg_0012.svg"
     inkscape:version="0.92.3 (2405546, 2018-03-11)"><sodipodi:namedview pagecolor="#ffffff" bordercolor="#666666" borderopacity="1"
                       objecttolerance="10"
                       gridtolerance="10"
                       guidetolerance="10"
                       inkscape:pageopacity="0"
                       inkscape:pageshadow="2"
                       inkscape:window-width="614"
                       inkscape:window-height="450"
                       id="namedview14"
                       showgrid="false"
                       inkscape:zoom="0.89388969"
                       inkscape:cx="68.894274"
                       inkscape:cy="49.267333"
                       inkscape:window-x="83"
                       inkscape:window-y="27"
                       inkscape:window-maximized="0"
                       inkscape:current-layer="svg2"/><metadata><rdf:RDF><cc:Work rdf:about="https://nomisma.org/svg/monogram.01554.svg"><dc:title>Monogram 1554</dc:title><dc:description>Monogram 1554 published by Nomisma.org. See matching URIs and bibliographic references for further information about the usage of this symbol on coinage.</dc:description><foaf:focus rdf:resource="http://nomisma.org/symbol/monogram.01554"/><dc:format>image/svg+xml</dc:format><dc:type rdf:resource="http://purl.org/dc/dcmitype/StillImage"/><cc:license rdf:resource="https://creativecommons.org/choose/mark/"/><crm:P106_is_composed_of>S</crm:P106_is_composed_of><crm:P106_is_composed_of>R</crm:P106_is_composed_of><crm:P106_is_composed_of>M</crm:P106_is_composed_of></cc:Work></rdf:RDF></metadata><defs id="defs6"><clipPath id="clipPath18" clipPathUnits="userSpaceOnUse"><path id="path16" d="M 0,198.011 H 198.011 V 0 H 0 Z"
               inkscape:connector-curvature="0"/></clipPath></defs><g transform="matrix(1.3333333,0,0,-1.3333333,-63.113065,191.65386)" id="g10"><g id="g12"><g clip-path="url(#clipPath18)" id="g14"><g transform="translate(94.2848,93.0784)" id="g20"><path id="path22" style="fill:#231f20;fill-opacity:1;fill-rule:nonzero;stroke:none"
                     d="M 0,0 -14.856,17.315 20.083,43.502 V 9.308 Z m -42.176,2.807 v 39.02 L -21.801,18.078 Z M 35.565,29.18 c 0,-9.721 -6.591,-15.132 -10.708,-17.566 V 44.976 C 28.856,43.279 35.565,38.973 35.565,29.18 M 48.479,-18.376 24.857,2.254 v 3.961 c 4.231,2.008 15.482,8.684 15.482,22.965 0,13.972 -11.357,20.125 -17.366,21.426 -0.023,0.005 -0.046,0.004 -0.07,0.009 -0.082,0.015 -0.164,0.024 -0.247,0.03 -0.089,0.008 -0.176,0.015 -0.264,0.013 C 22.347,50.656 22.302,50.65 22.257,50.646 22.143,50.637 22.03,50.623 21.92,50.597 21.889,50.59 21.859,50.579 21.829,50.57 21.71,50.537 21.594,50.498 21.483,50.447 c -0.032,-0.015 -0.064,-0.033 -0.095,-0.05 -0.107,-0.054 -0.209,-0.114 -0.306,-0.184 -0.014,-0.01 -0.03,-0.016 -0.043,-0.027 L -17.972,20.948 -42.75,49.827 c -0.019,0.022 -0.041,0.037 -0.06,0.058 -0.065,0.07 -0.135,0.133 -0.208,0.196 -0.044,0.037 -0.087,0.076 -0.134,0.111 -0.083,0.061 -0.172,0.114 -0.264,0.164 -0.042,0.023 -0.083,0.048 -0.126,0.068 -0.099,0.048 -0.202,0.084 -0.308,0.117 -0.041,0.013 -0.081,0.028 -0.122,0.038 -0.104,0.027 -0.21,0.043 -0.319,0.055 -0.049,0.006 -0.097,0.013 -0.147,0.015 -0.042,0.003 -0.083,0.013 -0.125,0.013 -0.063,0 -0.121,-0.014 -0.183,-0.018 -0.054,-0.004 -0.108,-0.009 -0.163,-0.017 -0.1,-0.014 -0.196,-0.035 -0.292,-0.062 -0.055,-0.015 -0.109,-0.031 -0.163,-0.05 -0.091,-0.033 -0.178,-0.07 -0.263,-0.113 -0.056,-0.028 -0.11,-0.057 -0.165,-0.09 -0.078,-0.047 -0.152,-0.099 -0.225,-0.155 -0.032,-0.025 -0.067,-0.042 -0.099,-0.068 -0.022,-0.019 -0.037,-0.043 -0.058,-0.062 -0.067,-0.061 -0.127,-0.127 -0.186,-0.195 -0.044,-0.051 -0.089,-0.102 -0.128,-0.156 -0.051,-0.069 -0.095,-0.143 -0.137,-0.218 -0.035,-0.061 -0.07,-0.12 -0.1,-0.183 -0.033,-0.073 -0.06,-0.15 -0.087,-0.227 -0.024,-0.072 -0.048,-0.142 -0.066,-0.215 -0.017,-0.071 -0.027,-0.143 -0.038,-0.217 -0.013,-0.086 -0.023,-0.172 -0.026,-0.259 -10e-4,-0.028 -0.008,-0.054 -0.008,-0.082 v -75.261 c 0,-1.32 1.067,-2.387 2.387,-2.387 1.319,0 2.387,1.067 2.387,2.387 v 23.825 l 23.491,17.607 16.237,-18.925 c 0.005,-0.006 0.012,-0.01 0.017,-0.016 0.029,-0.032 0.064,-0.056 0.094,-0.087 0.116,-0.119 0.239,-0.225 0.373,-0.314 0.055,-0.038 0.112,-0.069 0.171,-0.101 0.126,-0.071 0.257,-0.129 0.393,-0.176 0.057,-0.019 0.112,-0.041 0.171,-0.056 0.195,-0.05 0.394,-0.084 0.595,-0.084 0.154,0 0.307,0.019 0.46,0.048 0.053,0.011 0.105,0.028 0.157,0.043 0.1,0.027 0.199,0.058 0.296,0.098 0.029,0.012 0.06,0.016 0.089,0.03 l 19.715,9.137 v -31.029 c 0,-1.32 1.067,-2.387 2.387,-2.387 1.319,0 2.387,1.067 2.387,2.387 v 22.897 l 20.479,-17.886 c 0.453,-0.391 1.012,-0.587 1.572,-0.587 0.661,0 1.323,0.275 1.799,0.816 0.867,0.993 0.765,2.503 -0.228,3.37"
                     inkscape:connector-curvature="0"/></g><g transform="translate(77.4552,92.469)" id="g24"><path id="path26" style="fill:#231f20;fill-opacity:1;fill-rule:nonzero;stroke:none"
                     d="m 0,0 c -7.548,0.69 -10.149,-4.065 -10.592,-6.876 -0.173,-0.672 -0.378,-2.149 0.457,-3.879 1.086,-2.252 3.482,-4.014 7.133,-5.235 5.743,-1.921 6.61,-3.315 6.293,-6.536 -0.135,-1.427 -0.704,-1.996 -1.124,-2.299 -1.51,-1.104 -4.4,-0.815 -5.347,-0.61 -0.885,0.172 -3.393,0.969 -4.349,2.606 -0.667,1.142 -2.136,1.529 -3.263,0.858 -1.138,-0.662 -1.525,-2.126 -0.858,-3.264 2.228,-3.818 7.063,-4.797 7.515,-4.876 0.256,-0.056 1.459,-0.303 3.025,-0.303 1.837,0 4.173,0.34 6.075,1.715 1.776,1.292 2.839,3.264 3.081,5.707 0.723,7.454 -4.317,9.785 -9.538,11.533 -3.963,1.324 -4.573,2.909 -4.517,3.268 l 0.121,0.494 c 0.13,0.802 0.918,3.427 5.422,2.942 4.307,-0.415 5.025,-3.035 5.1,-3.371 0.233,-1.277 1.487,-2.144 2.741,-1.916 1.301,0.219 2.177,1.455 1.958,2.751 C 9.286,-7.026 8.14,-0.793 0,0"
                     inkscape:connector-curvature="0"/></g></g></g></g></svg>