<?xml version="1.0" encoding="UTF-8"?>
<svg xmlns:foaf="http://xmlns.com/foaf/0.1/" xmlns:svg="http://www.w3.org/2000/svg"
     xmlns:dc="http://purl.org/dc/elements/1.1/"
     xmlns:crm="http://www.cidoc-crm.org/cidoc-crm/"
     xmlns="http://www.w3.org/2000/svg"
     xmlns:sodipodi="http://sodipodi.sourceforge.net/DTD/sodipodi-0.dtd"
     xmlns:cc="http://creativecommons.org/ns#"
     xmlns:inkscape="http://www.inkscape.org/namespaces/inkscape"
     xmlns:nmo="http://nomisma.org/ontology#"
     xmlns:rdf="http://www.w3.org/1999/02/22-rdf-syntax-ns#"
     viewBox="0 0 123.988 109.24954"
     height="109.24953"
     width="123.988"
     xml:space="preserve"
     id="svg2"
     version="1.1"
     sodipodi:docname="pg_0044.svg"
     inkscape:version="0.92.3 (2405546, 2018-03-11)"><sodipodi:namedview pagecolor="#ffffff" bordercolor="#666666" borderopacity="1"
                       objecttolerance="10"
                       gridtolerance="10"
                       guidetolerance="10"
                       inkscape:pageopacity="0"
                       inkscape:pageshadow="2"
                       inkscape:window-width="640"
                       inkscape:window-height="480"
                       id="namedview14"
                       showgrid="false"
                       inkscape:zoom="0.88500003"
                       inkscape:cx="69.85733"
                       inkscape:cy="69.993077"
                       inkscape:window-x="83"
                       inkscape:window-y="27"
                       inkscape:window-maximized="0"
                       inkscape:current-layer="svg2"/><metadata><rdf:RDF><cc:Work rdf:about="https://nomisma.org/svg/monogram.01525.svg"><dc:title>Monogram 1525</dc:title><dc:description>Monogram 1525 published by Nomisma.org. See matching URIs and bibliographic references for further information about the usage of this symbol on coinage.</dc:description><foaf:focus rdf:resource="http://nomisma.org/symbol/monogram.01525"/><dc:format>image/svg+xml</dc:format><dc:type rdf:resource="http://purl.org/dc/dcmitype/StillImage"/><cc:license rdf:resource="https://creativecommons.org/choose/mark/"/><crm:P106_is_composed_of>R</crm:P106_is_composed_of><crm:P106_is_composed_of>C</crm:P106_is_composed_of><crm:P106_is_composed_of>V</crm:P106_is_composed_of><crm:P106_is_composed_of>E</crm:P106_is_composed_of></cc:Work></rdf:RDF></metadata><defs id="defs6"><clipPath id="clipPath18" clipPathUnits="userSpaceOnUse"><path id="path16" d="M 0,200 H 200 V 0 H 0 Z" inkscape:connector-curvature="0"/></clipPath></defs><g transform="matrix(1.3333333,0,0,-1.3333333,-63.475998,172.5898)" id="g10"><g id="g12"><g clip-path="url(#clipPath18)" id="g14"><g transform="translate(52.381,122.8642)" id="g20"><path id="path22" style="fill:#231f20;fill-opacity:1;fill-rule:nonzero;stroke:none"
                     d="M 0,0 C 4.886,-0.9 15.021,-4.028 15.021,-14.443 15.021,-22.55 4.839,-25.002 0,-25.706 Z m 85.83,0.34 c 1.319,0 2.387,1.068 2.387,2.387 0,1.32 -1.068,2.387 -2.387,2.387 H 67.928 c -0.05,0 -0.096,-0.012 -0.146,-0.015 C 67.717,5.095 67.652,5.089 67.587,5.08 67.492,5.066 67.399,5.047 67.308,5.022 67.254,5.008 67.201,4.991 67.148,4.973 67.055,4.941 66.966,4.905 66.879,4.862 66.826,4.836 66.776,4.808 66.725,4.778 66.646,4.731 66.57,4.682 66.497,4.628 66.444,4.588 66.393,4.545 66.343,4.501 66.28,4.444 66.219,4.384 66.162,4.321 66.115,4.268 66.07,4.214 66.027,4.157 65.975,4.088 65.928,4.017 65.884,3.942 65.863,3.907 65.836,3.878 65.817,3.841 L 38.976,-46.881 5.154,-29.544 c 6.416,1.679 14.64,5.668 14.64,15.101 0,14.331 -14.41,19.054 -22.027,19.552 l -2.541,0.164 v -78.246 c 0,-1.319 1.068,-2.386 2.387,-2.386 1.319,0 2.387,1.067 2.387,2.386 v 40.702 l 38.819,-19.9 c 0.35,-0.177 0.723,-0.261 1.091,-0.261 0.721,0 1.405,0.343 1.863,0.925 0.187,0.176 0.356,0.374 0.482,0.613 l 23.286,44.005 v -66.084 c 0,-1.319 1.068,-2.386 2.387,-2.386 H 85.83 c 1.319,0 2.387,1.067 2.387,2.386 0,1.32 -1.068,2.387 -2.387,2.387 H 70.315 V -37.51 H 85.83 c 1.319,0 2.387,1.068 2.387,2.387 0,1.32 -1.068,2.387 -2.387,2.387 H 70.315 V 0.34 Z"
                     inkscape:connector-curvature="0"/></g><g transform="translate(95.909,124.6496)" id="g24"><path id="path26" style="fill:#231f20;fill-opacity:1;fill-rule:nonzero;stroke:none"
                     d="m 0,0 c 0.55,0.061 2.256,-0.014 2.942,-0.718 0.918,-0.951 2.433,-0.974 3.375,-0.056 0.946,0.919 0.974,2.429 0.056,3.375 -2.434,2.518 -6.41,2.196 -6.615,2.159 -7.744,0 -14.042,-6.135 -14.042,-13.678 0,-7.538 6.298,-13.673 14.042,-13.673 5.501,0 6.96,3.212 7.109,3.575 0.499,1.222 -0.047,2.709 -1.268,3.203 -1.212,0.503 -2.564,0 -3.063,-1.221 -0.005,-0.005 -0.559,-0.784 -2.778,-0.784 -5.11,0 -9.268,3.991 -9.268,8.9 0,4.909 4.158,8.904 9.51,8.918"
                     inkscape:connector-curvature="0"/></g></g></g></g></svg>