<?xml version="1.0" encoding="UTF-8"?>
<svg xmlns:foaf="http://xmlns.com/foaf/0.1/" xmlns:svg="http://www.w3.org/2000/svg"
     xmlns:dc="http://purl.org/dc/elements/1.1/"
     xmlns:crm="http://www.cidoc-crm.org/cidoc-crm/"
     xmlns="http://www.w3.org/2000/svg"
     xmlns:sodipodi="http://sodipodi.sourceforge.net/DTD/sodipodi-0.dtd"
     xmlns:cc="http://creativecommons.org/ns#"
     xmlns:inkscape="http://www.inkscape.org/namespaces/inkscape"
     xmlns:nmo="http://nomisma.org/ontology#"
     xmlns:rdf="http://www.w3.org/1999/02/22-rdf-syntax-ns#"
     viewBox="0 0 123.98133 110.06426"
     height="110.06426"
     width="123.98133"
     xml:space="preserve"
     id="svg2"
     version="1.1"
     sodipodi:docname="pg_0031.svg"
     inkscape:version="0.92.3 (2405546, 2018-03-11)"><sodipodi:namedview pagecolor="#ffffff" bordercolor="#666666" borderopacity="1"
                       objecttolerance="10"
                       gridtolerance="10"
                       guidetolerance="10"
                       inkscape:pageopacity="0"
                       inkscape:pageshadow="2"
                       inkscape:window-width="614"
                       inkscape:window-height="450"
                       id="namedview16"
                       showgrid="false"
                       inkscape:zoom="0.88500003"
                       inkscape:cx="56.610797"
                       inkscape:cy="55.03201"
                       inkscape:window-x="83"
                       inkscape:window-y="27"
                       inkscape:window-maximized="0"
                       inkscape:current-layer="svg2"/><metadata><rdf:RDF><cc:Work rdf:about="https://nomisma.org/svg/monogram.01535.svg"><dc:title>Monogram 1535</dc:title><dc:description>Monogram 1535 published by Nomisma.org. See matching URIs and bibliographic references for further information about the usage of this symbol on coinage.</dc:description><foaf:focus rdf:resource="http://nomisma.org/symbol/monogram.01535"/><dc:format>image/svg+xml</dc:format><dc:type rdf:resource="http://purl.org/dc/dcmitype/StillImage"/><cc:license rdf:resource="https://creativecommons.org/choose/mark/"/><crm:P106_is_composed_of>N</crm:P106_is_composed_of><crm:P106_is_composed_of>Z</crm:P106_is_composed_of><crm:P106_is_composed_of>O</crm:P106_is_composed_of><crm:P106_is_composed_of>T</crm:P106_is_composed_of></cc:Work></rdf:RDF></metadata><defs id="defs6"><clipPath id="clipPath18" clipPathUnits="userSpaceOnUse"><path id="path16" d="M 0,200 H 200 V 0 H 0 Z" inkscape:connector-curvature="0"/></clipPath></defs><g transform="matrix(1.3333333,0,0,-1.3333333,-76.722531,188.3656)" id="g10"><g id="g12"><g clip-path="url(#clipPath18)" id="g14"><g transform="translate(59.9289,58.726)" id="g20"><path id="path22" style="fill:#231f20;fill-opacity:1;fill-rule:nonzero;stroke:none"
                     d="M 0,0 C 1.319,0 2.387,1.068 2.387,2.387 V 70.789 L 68.576,0.746 C 68.584,0.738 68.593,0.733 68.6,0.725 68.689,0.634 68.788,0.554 68.89,0.478 68.916,0.459 68.938,0.435 68.964,0.417 69.223,0.24 69.517,0.112 69.836,0.048 69.992,0.016 70.151,0 70.311,0 h 17.901 c 1.319,0 2.387,1.068 2.387,2.387 0,1.319 -1.068,2.387 -2.387,2.387 H 72.697 v 71.83 h 15.515 c 1.319,0 2.387,1.068 2.387,2.387 0,1.319 -1.068,2.387 -2.387,2.387 H 70.311 c -1.32,0 -2.387,-1.068 -2.387,-2.387 V 8.389 L 1.734,78.432 C 1.727,78.439 1.718,78.445 1.71,78.452 1.63,78.535 1.54,78.606 1.449,78.676 1.418,78.7 1.39,78.729 1.358,78.752 c -0.111,0.076 -0.231,0.14 -0.354,0.198 -0.017,0.007 -0.032,0.019 -0.049,0.027 -0.108,0.047 -0.223,0.079 -0.338,0.11 -0.036,0.01 -0.07,0.025 -0.106,0.033 -0.08,0.017 -0.165,0.022 -0.248,0.031 -0.076,0.009 -0.151,0.021 -0.227,0.023 -0.012,0 -0.024,0.003 -0.036,0.003 -0.06,0 -0.117,-0.013 -0.176,-0.017 -0.087,-0.006 -0.174,-0.011 -0.26,-0.026 -0.073,-0.014 -0.141,-0.036 -0.211,-0.056 -0.08,-0.023 -0.159,-0.043 -0.237,-0.074 -0.071,-0.028 -0.138,-0.066 -0.206,-0.101 -0.069,-0.036 -0.139,-0.068 -0.205,-0.111 -0.076,-0.049 -0.143,-0.107 -0.213,-0.164 -0.043,-0.036 -0.091,-0.064 -0.133,-0.103 -0.008,-0.008 -0.013,-0.017 -0.021,-0.025 -0.068,-0.066 -0.126,-0.14 -0.185,-0.214 -0.04,-0.049 -0.085,-0.094 -0.12,-0.145 -0.049,-0.071 -0.085,-0.149 -0.126,-0.225 -0.032,-0.06 -0.071,-0.117 -0.098,-0.18 -0.031,-0.073 -0.05,-0.152 -0.075,-0.23 -0.022,-0.07 -0.05,-0.138 -0.065,-0.21 -0.015,-0.071 -0.018,-0.145 -0.027,-0.218 -0.01,-0.083 -0.024,-0.166 -0.025,-0.25 0,-0.013 -0.004,-0.024 -0.004,-0.037 V 2.387 C -2.387,1.068 -1.319,0 0,0"
                     inkscape:connector-curvature="0"/></g><g transform="translate(82.6089,77.2011)" id="g24"><path id="path26" style="fill:#231f20;fill-opacity:1;fill-rule:nonzero;stroke:none"
                     d="m 0,0 c 3.781,0 6.853,-3.072 6.853,-6.853 0,-3.776 -3.072,-6.848 -6.853,-6.848 -3.781,0 -6.853,3.072 -6.853,6.848 C -6.853,-3.072 -3.781,0 0,0 m 0,-18.475 c 6.41,0 11.627,5.212 11.627,11.622 0,6.41 -5.217,11.627 -11.627,11.627 -6.41,0 -11.627,-5.217 -11.627,-11.627 0,-6.41 5.217,-11.622 11.627,-11.622"
                     inkscape:connector-curvature="0"/></g><g transform="translate(90.0585,136.5002)" id="g28"><path id="path30" style="fill:#231f20;fill-opacity:1;fill-rule:nonzero;stroke:none"
                     d="M 0,0 H 17.445 L -1.646,-18.149 c -0.708,-0.671 -0.932,-1.706 -0.568,-2.615 0.359,-0.904 1.24,-1.501 2.214,-1.501 h 23.421 c 1.32,0 2.387,1.067 2.387,2.387 0,1.319 -1.067,2.387 -2.387,2.387 H 5.977 L 25.067,0.657 C 25.776,1.329 26,2.364 25.636,3.273 25.277,4.177 24.396,4.774 23.421,4.774 H 0 C -1.319,4.774 -2.387,3.706 -2.387,2.387 -2.387,1.068 -1.319,0 0,0"
                     inkscape:connector-curvature="0"/></g></g></g></g></svg>