<?xml version="1.0" encoding="UTF-8"?>
<svg xmlns:foaf="http://xmlns.com/foaf/0.1/" xmlns:svg="http://www.w3.org/2000/svg"
     xmlns:dc="http://purl.org/dc/elements/1.1/"
     xmlns:crm="http://www.cidoc-crm.org/cidoc-crm/"
     xmlns="http://www.w3.org/2000/svg"
     xmlns:sodipodi="http://sodipodi.sourceforge.net/DTD/sodipodi-0.dtd"
     xmlns:cc="http://creativecommons.org/ns#"
     xmlns:inkscape="http://www.inkscape.org/namespaces/inkscape"
     xmlns:nmo="http://nomisma.org/ontology#"
     xmlns:rdf="http://www.w3.org/1999/02/22-rdf-syntax-ns#"
     viewBox="0 0 146.59599 110.98934"
     height="110.98933"
     width="146.59599"
     xml:space="preserve"
     id="svg2"
     version="1.1"
     sodipodi:docname="pg_0005.svg"
     inkscape:version="0.92.3 (2405546, 2018-03-11)"><sodipodi:namedview pagecolor="#ffffff" bordercolor="#666666" borderopacity="1"
                       objecttolerance="10"
                       gridtolerance="10"
                       guidetolerance="10"
                       inkscape:pageopacity="0"
                       inkscape:pageshadow="2"
                       inkscape:window-width="614"
                       inkscape:window-height="450"
                       id="namedview14"
                       showgrid="false"
                       inkscape:zoom="0.88500003"
                       inkscape:cx="73.29813"
                       inkscape:cy="60.513744"
                       inkscape:window-x="83"
                       inkscape:window-y="27"
                       inkscape:window-maximized="0"
                       inkscape:current-layer="svg2"/><metadata><rdf:RDF><cc:Work rdf:about="https://nomisma.org/svg/monogram.01552.svg"><dc:title>Monogram 1552</dc:title><dc:description>Monogram 1552 published by Nomisma.org. See matching URIs and bibliographic references for further information about the usage of this symbol on coinage.</dc:description><foaf:focus rdf:resource="http://nomisma.org/symbol/monogram.01552"/><dc:format>image/svg+xml</dc:format><dc:type rdf:resource="http://purl.org/dc/dcmitype/StillImage"/><cc:license rdf:resource="https://creativecommons.org/choose/mark/"/><crm:P106_is_composed_of>T</crm:P106_is_composed_of><crm:P106_is_composed_of>E</crm:P106_is_composed_of><crm:P106_is_composed_of>O</crm:P106_is_composed_of><crm:P106_is_composed_of>Δ</crm:P106_is_composed_of></cc:Work></rdf:RDF></metadata><defs id="defs6"><clipPath id="clipPath18" clipPathUnits="userSpaceOnUse"><path id="path16" d="M 0,200 H 200 V 0 H 0 Z" inkscape:connector-curvature="0"/></clipPath></defs><g transform="matrix(1.3333333,0,0,-1.3333333,-60.035198,183.80893)" id="g10"><g id="g12"><g clip-path="url(#clipPath18)" id="g14"><g transform="translate(132.2974,60.9507)" id="g20"><path id="path22" style="fill:#231f20;fill-opacity:1;fill-rule:nonzero;stroke:none"
                     d="M 0,0 -28.735,34.166 H 0 Z m -62.799,-1.563 28.935,34.405 28.936,-34.405 z m -2.743,35.729 h 26.549 L -65.542,2.6 Z m 85.831,0 c 1.319,0 2.387,1.068 2.387,2.387 0,1.319 -1.068,2.387 -2.387,2.387 H 4.774 v 31.328 h 15.515 c 1.319,0 2.387,1.067 2.387,2.387 0,1.319 -1.068,2.386 -2.387,2.386 H 2.387 C 1.068,75.041 0,73.974 0,72.655 V 38.94 h -65.542 v 33.192 h 17.208 c 1.319,0 2.387,1.068 2.387,2.387 0,1.32 -1.068,2.387 -2.387,2.387 h -36.549 c -1.32,0 -2.388,-1.067 -2.388,-2.387 0,-1.319 1.068,-2.387 2.388,-2.387 h 14.568 V -3.95 c 0,-0.031 0.008,-0.06 0.009,-0.091 0.004,-0.09 0.014,-0.177 0.027,-0.266 0.01,-0.069 0.021,-0.138 0.037,-0.205 0.02,-0.081 0.047,-0.16 0.075,-0.239 0.024,-0.067 0.047,-0.134 0.077,-0.198 0.035,-0.075 0.076,-0.147 0.119,-0.219 0.036,-0.061 0.073,-0.121 0.115,-0.179 0.047,-0.066 0.101,-0.128 0.156,-0.19 0.051,-0.056 0.102,-0.11 0.157,-0.161 0.027,-0.025 0.048,-0.055 0.077,-0.079 0.039,-0.034 0.084,-0.057 0.125,-0.088 0.046,-0.034 0.091,-0.067 0.14,-0.098 0.082,-0.052 0.166,-0.096 0.253,-0.137 0.047,-0.022 0.092,-0.045 0.14,-0.065 0.097,-0.038 0.196,-0.066 0.296,-0.091 0.045,-0.012 0.088,-0.026 0.134,-0.035 0.149,-0.028 0.299,-0.045 0.45,-0.045 h 88.217 c 1.319,0 2.387,1.067 2.387,2.386 0,1.32 -1.068,2.387 -2.387,2.387 H 4.774 v 35.729 z"
                     inkscape:connector-curvature="0"/></g><g transform="translate(98.4336,122.7058)" id="g24"><path id="path26" style="fill:#231f20;fill-opacity:1;fill-rule:nonzero;stroke:none"
                     d="m 0,0 c 3.781,0 6.853,-3.072 6.853,-6.853 0,-3.781 -3.072,-6.853 -6.853,-6.853 -3.781,0 -6.853,3.072 -6.853,6.853 C -6.853,-3.072 -3.781,0 0,0 m 0,-18.48 c 6.41,0 11.627,5.217 11.627,11.627 0,6.41 -5.217,11.627 -11.627,11.627 -6.41,0 -11.627,-5.217 -11.627,-11.627 0,-6.41 5.217,-11.627 11.627,-11.627"
                     inkscape:connector-curvature="0"/></g></g></g></g></svg>