<?xml version="1.0" encoding="UTF-8"?>
<svg xmlns:foaf="http://xmlns.com/foaf/0.1/" xmlns:svg="http://www.w3.org/2000/svg"
     xmlns:dc="http://purl.org/dc/elements/1.1/"
     xmlns:crm="http://www.cidoc-crm.org/cidoc-crm/"
     xmlns="http://www.w3.org/2000/svg"
     xmlns:sodipodi="http://sodipodi.sourceforge.net/DTD/sodipodi-0.dtd"
     xmlns:cc="http://creativecommons.org/ns#"
     xmlns:inkscape="http://www.inkscape.org/namespaces/inkscape"
     xmlns:nmo="http://nomisma.org/ontology#"
     xmlns:rdf="http://www.w3.org/1999/02/22-rdf-syntax-ns#"
     viewBox="0 0 533.33331 533.33331"
     height="533.33331"
     width="533.33331"
     xml:space="preserve"
     id="svg2"
     version="1.1"><metadata><rdf:RDF><cc:Work rdf:about="https://nomisma.org/svg/monogram.02395.svg"><dc:title>Monogram 2395</dc:title><dc:description>Monogram 2395 published by Nomisma.org. See matching URIs and bibliographic references for further information about the usage of this symbol on coinage.</dc:description><foaf:focus rdf:resource="http://nomisma.org/symbol/monogram.02395"/><dc:format>image/svg+xml</dc:format><dc:type rdf:resource="http://purl.org/dc/dcmitype/StillImage"/><dc:creator rdf:resource="https://orcid.org/0000-0001-7542-4252"/><cc:license rdf:resource="https://creativecommons.org/choose/mark/"/><crm:P106_is_composed_of>Ψ</crm:P106_is_composed_of><crm:P106_is_composed_of>Χ</crm:P106_is_composed_of></cc:Work></rdf:RDF></metadata><defs id="defs6"><clipPath id="clipPath38" clipPathUnits="userSpaceOnUse"><path id="path36" d="M 0,400 H 400 V 0 H 0 Z"/></clipPath></defs><g transform="matrix(1.3333333,0,0,-1.3333333,0,533.33333)" id="g10"><g transform="translate(50,350)" id="g12"><path id="path14"
               style="fill:none;stroke:#000000;stroke-width:20;stroke-linecap:round;stroke-linejoin:round;stroke-miterlimit:10;stroke-dasharray:none;stroke-opacity:1"
               d="M 0,0 V -300"/></g><g transform="translate(350,350)" id="g16"><path id="path18"
               style="fill:none;stroke:#000000;stroke-width:20;stroke-linecap:round;stroke-linejoin:round;stroke-miterlimit:10;stroke-dasharray:none;stroke-opacity:1"
               d="M 0,0 -300,-300"/></g><g transform="translate(350,50)" id="g20"><path id="path22"
               style="fill:none;stroke:#000000;stroke-width:20;stroke-linecap:round;stroke-linejoin:round;stroke-miterlimit:10;stroke-dasharray:none;stroke-opacity:1"
               d="M 0,0 -300,300"/></g><g transform="translate(350,350)" id="g24"><path id="path26"
               style="fill:none;stroke:#000000;stroke-width:20;stroke-linecap:round;stroke-linejoin:round;stroke-miterlimit:10;stroke-dasharray:none;stroke-opacity:1"
               d="M 0,0 V -300"/></g><g transform="translate(200,350)" id="g28"><path id="path30"
               style="fill:none;stroke:#000000;stroke-width:20;stroke-linecap:round;stroke-linejoin:round;stroke-miterlimit:10;stroke-dasharray:none;stroke-opacity:1"
               d="M 0,0 V -300"/></g><g id="g32"><g clip-path="url(#clipPath38)" id="g34"><g transform="translate(130,200)" id="g40"><path id="path42" style="fill:#000000;fill-opacity:1;fill-rule:nonzero;stroke:none"
                     d="m 0,0 c 0,-11.046 -8.954,-20 -20,-20 -11.046,0 -20,8.954 -20,20 0,11.046 8.954,20 20,20 C -8.954,20 0,11.046 0,0"/></g><g transform="translate(130,200)" id="g44"><path id="path46"
                     style="fill:none;stroke:#000000;stroke-width:20;stroke-linecap:round;stroke-linejoin:round;stroke-miterlimit:10;stroke-dasharray:none;stroke-opacity:1"
                     d="m 0,0 c 0,-11.046 -8.954,-20 -20,-20 -11.046,0 -20,8.954 -20,20 0,11.046 8.954,20 20,20 C -8.954,20 0,11.046 0,0 Z"/></g><g transform="translate(310,200)" id="g48"><path id="path50" style="fill:#000000;fill-opacity:1;fill-rule:nonzero;stroke:none"
                     d="m 0,0 c 0,-11.046 -8.954,-20 -20,-20 -11.046,0 -20,8.954 -20,20 0,11.046 8.954,20 20,20 C -8.954,20 0,11.046 0,0"/></g><g transform="translate(310,200)" id="g52"><path id="path54"
                     style="fill:none;stroke:#000000;stroke-width:20;stroke-linecap:round;stroke-linejoin:round;stroke-miterlimit:10;stroke-dasharray:none;stroke-opacity:1"
                     d="m 0,0 c 0,-11.046 -8.954,-20 -20,-20 -11.046,0 -20,8.954 -20,20 0,11.046 8.954,20 20,20 C -8.954,20 0,11.046 0,0 Z"/></g></g></g></g></svg>