<?xml version="1.0" encoding="UTF-8"?>
<svg xmlns:foaf="http://xmlns.com/foaf/0.1/" xmlns:svg="http://www.w3.org/2000/svg"
     xmlns:dc="http://purl.org/dc/elements/1.1/"
     xmlns:crm="http://www.cidoc-crm.org/cidoc-crm/"
     xmlns="http://www.w3.org/2000/svg"
     xmlns:sodipodi="http://sodipodi.sourceforge.net/DTD/sodipodi-0.dtd"
     xmlns:cc="http://creativecommons.org/ns#"
     xmlns:inkscape="http://www.inkscape.org/namespaces/inkscape"
     xmlns:nmo="http://nomisma.org/ontology#"
     xmlns:rdf="http://www.w3.org/1999/02/22-rdf-syntax-ns#"
     viewBox="0 0 136.308 113.23467"
     height="113.23466"
     width="136.308"
     xml:space="preserve"
     id="svg2"
     version="1.1"
     sodipodi:docname="pg_0032.svg"
     inkscape:version="0.92.3 (2405546, 2018-03-11)"><sodipodi:namedview pagecolor="#ffffff" bordercolor="#666666" borderopacity="1"
                       objecttolerance="10"
                       gridtolerance="10"
                       guidetolerance="10"
                       inkscape:pageopacity="0"
                       inkscape:pageshadow="2"
                       inkscape:window-width="640"
                       inkscape:window-height="480"
                       id="namedview12"
                       showgrid="false"
                       inkscape:zoom="0.88500003"
                       inkscape:cx="68.153863"
                       inkscape:cy="61.09521"
                       inkscape:window-x="83"
                       inkscape:window-y="27"
                       inkscape:window-maximized="0"
                       inkscape:current-layer="svg2"/><metadata><rdf:RDF><cc:Work rdf:about="https://nomisma.org/svg/monogram.01538.svg"><dc:title>Monogram 1538</dc:title><dc:description>Monogram 1538 published by Nomisma.org. See matching URIs and bibliographic references for further information about the usage of this symbol on coinage.</dc:description><foaf:focus rdf:resource="http://nomisma.org/symbol/monogram.01538"/><dc:format>image/svg+xml</dc:format><dc:type rdf:resource="http://purl.org/dc/dcmitype/StillImage"/><cc:license rdf:resource="https://creativecommons.org/choose/mark/"/><crm:P106_is_composed_of>N</crm:P106_is_composed_of><crm:P106_is_composed_of>Z</crm:P106_is_composed_of><crm:P106_is_composed_of>O</crm:P106_is_composed_of><crm:P106_is_composed_of>T</crm:P106_is_composed_of></cc:Work></rdf:RDF></metadata><defs id="defs6"><clipPath id="clipPath18" clipPathUnits="userSpaceOnUse"><path id="path16" d="M 0,200 H 200 V 0 H 0 Z" inkscape:connector-curvature="0"/></clipPath></defs><g transform="matrix(1.3333333,0,0,-1.3333333,-65.179465,185.4728)" id="g10"><g id="g12"><g clip-path="url(#clipPath18)" id="g14"><g transform="translate(53.6586,127.4776)" id="g20"><path id="path22" style="fill:#231f20;fill-opacity:1;fill-rule:nonzero;stroke:none"
                     d="m 0,0 c 0,3.781 3.072,6.853 6.853,6.853 3.781,0 6.853,-3.072 6.853,-6.853 0,-3.781 -3.072,-6.853 -6.853,-6.853 C 3.072,-6.853 0,-3.781 0,0 m 65.458,3.305 h 17.444 l -19.09,-18.153 c -0.709,-0.671 -0.933,-1.706 -0.569,-2.615 0.359,-0.905 1.24,-1.502 2.215,-1.502 h 9.323 V -65.642 L 11.876,-10.469 C 15.775,-8.59 18.48,-4.609 18.48,0 18.48,6.41 13.263,11.627 6.853,11.627 0.443,11.627 -4.774,6.41 -4.774,0 c 0,-5.592 3.971,-10.273 9.24,-11.378 v -59.534 c 0,-1.319 1.068,-2.387 2.387,-2.387 1.319,0 2.387,1.068 2.387,2.387 v 56.402 l 66.352,-58.197 c 0.043,-0.036 0.09,-0.062 0.133,-0.096 0.056,-0.042 0.111,-0.085 0.171,-0.123 0.067,-0.042 0.137,-0.077 0.207,-0.112 0.063,-0.032 0.125,-0.064 0.191,-0.09 0.082,-0.033 0.167,-0.056 0.251,-0.079 0.059,-0.015 0.114,-0.035 0.174,-0.047 0.149,-0.028 0.299,-0.045 0.449,-0.045 H 95.07 c 1.319,0 2.387,1.068 2.387,2.387 0,1.319 -1.068,2.387 -2.387,2.387 H 79.555 v 49.56 h 9.324 c 1.319,0 2.387,1.068 2.387,2.387 0,1.32 -1.068,2.387 -2.387,2.387 H 71.434 l 19.09,18.154 c 0.709,0.671 0.933,1.706 0.569,2.615 -0.359,0.904 -1.24,1.501 -2.214,1.501 H 65.458 c -1.32,0 -2.387,-1.068 -2.387,-2.387 0,-1.319 1.067,-2.387 2.387,-2.387"
                     inkscape:connector-curvature="0"/></g></g></g></g></svg>