<?xml version="1.0" encoding="UTF-8"?>
<svg xmlns:foaf="http://xmlns.com/foaf/0.1/" xmlns:svg="http://www.w3.org/2000/svg"
     xmlns:dc="http://purl.org/dc/elements/1.1/"
     xmlns:crm="http://www.cidoc-crm.org/cidoc-crm/"
     xmlns="http://www.w3.org/2000/svg"
     xmlns:sodipodi="http://sodipodi.sourceforge.net/DTD/sodipodi-0.dtd"
     xmlns:cc="http://creativecommons.org/ns#"
     xmlns:inkscape="http://www.inkscape.org/namespaces/inkscape"
     xmlns:nmo="http://nomisma.org/ontology#"
     xmlns:rdf="http://www.w3.org/1999/02/22-rdf-syntax-ns#"
     viewBox="0 0 109.30868 68.597541"
     height="68.597542"
     width="109.30868"
     xml:space="preserve"
     id="svg2"
     version="1.1"
     sodipodi:docname="pg_0060.svg"
     inkscape:version="0.92.3 (2405546, 2018-03-11)"><sodipodi:namedview pagecolor="#ffffff" bordercolor="#666666" borderopacity="1"
                       objecttolerance="10"
                       gridtolerance="10"
                       guidetolerance="10"
                       inkscape:pageopacity="0"
                       inkscape:pageshadow="2"
                       inkscape:window-width="614"
                       inkscape:window-height="450"
                       id="namedview12"
                       showgrid="false"
                       inkscape:zoom="0.96711798"
                       inkscape:cx="44.919702"
                       inkscape:cy="41.860801"
                       inkscape:window-x="83"
                       inkscape:window-y="27"
                       inkscape:window-maximized="0"
                       inkscape:current-layer="svg2"/><metadata><rdf:RDF><cc:Work rdf:about="https://nomisma.org/svg/monogram.01511.svg"><dc:title>Monogram 1511</dc:title><dc:description>Monogram 1511 published by Nomisma.org. See matching URIs and bibliographic references for further information about the usage of this symbol on coinage.</dc:description><foaf:focus rdf:resource="http://nomisma.org/symbol/monogram.01511"/><dc:format>image/svg+xml</dc:format><dc:type rdf:resource="http://purl.org/dc/dcmitype/StillImage"/><cc:license rdf:resource="https://creativecommons.org/choose/mark/"/></cc:Work></rdf:RDF></metadata><defs id="defs6"><clipPath id="clipPath18" clipPathUnits="userSpaceOnUse"><path id="path16" d="M 0,183.018 H 178.031 V 0 H 0 Z"
               inkscape:connector-curvature="0"/></clipPath></defs><g transform="matrix(1.3333333,0,0,-1.3333333,-73.76763,148.74874)" id="g10"><g id="g12"><g clip-path="url(#clipPath18)" id="g14"><g transform="translate(132.4453,111.5444)" id="g20"><path id="path22" style="fill:#231f20;fill-opacity:1;fill-rule:nonzero;stroke:none"
                     d="m 0,0 c -1.137,-0.062 -24.395,-1.616 -43.915,-21.417 -0.336,5.293 -1.616,10.195 -4.589,13.443 -2.558,2.801 -5.858,4.313 -9.541,4.386 -0.09,0 -0.181,0.004 -0.27,0.004 -8.592,0 -16.58,-7.826 -17.471,-8.727 -1.793,-1.81 -1.775,-4.728 0.036,-6.52 1.814,-1.796 4.732,-1.778 6.52,0.037 1.945,1.967 7.141,5.988 10.91,5.988 0.031,0 0.063,0 0.099,-0.004 1.157,-0.023 2.058,-0.45 2.918,-1.387 2.811,-3.074 2.621,-11.952 1.308,-20.453 -0.01,-0.054 -0.015,-0.106 -0.024,-0.159 -0.603,-3.861 -1.435,-7.637 -2.32,-10.745 -0.698,-2.45 0.72,-4.999 3.17,-5.701 0.423,-0.117 0.851,-0.176 1.27,-0.176 2.003,0 3.85,1.32 4.431,3.346 0.486,1.708 1.589,5.82 2.457,10.882 17.842,26.006 44.398,27.928 45.533,27.999 2.54,0.154 4.48,2.333 4.332,4.868 C 4.706,-1.792 2.702,0.225 0,0"
                     inkscape:connector-curvature="0"/></g></g></g></g></svg>