<?xml version="1.0" encoding="UTF-8"?>
<svg xmlns:foaf="http://xmlns.com/foaf/0.1/" xmlns:svg="http://www.w3.org/2000/svg"
     xmlns:dc="http://purl.org/dc/elements/1.1/"
     xmlns:crm="http://www.cidoc-crm.org/cidoc-crm/"
     xmlns="http://www.w3.org/2000/svg"
     xmlns:sodipodi="http://sodipodi.sourceforge.net/DTD/sodipodi-0.dtd"
     xmlns:cc="http://creativecommons.org/ns#"
     xmlns:inkscape="http://www.inkscape.org/namespaces/inkscape"
     xmlns:nmo="http://nomisma.org/ontology#"
     xmlns:rdf="http://www.w3.org/1999/02/22-rdf-syntax-ns#"
     viewBox="0 0 123.98667 107.29866"
     height="107.29866"
     width="123.98666"
     xml:space="preserve"
     id="svg2"
     version="1.1"
     sodipodi:docname="pg_0046.svg"
     inkscape:version="0.92.3 (2405546, 2018-03-11)"><sodipodi:namedview pagecolor="#ffffff" bordercolor="#666666" borderopacity="1"
                       objecttolerance="10"
                       gridtolerance="10"
                       guidetolerance="10"
                       inkscape:pageopacity="0"
                       inkscape:pageshadow="2"
                       inkscape:window-width="640"
                       inkscape:window-height="480"
                       id="namedview12"
                       showgrid="false"
                       inkscape:zoom="0.88500003"
                       inkscape:cx="38.040131"
                       inkscape:cy="71.85841"
                       inkscape:window-x="83"
                       inkscape:window-y="27"
                       inkscape:window-maximized="0"
                       inkscape:current-layer="svg2"/><metadata><rdf:RDF><cc:Work rdf:about="https://nomisma.org/svg/monogram.01519.svg"><dc:title>Monogram 1519</dc:title><dc:description>Monogram 1519 published by Nomisma.org. See matching URIs and bibliographic references for further information about the usage of this symbol on coinage.</dc:description><foaf:focus rdf:resource="http://nomisma.org/symbol/monogram.01519"/><dc:format>image/svg+xml</dc:format><dc:type rdf:resource="http://purl.org/dc/dcmitype/StillImage"/><cc:license rdf:resource="https://creativecommons.org/choose/mark/"/><crm:P106_is_composed_of>A</crm:P106_is_composed_of><crm:P106_is_composed_of>E</crm:P106_is_composed_of><crm:P106_is_composed_of>T</crm:P106_is_composed_of><crm:P106_is_composed_of>N</crm:P106_is_composed_of></cc:Work></rdf:RDF></metadata><defs id="defs6"><clipPath id="clipPath18" clipPathUnits="userSpaceOnUse"><path id="path16" d="M 0,200 H 200 V 0 H 0 Z" inkscape:connector-curvature="0"/></clipPath></defs><g transform="matrix(1.3333333,0,0,-1.3333333,-95.293198,168.7736)" id="g10"><g id="g12"><g clip-path="url(#clipPath18)" id="g14"><g transform="translate(115.7729,87.0702)" id="g20"><path id="path22" style="fill:#231f20;fill-opacity:1;fill-rule:nonzero;stroke:none"
                     d="M 0,0 26.012,30.084 V 0 Z M 26.012,-32.503 0.255,-4.774 H 26.012 Z M -39.53,0 V 31.049 L -10.69,0 Z M 10.497,34.736 H 23.724 L -5.282,1.187 -40.168,38.745 c -0.007,0.007 -0.015,0.011 -0.021,0.018 -0.083,0.088 -0.176,0.165 -0.272,0.239 -0.029,0.023 -0.057,0.051 -0.087,0.073 -0.092,0.064 -0.191,0.116 -0.292,0.167 -0.039,0.02 -0.075,0.045 -0.115,0.063 -0.089,0.039 -0.183,0.065 -0.276,0.093 -0.057,0.017 -0.111,0.039 -0.168,0.052 -0.077,0.017 -0.157,0.022 -0.236,0.031 -0.079,0.009 -0.156,0.022 -0.235,0.024 -0.016,0 -0.031,0.005 -0.047,0.005 -0.061,0 -0.119,-0.014 -0.179,-0.019 -0.081,-0.006 -0.162,-0.01 -0.242,-0.024 -0.082,-0.015 -0.16,-0.039 -0.239,-0.062 -0.069,-0.02 -0.138,-0.037 -0.205,-0.063 -0.085,-0.033 -0.165,-0.076 -0.246,-0.119 -0.055,-0.029 -0.11,-0.054 -0.163,-0.088 -0.093,-0.059 -0.177,-0.127 -0.261,-0.198 -0.028,-0.024 -0.06,-0.041 -0.087,-0.066 -0.007,-0.007 -0.012,-0.015 -0.019,-0.021 -0.08,-0.077 -0.15,-0.162 -0.22,-0.249 -0.031,-0.039 -0.066,-0.075 -0.095,-0.115 -0.051,-0.073 -0.09,-0.152 -0.133,-0.231 -0.032,-0.059 -0.07,-0.117 -0.097,-0.179 -0.027,-0.062 -0.044,-0.129 -0.066,-0.194 -0.028,-0.084 -0.059,-0.166 -0.078,-0.252 -0.012,-0.054 -0.014,-0.111 -0.022,-0.166 -0.015,-0.102 -0.029,-0.202 -0.031,-0.305 0,-0.012 -0.003,-0.024 -0.003,-0.036 v -75.7 c 0,-1.319 1.067,-2.387 2.386,-2.387 1.32,0 2.387,1.068 2.387,2.387 V -4.774 H -6.255 L 26.65,-40.199 c 0.007,-0.007 0.014,-0.012 0.021,-0.018 0.095,-0.101 0.201,-0.191 0.312,-0.273 0.02,-0.015 0.038,-0.034 0.058,-0.048 0.386,-0.268 0.852,-0.426 1.358,-0.426 H 46.3 c 1.32,0 2.387,1.068 2.387,2.387 0,1.319 -1.067,2.387 -2.387,2.387 H 30.785 V -4.774 H 46.3 c 1.32,0 2.387,1.068 2.387,2.387 C 48.687,-1.068 47.62,0 46.3,0 H 30.785 V 34.736 H 46.3 c 1.32,0 2.387,1.067 2.387,2.387 0,1.319 -1.067,2.387 -2.387,2.387 H 10.497 c -1.319,0 -2.387,-1.068 -2.387,-2.387 0,-1.32 1.068,-2.387 2.387,-2.387"
                     inkscape:connector-curvature="0"/></g></g></g></g></svg>