<?xml version="1.0" encoding="UTF-8"?>
<svg xmlns:foaf="http://xmlns.com/foaf/0.1/" xmlns:svg="http://www.w3.org/2000/svg"
     xmlns:dc="http://purl.org/dc/elements/1.1/"
     xmlns:crm="http://www.cidoc-crm.org/cidoc-crm/"
     xmlns="http://www.w3.org/2000/svg"
     xmlns:sodipodi="http://sodipodi.sourceforge.net/DTD/sodipodi-0.dtd"
     xmlns:cc="http://creativecommons.org/ns#"
     xmlns:inkscape="http://www.inkscape.org/namespaces/inkscape"
     xmlns:nmo="http://nomisma.org/ontology#"
     xmlns:rdf="http://www.w3.org/1999/02/22-rdf-syntax-ns#"
     viewBox="0 0 123.988 107.304"
     height="107.304"
     width="123.988"
     xml:space="preserve"
     id="svg2"
     version="1.1"
     sodipodi:docname="pg_0052.svg"
     inkscape:version="0.92.3 (2405546, 2018-03-11)"><sodipodi:namedview pagecolor="#ffffff" bordercolor="#666666" borderopacity="1"
                       objecttolerance="10"
                       gridtolerance="10"
                       guidetolerance="10"
                       inkscape:pageopacity="0"
                       inkscape:pageshadow="2"
                       inkscape:window-width="640"
                       inkscape:window-height="480"
                       id="namedview12"
                       showgrid="false"
                       inkscape:zoom="0.88500003"
                       inkscape:cx="77.559863"
                       inkscape:cy="55.586544"
                       inkscape:window-x="83"
                       inkscape:window-y="27"
                       inkscape:window-maximized="0"
                       inkscape:current-layer="svg2"/><metadata><rdf:RDF><cc:Work rdf:about="https://nomisma.org/svg/monogram.01560.svg"><dc:title>Monogram 1560</dc:title><dc:description>Monogram 1560 published by Nomisma.org. See matching URIs and bibliographic references for further information about the usage of this symbol on coinage.</dc:description><foaf:focus rdf:resource="http://nomisma.org/symbol/monogram.01560"/><dc:format>image/svg+xml</dc:format><dc:type rdf:resource="http://purl.org/dc/dcmitype/StillImage"/><cc:license rdf:resource="https://creativecommons.org/choose/mark/"/><crm:P106_is_composed_of>A</crm:P106_is_composed_of><crm:P106_is_composed_of>E</crm:P106_is_composed_of><crm:P106_is_composed_of>T</crm:P106_is_composed_of><crm:P106_is_composed_of>N</crm:P106_is_composed_of></cc:Work></rdf:RDF></metadata><defs id="defs6"><clipPath id="clipPath18" clipPathUnits="userSpaceOnUse"><path id="path16" d="M 0,200 H 200 V 0 H 0 Z" inkscape:connector-curvature="0"/></clipPath></defs><g transform="matrix(1.3333333,0,0,-1.3333333,-55.773465,185.0508)" id="g10"><g id="g12"><g clip-path="url(#clipPath18)" id="g14"><g transform="translate(46.6041,87.5401)" id="g20"><path id="path22" style="fill:#231f20;fill-opacity:1;fill-rule:nonzero;stroke:none"
                     d="M 0,0 V 9.523 L 21.209,19.953 39.741,0 Z M 0,42.787 17.819,23.602 0,14.839 Z M 65.542,32.198 V -20.769 L 46.934,-0.735 c -0.016,0.016 -0.03,0.034 -0.046,0.049 l -5.117,5.51 z M 85.83,46.474 c 1.319,0 2.387,1.068 2.387,2.387 0,1.32 -1.068,2.387 -2.387,2.387 H 50.027 c -1.319,0 -2.387,-1.067 -2.387,-2.387 0,-1.319 1.068,-2.387 2.387,-2.387 H 65.542 V 39.486 L 38.5,8.345 -0.639,50.484 c -0.006,0.007 -0.014,0.011 -0.021,0.018 -0.077,0.082 -0.163,0.153 -0.251,0.223 -0.039,0.03 -0.074,0.066 -0.114,0.093 -0.07,0.05 -0.148,0.088 -0.224,0.129 -0.063,0.035 -0.123,0.074 -0.189,0.103 -0.053,0.023 -0.11,0.037 -0.165,0.056 -0.094,0.033 -0.187,0.067 -0.284,0.088 -0.039,0.008 -0.08,0.009 -0.12,0.016 -0.118,0.019 -0.236,0.034 -0.356,0.036 -0.008,0 -0.016,0.002 -0.024,0.002 -0.032,0 -0.062,-0.008 -0.094,-0.009 -0.118,-0.005 -0.235,-0.014 -0.351,-0.036 -0.051,-0.009 -0.099,-0.026 -0.149,-0.038 -0.098,-0.026 -0.196,-0.052 -0.29,-0.09 -0.063,-0.025 -0.121,-0.058 -0.181,-0.088 -0.075,-0.038 -0.149,-0.073 -0.22,-0.119 -0.085,-0.055 -0.163,-0.119 -0.24,-0.184 -0.032,-0.027 -0.067,-0.046 -0.097,-0.075 -0.007,-0.006 -0.012,-0.014 -0.019,-0.021 -0.08,-0.076 -0.151,-0.162 -0.22,-0.249 -0.031,-0.038 -0.067,-0.074 -0.095,-0.114 -0.05,-0.073 -0.09,-0.152 -0.132,-0.23 -0.033,-0.06 -0.071,-0.118 -0.098,-0.181 C -4.6,49.752 -4.617,49.686 -4.639,49.621 -4.667,49.537 -4.698,49.455 -4.717,49.369 -4.729,49.315 -4.731,49.259 -4.739,49.203 -4.754,49.102 -4.769,49 -4.77,48.898 c 0,-0.013 -0.004,-0.024 -0.004,-0.037 v -75.704 c 0,-1.319 1.068,-2.387 2.387,-2.387 1.319,0 2.387,1.068 2.387,2.387 V -4.774 H 44.175 L 66.18,-28.465 c 0.007,-0.007 0.014,-0.012 0.021,-0.019 0.096,-0.1 0.201,-0.19 0.313,-0.273 0.019,-0.015 0.037,-0.033 0.057,-0.047 0.386,-0.267 0.852,-0.426 1.357,-0.426 H 85.83 c 1.319,0 2.387,1.068 2.387,2.387 0,1.319 -1.068,2.387 -2.387,2.387 H 70.315 V 6.96 H 85.83 c 1.319,0 2.387,1.068 2.387,2.387 0,1.32 -1.068,2.387 -2.387,2.387 H 70.315 v 34.74 z"
                     inkscape:connector-curvature="0"/></g></g></g></g></svg>