<?xml version="1.0" encoding="UTF-8"?>
<svg xmlns:foaf="http://xmlns.com/foaf/0.1/" xmlns:svg="http://www.w3.org/2000/svg"
     xmlns:dc="http://purl.org/dc/elements/1.1/"
     xmlns:crm="http://www.cidoc-crm.org/cidoc-crm/"
     xmlns="http://www.w3.org/2000/svg"
     xmlns:sodipodi="http://sodipodi.sourceforge.net/DTD/sodipodi-0.dtd"
     xmlns:cc="http://creativecommons.org/ns#"
     xmlns:inkscape="http://www.inkscape.org/namespaces/inkscape"
     xmlns:nmo="http://nomisma.org/ontology#"
     xmlns:rdf="http://www.w3.org/1999/02/22-rdf-syntax-ns#"
     width="400"
     height="400"
     xml:space="preserve"
     viewBox="0 0 405 466">
  <title property="dc:title">Monogram 1318</title><desc proprety="dc:description">Monogram 1318 published by Nomisma.org. See matching URIs and bibliographic references for further information about the usage of this symbol on coinage.</desc>
    <desc xmlns:xlink="http://www.w3.org/1999/xlink" property="dc:creator">Corpus Nummorum https://www.corpus-nummorum.eu</desc>
    <desc xmlns:xlink="http://www.w3.org/1999/xlink">lettercomb: ΧΑΙ</desc>    
    <metadata><rdf:RDF><cc:Work rdf:about="https://nomisma.org/svg/monogram.01318.svg"><dc:title>Monogram 1318</dc:title><dc:description>Monogram 1318 published by Nomisma.org. See matching URIs and bibliographic references for further information about the usage of this symbol on coinage.</dc:description><foaf:focus rdf:resource="http://nomisma.org/symbol/monogram.01318"/><dc:format>image/svg+xml</dc:format><dc:type rdf:resource="http://purl.org/dc/dcmitype/StillImage"/><dc:creator rdf:resource="http://nomisma.org/editor/vstolba"/><cc:license rdf:resource="https://creativecommons.org/choose/mark/"/><crm:P106_is_composed_of>Χ</crm:P106_is_composed_of><crm:P106_is_composed_of>Α</crm:P106_is_composed_of><crm:P106_is_composed_of>Ι</crm:P106_is_composed_of><crm:P106_is_composed_of>Υ</crm:P106_is_composed_of></cc:Work></rdf:RDF></metadata>
    <path xmlns:xlink="http://www.w3.org/1999/xlink"
         d="M59.3 6c-3.7 2.2-5.4 6.9-4.2 11.3.5 1.6 3.7 6.1 7.2 10 3.5 4 33.7 38.2 67.1 76.1l60.8 68.8-3.9 4.2C178.4 184.5 7.4 375.6 5.7 378c-5.2 7.4 3.1 17.9 11.8 15 2.6-.8 15-14.1 54.2-57.8 27.9-31.2 52.2-58.2 53.8-60l3-3.3 32.5 30.6c17.9 16.9 33.1 31.4 33.7 32.3 1 1.2 1.3 15 1.3 61.2v59.7l2.4 2.6c6 6.5 15.6 3.8 17.6-4.8.5-2.2 1-29.8 1-61.5v-57.5l31-31c26.7-26.6 31.3-30.8 32.3-29.4.7.8 24.3 27.7 52.5 59.7 40 45.3 52.1 58.3 54.7 59.2 8.7 2.9 17-7.6 11.8-15-1.4-2-150.4-171.3-174.5-198.1l-6.8-7.7 68.1-75.8c37.5-41.8 68.6-77 69.1-78.4 3-7.9-5.4-16.2-13.3-13.1-1.5.5-30.9 32.4-69.8 75.8-37 41.1-67.5 74.8-68 74.8-.4 0-30.1-33.3-66-74S71.6 6.7 70.2 5.8c-3.5-2.3-6.9-2.3-10.9.2zm175.6 216.7 30.4 34.5-29.4 29.4c-16.2 16.2-29.7 29.3-30.1 29.2-1.6-.6-62.9-59.1-62.6-59.8.4-1.2 60.2-67.9 60.8-67.9.3 0 14.2 15.6 30.9 34.6z"/>
</svg>