<?xml version="1.0" encoding="UTF-8"?>
<svg xmlns:foaf="http://xmlns.com/foaf/0.1/" xmlns:svg="http://www.w3.org/2000/svg"
     xmlns:dc="http://purl.org/dc/elements/1.1/"
     xmlns:crm="http://www.cidoc-crm.org/cidoc-crm/"
     xmlns="http://www.w3.org/2000/svg"
     xmlns:sodipodi="http://sodipodi.sourceforge.net/DTD/sodipodi-0.dtd"
     xmlns:cc="http://creativecommons.org/ns#"
     xmlns:inkscape="http://www.inkscape.org/namespaces/inkscape"
     xmlns:nmo="http://nomisma.org/ontology#"
     xmlns:rdf="http://www.w3.org/1999/02/22-rdf-syntax-ns#"
     viewBox="0 0 148.87006 113.27684"
     height="113.27683"
     width="148.87006"
     xml:space="preserve"
     id="svg2"
     version="1.1"
     sodipodi:docname="monogram.ric.10.odoacar.1_2.svg"
     inkscape:version="0.92.3 (2405546, 2018-03-11)"><sodipodi:namedview pagecolor="#ffffff" bordercolor="#666666" borderopacity="1"
                       objecttolerance="10"
                       gridtolerance="10"
                       guidetolerance="10"
                       inkscape:pageopacity="0"
                       inkscape:pageshadow="2"
                       inkscape:window-width="1506"
                       inkscape:window-height="1118"
                       id="namedview16"
                       showgrid="false"
                       inkscape:zoom="3.5400001"
                       inkscape:cx="42.560203"
                       inkscape:cy="44.674753"
                       inkscape:window-x="941"
                       inkscape:window-y="291"
                       inkscape:window-maximized="0"
                       inkscape:current-layer="svg2"/><metadata><rdf:RDF><cc:Work rdf:about="https://nomisma.org/svg/monogram.01528.svg"><dc:title>Monogram 1528</dc:title><dc:description>Monogram 1528 published by Nomisma.org. See matching URIs and bibliographic references for further information about the usage of this symbol on coinage.</dc:description><foaf:focus rdf:resource="http://nomisma.org/symbol/monogram.01528"/><dc:format>image/svg+xml</dc:format><dc:type rdf:resource="http://purl.org/dc/dcmitype/StillImage"/><cc:license rdf:resource="https://creativecommons.org/choose/mark/"/><crm:P106_is_composed_of>N</crm:P106_is_composed_of><crm:P106_is_composed_of>S</crm:P106_is_composed_of><crm:P106_is_composed_of>E</crm:P106_is_composed_of><crm:P106_is_composed_of>O</crm:P106_is_composed_of></cc:Work></rdf:RDF></metadata><defs id="defs6"><clipPath id="clipPath18" clipPathUnits="userSpaceOnUse"><path id="path16" d="M 0,200 H 200 V 0 H 0 Z" inkscape:connector-curvature="0"/></clipPath></defs><g transform="matrix(1.3333333,0,0,-1.3333333,-50.564972,211.9548)" id="g10"><g id="g12"><g clip-path="url(#clipPath18)" id="g14"><g transform="translate(114.2642,80.4848)" id="g20"><path id="path22" style="fill:#231f20;fill-opacity:1;fill-rule:nonzero;stroke:none"
                     d="M 0,0 V 72.264 C 7.977,69.625 29.286,60.241 29.286,35.412 29.286,10.554 7.874,2.224 0,0 m -70.315,23.934 v 45.373 c 7.637,-8.457 24.822,-27.663 40.647,-45.373 z m 68.46,53.831 c -0.709,0.163 -1.455,-0.014 -2.019,-0.462 -0.569,-0.452 -0.9,-1.137 -0.9,-1.864 V 3.23 c -48.199,54.016 -61.513,68.92 -65.695,73.028 -0.301,0.822 -1.037,1.424 -1.933,1.537 -0.111,0.029 -0.202,0.03 -0.3,0.03 -1.319,0 -2.387,-1.067 -2.387,-2.386 V -3.03 c 0,-1.32 1.068,-2.387 2.387,-2.387 1.319,0 2.387,1.067 2.387,2.387 v 22.19 h 44.913 c 8.323,-9.316 15.967,-17.877 21.234,-23.78 0.043,-0.047 0.093,-0.081 0.138,-0.124 0.04,-0.038 0.071,-0.083 0.114,-0.118 0.024,-0.02 0.051,-0.034 0.075,-0.053 0.049,-0.038 0.099,-0.071 0.151,-0.105 0.082,-0.054 0.167,-0.103 0.255,-0.146 0.051,-0.025 0.102,-0.05 0.155,-0.071 0.098,-0.04 0.199,-0.071 0.302,-0.097 0.046,-0.012 0.09,-0.027 0.136,-0.036 0.15,-0.029 0.301,-0.047 0.455,-0.047 0.145,0 0.284,0.014 0.429,0.037 0.359,0.065 36.018,6.97 36.018,40.792 0,33.733 -35.556,42.269 -35.915,42.353"
                     inkscape:connector-curvature="0"/></g><g transform="translate(75.4214,144.2034)" id="g24"><path id="path26" style="fill:#231f20;fill-opacity:1;fill-rule:nonzero;stroke:none"
                     d="m 0,0 c 0,3.781 3.072,6.853 6.848,6.853 3.781,0 6.853,-3.072 6.853,-6.853 0,-3.776 -3.072,-6.848 -6.853,-6.848 C 3.072,-6.848 0,-3.776 0,0 m 18.475,0 c 0,6.41 -5.217,11.627 -11.627,11.627 C 0.438,11.627 -4.774,6.41 -4.774,0 c 0,-6.41 5.212,-11.622 11.622,-11.622 6.41,0 11.627,5.212 11.627,11.622"
                     inkscape:connector-curvature="0"/></g><text id="text30"
                  style="font-variant:normal;font-weight:normal;font-stretch:normal;font-size:99.54199982px;font-family:'Myriad Pro';-inkscape-font-specification:MyriadPro-Regular;writing-mode:lr-tb;fill:#231f20;fill-opacity:1;fill-rule:nonzero;stroke:none"
                  transform="matrix(1,0,0,-1,-282.0293,224.002)"><tspan id="tspan28" y="0"
                      x="0 68.982605 125.12429 179.07607 226.55759 274.53683 319.13165 367.1109">Odovacar</tspan></text>


</g></g></g></svg>