<?xml version="1.0" encoding="UTF-8"?>
<svg xmlns:foaf="http://xmlns.com/foaf/0.1/" xmlns:svg="http://www.w3.org/2000/svg"
     xmlns:dc="http://purl.org/dc/elements/1.1/"
     xmlns:crm="http://www.cidoc-crm.org/cidoc-crm/"
     xmlns="http://www.w3.org/2000/svg"
     xmlns:sodipodi="http://sodipodi.sourceforge.net/DTD/sodipodi-0.dtd"
     xmlns:cc="http://creativecommons.org/ns#"
     xmlns:inkscape="http://www.inkscape.org/namespaces/inkscape"
     xmlns:nmo="http://nomisma.org/ontology#"
     xmlns:rdf="http://www.w3.org/1999/02/22-rdf-syntax-ns#"
     viewBox="0 0 122.04369 130.18041"
     height="130.1804"
     width="122.04369"
     xml:space="preserve"
     id="svg2"
     version="1.1"
     sodipodi:docname="pg_0029.svg"
     inkscape:version="0.92.3 (2405546, 2018-03-11)"><sodipodi:namedview pagecolor="#ffffff" bordercolor="#666666" borderopacity="1"
                       objecttolerance="10"
                       gridtolerance="10"
                       guidetolerance="10"
                       inkscape:pageopacity="0"
                       inkscape:pageshadow="2"
                       inkscape:window-width="640"
                       inkscape:window-height="480"
                       id="namedview14"
                       showgrid="false"
                       inkscape:zoom="0.7953412"
                       inkscape:cx="60.588676"
                       inkscape:cy="56.923337"
                       inkscape:window-x="83"
                       inkscape:window-y="27"
                       inkscape:window-maximized="0"
                       inkscape:current-layer="svg2"/><metadata><rdf:RDF><cc:Work rdf:about="https://nomisma.org/svg/monogram.01526.svg"><dc:title>Monogram 1526</dc:title><dc:description>Monogram 1526 published by Nomisma.org. See matching URIs and bibliographic references for further information about the usage of this symbol on coinage.</dc:description><foaf:focus rdf:resource="http://nomisma.org/symbol/monogram.01526"/><dc:format>image/svg+xml</dc:format><dc:type rdf:resource="http://purl.org/dc/dcmitype/StillImage"/><cc:license rdf:resource="https://creativecommons.org/choose/mark/"/><crm:P106_is_composed_of>S</crm:P106_is_composed_of><crm:P106_is_composed_of>R</crm:P106_is_composed_of><crm:P106_is_composed_of>M</crm:P106_is_composed_of></cc:Work></rdf:RDF></metadata><defs id="defs6"><clipPath id="clipPath18" clipPathUnits="userSpaceOnUse"><path id="path16" d="M 0,222.546 H 213.021 V 0 H 0 Z"
               inkscape:connector-curvature="0"/></clipPath></defs><g transform="matrix(1.3333333,0,0,-1.3333333,-81.425331,221.62107)" id="g10"><g id="g12"><g clip-path="url(#clipPath18)" id="g14"><g transform="translate(96.5927,135.9774)" id="g20"><path id="path22" style="fill:#231f20;fill-opacity:1;fill-rule:nonzero;stroke:none"
                     d="m 0,0 c 0.238,-0.047 1.282,-0.238 2.667,-0.238 1.883,0 4.405,0.35 6.4,1.87 1.744,1.333 2.76,3.333 2.937,5.776 0.55,7.473 -4.55,9.678 -9.813,11.3 -3.995,1.231 -4.643,2.802 -4.597,3.161 l 0.112,0.494 c 0.103,0.802 0.797,3.45 5.352,3.072 4.312,-0.312 5.091,-2.909 5.175,-3.244 0.27,-1.278 1.566,-2.08 2.788,-1.851 1.296,0.252 2.139,1.506 1.892,2.797 -0.051,0.266 -1.347,6.471 -9.51,7.063 -7.417,0.517 -10.051,-4.308 -10.424,-7.128 -0.154,-0.672 -0.322,-2.159 0.555,-3.87 1.142,-2.223 3.58,-3.925 7.249,-5.053 C 6.578,12.363 7.478,10.988 7.24,7.757 7.137,6.331 6.583,5.748 6.177,5.436 4.694,4.289 1.813,4.508 0.844,4.695 -0.047,4.844 -2.573,5.585 -3.566,7.198 -4.261,8.326 -5.739,8.657 -6.853,7.977 -7.972,7.282 -8.322,5.813 -7.632,4.69 -5.315,0.932 -0.457,0.07 0,0"
                     inkscape:connector-curvature="0"/></g><g transform="translate(65.843,94.5135)" id="g24"><path id="path26" style="fill:#231f20;fill-opacity:1;fill-rule:nonzero;stroke:none"
                     d="M 0,0 V 49.928 L 30.553,25.258 Z M 65.541,47.987 V 10.948 c 0.001,-0.006 0,-0.012 0,-0.019 V 3.141 L 38.098,25.3 Z M 79.895,33.156 c 0,-10.225 -5.831,-15.23 -9.58,-17.391 v 33.908 c 3.689,-1.764 9.58,-6.192 9.58,-16.517 M 33.752,7.964 l -8.255,6.919 8.847,7.313 7.745,-6.254 z M 7.902,-14.311 c 0,-3.165 -3.433,-5.906 -7.902,-6.646 v 13.296 c 4.469,-0.739 7.902,-3.481 7.902,-6.65 M -2.387,-25.933 c 8.308,0 15.063,5.212 15.063,11.622 0,4.879 -3.918,9.059 -9.451,10.781 L 21.757,11.791 33.966,1.558 45.834,12.918 65.541,-2.995 v -20.551 c 0,-1.319 1.068,-2.387 2.387,-2.387 1.32,0 2.387,1.068 2.387,2.387 V 3.381 l 12.098,-17.342 c 0.466,-0.667 1.207,-1.021 1.958,-1.021 0.475,0 0.951,0.14 1.366,0.429 1.081,0.755 1.347,2.242 0.592,3.324 l -15.348,22 c 4.467,2.185 13.688,8.385 13.688,22.385 0,17.413 -14.21,21.707 -16.042,22.185 -0.034,0.01 -0.069,0.017 -0.104,0.026 -0.044,0.011 -0.073,0.018 -0.083,0.02 -0.036,0.008 -0.074,0.011 -0.111,0.018 -0.115,0.02 -0.23,0.031 -0.346,0.034 -0.019,10e-4 -0.036,0.006 -0.055,0.006 -0.019,0 -0.037,-0.005 -0.056,-0.006 -0.124,-0.002 -0.247,-0.015 -0.369,-0.037 -0.035,-0.006 -0.07,-0.013 -0.105,-0.021 -0.112,-0.025 -0.222,-0.06 -0.33,-0.102 -0.043,-0.017 -0.085,-0.034 -0.127,-0.053 -0.089,-0.041 -0.174,-0.087 -0.259,-0.14 -0.06,-0.037 -0.118,-0.077 -0.174,-0.119 -0.033,-0.024 -0.068,-0.041 -0.1,-0.068 L 34.307,28.361 -0.886,56.778 c -0.024,0.02 -0.051,0.031 -0.076,0.05 -0.072,0.054 -0.148,0.102 -0.226,0.148 -0.061,0.035 -0.12,0.07 -0.183,0.099 -0.074,0.035 -0.15,0.064 -0.228,0.091 -0.072,0.026 -0.144,0.05 -0.219,0.068 -0.071,0.017 -0.144,0.029 -0.218,0.04 -0.085,0.013 -0.17,0.023 -0.256,0.026 -0.032,0.001 -0.062,0.01 -0.095,0.01 -0.039,0 -0.076,-0.01 -0.114,-0.012 -0.088,-0.004 -0.174,-0.012 -0.261,-0.026 -0.071,-0.011 -0.14,-0.025 -0.209,-0.043 -0.08,-0.02 -0.158,-0.044 -0.235,-0.073 C -3.275,57.131 -3.342,57.104 -3.407,57.073 -3.48,57.038 -3.55,57 -3.62,56.958 c -0.064,-0.039 -0.126,-0.081 -0.187,-0.126 -0.06,-0.045 -0.118,-0.093 -0.175,-0.144 -0.064,-0.058 -0.124,-0.12 -0.182,-0.184 -0.025,-0.029 -0.054,-0.05 -0.078,-0.08 -0.02,-0.024 -0.032,-0.051 -0.05,-0.076 -0.054,-0.073 -0.103,-0.148 -0.149,-0.227 -0.035,-0.06 -0.069,-0.12 -0.098,-0.182 -0.035,-0.074 -0.064,-0.15 -0.091,-0.228 -0.026,-0.073 -0.05,-0.145 -0.068,-0.219 -0.018,-0.071 -0.03,-0.144 -0.041,-0.218 -0.012,-0.086 -0.022,-0.17 -0.025,-0.257 -0.002,-0.032 -0.01,-0.062 -0.01,-0.094 v -78.469 c 0,-1.319 1.068,-2.387 2.387,-2.387"
                     inkscape:connector-curvature="0"/></g></g></g></g></svg>