<?xml version="1.0" encoding="UTF-8"?>
<svg xmlns:foaf="http://xmlns.com/foaf/0.1/" xmlns:svg="http://www.w3.org/2000/svg"
     xmlns:dc="http://purl.org/dc/elements/1.1/"
     xmlns:crm="http://www.cidoc-crm.org/cidoc-crm/"
     xmlns="http://www.w3.org/2000/svg"
     xmlns:sodipodi="http://sodipodi.sourceforge.net/DTD/sodipodi-0.dtd"
     xmlns:cc="http://creativecommons.org/ns#"
     xmlns:inkscape="http://www.inkscape.org/namespaces/inkscape"
     xmlns:nmo="http://nomisma.org/ontology#"
     xmlns:rdf="http://www.w3.org/1999/02/22-rdf-syntax-ns#"
     viewBox="0 0 123.988 114.70713"
     height="114.70713"
     width="123.988"
     xml:space="preserve"
     id="svg2"
     version="1.1"
     sodipodi:docname="pg_0045.svg"
     inkscape:version="0.92.3 (2405546, 2018-03-11)"><sodipodi:namedview pagecolor="#ffffff" bordercolor="#666666" borderopacity="1"
                       objecttolerance="10"
                       gridtolerance="10"
                       guidetolerance="10"
                       inkscape:pageopacity="0"
                       inkscape:pageshadow="2"
                       inkscape:window-width="640"
                       inkscape:window-height="480"
                       id="namedview14"
                       showgrid="false"
                       inkscape:zoom="0.88500003"
                       inkscape:cx="67.35653"
                       inkscape:cy="58.225477"
                       inkscape:window-x="83"
                       inkscape:window-y="27"
                       inkscape:window-maximized="0"
                       inkscape:current-layer="svg2"/><metadata><rdf:RDF><cc:Work rdf:about="https://nomisma.org/svg/monogram.01531.svg"><dc:title>Monogram 1531</dc:title><dc:description>Monogram 1531 published by Nomisma.org. See matching URIs and bibliographic references for further information about the usage of this symbol on coinage.</dc:description><foaf:focus rdf:resource="http://nomisma.org/symbol/monogram.01531"/><dc:format>image/svg+xml</dc:format><dc:type rdf:resource="http://purl.org/dc/dcmitype/StillImage"/><cc:license rdf:resource="https://creativecommons.org/choose/mark/"/><crm:P106_is_composed_of>R</crm:P106_is_composed_of><crm:P106_is_composed_of>C</crm:P106_is_composed_of><crm:P106_is_composed_of>V</crm:P106_is_composed_of><crm:P106_is_composed_of>E</crm:P106_is_composed_of></cc:Work></rdf:RDF></metadata><defs id="defs6"><clipPath id="clipPath18" clipPathUnits="userSpaceOnUse"><path id="path16" d="M 0,200 H 200 V 0 H 0 Z" inkscape:connector-curvature="0"/></clipPath></defs><g transform="matrix(1.3333333,0,0,-1.3333333,-65.976798,189.815)" id="g10"><g id="g12"><g clip-path="url(#clipPath18)" id="g14"><g transform="translate(54.2566,75.8919)" id="g20"><path id="path22" style="fill:#231f20;fill-opacity:1;fill-rule:nonzero;stroke:none"
                     d="M 0,0 V 25.163 L 21.974,0 Z M 0,59.901 C 4.881,59.015 15.016,55.91 15.016,45.449 15.016,37.342 4.839,34.89 0,34.186 Z m 85.83,0.331 c 1.319,0 2.387,1.067 2.387,2.386 0,1.32 -1.068,2.387 -2.387,2.387 H 67.928 c -1.319,0 -2.387,-1.067 -2.387,-2.387 V 25.484 L 39.915,-13.281 2.36,29.724 c 6.484,1.202 17.43,4.841 17.43,15.725 0,14.33 -14.406,19.053 -22.023,19.552 l -2.541,0.163 v -78.245 c 0,-1.32 1.068,-2.387 2.387,-2.387 1.319,0 2.387,1.067 2.387,2.387 v 8.307 h 26.143 l 12.201,-13.971 c 0.475,-0.541 1.138,-0.816 1.799,-0.816 0.56,0 1.119,0.196 1.571,0.587 0.149,0.13 0.27,0.276 0.379,0.431 0.096,0.101 0.195,0.199 0.274,0.32 l 23.174,35.055 v -29.913 c 0,-1.32 1.068,-2.387 2.387,-2.387 H 85.83 c 1.319,0 2.387,1.067 2.387,2.387 0,1.319 -1.068,2.387 -2.387,2.387 H 70.315 V 22.382 H 85.83 c 1.319,0 2.387,1.067 2.387,2.387 0,1.319 -1.068,2.386 -2.387,2.386 H 70.315 v 33.077 z"
                     inkscape:connector-curvature="0"/></g><g transform="translate(97.7846,137.5685)" id="g24"><path id="path26" style="fill:#231f20;fill-opacity:1;fill-rule:nonzero;stroke:none"
                     d="m 0,0 c 0.555,0.061 2.256,-0.014 2.942,-0.718 0.923,-0.951 2.433,-0.974 3.375,-0.056 0.946,0.919 0.974,2.429 0.056,3.375 -2.434,2.518 -6.41,2.196 -6.615,2.159 -7.744,0 -14.042,-6.135 -14.042,-13.678 0,-7.538 6.298,-13.673 14.042,-13.673 5.501,0 6.96,3.212 7.109,3.575 0.499,1.222 -0.047,2.709 -1.268,3.203 -1.217,0.503 -2.564,0 -3.063,-1.221 -0.005,-0.005 -0.559,-0.784 -2.778,-0.784 -5.11,0 -9.268,3.991 -9.268,8.9 0,4.909 4.158,8.904 9.51,8.918"
                     inkscape:connector-curvature="0"/></g></g></g></g></svg>