<?xml version="1.0" encoding="UTF-8"?>
<svg xmlns:foaf="http://xmlns.com/foaf/0.1/" xmlns:svg="http://www.w3.org/2000/svg"
     xmlns:dc="http://purl.org/dc/elements/1.1/"
     xmlns:crm="http://www.cidoc-crm.org/cidoc-crm/"
     xmlns="http://www.w3.org/2000/svg"
     xmlns:sodipodi="http://sodipodi.sourceforge.net/DTD/sodipodi-0.dtd"
     xmlns:cc="http://creativecommons.org/ns#"
     xmlns:inkscape="http://www.inkscape.org/namespaces/inkscape"
     xmlns:nmo="http://nomisma.org/ontology#"
     xmlns:rdf="http://www.w3.org/1999/02/22-rdf-syntax-ns#"
     viewBox="0 0 123.98667 107.29866"
     height="107.29866"
     width="123.98666"
     xml:space="preserve"
     id="svg2"
     version="1.1"
     sodipodi:docname="pg_0050.svg"
     inkscape:version="0.92.3 (2405546, 2018-03-11)"><sodipodi:namedview pagecolor="#ffffff" bordercolor="#666666" borderopacity="1"
                       objecttolerance="10"
                       gridtolerance="10"
                       guidetolerance="10"
                       inkscape:pageopacity="0"
                       inkscape:pageshadow="2"
                       inkscape:window-width="614"
                       inkscape:window-height="450"
                       id="namedview12"
                       showgrid="false"
                       inkscape:zoom="0.88500003"
                       inkscape:cx="61.993463"
                       inkscape:cy="53.649077"
                       inkscape:window-x="83"
                       inkscape:window-y="27"
                       inkscape:window-maximized="0"
                       inkscape:current-layer="svg2"/><metadata><rdf:RDF><cc:Work rdf:about="https://nomisma.org/svg/monogram.01549.svg"><dc:title>Monogram 1549</dc:title><dc:description>Monogram 1549 published by Nomisma.org. See matching URIs and bibliographic references for further information about the usage of this symbol on coinage.</dc:description><foaf:focus rdf:resource="http://nomisma.org/symbol/monogram.01549"/><dc:format>image/svg+xml</dc:format><dc:type rdf:resource="http://purl.org/dc/dcmitype/StillImage"/><cc:license rdf:resource="https://creativecommons.org/choose/mark/"/><crm:P106_is_composed_of>A</crm:P106_is_composed_of><crm:P106_is_composed_of>E</crm:P106_is_composed_of><crm:P106_is_composed_of>T</crm:P106_is_composed_of><crm:P106_is_composed_of>N</crm:P106_is_composed_of></cc:Work></rdf:RDF></metadata><defs id="defs6"><clipPath id="clipPath18" clipPathUnits="userSpaceOnUse"><path id="path16" d="M 0,200 H 200 V 0 H 0 Z" inkscape:connector-curvature="0"/></clipPath></defs><g transform="matrix(1.3333333,0,0,-1.3333333,-71.339865,186.98293)" id="g10"><g id="g12"><g clip-path="url(#clipPath18)" id="g14"><g transform="translate(94.2209,100.7272)" id="g20"><path id="path22" style="fill:#231f20;fill-opacity:1;fill-rule:nonzero;stroke:none"
                     d="M 0,0 29.599,31.145 V 0 Z m 29.599,-32.503 -10.548,11.355 c -0.205,0.762 -0.771,1.367 -1.509,1.626 L 3.842,-4.774 H 29.599 Z M -35.942,-19.38 V 31.048 L -3.334,-4.056 c 0.008,-0.009 0.015,-0.018 0.023,-0.026 l 14.21,-15.298 z m 85.829,54.116 c 1.32,0 2.387,1.067 2.387,2.387 0,1.319 -1.067,2.387 -2.387,2.387 H 14.084 c -1.319,0 -2.387,-1.068 -2.387,-2.387 0,-1.32 1.068,-2.387 2.387,-2.387 h 12.34 L -3.555,3.19 -36.581,38.745 c -0.006,0.007 -0.014,0.011 -0.021,0.018 -0.088,0.093 -0.186,0.176 -0.289,0.254 -0.023,0.017 -0.044,0.039 -0.067,0.055 -0.103,0.072 -0.213,0.132 -0.327,0.188 -0.027,0.013 -0.052,0.031 -0.08,0.043 -0.097,0.043 -0.201,0.073 -0.305,0.103 -0.047,0.013 -0.092,0.033 -0.14,0.043 -0.08,0.018 -0.163,0.023 -0.245,0.033 -0.077,0.009 -0.152,0.021 -0.229,0.023 -0.015,0 -0.03,0.005 -0.045,0.005 -0.061,0 -0.118,-0.014 -0.178,-0.018 -0.082,-0.006 -0.164,-0.011 -0.246,-0.025 -0.08,-0.014 -0.156,-0.038 -0.233,-0.06 -0.071,-0.021 -0.141,-0.039 -0.21,-0.065 -0.084,-0.033 -0.163,-0.075 -0.242,-0.117 -0.056,-0.03 -0.113,-0.056 -0.166,-0.09 -0.093,-0.059 -0.177,-0.127 -0.261,-0.198 -0.028,-0.024 -0.059,-0.041 -0.087,-0.066 -0.007,-0.007 -0.011,-0.015 -0.018,-0.021 -0.081,-0.077 -0.152,-0.162 -0.221,-0.25 -0.031,-0.038 -0.066,-0.074 -0.094,-0.114 -0.051,-0.073 -0.091,-0.153 -0.134,-0.231 -0.032,-0.06 -0.07,-0.117 -0.097,-0.179 -0.027,-0.063 -0.044,-0.13 -0.066,-0.196 -0.028,-0.083 -0.059,-0.164 -0.077,-0.249 -0.012,-0.055 -0.015,-0.112 -0.023,-0.168 -0.015,-0.101 -0.029,-0.202 -0.031,-0.304 0,-0.012 -0.003,-0.024 -0.003,-0.036 v -75.7 c 0,-1.319 1.067,-2.387 2.387,-2.387 1.319,0 2.387,1.068 2.387,2.387 v 14.424 h 51.275 l 14.905,-16.046 c 0.006,-0.007 0.014,-0.012 0.02,-0.018 0.095,-0.101 0.2,-0.19 0.312,-0.273 0.02,-0.015 0.038,-0.034 0.059,-0.048 0.385,-0.268 0.852,-0.426 1.357,-0.426 h 17.901 c 1.32,0 2.387,1.068 2.387,2.387 0,1.319 -1.067,2.387 -2.387,2.387 H 34.373 v 31.416 h 15.514 c 1.32,0 2.387,1.068 2.387,2.387 C 52.274,-1.068 51.207,0 49.887,0 H 34.373 v 34.736 z"
                     inkscape:connector-curvature="0"/></g></g></g></g></svg>