<?xml version="1.0" encoding="UTF-8"?>
<svg xmlns:foaf="http://xmlns.com/foaf/0.1/" xmlns:svg="http://www.w3.org/2000/svg"
     xmlns:dc="http://purl.org/dc/elements/1.1/"
     xmlns:crm="http://www.cidoc-crm.org/cidoc-crm/"
     xmlns="http://www.w3.org/2000/svg"
     xmlns:sodipodi="http://sodipodi.sourceforge.net/DTD/sodipodi-0.dtd"
     xmlns:cc="http://creativecommons.org/ns#"
     xmlns:inkscape="http://www.inkscape.org/namespaces/inkscape"
     xmlns:nmo="http://nomisma.org/ontology#"
     xmlns:rdf="http://www.w3.org/1999/02/22-rdf-syntax-ns#"
     viewBox="0 0 123.98667 107.29733"
     height="107.29733"
     width="123.98666"
     xml:space="preserve"
     id="svg2"
     version="1.1"
     sodipodi:docname="pg_0048.svg"
     inkscape:version="0.92.3 (2405546, 2018-03-11)"><sodipodi:namedview pagecolor="#ffffff" bordercolor="#666666" borderopacity="1"
                       objecttolerance="10"
                       gridtolerance="10"
                       guidetolerance="10"
                       inkscape:pageopacity="0"
                       inkscape:pageshadow="2"
                       inkscape:window-width="614"
                       inkscape:window-height="450"
                       id="namedview12"
                       showgrid="false"
                       inkscape:zoom="0.88500003"
                       inkscape:cx="65.039997"
                       inkscape:cy="63.203744"
                       inkscape:window-x="83"
                       inkscape:window-y="27"
                       inkscape:window-maximized="0"
                       inkscape:current-layer="svg2"/><metadata><rdf:RDF><cc:Work rdf:about="https://nomisma.org/svg/monogram.01537.svg"><dc:title>Monogram 1537</dc:title><dc:description>Monogram 1537 published by Nomisma.org. See matching URIs and bibliographic references for further information about the usage of this symbol on coinage.</dc:description><foaf:focus rdf:resource="http://nomisma.org/symbol/monogram.01537"/><dc:format>image/svg+xml</dc:format><dc:type rdf:resource="http://purl.org/dc/dcmitype/StillImage"/><cc:license rdf:resource="https://creativecommons.org/choose/mark/"/><crm:P106_is_composed_of>A</crm:P106_is_composed_of><crm:P106_is_composed_of>E</crm:P106_is_composed_of><crm:P106_is_composed_of>T</crm:P106_is_composed_of><crm:P106_is_composed_of>N</crm:P106_is_composed_of></cc:Work></rdf:RDF></metadata><defs id="defs6"><clipPath id="clipPath18" clipPathUnits="userSpaceOnUse"><path id="path16" d="M 0,200 H 200 V 0 H 0 Z" inkscape:connector-curvature="0"/></clipPath></defs><g transform="matrix(1.3333333,0,0,-1.3333333,-68.293332,177.42693)" id="g10"><g id="g12"><g clip-path="url(#clipPath18)" id="g14"><g transform="translate(121.535,61.0582)" id="g20"><path id="path22" style="fill:#231f20;fill-opacity:1;fill-rule:nonzero;stroke:none"
                     d="M 0,0 -25.757,27.729 H 0 Z m -65.542,32.503 v 31.049 l 28.841,-31.049 z m 85.831,34.736 c 1.319,0 2.386,1.067 2.386,2.386 0,1.32 -1.067,2.387 -2.386,2.387 h -35.804 c -1.319,0 -2.387,-1.067 -2.387,-2.387 0,-1.319 1.068,-2.386 2.387,-2.386 H 0 V 32.503 H -30.191 L -66.18,71.248 c -0.007,0.007 -0.014,0.011 -0.021,0.018 -0.084,0.088 -0.177,0.166 -0.274,0.241 -0.029,0.023 -0.055,0.049 -0.085,0.07 -0.094,0.067 -0.197,0.121 -0.301,0.173 -0.036,0.018 -0.069,0.041 -0.105,0.057 -0.093,0.041 -0.192,0.069 -0.29,0.098 -0.052,0.015 -0.102,0.036 -0.154,0.047 -0.079,0.018 -0.161,0.023 -0.243,0.033 -0.077,0.009 -0.153,0.021 -0.23,0.023 -0.015,0 -0.03,0.004 -0.045,0.004 -0.061,0 -0.118,-0.013 -0.177,-0.017 -0.083,-0.006 -0.166,-0.011 -0.248,-0.025 -0.078,-0.014 -0.151,-0.037 -0.226,-0.059 -0.074,-0.02 -0.148,-0.039 -0.22,-0.068 -0.079,-0.031 -0.153,-0.071 -0.228,-0.11 -0.061,-0.032 -0.122,-0.06 -0.18,-0.098 -0.09,-0.057 -0.172,-0.124 -0.253,-0.192 -0.029,-0.025 -0.062,-0.043 -0.091,-0.069 -0.007,-0.007 -0.012,-0.015 -0.019,-0.021 -0.08,-0.077 -0.15,-0.162 -0.219,-0.249 -0.032,-0.039 -0.067,-0.075 -0.096,-0.115 -0.05,-0.073 -0.09,-0.152 -0.133,-0.231 -0.032,-0.06 -0.07,-0.117 -0.097,-0.179 -0.027,-0.062 -0.044,-0.13 -0.066,-0.194 -0.028,-0.084 -0.059,-0.166 -0.078,-0.252 -0.011,-0.054 -0.014,-0.111 -0.022,-0.166 -0.015,-0.102 -0.029,-0.202 -0.031,-0.305 0,-0.012 -0.003,-0.024 -0.003,-0.037 V -6.074 c 0,-1.32 1.067,-2.387 2.387,-2.387 1.319,0 2.386,1.067 2.386,2.387 v 33.803 h 33.275 L 0.639,-7.697 c 0.006,-0.006 0.014,-0.011 0.02,-0.017 0.096,-0.101 0.201,-0.191 0.312,-0.273 0.02,-0.015 0.038,-0.034 0.059,-0.048 0.385,-0.268 0.852,-0.426 1.357,-0.426 h 17.902 c 1.319,0 2.386,1.067 2.386,2.387 0,1.319 -1.067,2.387 -2.386,2.387 H 4.774 v 31.416 h 15.515 c 1.319,0 2.386,1.068 2.386,2.387 0,1.319 -1.067,2.387 -2.386,2.387 H 4.774 v 34.736 z"
                     inkscape:connector-curvature="0"/></g></g></g></g></svg>