<?xml version="1.0" encoding="UTF-8"?>
<svg xmlns:foaf="http://xmlns.com/foaf/0.1/" xmlns:svg="http://www.w3.org/2000/svg"
     xmlns:dc="http://purl.org/dc/elements/1.1/"
     xmlns:crm="http://www.cidoc-crm.org/cidoc-crm/"
     xmlns="http://www.w3.org/2000/svg"
     xmlns:sodipodi="http://sodipodi.sourceforge.net/DTD/sodipodi-0.dtd"
     xmlns:cc="http://creativecommons.org/ns#"
     xmlns:inkscape="http://www.inkscape.org/namespaces/inkscape"
     xmlns:nmo="http://nomisma.org/ontology#"
     xmlns:rdf="http://www.w3.org/1999/02/22-rdf-syntax-ns#"
     viewBox="0 0 162.57626 108.5592"
     height="108.5592"
     width="162.57626"
     xml:space="preserve"
     id="svg2"
     version="1.1"
     sodipodi:docname="pg_0009.svg"
     inkscape:version="0.92.3 (2405546, 2018-03-11)"><sodipodi:namedview pagecolor="#ffffff" bordercolor="#666666" borderopacity="1"
                       objecttolerance="10"
                       gridtolerance="10"
                       guidetolerance="10"
                       inkscape:pageopacity="0"
                       inkscape:pageshadow="2"
                       inkscape:window-width="640"
                       inkscape:window-height="480"
                       id="namedview14"
                       showgrid="false"
                       inkscape:zoom="0.89388969"
                       inkscape:cx="92.359207"
                       inkscape:cy="59.888932"
                       inkscape:window-x="83"
                       inkscape:window-y="27"
                       inkscape:window-maximized="0"
                       inkscape:current-layer="svg2"/><metadata><rdf:RDF><cc:Work rdf:about="https://nomisma.org/svg/monogram.01537.svg"><dc:title>Monogram 1537</dc:title><dc:description>Monogram 1537 published by Nomisma.org. See matching URIs and bibliographic references for further information about the usage of this symbol on coinage.</dc:description><foaf:focus rdf:resource="http://nomisma.org/symbol/monogram.01537"/><dc:format>image/svg+xml</dc:format><dc:type rdf:resource="http://purl.org/dc/dcmitype/StillImage"/><cc:license rdf:resource="https://creativecommons.org/choose/mark/"/><crm:P106_is_composed_of>S</crm:P106_is_composed_of><crm:P106_is_composed_of>R</crm:P106_is_composed_of><crm:P106_is_composed_of>M</crm:P106_is_composed_of></cc:Work></rdf:RDF></metadata><defs id="defs6"><clipPath id="clipPath18" clipPathUnits="userSpaceOnUse"><path id="path16" d="M 0,198.011 H 198.011 V 0 H 0 Z"
               inkscape:connector-curvature="0"/></clipPath></defs><g transform="matrix(1.3333333,0,0,-1.3333333,-39.648132,180.6776)" id="g10"><g id="g12"><g clip-path="url(#clipPath18)" id="g14"><g transform="translate(94.3771,107.5792)" id="g20"><path id="path22" style="fill:#231f20;fill-opacity:1;fill-rule:nonzero;stroke:none"
                     d="M 0,0 25.888,19.038 V -19.038 Z M -36.371,-20.828 V 20.828 L -8.049,0 Z M 41.371,6.447 c 0,-9.721 -6.592,-15.131 -10.709,-17.566 V 20.819 C 34.555,19.666 41.371,16.25 41.371,6.447 m 15.034,-41.099 -23.714,19.197 c 5.012,2.869 13.453,9.536 13.453,21.902 0,14.063 -11.384,18.998 -17.506,19.664 -0.009,10e-4 -0.018,0.002 -0.027,0.003 -0.03,0.003 -0.063,0.008 -0.093,0.011 -0.039,0.005 -0.077,-0.001 -0.116,0.001 -0.043,0.003 -0.083,0.013 -0.127,0.013 -0.015,0 -0.029,-0.004 -0.045,-0.004 C 28.19,26.134 28.151,26.132 28.111,26.129 28.034,26.125 27.959,26.112 27.883,26.1 27.842,26.093 27.801,26.089 27.76,26.08 27.729,26.073 27.698,26.065 27.667,26.057 27.587,26.036 27.51,26.008 27.434,25.979 27.392,25.963 27.349,25.95 27.309,25.932 27.284,25.921 27.261,25.909 27.237,25.897 27.167,25.863 27.101,25.824 27.035,25.783 26.984,25.752 26.934,25.721 26.885,25.686 26.878,25.681 26.87,25.678 26.863,25.673 L 26.792,25.621 C 26.784,25.614 26.774,25.609 26.766,25.602 L -4.024,2.959 -37.346,27.463 c -0.007,0.005 -0.015,0.008 -0.022,0.014 -0.087,0.062 -0.181,0.114 -0.277,0.165 -0.048,0.026 -0.096,0.057 -0.146,0.079 -0.071,0.032 -0.147,0.053 -0.221,0.078 -0.077,0.025 -0.153,0.054 -0.231,0.071 -0.059,0.013 -0.121,0.017 -0.182,0.026 -0.096,0.013 -0.192,0.027 -0.289,0.029 -0.015,0 -0.029,0.004 -0.044,0.004 -0.047,0 -0.091,-0.011 -0.138,-0.014 -0.046,0.003 -0.09,0.014 -0.137,0.014 h -23.221 c -1.319,0 -2.387,-1.067 -2.387,-2.387 0,-1.319 1.068,-2.386 2.387,-2.386 h 21.109 v -70.488 h -20.834 c -1.319,0 -2.387,-1.068 -2.387,-2.387 0,-1.319 1.068,-2.387 2.387,-2.387 h 23.221 c 1.32,0 2.387,1.068 2.387,2.387 v 22.972 l 32.347,23.788 29.912,-21.997 v -24.763 c 0,-1.319 1.068,-2.387 2.387,-2.387 h 23.221 c 1.319,0 2.387,1.068 2.387,2.387 0,1.319 -1.068,2.387 -2.387,2.387 H 30.662 v 27.378 l 22.741,-18.409 c 0.443,-0.359 0.974,-0.531 1.501,-0.531 0.695,0 1.385,0.303 1.855,0.886 0.83,1.025 0.672,2.526 -0.354,3.356"
                     inkscape:connector-curvature="0"/></g><g transform="translate(90.3312,84.5028)" id="g24"><path id="path26" style="fill:#231f20;fill-opacity:1;fill-rule:nonzero;stroke:none"
                     d="m 0,0 c -7.552,0.671 -10.153,-4.07 -10.596,-6.876 -0.173,-0.667 -0.378,-2.149 0.457,-3.879 1.086,-2.256 3.487,-4.014 7.132,-5.235 5.748,-1.921 6.615,-3.315 6.299,-6.536 -0.136,-1.427 -0.705,-1.995 -1.124,-2.299 -1.515,-1.109 -4.396,-0.815 -5.347,-0.61 -0.886,0.172 -3.394,0.969 -4.35,2.606 -0.666,1.142 -2.13,1.534 -3.263,0.858 -1.138,-0.662 -1.524,-2.126 -0.858,-3.264 2.229,-3.818 7.063,-4.797 7.515,-4.876 0.257,-0.056 1.459,-0.303 3.026,-0.303 1.837,0 4.172,0.34 6.074,1.715 1.776,1.292 2.839,3.264 3.082,5.707 0.723,7.459 -4.317,9.785 -9.543,11.533 -3.963,1.324 -4.573,2.909 -4.518,3.273 l 0.121,0.489 c 0.131,0.797 0.924,3.427 5.427,2.942 4.308,-0.415 5.026,-3.035 5.1,-3.371 0.233,-1.277 1.473,-2.135 2.741,-1.916 1.301,0.219 2.178,1.455 1.958,2.751 C 9.287,-7.025 8.14,-0.793 0,0"
                     inkscape:connector-curvature="0"/></g></g></g></g></svg>