<?xml version="1.0" encoding="UTF-8"?>
<!-- Generator: Adobe Illustrator 12.0.0, SVG Export Plug-In . SVG Version: 6.00 Build 51448)  --><svg xmlns:foaf="http://xmlns.com/foaf/0.1/" xmlns:svg="http://www.w3.org/2000/svg"
     xmlns:dc="http://purl.org/dc/elements/1.1/"
     xmlns:crm="http://www.cidoc-crm.org/cidoc-crm/"
     xmlns="http://www.w3.org/2000/svg"
     xmlns:sodipodi="http://sodipodi.sourceforge.net/DTD/sodipodi-0.dtd"
     xmlns:cc="http://creativecommons.org/ns#"
     xmlns:inkscape="http://www.inkscape.org/namespaces/inkscape"
     xmlns:nmo="http://nomisma.org/ontology#"
     xmlns:rdf="http://www.w3.org/1999/02/22-rdf-syntax-ns#"
     version="1.1"
     width="115.309"
     height="115.364"
     viewBox="0 0 115.309 115.364"
     overflow="visible"
     enable-background="new 0 0 115.309 115.364"
     xml:space="preserve"
     preserveAspectRatio="xMidYMid meet"
     zoomAndPan="magnify"
     contentScriptType="application/ecmascript"
     contentStyleType="text/css"><g xmlns:xlink="http://www.w3.org/1999/xlink" id="Ebene_1" display="none"><g display="inline"><g><polygon fill="none"
                     points="110.809,110.808 110.809,4.508 57.659,4.509 4.51,4.509 4.51,110.808 57.659,5.262    "/><path d="M115.309,110.808c0-35.433,0-70.867,0-106.3c0-2.453-2.047-4.5-4.5-4.5c-35.433,0-70.866,0-106.299,0     c-2.453,0-4.5,2.047-4.5,4.5c0,35.433,0,70.866,0,106.299c0,4.307,6.32,6.374,8.386,2.271     C26.112,77.897,43.828,42.715,61.545,7.533c-2.59,0-5.181,0-7.771,0c17.717,35.182,35.433,70.364,53.149,105.546     c2.611,5.185,10.375,0.627,7.771-4.542C96.978,73.354,79.261,38.173,61.545,2.99c-1.479-2.936-6.293-2.936-7.771,0     C36.057,38.173,18.341,73.354,0.624,108.537c2.795,0.757,5.59,1.514,8.386,2.271c0-35.433,0-70.866,0-106.299     c-1.5,1.5-3,3-4.5,4.5c35.433,0,70.866,0,106.299,0c-1.5-1.5-3-3-4.5-4.5c0,35.433,0,70.867,0,106.3     C106.309,116.612,115.309,116.612,115.309,110.808z"/></g></g><g display="inline"><g><line fill="none" x1="32.207" y1="57.658" x2="82.438" y2="57.658"/><path d="M32.207,62.158c16.744,0,33.487,0,50.23,0c5.804,0,5.804-9,0-9c-16.744,0-33.487,0-50.23,0     C26.403,53.158,26.403,62.158,32.207,62.158L32.207,62.158z"/></g></g></g><g xmlns:xlink="http://www.w3.org/1999/xlink" id="Ebene_2"><g><g><polyline fill="none"
                      points="57.659,4.612 57.659,58.305 4.509,110.809 4.509,4.509 110.809,4.509 110.809,110.809 4.509,4.509         "/><path d="M53.159,4.612c0,17.897,0,35.795,0,53.692c0.439-1.061,0.879-2.121,1.318-3.182     C36.76,72.624,19.044,90.125,1.327,107.626c2.561,1.061,5.122,2.122,7.682,3.182c0-35.433,0-70.866,0-106.299     c-1.5,1.5-3,3-4.5,4.5c35.433,0,70.866,0,106.299,0c-1.5-1.5-3-3-4.5-4.5c0,35.433,0,70.866,0,106.299     c2.561-1.061,5.121-2.121,7.682-3.182C79.856,73.493,45.722,39.358,11.588,5.224C10.289,3.925,8.99,2.626,7.691,1.327     C3.584-2.78-2.78,3.584,1.327,7.691c34.134,34.134,68.269,68.268,102.402,102.402c1.299,1.299,2.598,2.598,3.897,3.897     c2.777,2.777,7.682,0.743,7.682-3.182c0-35.433,0-70.866,0-106.299c0-2.453-2.047-4.5-4.5-4.5c-35.433,0-70.866,0-106.299,0     c-2.453,0-4.5,2.047-4.5,4.5c0,35.433,0,70.866,0,106.299c0,3.943,4.896,5.935,7.682,3.182     C24.554,97.333,41.417,80.675,58.28,64.017c2.009-1.984,3.879-3.458,3.879-6.552c0-5.578,0-11.155,0-16.733     c0-12.04,0-24.079,0-36.119C62.159-1.191,53.159-1.191,53.159,4.612L53.159,4.612z"/></g></g></g></svg>