<?xml version="1.0" encoding="UTF-8"?>
<!-- Generator: Adobe Illustrator 12.0.0, SVG Export Plug-In . SVG Version: 6.00 Build 51448)  --><svg xmlns:foaf="http://xmlns.com/foaf/0.1/" xmlns:svg="http://www.w3.org/2000/svg"
     xmlns:dc="http://purl.org/dc/elements/1.1/"
     xmlns:crm="http://www.cidoc-crm.org/cidoc-crm/"
     xmlns="http://www.w3.org/2000/svg"
     xmlns:sodipodi="http://sodipodi.sourceforge.net/DTD/sodipodi-0.dtd"
     xmlns:cc="http://creativecommons.org/ns#"
     xmlns:inkscape="http://www.inkscape.org/namespaces/inkscape"
     xmlns:nmo="http://nomisma.org/ontology#"
     xmlns:rdf="http://www.w3.org/1999/02/22-rdf-syntax-ns#"
     version="1.1"
     id="Ebene_1"
     width="150.732"
     height="150.776"
     viewBox="0 0 150.732 150.776"
     overflow="visible"
     enable-background="new 0 0 150.732 150.776"
     xml:space="preserve"
     preserveAspectRatio="xMidYMid meet"
     zoomAndPan="magnify"
     contentScriptType="application/ecmascript"
     contentStyleType="text/css"><g xmlns:xlink="http://www.w3.org/1999/xlink"><polygon fill="#FFFFFF"
               points="146.232,146.276 4.5,146.276 4.5,75.41 4.5,4.543 146.232,4.543  "/><g><polygon fill="none"
                  points="146.232,146.276 4.5,146.276 4.5,75.41 4.5,4.543 146.232,4.543   "/><path d="M146.232,141.776c-46.738,0-93.475,0-140.213,0c-0.506,0-1.013,0-1.52,0c1.5,1.5,3,3,4.5,4.5c0-46.137,0-92.273,0-138.41    c0-1.107,0-2.215,0-3.322c-1.5,1.5-3,3-4.5,4.5c46.738,0,93.475,0,140.213,0c0.507,0,1.013,0,1.52,0c-1.5-1.5-3-3-4.5-4.5    c0,46.738,0,93.475,0,140.213c0,0.506,0,1.013,0,1.52c0,5.804,9,5.804,9,0c0-46.738,0-93.475,0-140.213c0-0.506,0-1.013,0-1.52    c0-2.453-2.047-4.5-4.5-4.5c-46.738,0-93.475,0-140.213,0c-0.506,0-1.013,0-1.52,0c-2.453,0-4.5,2.047-4.5,4.5    c0,46.137,0,92.273,0,138.41c0,1.107,0,2.215,0,3.322c0,2.453,2.047,4.5,4.5,4.5c46.738,0,93.475,0,140.213,0    c0.507,0,1.013,0,1.52,0C152.036,150.776,152.036,141.776,146.232,141.776z"/></g></g><g xmlns:xlink="http://www.w3.org/1999/xlink"><path fill="#FFFFFF" d="M4.5,75.409"/><g><path fill="none" d="M4.5,75.409"/><path d="M4.5,79.909c5.804,0,5.804-9,0-9S-1.304,79.909,4.5,79.909L4.5,79.909z"/></g></g><g xmlns:xlink="http://www.w3.org/1999/xlink"><path fill="#FFFFFF" d="M75.366,146.275"/><g><path fill="none" d="M75.366,146.275"/><path d="M75.366,150.775c5.804,0,5.804-9,0-9S69.563,150.775,75.366,150.775L75.366,150.775z"/></g></g><g xmlns:xlink="http://www.w3.org/1999/xlink"><line fill="#FFFFFF" x1="75.366" y1="75.409" x2="146.232" y2="75.409"/><g><line fill="none" x1="75.366" y1="75.409" x2="146.232" y2="75.409"/><path d="M75.366,79.909c23.622,0,47.244,0,70.866,0c5.804,0,5.804-9,0-9c-23.622,0-47.244,0-70.866,0    C69.563,70.909,69.563,79.909,75.366,79.909L75.366,79.909z"/></g></g><g xmlns:xlink="http://www.w3.org/1999/xlink"><polyline fill="#FFFFFF"
                points="75.366,146.275 75.366,66.551 75.366,22.26 75.366,4.543  "/><g><polyline fill="none" points="75.366,146.275 75.366,66.551 75.366,22.26 75.366,4.543   "/><path d="M79.866,146.275c0-44.127,0-88.254,0-132.382c0-3.117,0-6.234,0-9.351c0-5.804-9-5.804-9,0c0,46.244,0,92.487,0,138.73    c0,1.001,0,2.002,0,3.002C70.866,152.079,79.866,152.079,79.866,146.275L79.866,146.275z"/></g></g><g xmlns:xlink="http://www.w3.org/1999/xlink"><path fill="#FFFFFF"
            d="M23.253,75.41c31.89,7.972,44.424-25.808,44.424-33.661S66.375,4.543,39.8,4.543   c-23.798,0-35.3,39.555-35.3,39.555l55.807,96.205"/><g><path fill="none"
               d="M23.253,75.41c31.89,7.972,44.424-25.808,44.424-33.661S66.375,4.543,39.8,4.543    c-23.798,0-35.3,39.555-35.3,39.555l55.807,96.205"/><path d="M22.057,79.749c18.734,4.374,35.103-4.027,44.399-20.477c6.129-10.845,6.72-21.567,3.854-33.522    C66.19,8.57,50.873-3.717,32.755,1.026C17.084,5.129,7.972,22.573,2.456,36.4c-1.079,2.704-3.487,7.133-1.818,10.01    c1.205,2.076,2.409,4.152,3.613,6.229c6.344,10.936,12.688,21.872,19.031,32.807c11.046,19.043,22.093,38.085,33.139,57.128    c2.91,5.017,10.689,0.488,7.771-4.542C45.59,105.964,26.988,73.896,8.386,41.827c0.151,1.156,0.302,2.312,0.454,3.467    c2.897-9.866,7.811-19.858,14.639-27.564c5.279-5.958,12.002-9.583,20.11-8.471c7.869,1.079,13.063,6.233,16.23,13.213    c4.169,9.188,4.416,19.459,0.917,28.13c-6.081,15.066-20.03,24.263-36.287,20.468C18.803,69.752,16.406,78.43,22.057,79.749    L22.057,79.749z"/></g></g></svg>