<?xml version="1.0" encoding="UTF-8"?>
<svg xmlns:foaf="http://xmlns.com/foaf/0.1/" xmlns:svg="http://www.w3.org/2000/svg"
     xmlns:dc="http://purl.org/dc/elements/1.1/"
     xmlns:crm="http://www.cidoc-crm.org/cidoc-crm/"
     xmlns="http://www.w3.org/2000/svg"
     xmlns:sodipodi="http://sodipodi.sourceforge.net/DTD/sodipodi-0.dtd"
     xmlns:cc="http://creativecommons.org/ns#"
     xmlns:inkscape="http://www.inkscape.org/namespaces/inkscape"
     xmlns:nmo="http://nomisma.org/ontology#"
     xmlns:rdf="http://www.w3.org/1999/02/22-rdf-syntax-ns#"
     width="400"
     height="400"
     xml:space="preserve"
     viewBox="0 0 400 400">
  <title property="dc:title">Monogram 746</title><desc proprety="dc:description">Monogram 746 published by Nomisma.org. See matching URIs and bibliographic references for further information about the usage of this symbol on coinage.</desc>
    <desc xmlns:xlink="http://www.w3.org/1999/xlink" property="dc:creator">Corpus Nummorum https://www.corpus-nummorum.eu</desc>
    <desc xmlns:xlink="http://www.w3.org/1999/xlink">lettercomb: ΦΜΝΟΚ</desc>    
    <metadata><rdf:RDF><cc:Work rdf:about="https://nomisma.org/svg/monogram.00746.svg"><dc:title>Monogram 746</dc:title><dc:description>Monogram 746 published by Nomisma.org. See matching URIs and bibliographic references for further information about the usage of this symbol on coinage.</dc:description><foaf:focus rdf:resource="http://nomisma.org/symbol/monogram.00746"/><dc:format>image/svg+xml</dc:format><dc:type rdf:resource="http://purl.org/dc/dcmitype/StillImage"/><dc:creator rdf:resource="http://nomisma.org/editor/vstolba"/><cc:license rdf:resource="https://creativecommons.org/choose/mark/"/><crm:P106_is_composed_of>Φ</crm:P106_is_composed_of><crm:P106_is_composed_of>Μ</crm:P106_is_composed_of><crm:P106_is_composed_of>Ν</crm:P106_is_composed_of><crm:P106_is_composed_of>Ο</crm:P106_is_composed_of><crm:P106_is_composed_of>Κ</crm:P106_is_composed_of><crm:P106_is_composed_of>Ω</crm:P106_is_composed_of></cc:Work></rdf:RDF></metadata>
    <g xmlns:xlink="http://www.w3.org/1999/xlink">
	<g>
		<path d="M55.402,373.781c0-43.918,0-87.835,0-131.752c0-46.477,0-92.952,0-139.428c0-0.103,0-0.206,0-0.309    c-5.689,2.357-11.381,4.714-17.07,7.071c26.144,24.746,52.288,49.493,78.432,74.239c46.205,43.735,92.409,87.47,138.614,131.207    c18.954,17.94,37.907,35.881,56.86,53.822c6.304,5.967,17.003,1.803,17.071-7.07c0.338-43.631,0.675-87.261,1.013-130.891    c0.371-47.983,0.742-95.966,1.114-143.948c0.002-0.309,0.005-0.617,0.007-0.925c0.101-12.901-19.899-12.892-20,0    c-0.338,43.63-0.675,87.26-1.013,130.891c-0.371,47.982-0.742,95.965-1.114,143.947c-0.002,0.309-0.005,0.616-0.007,0.926    c5.689-2.357,11.381-4.715,17.071-7.072c-26.145-24.745-52.288-49.492-78.433-74.238    c-46.203-43.734-92.408-87.471-138.613-131.206c-18.954-17.941-37.908-35.882-56.862-53.823    c-6.265-5.931-17.071-1.831-17.071,7.071c0,43.917,0,87.835,0,131.752c0,46.476,0,92.951,0,139.429c0,0.103,0,0.205,0,0.309    C35.402,386.68,55.402,386.68,55.402,373.781L55.402,373.781z"/>
	</g>
</g>
<g xmlns:xlink="http://www.w3.org/1999/xlink">
	<g>
		<path d="M312.238,79.577c-35.623,34.109-71.245,68.22-106.867,102.33c-12.47,11.938-24.938,23.876-37.405,35.815    c-9.331,8.935,4.831,23.058,14.143,14.143c35.623-34.11,71.246-68.22,106.869-102.33c12.468-11.938,24.937-23.877,37.404-35.815    C335.71,84.785,321.549,70.661,312.238,79.577L312.238,79.577z"/>
	</g>
</g>
<g xmlns:xlink="http://www.w3.org/1999/xlink">
	<g>
		<path d="M381.952,190.066c-18.001,11.246-36.002,22.494-54.003,33.74c-6.447,4.029-6.472,13.245,0,17.271    c18.001,11.192,36.002,22.385,54.003,33.577c10.986,6.83,21.021-10.478,10.095-17.271c-18.001-11.192-36.002-22.385-54.003-33.577    c0,5.758,0,11.514,0,17.271c18.001-11.247,36.002-22.494,54.003-33.741C402.954,200.521,392.925,183.211,381.952,190.066    L381.952,190.066z"/>
	</g>
</g>
<g xmlns:xlink="http://www.w3.org/1999/xlink">
	<g>
		<path d="M175.517,147.549c-22.677,0.335-48.052,13.771-48.716,39.051c-0.339,12.905,19.662,12.873,20,0    c0.117-4.456,2.426-8.937,6.898-12.293c6.325-4.747,14.022-6.643,21.817-6.758C188.403,167.358,188.421,147.358,175.517,147.549    L175.517,147.549z"/>
	</g>
</g>
<g xmlns:xlink="http://www.w3.org/1999/xlink">
	<g>
		<path d="M175.517,167.549c7.519,0.111,14.417,1.923,20.756,6.018c5.101,3.294,7.839,8.28,7.964,13.033    c0.339,12.873,20.34,12.905,20,0c-0.664-25.279-26.045-38.715-48.72-39.051C162.614,147.358,162.632,167.358,175.517,167.549    L175.517,167.549z"/>
	</g>
</g>
<g xmlns:xlink="http://www.w3.org/1999/xlink">
	<g>
		<path d="M58.717,259.02c-16.119-0.261-35.113-13.994-27.85-30.863c3.448-8.014,10.729-12.997,18.947-15.321    c3.734-1.055,7.566-1.274,11.424-1.042c0.716,0.043,1.429,0.121,2.141,0.198c-2.729-0.294-0.021,0.021,0.459,0.102    c1.712,0.292,3.399,0.708,5.074,1.165c6.447,1.758,10.859,4.172,15.387,9.571c-0.453-0.54,1.465,2.573,1.865,3.354    c-0.67-1.31,0.706,1.996,0.646,1.814c0.375,1.143,0.612,2.322,0.852,3.499c0.776,3.821,0.083,8.38-1.212,12.326    c-1.771,5.396-6.537,9.075-12.854,12.063c1.403-0.663-2.31,0.845-2.929,1.05c-1.697,0.563-3.438,0.988-5.183,1.373    c-0.813,0.178-1.633,0.317-2.452,0.457c-2.662,0.454,2.151-0.229-0.391,0.045C61.341,258.951,60.029,259.008,58.717,259.02    c-12.891,0.119-12.902,20.119,0,20c17.173-0.158,35.552-7.998,44.219-23.414c11.308-20.11,2.959-45.713-16.621-56.725    c-17.345-9.755-39.892-9.548-56.668,1.262c-9.96,6.418-17.659,16.895-19.481,28.725c-1.97,12.771,2.146,24.576,10.551,34.213    c9.336,10.705,24.147,15.715,38,15.939C71.621,279.229,71.601,259.229,58.717,259.02L58.717,259.02z"/>
	</g>
</g>
</svg>