<?xml version="1.0" encoding="UTF-8"?>
<svg xmlns:foaf="http://xmlns.com/foaf/0.1/" xmlns:svg="http://www.w3.org/2000/svg"
     xmlns:dc="http://purl.org/dc/elements/1.1/"
     xmlns:crm="http://www.cidoc-crm.org/cidoc-crm/"
     xmlns="http://www.w3.org/2000/svg"
     xmlns:sodipodi="http://sodipodi.sourceforge.net/DTD/sodipodi-0.dtd"
     xmlns:cc="http://creativecommons.org/ns#"
     xmlns:inkscape="http://www.inkscape.org/namespaces/inkscape"
     xmlns:nmo="http://nomisma.org/ontology#"
     xmlns:rdf="http://www.w3.org/1999/02/22-rdf-syntax-ns#"
     width="400"
     height="400"
     xml:space="preserve"
     viewBox="0 0 425 406">
  <title property="dc:title">Monogram 1317</title><desc proprety="dc:description">Monogram 1317 published by Nomisma.org. See matching URIs and bibliographic references for further information about the usage of this symbol on coinage.</desc>
    <desc xmlns:xlink="http://www.w3.org/1999/xlink" property="dc:creator">Corpus Nummorum https://www.corpus-nummorum.eu</desc>
    <desc xmlns:xlink="http://www.w3.org/1999/xlink">lettercomb: ΜΡ</desc>    
    <metadata><rdf:RDF><cc:Work rdf:about="https://nomisma.org/svg/monogram.01317.svg"><dc:title>Monogram 1317</dc:title><dc:description>Monogram 1317 published by Nomisma.org. See matching URIs and bibliographic references for further information about the usage of this symbol on coinage.</dc:description><foaf:focus rdf:resource="http://nomisma.org/symbol/monogram.01317"/><dc:format>image/svg+xml</dc:format><dc:type rdf:resource="http://purl.org/dc/dcmitype/StillImage"/><dc:creator rdf:resource="http://nomisma.org/editor/vstolba"/><cc:license rdf:resource="https://creativecommons.org/choose/mark/"/><crm:P106_is_composed_of>Μ</crm:P106_is_composed_of><crm:P106_is_composed_of>Ρ</crm:P106_is_composed_of></cc:Work></rdf:RDF></metadata>
    <path xmlns:xlink="http://www.w3.org/1999/xlink"
         d="M314 13.6c-1.4.2-5.9.9-10 1.5-12 1.7-22 4.5-24.6 7-1.3 1.2-19.6 28.5-40.5 60.7-31.1 47.6-38.4 58.1-39.4 57-.7-.7-16.9-26.7-35.9-57.8-19.1-31.1-35.8-57.5-37.1-58.7-5.1-4.6-14.3-3.5-18 2-.8 1.4-24.8 83.6-53.1 182.8C14.3 351.9 4 389.2 4.5 391.9c1.8 9.7 14.5 13.1 21.3 5.8 1.5-1.6 15.6-49.7 49.5-168.2l47.4-165.9 2.5 3.9c1.4 2.2 16.3 26.5 33.2 54 17 27.5 31.7 51 32.8 52.2 4.6 4.9 12.2 5.1 17.3.3 1.1-1 18-26.4 37.5-56.4 19.5-29.9 35.8-54.1 36.1-53.8.3.4 21.6 74.5 47.4 164.7 25.7 90.2 47.4 165.3 48.2 166.8 1.6 3.3 6.8 6.7 10.1 6.7 6.3 0 13.2-6.1 13.2-11.8 0-1.2-14.7-53.6-32.6-116.5-18-62.8-32.7-114.8-32.8-115.5-.1-.7 4.4-3.2 10-5.5 39.5-16.9 65.6-46.1 67.2-75.2.8-15.9-3.3-27.5-13.7-38.7-15-16.3-36.6-24.4-67.1-25.3-8.5-.2-16.6-.2-18 .1zm31 25.9c42.6 6.4 55.8 34.9 29.4 63.4-10.7 11.6-24.2 20.8-39.1 27-4 1.6-7.3 2.9-7.3 2.8 0-.1-5.8-20.7-13-45.7-7.1-25-12.6-45.7-12.2-46.2 1-1 14.4-2.5 24.2-2.7 4.7 0 12.8.6 18 1.4z"/>
</svg>