<?xml version="1.0" encoding="UTF-8"?>
<svg xmlns:foaf="http://xmlns.com/foaf/0.1/" xmlns:svg="http://www.w3.org/2000/svg"
     xmlns:dc="http://purl.org/dc/elements/1.1/"
     xmlns:crm="http://www.cidoc-crm.org/cidoc-crm/"
     xmlns="http://www.w3.org/2000/svg"
     xmlns:sodipodi="http://sodipodi.sourceforge.net/DTD/sodipodi-0.dtd"
     xmlns:cc="http://creativecommons.org/ns#"
     xmlns:inkscape="http://www.inkscape.org/namespaces/inkscape"
     xmlns:nmo="http://nomisma.org/ontology#"
     xmlns:rdf="http://www.w3.org/1999/02/22-rdf-syntax-ns#"
     viewBox="0 0 144.56133 108.59733"
     height="108.59733"
     width="144.56133"
     xml:space="preserve"
     id="svg2"
     version="1.1"
     sodipodi:docname="pg_0036.svg"
     inkscape:version="0.92.3 (2405546, 2018-03-11)"><sodipodi:namedview pagecolor="#ffffff" bordercolor="#666666" borderopacity="1"
                       objecttolerance="10"
                       gridtolerance="10"
                       guidetolerance="10"
                       inkscape:pageopacity="0"
                       inkscape:pageshadow="2"
                       inkscape:window-width="614"
                       inkscape:window-height="450"
                       id="namedview12"
                       showgrid="false"
                       inkscape:zoom="0.88500003"
                       inkscape:cx="73.912663"
                       inkscape:cy="54.29841"
                       inkscape:window-x="83"
                       inkscape:window-y="27"
                       inkscape:window-maximized="0"
                       inkscape:current-layer="svg2"/><metadata><rdf:RDF><cc:Work rdf:about="https://nomisma.org/svg/monogram.01555.svg"><dc:title>Monogram 1555</dc:title><dc:description>Monogram 1555 published by Nomisma.org. See matching URIs and bibliographic references for further information about the usage of this symbol on coinage.</dc:description><foaf:focus rdf:resource="http://nomisma.org/symbol/monogram.01555"/><dc:format>image/svg+xml</dc:format><dc:type rdf:resource="http://purl.org/dc/dcmitype/StillImage"/><cc:license rdf:resource="https://creativecommons.org/choose/mark/"/><crm:P106_is_composed_of>N</crm:P106_is_composed_of><crm:P106_is_composed_of>Z</crm:P106_is_composed_of><crm:P106_is_composed_of>O</crm:P106_is_composed_of></cc:Work></rdf:RDF></metadata><defs id="defs6"><clipPath id="clipPath18" clipPathUnits="userSpaceOnUse"><path id="path16" d="M 0,200 H 200 V 0 H 0 Z" inkscape:connector-curvature="0"/></clipPath></defs><g transform="matrix(1.3333333,0,0,-1.3333333,-59.420665,187.63226)" id="g10"><g id="g12"><g clip-path="url(#clipPath18)" id="g14"><g transform="translate(95.4725,88.4082)" id="g20"><path id="path22" style="fill:#231f20;fill-opacity:1;fill-rule:nonzero;stroke:none"
                     d="M 0,0 -28.232,-21.815 V 0 Z M 37.31,22.799 V 4.774 H 13.983 Z m -4.709,14.79 c 0,3.776 3.072,6.848 6.853,6.848 3.776,0 6.848,-3.072 6.848,-6.848 0,-3.781 -3.072,-6.853 -6.848,-6.853 -3.781,0 -6.853,3.072 -6.853,6.853 m -62.636,-66.571 c 0.09,0.023 0.179,0.049 0.267,0.083 0.057,0.021 0.111,0.045 0.165,0.071 0.073,0.035 0.145,0.074 0.215,0.117 0.057,0.034 0.113,0.069 0.167,0.107 0.02,0.015 0.042,0.025 0.062,0.041 L 7.805,0 H 37.31 v -21.249 c 0,-0.01 0,-0.031 0,-0.047 -0.01,-1.147 -0.42,-3.062 -3.077,-3.062 -5.827,0 -7.585,0 -7.585,9.971 0,1.32 -1.068,2.387 -2.387,2.387 -1.319,0 -2.387,-1.067 -2.387,-2.387 0,-12.615 3.814,-14.745 12.359,-14.745 2.751,0 4.473,1.066 5.464,2.018 0.99,-0.952 2.708,-2.018 5.459,-2.018 8.545,0 12.358,2.13 12.358,14.745 0,1.32 -1.067,2.387 -2.387,2.387 -1.319,0 -2.387,-1.067 -2.387,-2.387 0,-9.971 -1.757,-9.971 -7.584,-9.971 -2.653,0 -3.063,1.91 -3.073,3.057 0,0.018 0.001,0.041 0,0.052 v 47.522 c 5.146,1.197 8.993,5.811 8.993,11.316 0,6.41 -5.212,11.622 -11.622,11.622 -6.41,0 -11.627,-5.212 -11.627,-11.622 0,-4.771 2.892,-8.877 7.013,-10.667 L 6.178,4.774 h -34.41 v 20.498 h 9.324 c 1.319,0 2.387,1.068 2.387,2.387 0,1.319 -1.068,2.387 -2.387,2.387 h -17.445 l 19.091,18.153 c 0.708,0.672 0.932,1.707 0.568,2.616 -0.358,0.904 -1.24,1.501 -2.214,1.501 h -23.421 c -1.32,0 -2.387,-1.068 -2.387,-2.387 0,-1.32 1.067,-2.387 2.387,-2.387 h 17.444 l -19.09,-18.153 c -0.709,-0.672 -0.932,-1.707 -0.569,-2.616 0.359,-0.904 1.24,-1.501 2.215,-1.501 h 9.324 v -49.56 H -48.52 c -1.32,0 -2.387,-1.068 -2.387,-2.387 0,-1.32 1.067,-2.387 2.387,-2.387 h 17.901 c 0.147,0 0.293,0.017 0.437,0.044 0.051,0.009 0.098,0.024 0.147,0.036"
                     inkscape:connector-curvature="0"/></g></g></g></g></svg>