<?xml version="1.0" encoding="UTF-8"?>
<svg xmlns:foaf="http://xmlns.com/foaf/0.1/" xmlns:svg="http://www.w3.org/2000/svg"
     xmlns:dc="http://purl.org/dc/elements/1.1/"
     xmlns:crm="http://www.cidoc-crm.org/cidoc-crm/"
     xmlns="http://www.w3.org/2000/svg"
     xmlns:sodipodi="http://sodipodi.sourceforge.net/DTD/sodipodi-0.dtd"
     xmlns:cc="http://creativecommons.org/ns#"
     xmlns:inkscape="http://www.inkscape.org/namespaces/inkscape"
     xmlns:nmo="http://nomisma.org/ontology#"
     xmlns:rdf="http://www.w3.org/1999/02/22-rdf-syntax-ns#"
     width="400"
     height="400"
     xml:space="preserve"
     viewBox="0 0 400 400">
  <title property="dc:title">Monogram 1375</title><desc proprety="dc:description">Monogram 1375 published by Nomisma.org. See matching URIs and bibliographic references for further information about the usage of this symbol on coinage.</desc>
    <desc xmlns:xlink="http://www.w3.org/1999/xlink" property="dc:creator">Corpus Nummorum https://www.corpus-nummorum.eu</desc>
    <desc xmlns:xlink="http://www.w3.org/1999/xlink">lettercomb: ΦΙΛΤΡ</desc>    
    <metadata><rdf:RDF><cc:Work rdf:about="https://nomisma.org/svg/monogram.01375.svg"><dc:title>Monogram 1375</dc:title><dc:description>Monogram 1375 published by Nomisma.org. See matching URIs and bibliographic references for further information about the usage of this symbol on coinage.</dc:description><foaf:focus rdf:resource="http://nomisma.org/symbol/monogram.01375"/><dc:format>image/svg+xml</dc:format><dc:type rdf:resource="http://purl.org/dc/dcmitype/StillImage"/><dc:creator rdf:resource="http://nomisma.org/editor/vstolba"/><cc:license rdf:resource="https://creativecommons.org/choose/mark/"/><crm:P106_is_composed_of>Φ</crm:P106_is_composed_of><crm:P106_is_composed_of>Ι</crm:P106_is_composed_of><crm:P106_is_composed_of>Λ</crm:P106_is_composed_of><crm:P106_is_composed_of>Τ</crm:P106_is_composed_of><crm:P106_is_composed_of>Ρ</crm:P106_is_composed_of></cc:Work></rdf:RDF></metadata>
    <style xmlns:xlink="http://www.w3.org/1999/xlink" type="text/css">.st0{fill:none;stroke:#000000;stroke-width:20;stroke-linecap:round;stroke-linejoin:round;} .st1{fill:none;stroke:#000000;stroke-miterlimit:10;}</style>
<g xmlns:xlink="http://www.w3.org/1999/xlink">
	<g>
		<polygon class="st1" points="122.7,125.4 122.7,125.4 122.7,125.4 122.7,125.4   "/>
		<polygon class="st1" points="122.7,125.4 122.7,125.4 122.7,125.4 122.7,125.4   "/>
		<polygon class="st1" points="122.7,125.4 122.7,125.4 122.7,125.4 122.7,125.4   "/>
		<polygon class="st1" points="122.7,125.4 122.7,125.4 122.7,125.4 122.7,125.4   "/>
		<polygon class="st1" points="122.7,125.4 122.7,125.4 122.7,125.4 122.7,125.4   "/>
		<polygon class="st1" points="122.7,125.4 122.7,125.4 122.7,125.4 122.7,125.4   "/>
	</g>
	<g>
		<line class="st1" x1="122.7" y1="125.4" x2="122.7" y2="125.4"/>
		<line class="st1" x1="122.7" y1="125.4" x2="122.7" y2="125.4"/>
		<line class="st1" x1="122.7" y1="125.4" x2="122.7" y2="125.4"/>
		<line class="st1" x1="122.7" y1="125.4" x2="122.7" y2="125.4"/>
		<line class="st1" x1="122.7" y1="125.4" x2="122.7" y2="125.4"/>
	</g>
</g>
<line xmlns:xlink="http://www.w3.org/1999/xlink" class="st0" x1="198.9" y1="273.3"
         x2="198.9"
         y2="54.7"/>
<line xmlns:xlink="http://www.w3.org/1999/xlink" class="st0" x1="104" y1="47.3"
         x2="274"
         y2="47.3"/>
<polyline xmlns:xlink="http://www.w3.org/1999/xlink" class="st0"
             points="279,375.3 198.2,263.3 113,374.6 "/>
<path xmlns:xlink="http://www.w3.org/1999/xlink" class="st0" d="M201.8,243"/>
<path xmlns:xlink="http://www.w3.org/1999/xlink" class="st0"
         d="M130.7,200c0,24.9,24.6,45.1,54.9,45.1"/>
<path xmlns:xlink="http://www.w3.org/1999/xlink" class="st0"
         d="M130.7,199.6c0-32.6,24.6-58.9,54.9-58.9"/>
<path xmlns:xlink="http://www.w3.org/1999/xlink" class="st0"
         d="M261.8,190c1.2,28.6-25.1,52.9-58.9,54.3"/>
<path xmlns:xlink="http://www.w3.org/1999/xlink" class="st0"
         d="M261.9,187.3c0.7-24.8-23.7-45.7-54.6-46.6"/>
<path xmlns:xlink="http://www.w3.org/1999/xlink" class="st0"
         d="M205.8,117.5c10.6,4.2,23.9-4.4,29.7-19.1"/>
<path xmlns:xlink="http://www.w3.org/1999/xlink" class="st0"
         d="M235.5,93.3c0-16-10.5-29-23.5-29"/>
</svg>