<?xml version="1.0" encoding="UTF-8"?>
<svg xmlns:foaf="http://xmlns.com/foaf/0.1/" xmlns:svg="http://www.w3.org/2000/svg"
     xmlns:dc="http://purl.org/dc/elements/1.1/"
     xmlns:crm="http://www.cidoc-crm.org/cidoc-crm/"
     xmlns="http://www.w3.org/2000/svg"
     xmlns:sodipodi="http://sodipodi.sourceforge.net/DTD/sodipodi-0.dtd"
     xmlns:cc="http://creativecommons.org/ns#"
     xmlns:inkscape="http://www.inkscape.org/namespaces/inkscape"
     xmlns:nmo="http://nomisma.org/ontology#"
     xmlns:rdf="http://www.w3.org/1999/02/22-rdf-syntax-ns#"
     viewBox="0 0 426.66757 426.66757"
     height="426.66757"
     width="426.66757"
     xml:space="preserve"
     id="svg2"
     version="1.1"
     sodipodi:docname="monogram.houghton.1153.1.svg"
     inkscape:version="0.92.3 (2405546, 2018-03-11)"><sodipodi:namedview pagecolor="#ffffff" bordercolor="#666666" borderopacity="1"
                       objecttolerance="10"
                       gridtolerance="10"
                       guidetolerance="10"
                       inkscape:pageopacity="0"
                       inkscape:pageshadow="2"
                       inkscape:window-width="640"
                       inkscape:window-height="480"
                       id="namedview30"
                       showgrid="false"
                       inkscape:zoom="0.44250002"
                       inkscape:cx="213.33352"
                       inkscape:cy="213.33381"
                       inkscape:window-x="83"
                       inkscape:window-y="27"
                       inkscape:window-maximized="0"
                       inkscape:current-layer="svg2"/><metadata><rdf:RDF><cc:Work rdf:about="https://nomisma.org/svg/monogram.03865.svg"><dc:title>Monogram 3865</dc:title><dc:description>Monogram 3865 published by Nomisma.org. See matching URIs and bibliographic references for further information about the usage of this symbol on coinage.</dc:description><foaf:focus rdf:resource="http://nomisma.org/symbol/monogram.03865"/><dc:format>image/svg+xml</dc:format><dc:type rdf:resource="http://purl.org/dc/dcmitype/StillImage"/><dc:creator rdf:resource="https://orcid.org/0000-0001-7542-4252"/><cc:license rdf:resource="https://creativecommons.org/choose/mark/"/><crm:P106_is_composed_of>Ο</crm:P106_is_composed_of><crm:P106_is_composed_of>Ε</crm:P106_is_composed_of><crm:P106_is_composed_of>Χ</crm:P106_is_composed_of><crm:P106_is_composed_of>Δ</crm:P106_is_composed_of><crm:P106_is_composed_of>Σ</crm:P106_is_composed_of></cc:Work></rdf:RDF></metadata><defs id="defs6"><clipPath id="clipPath18" clipPathUnits="userSpaceOnUse"><path id="path16" d="M 0,400 H 400 V 0 H 0 Z" inkscape:connector-curvature="0"/></clipPath></defs><g transform="matrix(1.3333333,0,0,-1.3333333,-53.333134,480.00045)" id="g10"><g id="g12"><g clip-path="url(#clipPath18)" id="g14"><g transform="translate(199.6792,50)" id="g20"><path id="path22"
                     style="fill:none;stroke:#000000;stroke-width:20;stroke-linecap:round;stroke-linejoin:round;stroke-miterlimit:10;stroke-dasharray:none;stroke-opacity:1"
                     d="M 0,0 C -82.843,0.178 -149.856,67.479 -149.679,150.321 -149.501,233.164 -82.201,300.177 0.642,300 83.484,299.822 150.498,232.521 150.321,149.679 150.143,66.837 82.842,-0.177 0,0 Z"
                     inkscape:connector-curvature="0"/></g><g transform="translate(280.1924,289.8286)" id="g24"><path id="path26"
                     style="fill:none;stroke:#000000;stroke-width:20;stroke-linecap:round;stroke-linejoin:round;stroke-miterlimit:10;stroke-dasharray:none;stroke-opacity:1"
                     d="M 0,0 -160,0.342"
                     inkscape:connector-curvature="0"/></g><g transform="translate(279.8076,109.8291)" id="g28"><path id="path30"
                     style="fill:none;stroke:#000000;stroke-width:20;stroke-linecap:round;stroke-linejoin:round;stroke-miterlimit:10;stroke-dasharray:none;stroke-opacity:1"
                     d="M 0,0 -160,0.342"
                     inkscape:connector-curvature="0"/></g><g transform="translate(119.8076,110.1709)" id="g32"><path id="path34"
                     style="fill:none;stroke:#000000;stroke-width:20;stroke-linecap:round;stroke-linejoin:round;stroke-miterlimit:10;stroke-dasharray:none;stroke-opacity:1"
                     d="M 0,0 160.385,179.658"
                     inkscape:connector-curvature="0"/></g><g transform="translate(120.1929,290.1709)" id="g36"><path id="path38"
                     style="fill:none;stroke:#000000;stroke-width:20;stroke-linecap:round;stroke-linejoin:round;stroke-miterlimit:10;stroke-dasharray:none;stroke-opacity:1"
                     d="M 0,0 159.615,-180.342"
                     inkscape:connector-curvature="0"/></g><g transform="translate(270,199.8501)" id="g40"><path id="path42"
                     style="fill:none;stroke:#000000;stroke-width:20;stroke-linecap:round;stroke-linejoin:round;stroke-miterlimit:10;stroke-dasharray:none;stroke-opacity:1"
                     d="M 0,0 -140,0.3"
                     inkscape:connector-curvature="0"/></g><g transform="translate(200.0981,246)" id="g44"><path id="path46" style="fill:#000000;fill-opacity:1;fill-rule:nonzero;stroke:none"
                     d="M 0,0 C -5.522,0.012 -9.99,4.499 -9.979,10.021 -9.966,15.544 -5.48,20.012 0.043,20 5.566,19.988 10.034,15.501 10.022,9.979 10.01,4.456 5.523,-0.012 0,0"
                     inkscape:connector-curvature="0"/></g><g transform="translate(200.0981,246)" id="g48"><path id="path50"
                     style="fill:none;stroke:#000000;stroke-width:1;stroke-linecap:round;stroke-linejoin:round;stroke-miterlimit:10;stroke-dasharray:none;stroke-opacity:1"
                     d="M 0,0 C -5.522,0.012 -9.99,4.499 -9.979,10.021 -9.966,15.544 -5.48,20.012 0.043,20 5.566,19.988 10.034,15.501 10.022,9.979 10.01,4.456 5.523,-0.012 0,0 Z"
                     inkscape:connector-curvature="0"/></g><g transform="translate(197.8613,135.2549)" id="g52"><path id="path54" style="fill:#000000;fill-opacity:1;fill-rule:nonzero;stroke:none"
                     d="m 0,0 c -5.522,0.012 -9.99,4.498 -9.979,10.021 0.012,5.523 4.499,9.991 10.022,9.978 5.522,-0.012 9.99,-4.498 9.978,-10.02 C 10.01,4.455 5.523,-0.013 0,0"
                     inkscape:connector-curvature="0"/></g><g transform="translate(197.8613,135.2549)" id="g56"><path id="path58"
                     style="fill:none;stroke:#000000;stroke-width:1;stroke-linecap:round;stroke-linejoin:round;stroke-miterlimit:10;stroke-dasharray:none;stroke-opacity:1"
                     d="m 0,0 c -5.522,0.012 -9.99,4.498 -9.979,10.021 0.012,5.523 4.499,9.991 10.022,9.978 5.522,-0.012 9.99,-4.498 9.978,-10.02 C 10.01,4.455 5.523,-0.013 0,0 Z"
                     inkscape:connector-curvature="0"/></g></g></g></g></svg>