<?xml version="1.0" encoding="UTF-8"?>
<svg xmlns:foaf="http://xmlns.com/foaf/0.1/" xmlns:svg="http://www.w3.org/2000/svg"
     xmlns:dc="http://purl.org/dc/elements/1.1/"
     xmlns:crm="http://www.cidoc-crm.org/cidoc-crm/"
     xmlns="http://www.w3.org/2000/svg"
     xmlns:sodipodi="http://sodipodi.sourceforge.net/DTD/sodipodi-0.dtd"
     xmlns:cc="http://creativecommons.org/ns#"
     xmlns:inkscape="http://www.inkscape.org/namespaces/inkscape"
     xmlns:nmo="http://nomisma.org/ontology#"
     xmlns:rdf="http://www.w3.org/1999/02/22-rdf-syntax-ns#"
     viewBox="0 0 136.72316 113.27683"
     height="113.27683"
     width="136.72316"
     xml:space="preserve"
     id="svg2"
     version="1.1"
     sodipodi:docname="monogram.ric.10.gundobad.1_1.svg"
     inkscape:version="0.92.3 (2405546, 2018-03-11)"><sodipodi:namedview pagecolor="#ffffff" bordercolor="#666666" borderopacity="1"
                       objecttolerance="10"
                       gridtolerance="10"
                       guidetolerance="10"
                       inkscape:pageopacity="0"
                       inkscape:pageshadow="2"
                       inkscape:window-width="1418"
                       inkscape:window-height="1119"
                       id="namedview16"
                       showgrid="false"
                       inkscape:zoom="3.5400001"
                       inkscape:cx="64.242064"
                       inkscape:cy="32.005681"
                       inkscape:window-x="1184"
                       inkscape:window-y="362"
                       inkscape:window-maximized="0"
                       inkscape:current-layer="svg2"/><metadata><rdf:RDF><cc:Work rdf:about="https://nomisma.org/svg/monogram.01513.svg"><dc:title>Monogram 1513</dc:title><dc:description>Monogram 1513 published by Nomisma.org. See matching URIs and bibliographic references for further information about the usage of this symbol on coinage.</dc:description><foaf:focus rdf:resource="http://nomisma.org/symbol/monogram.01513"/><dc:format>image/svg+xml</dc:format><dc:type rdf:resource="http://purl.org/dc/dcmitype/StillImage"/><cc:license rdf:resource="https://creativecommons.org/choose/mark/"/><crm:P106_is_composed_of>Β</crm:P106_is_composed_of><crm:P106_is_composed_of>Ν</crm:P106_is_composed_of><crm:P106_is_composed_of>Α</crm:P106_is_composed_of><crm:P106_is_composed_of>Σ</crm:P106_is_composed_of></cc:Work></rdf:RDF></metadata><defs id="defs6"><clipPath id="clipPath18" clipPathUnits="userSpaceOnUse"><path id="path16" d="M 0,200 H 200 V 0 H 0 Z" inkscape:connector-curvature="0"/></clipPath></defs><g transform="matrix(1.3333333,0,0,-1.3333333,-61.864407,194.62582)" id="g10"><g id="g12"><g clip-path="url(#clipPath18)" id="g14"><g transform="translate(122.7062,67.6542)" id="g20"><path id="path22" style="fill:#231f20;fill-opacity:1;fill-rule:nonzero;stroke:none"
                     d="M 0,0 V 71.555 C 6.461,68.404 20.703,58.772 20.703,35.09 20.703,11.356 6.373,2.685 0,0 m -28.096,6.657 h -7.29 l 4.262,6.618 0.569,-0.387 z M -57.98,5.655 c -3.315,-5.427 -9.179,-6.494 -12.335,-6.657 v 40.889 l 14.004,-9.51 c 1.105,-2.555 5.142,-13.576 -1.669,-24.722 m -12.335,66.954 c 3.552,-0.373 6.275,-1.623 8.112,-3.725 3.701,-4.238 2.862,-10.764 2.829,-11.217 0,-0.042 0.042,-4.307 -3.002,-7.403 -1.855,-1.892 -4.522,-3.021 -7.939,-3.366 z m 68.627,4.792 c -0.727,0.224 -1.51,0.089 -2.116,-0.363 -0.611,-0.453 -0.97,-1.166 -0.97,-1.921 V 1.157 L -53.02,33.915 c -0.037,0.028 -0.069,0.051 -0.107,0.075 l -13.011,8.834 c 2.9,0.802 5.319,2.191 7.226,4.154 4.386,4.517 4.321,10.41 4.289,10.41 0.051,0.349 1.17,8.694 -3.954,14.601 -3.174,3.659 -7.925,5.515 -14.125,5.515 -1.319,0 -2.387,-1.068 -2.387,-2.387 V 44.428 44.367 -3.352 c 0,-1.221 0.923,-2.247 2.135,-2.373 0.107,-0.014 0.695,-0.07 1.622,-0.07 3.646,0 12.494,0.886 17.427,8.96 5.286,8.658 5.039,17.226 3.864,22.955 l 14.97,-10.165 -10.891,-16.911 c -0.717,-1.109 -0.396,-2.582 0.714,-3.296 0.401,-0.261 0.848,-0.382 1.291,-0.382 0.783,0 1.552,0.387 2.005,1.096 l 3.491,5.421 h 12.25 l 2.412,-6.111 c 0.368,-0.938 1.268,-1.511 2.219,-1.511 0.294,0 0.587,0.052 0.877,0.168 1.226,0.485 1.827,1.869 1.342,3.095 l -3.015,7.64 c -0.008,0.019 -0.015,0.038 -0.022,0.056 L -23.546,8.129 -3.73,-5.329 c 0.033,-0.022 0.07,-0.035 0.104,-0.055 0.074,-0.045 0.15,-0.085 0.228,-0.122 0.051,-0.023 0.101,-0.047 0.153,-0.067 0.109,-0.042 0.222,-0.075 0.336,-0.101 0.022,-0.004 0.042,-0.012 0.064,-0.016 0.15,-0.029 0.303,-0.049 0.458,-0.049 0.083,0 0.163,0.022 0.245,0.031 0.079,0.008 0.157,0.013 0.234,0.029 0.028,0.005 0.057,0.003 0.085,0.01 0.275,0.065 27.3,7.054 27.3,40.759 0,33.598 -26.894,42.227 -27.165,42.311"
                     inkscape:connector-curvature="0"/></g><g transform="translate(93.4714,136.4635)" id="g24"><path id="path26" style="fill:#231f20;fill-opacity:1;fill-rule:nonzero;stroke:none"
                     d="M 0,0 C 0.662,0.056 2.303,-0.028 2.965,-0.713 3.883,-1.66 5.403,-1.678 6.34,-0.76 c 0.947,0.918 0.965,2.434 0.047,3.375 -2.438,2.504 -6.41,2.187 -6.615,2.149 -7.744,0 -14.042,-6.135 -14.042,-13.678 0,-7.007 5.444,-12.794 12.431,-13.576 l -4.608,-5.812 c -0.821,-1.035 -0.648,-2.536 0.387,-3.352 0.438,-0.35 0.96,-0.518 1.482,-0.518 0.704,0 1.399,0.308 1.87,0.905 l 8.545,10.78 c 0.541,0.537 0.836,1.032 0.968,1.298 0.001,0.002 0.002,0.004 0.003,0.006 0.036,0.073 0.064,0.135 0.078,0.167 0.018,0.046 0.026,0.095 0.041,0.141 0.025,0.074 0.049,0.146 0.066,0.221 0.021,0.089 0.036,0.178 0.047,0.268 0.006,0.052 0.012,0.104 0.015,0.157 0.065,1.011 -0.466,2.026 -1.433,2.421 -1.135,0.463 -2.37,0.06 -2.941,-0.979 L 2.338,-17.22 c -0.319,-0.234 -1.049,-0.593 -2.566,-0.593 -5.11,0 -9.268,3.99 -9.268,8.899 0,4.909 4.158,8.905 9.496,8.914"
                     inkscape:connector-curvature="0"/></g><text id="text30"
                  style="font-variant:normal;font-weight:normal;font-stretch:normal;font-size:99.54199982px;font-family:'Myriad Pro';-inkscape-font-specification:MyriadPro-Regular;writing-mode:lr-tb;fill:#231f20;fill-opacity:1;fill-rule:nonzero;stroke:none"
                  transform="matrix(1,0,0,-1,-21.002,200)"><tspan id="tspan28" y="0"
                      x="0 64.304131 119.15177 174.39758 230.53928 285.18784 341.82724 389.80646">Gundobad</tspan></text>


</g></g></g></svg>