<?xml version="1.0" encoding="UTF-8"?>
<svg xmlns:foaf="http://xmlns.com/foaf/0.1/" xmlns:svg="http://www.w3.org/2000/svg"
     xmlns:dc="http://purl.org/dc/elements/1.1/"
     xmlns:crm="http://www.cidoc-crm.org/cidoc-crm/"
     xmlns="http://www.w3.org/2000/svg"
     xmlns:sodipodi="http://sodipodi.sourceforge.net/DTD/sodipodi-0.dtd"
     xmlns:cc="http://creativecommons.org/ns#"
     xmlns:inkscape="http://www.inkscape.org/namespaces/inkscape"
     xmlns:nmo="http://nomisma.org/ontology#"
     xmlns:rdf="http://www.w3.org/1999/02/22-rdf-syntax-ns#"
     viewBox="0 0 142.39867 140.67732"
     height="140.67732"
     width="142.39867"
     xml:space="preserve"
     id="svg2"
     version="1.1"
     sodipodi:docname="pg_0027.svg"
     inkscape:version="0.92.3 (2405546, 2018-03-11)"><sodipodi:namedview pagecolor="#ffffff" bordercolor="#666666" borderopacity="1"
                       objecttolerance="10"
                       gridtolerance="10"
                       guidetolerance="10"
                       inkscape:pageopacity="0"
                       inkscape:pageshadow="2"
                       inkscape:window-width="614"
                       inkscape:window-height="450"
                       id="namedview12"
                       showgrid="false"
                       inkscape:zoom="0.7953412"
                       inkscape:cx="79.863209"
                       inkscape:cy="76.073603"
                       inkscape:window-x="83"
                       inkscape:window-y="27"
                       inkscape:window-maximized="0"
                       inkscape:current-layer="svg2"/><metadata><rdf:RDF><cc:Work rdf:about="https://nomisma.org/svg/monogram.01533.svg"><dc:title>Monogram 1533</dc:title><dc:description>Monogram 1533 published by Nomisma.org. See matching URIs and bibliographic references for further information about the usage of this symbol on coinage.</dc:description><foaf:focus rdf:resource="http://nomisma.org/symbol/monogram.01533"/><dc:format>image/svg+xml</dc:format><dc:type rdf:resource="http://purl.org/dc/dcmitype/StillImage"/><cc:license rdf:resource="https://creativecommons.org/choose/mark/"/><crm:P106_is_composed_of>N</crm:P106_is_composed_of><crm:P106_is_composed_of>Z</crm:P106_is_composed_of><crm:P106_is_composed_of>O</crm:P106_is_composed_of><crm:P106_is_composed_of>E</crm:P106_is_composed_of></cc:Work></rdf:RDF></metadata><defs id="defs6"><clipPath id="clipPath18" clipPathUnits="userSpaceOnUse"><path id="path16" d="M 0,222.546 H 213.021 V 0 H 0 Z"
               inkscape:connector-curvature="0"/></clipPath></defs><g transform="matrix(1.3333333,0,0,-1.3333333,-62.150798,212.96773)" id="g10"><g id="g12"><g clip-path="url(#clipPath18)" id="g14"><g transform="translate(65.1951,128.8338)" id="g20"><path id="path22" style="fill:#231f20;fill-opacity:1;fill-rule:nonzero;stroke:none"
                     d="m 0,0 31.097,-34.703 c 1.04,-1.817 0.726,-3.126 -0.352,-4.892 -0.746,-1.222 -1.506,-1.488 -2.009,-1.581 -1.888,-0.345 -4.308,1.189 -5.082,1.79 -0.722,0.541 -2.629,2.35 -2.778,4.238 -0.098,1.319 -1.361,2.377 -2.56,2.196 -1.314,-0.098 -2.298,-1.245 -2.195,-2.56 0.34,-4.41 4.261,-7.398 4.634,-7.664 0.401,-0.321 3.678,-2.82 7.421,-2.82 0.457,0 0.923,0.037 1.39,0.121 2.158,0.387 3.976,1.697 5.254,3.79 0.439,0.719 0.771,1.407 1.032,2.075 L 62.584,-69.842 H 0 Z m 61.075,15.475 c 0,3.781 3.072,6.853 6.853,6.853 3.776,0 6.849,-3.072 6.849,-6.853 0,-3.776 -3.073,-6.848 -6.849,-6.848 -3.781,0 -6.853,3.072 -6.853,6.848 M 85.83,-36.314 c 1.319,0 2.387,1.068 2.387,2.387 0,1.32 -1.068,2.387 -2.387,2.387 H 70.315 V 1.989 H 85.83 c 1.319,0 2.387,1.067 2.387,2.386 0,1.32 -1.068,2.387 -2.387,2.387 H 75.595 c 2.419,2.131 3.955,5.242 3.955,8.713 0,6.41 -5.212,11.627 -11.622,11.627 -6.41,0 -11.626,-5.217 -11.626,-11.627 0,-5.592 3.97,-10.27 9.24,-11.373 v -70.091 l -30.569,34.113 c -0.978,1.546 -2.312,2.966 -3.706,4.327 -2.988,2.918 -2.844,4.615 -2.638,4.913 l 0.326,0.392 c 0.462,0.667 2.27,2.671 6.163,0.284 3.692,-2.256 3.193,-4.923 3.114,-5.258 -0.345,-1.254 0.382,-2.555 1.632,-2.919 1.277,-0.368 2.592,0.359 2.96,1.618 0.079,0.261 1.767,6.364 -5.217,10.634 -6.377,3.893 -10.904,0.774 -12.531,-1.571 -0.149,-0.177 -0.342,-0.443 -0.532,-0.781 L 2.957,3.853 h 4.269 c 1.319,0 2.387,1.068 2.387,2.387 0,1.32 -1.068,2.387 -2.387,2.387 H -10.219 L 8.872,26.776 c 0.708,0.671 0.932,1.706 0.568,2.615 -0.359,0.904 -1.24,1.501 -2.214,1.501 h -23.421 c -1.32,0 -2.387,-1.067 -2.387,-2.387 0,-1.319 1.067,-2.387 2.387,-2.387 H 1.249 L -17.841,7.97 c -0.709,-0.672 -0.932,-1.707 -0.569,-2.616 0.359,-0.904 1.24,-1.501 2.215,-1.501 h 11.421 v -73.695 h -11.421 c -1.32,0 -2.387,-1.067 -2.387,-2.387 0,-1.319 1.067,-2.387 2.387,-2.387 H 85.83 c 1.319,0 2.387,1.068 2.387,2.387 0,1.32 -1.068,2.387 -2.387,2.387 H 70.315 v 33.528 z"
                     inkscape:connector-curvature="0"/></g></g></g></g></svg>