<?xml version="1.0" encoding="UTF-8"?>
<svg xmlns:foaf="http://xmlns.com/foaf/0.1/" xmlns:svg="http://www.w3.org/2000/svg"
     xmlns:dc="http://purl.org/dc/elements/1.1/"
     xmlns:crm="http://www.cidoc-crm.org/cidoc-crm/"
     xmlns="http://www.w3.org/2000/svg"
     xmlns:sodipodi="http://sodipodi.sourceforge.net/DTD/sodipodi-0.dtd"
     xmlns:cc="http://creativecommons.org/ns#"
     xmlns:inkscape="http://www.inkscape.org/namespaces/inkscape"
     xmlns:nmo="http://nomisma.org/ontology#"
     xmlns:rdf="http://www.w3.org/1999/02/22-rdf-syntax-ns#"
     viewBox="0 0 55.141959 74.539749"
     height="74.539749"
     width="55.14196"
     xml:space="preserve"
     id="svg2"
     version="1.1"
     sodipodi:docname="pg_0061.svg"
     inkscape:version="0.92.3 (2405546, 2018-03-11)"><sodipodi:namedview pagecolor="#ffffff" bordercolor="#666666" borderopacity="1"
                       objecttolerance="10"
                       gridtolerance="10"
                       guidetolerance="10"
                       inkscape:pageopacity="0"
                       inkscape:pageshadow="2"
                       inkscape:window-width="640"
                       inkscape:window-height="480"
                       id="namedview12"
                       showgrid="false"
                       inkscape:zoom="0.96711798"
                       inkscape:cx="43.786849"
                       inkscape:cy="41.860401"
                       inkscape:window-x="83"
                       inkscape:window-y="27"
                       inkscape:window-maximized="0"
                       inkscape:current-layer="svg2"/><metadata><rdf:RDF><cc:Work rdf:about="https://nomisma.org/svg/monogram.01510.svg"><dc:title>Monogram 1510</dc:title><dc:description>Monogram 1510 published by Nomisma.org. See matching URIs and bibliographic references for further information about the usage of this symbol on coinage.</dc:description><foaf:focus rdf:resource="http://nomisma.org/symbol/monogram.01510"/><dc:format>image/svg+xml</dc:format><dc:type rdf:resource="http://purl.org/dc/dcmitype/StillImage"/><cc:license rdf:resource="https://creativecommons.org/choose/mark/"/></cc:Work></rdf:RDF></metadata><defs id="defs6"><clipPath id="clipPath18" clipPathUnits="userSpaceOnUse"><path id="path16" d="M 0,183.018 H 178.031 V 0 H 0 Z"
               inkscape:connector-curvature="0"/></clipPath></defs><g transform="matrix(1.3333333,0,0,-1.3333333,-74.900483,154.69135)" id="g10"><g id="g12"><g clip-path="url(#clipPath18)" id="g14"><g transform="translate(94.7971,95.6767)" id="g20"><path id="path22" style="fill:#231f20;fill-opacity:1;fill-rule:nonzero;stroke:none"
                     d="m 0,0 -13.437,5.99 c 2.482,2.247 5.531,4.357 8.912,5.303 2.454,0.685 3.886,3.233 3.197,5.683 -0.689,2.449 -3.242,3.877 -5.683,3.196 C -13.52,18.351 -18.839,13.91 -22.477,10.02 l -9.655,4.303 c -2.346,1.05 -5.048,-0.004 -6.088,-2.332 -1.04,-2.328 0.01,-5.052 2.333,-6.088 l 7.632,-3.402 -0.306,-0.497 0.004,-0.392 c -0.396,-0.675 -0.905,-1.707 -0.999,-3.049 -0.68,-9.978 -4.737,-28.331 -4.777,-28.516 -0.55,-2.485 1.017,-4.948 3.502,-5.502 0.338,-0.072 0.671,-0.108 1.005,-0.108 2.111,0 4.02,1.463 4.498,3.611 0.166,0.766 4.079,18.466 4.926,29.214 0.214,0.349 0.488,0.831 0.711,1.422 L -3.755,-8.42 c 0.612,-0.275 1.247,-0.401 1.873,-0.401 1.765,0 3.449,1.018 4.215,2.733 C 3.373,-3.76 2.323,-1.036 0,0"
                     inkscape:connector-curvature="0"/></g></g></g></g></svg>