<?xml version="1.0" encoding="UTF-8"?>
<svg xmlns:foaf="http://xmlns.com/foaf/0.1/" xmlns:svg="http://www.w3.org/2000/svg"
     xmlns:dc="http://purl.org/dc/elements/1.1/"
     xmlns:crm="http://www.cidoc-crm.org/cidoc-crm/"
     xmlns="http://www.w3.org/2000/svg"
     xmlns:sodipodi="http://sodipodi.sourceforge.net/DTD/sodipodi-0.dtd"
     xmlns:cc="http://creativecommons.org/ns#"
     xmlns:inkscape="http://www.inkscape.org/namespaces/inkscape"
     xmlns:nmo="http://nomisma.org/ontology#"
     xmlns:rdf="http://www.w3.org/1999/02/22-rdf-syntax-ns#"
     viewBox="0 0 146.59467 110.99066"
     height="110.99066"
     width="146.59467"
     xml:space="preserve"
     id="svg2"
     version="1.1"
     sodipodi:docname="pg_0004.svg"
     inkscape:version="0.92.3 (2405546, 2018-03-11)"><sodipodi:namedview pagecolor="#ffffff" bordercolor="#666666" borderopacity="1"
                       objecttolerance="10"
                       gridtolerance="10"
                       guidetolerance="10"
                       inkscape:pageopacity="0"
                       inkscape:pageshadow="2"
                       inkscape:window-width="614"
                       inkscape:window-height="450"
                       id="namedview14"
                       showgrid="false"
                       inkscape:zoom="0.88500003"
                       inkscape:cx="58.803597"
                       inkscape:cy="59.02281"
                       inkscape:window-x="83"
                       inkscape:window-y="27"
                       inkscape:window-maximized="0"
                       inkscape:current-layer="svg2"/><metadata><rdf:RDF><cc:Work rdf:about="https://nomisma.org/svg/monogram.01546.svg"><dc:title>Monogram 1546</dc:title><dc:description>Monogram 1546 published by Nomisma.org. See matching URIs and bibliographic references for further information about the usage of this symbol on coinage.</dc:description><foaf:focus rdf:resource="http://nomisma.org/symbol/monogram.01546"/><dc:format>image/svg+xml</dc:format><dc:type rdf:resource="http://purl.org/dc/dcmitype/StillImage"/><cc:license rdf:resource="https://creativecommons.org/choose/mark/"/><crm:P106_is_composed_of>T</crm:P106_is_composed_of><crm:P106_is_composed_of>E</crm:P106_is_composed_of><crm:P106_is_composed_of>O</crm:P106_is_composed_of><crm:P106_is_composed_of>Δ</crm:P106_is_composed_of></cc:Work></rdf:RDF></metadata><defs id="defs6"><clipPath id="clipPath18" clipPathUnits="userSpaceOnUse"><path id="path16" d="M 0,200 H 200 V 0 H 0 Z" inkscape:connector-curvature="0"/></clipPath></defs><g transform="matrix(1.3333333,0,0,-1.3333333,-74.529731,185.3012)" id="g10"><g id="g12"><g clip-path="url(#clipPath18)" id="g14"><g transform="translate(143.1683,60.5069)" id="g20"><path id="path22" style="fill:#231f20;fill-opacity:1;fill-rule:nonzero;stroke:none"
                     d="M 0,0 H -12.376 L -30.022,35.729 H 0 Z M -33.647,32.286 -17.701,0 h -29.016 z m -3.76,3.443 L -51.87,0 h -13.667 v 35.729 z m 57.696,0 c 1.319,0 2.386,1.067 2.386,2.387 0,1.319 -1.067,2.386 -2.386,2.386 H 4.774 V 71.83 h 15.515 c 1.319,0 2.386,1.068 2.386,2.387 0,1.319 -1.067,2.387 -2.386,2.387 H 2.387 C 1.067,76.604 0,75.536 0,74.217 V 40.502 h -65.537 v 33.193 h 17.203 c 1.319,0 2.386,1.068 2.386,2.387 0,1.319 -1.067,2.387 -2.386,2.387 h -36.55 c -1.319,0 -2.387,-1.068 -2.387,-2.387 0,-1.319 1.068,-2.387 2.387,-2.387 h 14.573 V -2.387 c 0,-1.319 1.068,-2.387 2.387,-2.387 H 2.387 c 1.319,0 2.387,1.068 2.387,2.387 v 9.324 h 15.515 c 1.319,0 2.386,1.067 2.386,2.387 0,1.319 -1.067,2.387 -2.386,2.387 H 4.774 v 24.018 z"
                     inkscape:connector-curvature="0"/></g><g transform="translate(109.3046,123.8246)" id="g24"><path id="path26" style="fill:#231f20;fill-opacity:1;fill-rule:nonzero;stroke:none"
                     d="m 0,0 c 3.781,0 6.853,-3.072 6.853,-6.853 0,-3.781 -3.072,-6.853 -6.853,-6.853 -3.776,0 -6.849,3.072 -6.849,6.853 C -6.849,-3.072 -3.776,0 0,0 m 0,-18.48 c 6.41,0 11.626,5.217 11.626,11.627 0,6.41 -5.216,11.627 -11.626,11.627 -6.41,0 -11.622,-5.217 -11.622,-11.627 0,-6.41 5.212,-11.627 11.622,-11.627"
                     inkscape:connector-curvature="0"/></g></g></g></g></svg>