<?xml version="1.0" encoding="UTF-8"?>
<svg xmlns:foaf="http://xmlns.com/foaf/0.1/" xmlns:svg="http://www.w3.org/2000/svg"
     xmlns:dc="http://purl.org/dc/elements/1.1/"
     xmlns:crm="http://www.cidoc-crm.org/cidoc-crm/"
     xmlns="http://www.w3.org/2000/svg"
     xmlns:sodipodi="http://sodipodi.sourceforge.net/DTD/sodipodi-0.dtd"
     xmlns:cc="http://creativecommons.org/ns#"
     xmlns:inkscape="http://www.inkscape.org/namespaces/inkscape"
     xmlns:nmo="http://nomisma.org/ontology#"
     xmlns:rdf="http://www.w3.org/1999/02/22-rdf-syntax-ns#"
     viewBox="0 0 154.21601 135.624"
     height="135.62399"
     width="154.216"
     xml:space="preserve"
     id="svg2"
     version="1.1"
     sodipodi:docname="pg_0023.svg"
     inkscape:version="0.92.3 (2405546, 2018-03-11)"><sodipodi:namedview pagecolor="#ffffff" bordercolor="#666666" borderopacity="1"
                       objecttolerance="10"
                       gridtolerance="10"
                       guidetolerance="10"
                       inkscape:pageopacity="0"
                       inkscape:pageshadow="2"
                       inkscape:window-width="640"
                       inkscape:window-height="480"
                       id="namedview12"
                       showgrid="false"
                       inkscape:zoom="0.83090395"
                       inkscape:cx="76.542009"
                       inkscape:cy="67.981861"
                       inkscape:window-x="83"
                       inkscape:window-y="27"
                       inkscape:window-maximized="0"
                       inkscape:current-layer="svg2"/><metadata><rdf:RDF><cc:Work rdf:about="https://nomisma.org/svg/monogram.01552.svg"><dc:title>Monogram 1552</dc:title><dc:description>Monogram 1552 published by Nomisma.org. See matching URIs and bibliographic references for further information about the usage of this symbol on coinage.</dc:description><foaf:focus rdf:resource="http://nomisma.org/symbol/monogram.01552"/><dc:format>image/svg+xml</dc:format><dc:type rdf:resource="http://purl.org/dc/dcmitype/StillImage"/><cc:license rdf:resource="https://creativecommons.org/choose/mark/"/><crm:P106_is_composed_of>Α</crm:P106_is_composed_of><crm:P106_is_composed_of>Ε</crm:P106_is_composed_of><crm:P106_is_composed_of>Ο</crm:P106_is_composed_of><crm:P106_is_composed_of>Τ</crm:P106_is_composed_of></cc:Work></rdf:RDF></metadata><defs id="defs6"><clipPath id="clipPath18" clipPathUnits="userSpaceOnUse"><path id="path16" d="M 0,213.021 H 213.021 V 0 H 0 Z"
               inkscape:connector-curvature="0"/></clipPath></defs><g transform="matrix(1.3333333,0,0,-1.3333333,-65.471998,209.65613)" id="g10"><g id="g12"><g clip-path="url(#clipPath18)" id="g14"><g transform="translate(112.777,101.6511)" id="g20"><path id="path22" style="fill:#231f20;fill-opacity:1;fill-rule:nonzero;stroke:none"
                     d="m 0,0 24.539,26.736 v -45.941 z m -43.384,50.817 c 3.776,0 6.848,-3.072 6.848,-6.848 0,-3.781 -3.072,-6.853 -6.848,-6.853 -3.781,0 -6.853,3.072 -6.853,6.853 0,3.776 3.072,6.848 6.853,6.848 m 92.986,-20.34 c 1.319,0 2.387,1.068 2.387,2.387 0,1.32 -1.068,2.387 -2.387,2.387 H 26.926 c -0.028,0 -0.054,-0.007 -0.082,-0.008 -0.023,-0.001 -0.045,-0.005 -0.068,-0.007 -0.458,-0.029 -0.881,-0.181 -1.233,-0.432 -0.02,-0.014 -0.038,-0.033 -0.058,-0.048 -0.103,-0.078 -0.201,-0.161 -0.289,-0.255 -0.009,-0.009 -0.019,-0.015 -0.027,-0.024 l -66.167,-72.088 v 66.377 h 15.515 c 1.32,0 2.387,1.068 2.387,2.387 0,1.32 -1.067,2.387 -2.387,2.387 h -12.795 c 3.852,1.896 6.516,5.852 6.516,10.429 0,6.41 -5.212,11.622 -11.622,11.622 -6.41,0 -11.627,-5.212 -11.627,-11.622 0,-4.577 2.666,-8.533 6.52,-10.429 h -12.795 c -1.319,0 -2.387,-1.067 -2.387,-2.387 0,-1.319 1.068,-2.387 2.387,-2.387 h 15.515 V -43.74 c 0,-0.017 0.004,-0.033 0.005,-0.05 0.002,-0.088 0.015,-0.174 0.026,-0.261 0.009,-0.07 0.014,-0.14 0.029,-0.208 0.017,-0.076 0.045,-0.149 0.069,-0.223 0.024,-0.074 0.044,-0.149 0.075,-0.219 0.027,-0.062 0.065,-0.119 0.097,-0.179 0.043,-0.077 0.083,-0.156 0.133,-0.228 0.032,-0.045 0.072,-0.086 0.108,-0.13 0.065,-0.08 0.131,-0.16 0.207,-0.231 0.009,-0.009 0.015,-0.02 0.025,-0.028 0.034,-0.032 0.073,-0.054 0.109,-0.083 0.072,-0.059 0.143,-0.118 0.221,-0.168 0.059,-0.037 0.119,-0.066 0.18,-0.097 0.072,-0.038 0.142,-0.078 0.218,-0.108 0.078,-0.031 0.159,-0.052 0.239,-0.074 0.064,-0.018 0.125,-0.041 0.191,-0.054 0.15,-0.029 0.302,-0.046 0.455,-0.046 h 17.901 c 1.32,0 2.387,1.068 2.387,2.387 0,1.319 -1.067,2.387 -2.387,2.387 H -37.956 L -3.239,-3.529 24.539,-25.268 V -43.74 c 0,-1.319 1.068,-2.387 2.387,-2.387 h 22.676 c 1.319,0 2.387,1.068 2.387,2.387 0,1.319 -1.068,2.387 -2.387,2.387 H 29.313 v 33.528 h 20.289 c 1.319,0 2.387,1.068 2.387,2.387 0,1.32 -1.068,2.387 -2.387,2.387 H 29.313 v 33.528 z"
                     inkscape:connector-curvature="0"/></g></g></g></g></svg>