<?xml version="1.0" encoding="UTF-8"?>
<svg xmlns:foaf="http://xmlns.com/foaf/0.1/" xmlns:svg="http://www.w3.org/2000/svg"
     xmlns:dc="http://purl.org/dc/elements/1.1/"
     xmlns:crm="http://www.cidoc-crm.org/cidoc-crm/"
     xmlns="http://www.w3.org/2000/svg"
     xmlns:sodipodi="http://sodipodi.sourceforge.net/DTD/sodipodi-0.dtd"
     xmlns:cc="http://creativecommons.org/ns#"
     xmlns:inkscape="http://www.inkscape.org/namespaces/inkscape"
     xmlns:nmo="http://nomisma.org/ontology#"
     xmlns:rdf="http://www.w3.org/1999/02/22-rdf-syntax-ns#"
     viewBox="0 0 154.22 149.92667"
     height="149.92667"
     width="154.22"
     xml:space="preserve"
     id="svg2"
     version="1.1"
     sodipodi:docname="pg_0024.svg"
     inkscape:version="0.92.3 (2405546, 2018-03-11)"><sodipodi:namedview pagecolor="#ffffff" bordercolor="#666666" borderopacity="1"
                       objecttolerance="10"
                       gridtolerance="10"
                       guidetolerance="10"
                       inkscape:pageopacity="0"
                       inkscape:pageshadow="2"
                       inkscape:window-width="614"
                       inkscape:window-height="450"
                       id="namedview12"
                       showgrid="false"
                       inkscape:zoom="0.83090395"
                       inkscape:cx="89.296409"
                       inkscape:cy="69.035594"
                       inkscape:window-x="83"
                       inkscape:window-y="27"
                       inkscape:window-maximized="0"
                       inkscape:current-layer="svg2"/><metadata><rdf:RDF><cc:Work rdf:about="https://nomisma.org/svg/monogram.01559.svg"><dc:title>Monogram 1559</dc:title><dc:description>Monogram 1559 published by Nomisma.org. See matching URIs and bibliographic references for further information about the usage of this symbol on coinage.</dc:description><foaf:focus rdf:resource="http://nomisma.org/symbol/monogram.01559"/><dc:format>image/svg+xml</dc:format><dc:type rdf:resource="http://purl.org/dc/dcmitype/StillImage"/><cc:license rdf:resource="https://creativecommons.org/choose/mark/"/><crm:P106_is_composed_of>Α</crm:P106_is_composed_of><crm:P106_is_composed_of>Ε</crm:P106_is_composed_of><crm:P106_is_composed_of>Ο</crm:P106_is_composed_of><crm:P106_is_composed_of>Τ</crm:P106_is_composed_of></cc:Work></rdf:RDF></metadata><defs id="defs6"><clipPath id="clipPath18" clipPathUnits="userSpaceOnUse"><path id="path16" d="M 0,213.021 H 213.021 V 0 H 0 Z"
               inkscape:connector-curvature="0"/></clipPath></defs><g transform="matrix(1.3333333,0,0,-1.3333333,-52.717599,222.90506)" id="g10"><g id="g12"><g clip-path="url(#clipPath18)" id="g14"><g transform="translate(113.8062,95.0268)" id="g20"><path id="path22" style="fill:#231f20;fill-opacity:1;fill-rule:nonzero;stroke:none"
                     d="M 0,0 -14.515,12.289 13.948,43.297 V 12.205 Z m -53.98,67.378 c 3.781,0 6.853,-3.072 6.853,-6.848 0,-3.781 -3.072,-6.853 -6.853,-6.853 -3.781,0 -6.853,3.072 -6.853,6.853 0,3.776 3.072,6.848 6.853,6.848 m 92.991,-20.34 c 1.319,0 2.386,1.068 2.386,2.387 0,1.32 -1.067,2.387 -2.386,2.387 H 16.335 c -0.028,0 -0.054,-0.007 -0.082,-0.008 -0.025,-0.001 -0.049,-0.006 -0.074,-0.007 -0.134,-0.009 -0.266,-0.024 -0.393,-0.054 -10e-4,-0.001 -0.002,-0.001 -0.003,-0.001 -0.151,-0.036 -0.295,-0.085 -0.433,-0.148 -0.003,-10e-4 -0.006,-0.003 -0.009,-0.005 -0.137,-0.063 -0.267,-0.137 -0.388,-0.224 -0.021,-0.014 -0.039,-0.033 -0.059,-0.048 -0.103,-0.079 -0.201,-0.161 -0.29,-0.255 -0.008,-0.009 -0.018,-0.015 -0.026,-0.024 L -19.025,14.43 c -0.35,-0.139 -0.676,-0.352 -0.937,-0.659 -0.221,-0.261 -0.372,-0.557 -0.463,-0.866 l -31.168,-33.956 v 66.379 h 15.515 c 1.319,0 2.387,1.067 2.387,2.386 0,1.32 -1.068,2.387 -2.387,2.387 h -12.795 c 3.854,1.896 6.52,5.853 6.52,10.429 0,6.41 -5.217,11.622 -11.627,11.622 -6.41,0 -11.626,-5.212 -11.626,-11.622 0,-4.576 2.665,-8.533 6.519,-10.429 h -12.794 c -1.32,0 -2.387,-1.067 -2.387,-2.387 0,-1.319 1.067,-2.386 2.387,-2.386 h 15.514 v -72.507 c 0,-0.008 0.002,-0.015 0.002,-0.022 0.001,-0.026 0,-0.052 0.001,-0.078 0,-0.014 0.005,-0.029 0.005,-0.043 0.005,-0.074 0.017,-0.146 0.029,-0.218 0.007,-0.046 0.008,-0.094 0.018,-0.14 0.003,-0.016 0.006,-0.031 0.01,-0.047 0.01,-0.047 0.031,-0.092 0.046,-0.138 0.008,-0.028 0.017,-0.055 0.027,-0.082 0.02,-0.059 0.035,-0.121 0.059,-0.179 0.005,-0.011 0.009,-0.022 0.014,-0.032 0.021,-0.047 0.052,-0.089 0.075,-0.134 0.01,-0.019 0.021,-0.037 0.031,-0.055 0.034,-0.06 0.062,-0.123 0.101,-0.179 0.009,-0.013 0.018,-0.026 0.028,-0.039 0.018,-0.026 0.042,-0.048 0.062,-0.073 0.029,-0.038 0.061,-0.073 0.092,-0.109 0.037,-0.042 0.069,-0.088 0.109,-0.128 0.018,-0.019 0.039,-0.035 0.058,-0.053 0.003,-0.003 0.005,-0.006 0.007,-0.008 0.02,-0.018 0.043,-0.031 0.063,-0.048 0.032,-0.028 0.067,-0.054 0.101,-0.08 0.043,-0.033 0.082,-0.071 0.128,-0.102 0.022,-0.014 0.044,-0.028 0.066,-0.042 0.033,-0.02 0.069,-0.033 0.104,-0.052 0.022,-0.012 0.046,-0.023 0.068,-0.035 0.06,-0.031 0.117,-0.066 0.18,-0.091 0.014,-0.006 0.026,-0.015 0.041,-0.021 l 27.747,-10.727 c 0.284,-0.107 0.574,-0.159 0.863,-0.159 0.956,0 1.86,0.578 2.228,1.525 0.476,1.231 -0.14,2.615 -1.366,3.091 l -24.484,9.465 32.107,34.979 17.794,-15.06 13.901,12.159 v -33.045 c 0,-1.319 1.068,-2.387 2.387,-2.387 h 22.676 c 1.319,0 2.386,1.068 2.386,2.387 0,1.32 -1.067,2.387 -2.386,2.387 H 18.722 V 8.736 h 20.289 c 1.319,0 2.386,1.068 2.386,2.387 0,1.32 -1.067,2.387 -2.386,2.387 H 18.722 v 33.528 z"
                     inkscape:connector-curvature="0"/></g></g></g></g></svg>