<?xml version="1.0" encoding="UTF-8"?>
<svg xmlns:foaf="http://xmlns.com/foaf/0.1/" xmlns:svg="http://www.w3.org/2000/svg"
     xmlns:dc="http://purl.org/dc/elements/1.1/"
     xmlns:crm="http://www.cidoc-crm.org/cidoc-crm/"
     xmlns="http://www.w3.org/2000/svg"
     xmlns:sodipodi="http://sodipodi.sourceforge.net/DTD/sodipodi-0.dtd"
     xmlns:cc="http://creativecommons.org/ns#"
     xmlns:inkscape="http://www.inkscape.org/namespaces/inkscape"
     xmlns:nmo="http://nomisma.org/ontology#"
     xmlns:rdf="http://www.w3.org/1999/02/22-rdf-syntax-ns#"
     viewBox="0 0 147.33673 108.504"
     height="108.504"
     width="147.33673"
     xml:space="preserve"
     id="svg2"
     version="1.1"
     sodipodi:docname="pg_0035.svg"
     inkscape:version="0.92.3 (2405546, 2018-03-11)"><sodipodi:namedview pagecolor="#ffffff" bordercolor="#666666" borderopacity="1"
                       objecttolerance="10"
                       gridtolerance="10"
                       guidetolerance="10"
                       inkscape:pageopacity="0"
                       inkscape:pageshadow="2"
                       inkscape:window-width="614"
                       inkscape:window-height="450"
                       id="namedview12"
                       showgrid="false"
                       inkscape:zoom="0.88500003"
                       inkscape:cx="73.668326"
                       inkscape:cy="55.031744"
                       inkscape:window-x="83"
                       inkscape:window-y="27"
                       inkscape:window-maximized="0"
                       inkscape:current-layer="svg2"/><metadata><rdf:RDF><cc:Work rdf:about="https://nomisma.org/svg/monogram.01550.svg"><dc:title>Monogram 1550</dc:title><dc:description>Monogram 1550 published by Nomisma.org. See matching URIs and bibliographic references for further information about the usage of this symbol on coinage.</dc:description><foaf:focus rdf:resource="http://nomisma.org/symbol/monogram.01550"/><dc:format>image/svg+xml</dc:format><dc:type rdf:resource="http://purl.org/dc/dcmitype/StillImage"/><cc:license rdf:resource="https://creativecommons.org/choose/mark/"/><crm:P106_is_composed_of>N</crm:P106_is_composed_of><crm:P106_is_composed_of>Z</crm:P106_is_composed_of><crm:P106_is_composed_of>O</crm:P106_is_composed_of><crm:P106_is_composed_of>E</crm:P106_is_composed_of></cc:Work></rdf:RDF></metadata><defs id="defs6"><clipPath id="clipPath18" clipPathUnits="userSpaceOnUse"><path id="path16" d="M 0,200 H 200 V 0 H 0 Z" inkscape:connector-curvature="0"/></clipPath></defs><g transform="matrix(1.3333333,0,0,-1.3333333,-59.665002,186.8056)" id="g10"><g id="g12"><g clip-path="url(#clipPath18)" id="g14"><g transform="translate(132.5753,87.7882)" id="g20"><path id="path22" style="fill:#231f20;fill-opacity:1;fill-rule:nonzero;stroke:none"
                     d="M 0,0 V -21.815 L -28.232,0 Z M -65.541,4.774 V 22.799 L -42.215,4.774 Z m 61.075,35.915 c 0,3.781 3.072,6.853 6.853,6.853 3.781,0 6.853,-3.072 6.853,-6.853 0,-3.781 -3.072,-6.853 -6.853,-6.853 -3.781,0 -6.853,3.072 -6.853,6.853 m 5.838,-69.517 c 0.054,-0.026 0.108,-0.05 0.164,-0.071 0.088,-0.034 0.177,-0.06 0.267,-0.083 0.049,-0.012 0.097,-0.027 0.147,-0.036 0.145,-0.027 0.29,-0.044 0.437,-0.044 h 17.902 c 1.319,0 2.387,1.067 2.387,2.387 0,1.319 -1.068,2.387 -2.387,2.387 H 4.774 V 0 h 15.515 c 1.319,0 2.387,1.068 2.387,2.387 0,1.319 -1.068,2.387 -2.387,2.387 H 4.774 V 28.13 h 14.927 c 1.32,0 2.387,1.067 2.387,2.387 0,1.319 -1.067,2.387 -2.387,2.387 h -8.704 c 1.868,2.063 3.017,4.789 3.017,7.785 0,6.41 -5.217,11.627 -11.627,11.627 -6.41,0 -11.627,-5.217 -11.627,-11.627 0,-5.592 3.971,-10.274 9.24,-11.378 V 4.774 h -34.409 l -26.528,20.498 h 4.719 c 1.32,0 2.387,1.068 2.387,2.387 0,1.319 -1.067,2.387 -2.387,2.387 h -17.444 l 19.09,18.153 c 0.709,0.672 0.932,1.706 0.569,2.616 -0.359,0.904 -1.24,1.501 -2.215,1.501 h -23.421 c -1.319,0 -2.387,-1.068 -2.387,-2.387 0,-1.32 1.068,-2.387 2.387,-2.387 h 17.445 L -81.285,29.388 c -0.708,-0.671 -0.932,-1.706 -0.568,-2.615 0.359,-0.904 1.24,-1.501 2.214,-1.501 h 9.324 v -49.379 c -10.487,1.448 -12.688,11.373 -12.783,11.823 -0.261,1.296 -1.543,2.135 -2.811,1.869 -1.291,-0.256 -2.131,-1.515 -1.87,-2.811 1.087,-5.433 6.623,-15.663 19.774,-15.828 0.026,-0.001 0.05,-0.008 0.077,-0.008 0.016,0 0.031,0.004 0.047,0.005 0.066,-0.001 0.129,-0.005 0.195,-0.005 13.585,0 18.004,10.545 18.443,16.121 0.107,1.314 -0.877,2.461 -2.192,2.564 -1.31,0.144 -2.461,-0.877 -2.564,-2.191 -0.039,-0.448 -0.95,-10.409 -11.542,-11.602 V 0 h 29.504 L 0.928,-28.563 c 0.02,-0.016 0.042,-0.026 0.062,-0.041 0.053,-0.038 0.109,-0.073 0.166,-0.107 0.071,-0.043 0.142,-0.083 0.216,-0.117"
                     inkscape:connector-curvature="0"/></g></g></g></g></svg>