<?xml version="1.0" encoding="UTF-8"?>
<svg xmlns:foaf="http://xmlns.com/foaf/0.1/" xmlns:svg="http://www.w3.org/2000/svg"
     xmlns:dc="http://purl.org/dc/elements/1.1/"
     xmlns:crm="http://www.cidoc-crm.org/cidoc-crm/"
     xmlns="http://www.w3.org/2000/svg"
     xmlns:sodipodi="http://sodipodi.sourceforge.net/DTD/sodipodi-0.dtd"
     xmlns:cc="http://creativecommons.org/ns#"
     xmlns:inkscape="http://www.inkscape.org/namespaces/inkscape"
     xmlns:nmo="http://nomisma.org/ontology#"
     xmlns:rdf="http://www.w3.org/1999/02/22-rdf-syntax-ns#"
     width="400"
     height="400"
     xml:space="preserve"
     viewBox="0 0 400 400">
  <title property="dc:title">Monogram 731</title><desc proprety="dc:description">Monogram 731 published by Nomisma.org. See matching URIs and bibliographic references for further information about the usage of this symbol on coinage.</desc>
    <desc xmlns:xlink="http://www.w3.org/1999/xlink" property="dc:creator">Corpus Nummorum https://www.corpus-nummorum.eu</desc>
    <desc xmlns:xlink="http://www.w3.org/1999/xlink">lettercomb: Η Ρ Α Λ Δ</desc>    
    <metadata><rdf:RDF><cc:Work rdf:about="https://nomisma.org/svg/monogram.00731.svg"><dc:title>Monogram 731</dc:title><dc:description>Monogram 731 published by Nomisma.org. See matching URIs and bibliographic references for further information about the usage of this symbol on coinage.</dc:description><foaf:focus rdf:resource="http://nomisma.org/symbol/monogram.00731"/><dc:format>image/svg+xml</dc:format><dc:type rdf:resource="http://purl.org/dc/dcmitype/StillImage"/><dc:creator rdf:resource="http://nomisma.org/editor/vstolba"/><cc:license rdf:resource="https://creativecommons.org/choose/mark/"/><crm:P106_is_composed_of>Η</crm:P106_is_composed_of><crm:P106_is_composed_of>Ρ</crm:P106_is_composed_of><crm:P106_is_composed_of>Α</crm:P106_is_composed_of><crm:P106_is_composed_of>Λ</crm:P106_is_composed_of><crm:P106_is_composed_of>Δ</crm:P106_is_composed_of></cc:Work></rdf:RDF></metadata>
    <style xmlns:xlink="http://www.w3.org/1999/xlink" type="text/css">.st0{fill:none;stroke:#000000;stroke-width:20;stroke-linecap:round;stroke-linejoin:round;} .st1{fill:none;stroke:#000000;stroke-width:22.4027;stroke-linecap:round;stroke-linejoin:round;} .st2{fill:none;stroke:#000000;stroke-width:19.6116;stroke-linecap:round;stroke-linejoin:round;}</style>
<line xmlns:xlink="http://www.w3.org/1999/xlink" class="st0" x1="301.8" y1="29.1"
         x2="301.8"
         y2="376.9"/>
<line xmlns:xlink="http://www.w3.org/1999/xlink" class="st0" x1="21.1" y1="376"
         x2="21.1"
         y2="32.8"/>
<line xmlns:xlink="http://www.w3.org/1999/xlink" class="st0" x1="27" y1="144" x2="307"
         y2="144"/>
<line xmlns:xlink="http://www.w3.org/1999/xlink" class="st2" x1="62" y1="272" x2="262"
         y2="272"/>
<polyline xmlns:xlink="http://www.w3.org/1999/xlink" class="st0"
             points="19.8,366.6 165.4,41 301.3,363.2 "/>
<path xmlns:xlink="http://www.w3.org/1999/xlink" class="st0" d="M15.4,365.6"/>
<path xmlns:xlink="http://www.w3.org/1999/xlink" class="st1"
         d="M350.1,85.9c0,32.4-21.1,58.7-47.1,58.7"/>
<path xmlns:xlink="http://www.w3.org/1999/xlink" class="st1"
         d="M350.1,85.9C350.1,53.4,329,29,303,29"/>
<path xmlns:xlink="http://www.w3.org/1999/xlink"
         d="M301.5,385.3c17.2,0,17.2-26.4,0-26.4C284.4,358.8,284.4,385.3,301.5,385.3z"/>
<path xmlns:xlink="http://www.w3.org/1999/xlink"
         d="M20.9,385.2c18.1,0,18.1-28.1,0-28.1C2.8,357.1,2.8,385.2,20.9,385.2z"/>
<path xmlns:xlink="http://www.w3.org/1999/xlink"
         d="M20.9,42.8c19.7,0,19.7-29.6,0-29.6C1.2,13.1,1.2,42.8,20.9,42.8z"/>
<path xmlns:xlink="http://www.w3.org/1999/xlink"
         d="M164.7,38c19,0,19-28.2,0-28.2C145.7,9.9,145.7,38,164.7,38z"/>
</svg>