<?xml version="1.0" encoding="UTF-8"?>
<svg xmlns:foaf="http://xmlns.com/foaf/0.1/" xmlns:svg="http://www.w3.org/2000/svg"
     xmlns:dc="http://purl.org/dc/elements/1.1/"
     xmlns:crm="http://www.cidoc-crm.org/cidoc-crm/"
     xmlns="http://www.w3.org/2000/svg"
     xmlns:sodipodi="http://sodipodi.sourceforge.net/DTD/sodipodi-0.dtd"
     xmlns:cc="http://creativecommons.org/ns#"
     xmlns:inkscape="http://www.inkscape.org/namespaces/inkscape"
     xmlns:nmo="http://nomisma.org/ontology#"
     xmlns:rdf="http://www.w3.org/1999/02/22-rdf-syntax-ns#"
     viewBox="0 0 144.56267 108.504"
     height="108.504"
     width="144.56267"
     xml:space="preserve"
     id="svg2"
     version="1.1"
     sodipodi:docname="pg_0042.svg"
     inkscape:version="0.92.3 (2405546, 2018-03-11)"><sodipodi:namedview pagecolor="#ffffff" bordercolor="#666666" borderopacity="1"
                       objecttolerance="10"
                       gridtolerance="10"
                       guidetolerance="10"
                       inkscape:pageopacity="0"
                       inkscape:pageshadow="2"
                       inkscape:window-width="640"
                       inkscape:window-height="480"
                       id="namedview12"
                       showgrid="false"
                       inkscape:zoom="0.88500003"
                       inkscape:cx="67.657597"
                       inkscape:cy="54.252144"
                       inkscape:window-x="83"
                       inkscape:window-y="27"
                       inkscape:window-maximized="0"
                       inkscape:current-layer="svg2"/><metadata><rdf:RDF><cc:Work rdf:about="https://nomisma.org/svg/monogram.01568.svg"><dc:title>Monogram 1568</dc:title><dc:description>Monogram 1568 published by Nomisma.org. See matching URIs and bibliographic references for further information about the usage of this symbol on coinage.</dc:description><foaf:focus rdf:resource="http://nomisma.org/symbol/monogram.01568"/><dc:format>image/svg+xml</dc:format><dc:type rdf:resource="http://purl.org/dc/dcmitype/StillImage"/><cc:license rdf:resource="https://creativecommons.org/choose/mark/"/><crm:P106_is_composed_of>N</crm:P106_is_composed_of><crm:P106_is_composed_of>Z</crm:P106_is_composed_of><crm:P106_is_composed_of>O</crm:P106_is_composed_of></cc:Work></rdf:RDF></metadata><defs id="defs6"><clipPath id="clipPath18" clipPathUnits="userSpaceOnUse"><path id="path16" d="M 0,200 H 200 V 0 H 0 Z" inkscape:connector-curvature="0"/></clipPath></defs><g transform="matrix(1.3333333,0,0,-1.3333333,-65.675732,187.5852)" id="g10"><g id="g12"><g clip-path="url(#clipPath18)" id="g14"><g transform="translate(112.9988,88.3779)" id="g20"><path id="path22" style="fill:#231f20;fill-opacity:1;fill-rule:nonzero;stroke:none"
                     d="M 0,0 H 22.004 V -23.11 L -33.898,0 h 10.477 z m 17.543,40.689 c 0,3.776 3.072,6.848 6.848,6.848 3.781,0 6.853,-3.072 6.853,-6.848 0,-3.781 -3.072,-6.853 -6.853,-6.853 -3.776,0 -6.848,3.072 -6.848,6.853 m 5.912,-69.565 c 0.005,-0.002 0.01,-0.004 0.015,-0.006 l 0.007,-0.003 c 0.038,-0.016 0.077,-0.021 0.115,-0.035 0.107,-0.038 0.214,-0.077 0.328,-0.099 0.158,-0.032 0.315,-0.048 0.471,-0.048 h 17.902 c 1.319,0 2.387,1.068 2.387,2.387 0,1.319 -1.068,2.387 -2.387,2.387 H 26.778 V 28.13 h 14.927 c 1.32,0 2.387,1.067 2.387,2.387 0,1.319 -1.067,2.387 -2.387,2.387 h -8.704 c 1.868,2.063 3.017,4.789 3.017,7.785 0,6.41 -5.217,11.622 -11.627,11.622 -6.41,0 -11.622,-5.212 -11.622,-11.622 0,-5.592 3.967,-10.273 9.235,-11.378 V 4.774 H 0 -17.445 L 1.646,22.922 c 0.708,0.672 0.932,1.707 0.568,2.616 C 1.855,26.442 0.974,27.039 0,27.039 h -23.421 c -1.319,0 -2.387,-1.068 -2.387,-2.387 0,-1.319 1.068,-2.387 2.387,-2.387 H -5.977 L -24.375,4.774 h -19.158 v 30.127 c 0.843,-0.317 1.851,-0.534 3.073,-0.534 8.545,0 12.358,2.131 12.358,14.746 0,1.319 -1.067,2.387 -2.387,2.387 -1.319,0 -2.386,-1.068 -2.386,-2.387 0,-9.972 -1.758,-9.972 -7.585,-9.972 -2.653,0 -3.063,1.911 -3.073,3.058 0,0.017 0.001,0.04 0,0.052 v 7.673 c 0,1.319 -1.067,2.387 -2.386,2.387 -1.32,0 -2.387,-1.068 -2.387,-2.387 v -7.673 c -0.001,-0.011 0,-0.032 0,-0.048 -0.01,-1.146 -0.42,-3.062 -3.077,-3.062 -5.828,0 -7.585,0 -7.585,9.972 0,1.319 -1.068,2.387 -2.387,2.387 -1.319,0 -2.387,-1.068 -2.387,-2.387 0,-12.615 3.814,-14.746 12.359,-14.746 1.222,0 2.232,0.218 3.077,0.535 V -26.68 c 0,-1.319 1.067,-2.387 2.387,-2.387 1.319,0 2.386,1.068 2.386,2.387 v 25.497 z"
                     inkscape:connector-curvature="0"/></g></g></g></g></svg>