<?xml version="1.0" encoding="UTF-8"?>
<svg xmlns:foaf="http://xmlns.com/foaf/0.1/" xmlns:svg="http://www.w3.org/2000/svg"
     xmlns:dc="http://purl.org/dc/elements/1.1/"
     xmlns:crm="http://www.cidoc-crm.org/cidoc-crm/"
     xmlns="http://www.w3.org/2000/svg"
     xmlns:sodipodi="http://sodipodi.sourceforge.net/DTD/sodipodi-0.dtd"
     xmlns:cc="http://creativecommons.org/ns#"
     xmlns:inkscape="http://www.inkscape.org/namespaces/inkscape"
     xmlns:nmo="http://nomisma.org/ontology#"
     xmlns:rdf="http://www.w3.org/1999/02/22-rdf-syntax-ns#"
     viewBox="0 0 150.94125 108.91561"
     height="108.91561"
     width="150.94125"
     xml:space="preserve"
     id="svg2"
     version="1.1"
     sodipodi:docname="pg_0014.svg"
     inkscape:version="0.92.3 (2405546, 2018-03-11)"><sodipodi:namedview pagecolor="#ffffff" bordercolor="#666666" borderopacity="1"
                       objecttolerance="10"
                       gridtolerance="10"
                       guidetolerance="10"
                       inkscape:pageopacity="0"
                       inkscape:pageshadow="2"
                       inkscape:window-width="640"
                       inkscape:window-height="480"
                       id="namedview18"
                       showgrid="false"
                       inkscape:zoom="0.89388969"
                       inkscape:cx="74.905208"
                       inkscape:cy="48.167999"
                       inkscape:window-x="83"
                       inkscape:window-y="27"
                       inkscape:window-maximized="0"
                       inkscape:current-layer="svg2"/><metadata><rdf:RDF><cc:Work rdf:about="https://nomisma.org/svg/monogram.01551.svg"><dc:title>Monogram 1551</dc:title><dc:description>Monogram 1551 published by Nomisma.org. See matching URIs and bibliographic references for further information about the usage of this symbol on coinage.</dc:description><foaf:focus rdf:resource="http://nomisma.org/symbol/monogram.01551"/><dc:format>image/svg+xml</dc:format><dc:type rdf:resource="http://purl.org/dc/dcmitype/StillImage"/><cc:license rdf:resource="https://creativecommons.org/choose/mark/"/><crm:P106_is_composed_of>S</crm:P106_is_composed_of><crm:P106_is_composed_of>R</crm:P106_is_composed_of><crm:P106_is_composed_of>M</crm:P106_is_composed_of></cc:Work></rdf:RDF></metadata><defs id="defs6"><clipPath id="clipPath18" clipPathUnits="userSpaceOnUse"><path id="path16" d="M 0,198.011 H 198.011 V 0 H 0 Z"
               inkscape:connector-curvature="0"/></clipPath></defs><g transform="matrix(1.3333333,0,0,-1.3333333,-57.102132,192.75494)" id="g10"><g id="g12"><g clip-path="url(#clipPath18)" id="g14"><g transform="translate(62.1736,144.5649)" id="g20"><path id="path22" style="fill:#231f20;fill-opacity:1;fill-rule:nonzero;stroke:none"
                     d="M 0,0 C -1.319,0 -2.387,-1.068 -2.387,-2.387 V -12.471 H -16.96 c -1.319,0 -2.387,-1.067 -2.387,-2.386 0,-1.32 1.068,-2.387 2.387,-2.387 h 14.573 v -58.017 h -13.752 c -1.32,0 -2.387,-1.068 -2.387,-2.387 0,-1.32 1.067,-2.387 2.387,-2.387 h 16.064 c 0.013,0 0.025,0.003 0.038,0.004 0.012,-10e-4 0.024,-0.004 0.037,-0.004 1.319,0 2.387,1.067 2.387,2.387 V -2.387 C 2.387,-1.068 1.319,0 0,0"
                     inkscape:connector-curvature="0"/></g><g transform="translate(118.2935,136.98)" id="g24"><path id="path26" style="fill:#231f20;fill-opacity:1;fill-rule:nonzero;stroke:none"
                     d="m 0,0 -28.506,-21.366 -17.297,18.07 c -0.909,0.946 -2.42,0.988 -3.375,0.075 -0.951,-0.914 -0.984,-2.425 -0.075,-3.376 l 16.899,-17.653 -16.153,-12.108 c -1.054,-0.793 -1.268,-2.289 -0.48,-3.343 0.471,-0.624 1.189,-0.955 1.911,-0.955 0.499,0 1.003,0.154 1.431,0.475 l 16.618,12.456 12.864,-13.439 c 0.018,-0.019 0.039,-0.031 0.058,-0.049 0.044,-0.044 0.093,-0.08 0.141,-0.12 0.098,-0.082 0.199,-0.157 0.306,-0.221 0.055,-0.033 0.11,-0.063 0.168,-0.091 0.116,-0.058 0.234,-0.103 0.356,-0.14 0.053,-0.017 0.104,-0.036 0.157,-0.048 0.178,-0.041 0.357,-0.068 0.539,-0.068 0.193,0 0.385,0.032 0.574,0.079 0.048,0.012 0.093,0.025 0.14,0.04 0.181,0.057 0.358,0.13 0.524,0.231 0.006,0.004 0.014,0.005 0.021,0.009 l 0.012,0.008 c 0.006,0.003 0.011,0.006 0.016,0.01 l 13.78,8.537 c 1.119,0.694 1.464,2.163 0.769,3.286 -0.694,1.114 -2.167,1.464 -3.286,0.769 l -12.163,-7.534 -11.128,11.625 28.041,21.018 C 3.916,-3.03 4.13,-1.534 3.343,-0.48 2.545,0.578 1.049,0.788 0,0"
                     inkscape:connector-curvature="0"/></g><g transform="translate(142.302,123.0829)" id="g28"><path id="path30" style="fill:#231f20;fill-opacity:1;fill-rule:nonzero;stroke:none"
                     d="M 0,0 C 0,-9.721 -6.591,-15.132 -10.708,-17.566 V 15.796 C -6.709,14.099 0,9.793 0,0 m 12.913,-44.554 -23.621,20.63 v 0.959 c 4.231,2.008 15.482,8.684 15.482,22.965 0,13.972 -11.357,20.125 -17.366,21.426 -1.296,0.289 -2.554,-0.545 -2.834,-1.827 -0.106,-0.487 -0.054,-0.971 0.12,-1.4 -0.111,-0.276 -0.176,-0.577 -0.176,-0.894 v -73.471 c 0,-1.32 1.067,-2.387 2.387,-2.387 1.319,0 2.387,1.067 2.387,2.387 v 25.899 L 9.771,-48.153 c 0.453,-0.391 1.012,-0.587 1.572,-0.587 0.661,0 1.323,0.275 1.799,0.816 0.867,0.993 0.764,2.503 -0.229,3.37"
                     inkscape:connector-curvature="0"/></g><g transform="translate(93.6831,93.2935)" id="g32"><path id="path34" style="fill:#231f20;fill-opacity:1;fill-rule:nonzero;stroke:none"
                     d="m 0,0 c -7.464,0.667 -10.149,-4.07 -10.592,-6.876 -0.172,-0.667 -0.377,-2.149 0.457,-3.879 1.086,-2.256 3.487,-4.014 7.133,-5.235 5.748,-1.921 6.615,-3.315 6.298,-6.536 -0.135,-1.427 -0.704,-1.996 -1.123,-2.299 -1.516,-1.104 -4.392,-0.815 -5.352,-0.61 -0.886,0.172 -3.389,0.969 -4.35,2.61 -0.666,1.138 -2.126,1.511 -3.268,0.854 -1.137,-0.667 -1.52,-2.131 -0.853,-3.268 2.233,-3.814 7.063,-4.793 7.515,-4.872 0.257,-0.056 1.459,-0.303 3.03,-0.303 1.837,0 4.173,0.34 6.075,1.72 1.776,1.287 2.839,3.259 3.081,5.702 0.723,7.459 -4.317,9.785 -9.543,11.533 -3.962,1.324 -4.573,2.909 -4.517,3.273 l 0.126,0.527 c 0.047,0.344 0.592,3.398 5.417,2.904 4.312,-0.42 5.026,-3.044 5.1,-3.375 0.233,-1.278 1.487,-2.145 2.741,-1.916 1.301,0.219 2.177,1.45 1.958,2.75 C 9.287,-7.03 8.149,-0.793 0,0"
                     inkscape:connector-curvature="0"/></g></g></g></g></svg>