<?xml version="1.0" encoding="UTF-8"?>
<svg xmlns:foaf="http://xmlns.com/foaf/0.1/" xmlns:svg="http://www.w3.org/2000/svg"
     xmlns:dc="http://purl.org/dc/elements/1.1/"
     xmlns:crm="http://www.cidoc-crm.org/cidoc-crm/"
     xmlns="http://www.w3.org/2000/svg"
     xmlns:sodipodi="http://sodipodi.sourceforge.net/DTD/sodipodi-0.dtd"
     xmlns:cc="http://creativecommons.org/ns#"
     xmlns:inkscape="http://www.inkscape.org/namespaces/inkscape"
     xmlns:nmo="http://nomisma.org/ontology#"
     xmlns:rdf="http://www.w3.org/1999/02/22-rdf-syntax-ns#"
     viewBox="0 0 123.98133 107.29733"
     height="107.29733"
     width="123.98133"
     xml:space="preserve"
     id="svg2"
     version="1.1"
     sodipodi:docname="pg_0049.svg"
     inkscape:version="0.92.3 (2405546, 2018-03-11)"><sodipodi:namedview pagecolor="#ffffff" bordercolor="#666666" borderopacity="1"
                       objecttolerance="10"
                       gridtolerance="10"
                       guidetolerance="10"
                       inkscape:pageopacity="0"
                       inkscape:pageshadow="2"
                       inkscape:window-width="614"
                       inkscape:window-height="450"
                       id="namedview12"
                       showgrid="false"
                       inkscape:zoom="0.88500003"
                       inkscape:cx="61.991197"
                       inkscape:cy="53.648677"
                       inkscape:window-x="83"
                       inkscape:window-y="27"
                       inkscape:window-maximized="0"
                       inkscape:current-layer="svg2"/><metadata><rdf:RDF><cc:Work rdf:about="https://nomisma.org/svg/monogram.01545.svg"><dc:title>Monogram 1545</dc:title><dc:description>Monogram 1545 published by Nomisma.org. See matching URIs and bibliographic references for further information about the usage of this symbol on coinage.</dc:description><foaf:focus rdf:resource="http://nomisma.org/symbol/monogram.01545"/><dc:format>image/svg+xml</dc:format><dc:type rdf:resource="http://purl.org/dc/dcmitype/StillImage"/><cc:license rdf:resource="https://creativecommons.org/choose/mark/"/><crm:P106_is_composed_of>A</crm:P106_is_composed_of><crm:P106_is_composed_of>E</crm:P106_is_composed_of><crm:P106_is_composed_of>T</crm:P106_is_composed_of><crm:P106_is_composed_of>N</crm:P106_is_composed_of></cc:Work></rdf:RDF></metadata><defs id="defs6"><clipPath id="clipPath18" clipPathUnits="userSpaceOnUse"><path id="path16" d="M 0,200 H 200 V 0 H 0 Z" inkscape:connector-curvature="0"/></clipPath></defs><g transform="matrix(1.3333333,0,0,-1.3333333,-71.342132,186.982)" id="g10"><g id="g12"><g clip-path="url(#clipPath18)" id="g14"><g transform="translate(123.8176,68.2245)" id="g20"><path id="path22" style="fill:#231f20;fill-opacity:1;fill-rule:nonzero;stroke:none"
                     d="M 0,0 -25.755,27.729 H 0 Z m -65.537,32.503 v 31.048 l 28.838,-31.048 z m 0,-4.774 h 28.488 L -65.537,-0.364 Z m 85.826,39.509 c 1.319,0 2.386,1.068 2.386,2.387 0,1.32 -1.067,2.387 -2.386,2.387 h -35.804 c -1.319,0 -2.387,-1.067 -2.387,-2.387 0,-1.319 1.068,-2.387 2.387,-2.387 H 0 V 32.503 h -30.189 l -35.986,38.745 c -0.007,0.006 -0.015,0.011 -0.021,0.018 -0.084,0.088 -0.177,0.166 -0.274,0.241 -0.029,0.022 -0.055,0.049 -0.085,0.07 -0.095,0.067 -0.197,0.121 -0.301,0.173 -0.036,0.018 -0.069,0.041 -0.105,0.057 -0.093,0.041 -0.192,0.069 -0.291,0.098 -0.051,0.015 -0.101,0.036 -0.153,0.047 -0.079,0.018 -0.162,0.023 -0.243,0.032 -0.077,0.009 -0.153,0.022 -0.23,0.024 -0.016,0 -0.03,0.004 -0.046,0.004 -0.06,0 -0.117,-0.013 -0.177,-0.018 -0.083,-0.006 -0.165,-0.01 -0.247,-0.025 -0.078,-0.014 -0.152,-0.037 -0.227,-0.058 -0.073,-0.021 -0.147,-0.04 -0.219,-0.068 -0.08,-0.031 -0.154,-0.071 -0.229,-0.11 -0.06,-0.032 -0.121,-0.06 -0.179,-0.098 -0.09,-0.057 -0.172,-0.124 -0.254,-0.193 -0.029,-0.025 -0.062,-0.042 -0.09,-0.068 -0.007,-0.007 -0.012,-0.015 -0.019,-0.022 -0.08,-0.076 -0.151,-0.162 -0.221,-0.249 -0.03,-0.039 -0.066,-0.074 -0.094,-0.114 -0.051,-0.073 -0.09,-0.153 -0.133,-0.231 -0.033,-0.06 -0.07,-0.117 -0.097,-0.179 -0.027,-0.063 -0.044,-0.13 -0.066,-0.195 -0.028,-0.083 -0.059,-0.165 -0.078,-0.251 -0.012,-0.054 -0.014,-0.111 -0.022,-0.166 -0.015,-0.102 -0.029,-0.203 -0.031,-0.305 0,-0.013 -0.004,-0.024 -0.004,-0.037 v -75.677 -0.012 -0.01 c 0,-0.028 0.008,-0.053 0.009,-0.08 0.004,-0.128 0.013,-0.257 0.038,-0.383 0.012,-0.062 0.035,-0.119 0.051,-0.179 0.025,-0.09 0.048,-0.18 0.084,-0.268 0.025,-0.06 0.059,-0.115 0.089,-0.173 0.041,-0.081 0.079,-0.164 0.131,-0.241 0.032,-0.048 0.072,-0.089 0.107,-0.135 0.058,-0.074 0.109,-0.151 0.177,-0.22 0.056,-0.056 0.12,-0.098 0.18,-0.148 0.063,-0.052 0.122,-0.109 0.191,-0.155 0.048,-0.033 0.101,-0.054 0.152,-0.083 0.086,-0.049 0.171,-0.101 0.264,-0.14 0.064,-0.026 0.13,-0.04 0.196,-0.06 0.083,-0.027 0.164,-0.058 0.25,-0.075 0.155,-0.031 0.311,-0.047 0.468,-0.047 0.157,0 0.313,0.016 0.467,0.047 0.061,0.012 0.118,0.035 0.178,0.052 0.09,0.025 0.181,0.047 0.268,0.083 0.058,0.024 0.11,0.057 0.166,0.086 0.083,0.042 0.168,0.081 0.247,0.134 0.043,0.028 0.079,0.065 0.12,0.096 0.079,0.06 0.16,0.116 0.233,0.187 L -31.298,26.688 0.639,-7.697 c 0.006,-0.007 0.014,-0.011 0.02,-0.018 0.096,-0.1 0.201,-0.19 0.312,-0.273 0.02,-0.014 0.038,-0.033 0.059,-0.048 0.385,-0.267 0.852,-0.425 1.357,-0.425 h 17.902 c 1.319,0 2.386,1.067 2.386,2.387 0,1.319 -1.067,2.386 -2.386,2.386 H 4.774 v 31.417 h 15.515 c 1.319,0 2.386,1.067 2.386,2.387 0,1.319 -1.067,2.387 -2.386,2.387 H 4.774 v 34.735 z"
                     inkscape:connector-curvature="0"/></g></g></g></g></svg>