<?xml version="1.0" encoding="UTF-8"?>
<svg xmlns:foaf="http://xmlns.com/foaf/0.1/" xmlns:svg="http://www.w3.org/2000/svg"
     xmlns:dc="http://purl.org/dc/elements/1.1/"
     xmlns:crm="http://www.cidoc-crm.org/cidoc-crm/"
     xmlns="http://www.w3.org/2000/svg"
     xmlns:sodipodi="http://sodipodi.sourceforge.net/DTD/sodipodi-0.dtd"
     xmlns:cc="http://creativecommons.org/ns#"
     xmlns:inkscape="http://www.inkscape.org/namespaces/inkscape"
     xmlns:nmo="http://nomisma.org/ontology#"
     xmlns:rdf="http://www.w3.org/1999/02/22-rdf-syntax-ns#"
     viewBox="0 0 144.56133 108.504"
     height="108.504"
     width="144.56133"
     xml:space="preserve"
     id="svg2"
     version="1.1"
     sodipodi:docname="pg_0039.svg"
     inkscape:version="0.92.3 (2405546, 2018-03-11)"><sodipodi:namedview pagecolor="#ffffff" bordercolor="#666666" borderopacity="1"
                       objecttolerance="10"
                       gridtolerance="10"
                       guidetolerance="10"
                       inkscape:pageopacity="0"
                       inkscape:pageshadow="2"
                       inkscape:window-width="640"
                       inkscape:window-height="480"
                       id="namedview12"
                       showgrid="false"
                       inkscape:zoom="0.88500003"
                       inkscape:cx="84.288129"
                       inkscape:cy="63.34281"
                       inkscape:window-x="83"
                       inkscape:window-y="27"
                       inkscape:window-maximized="0"
                       inkscape:current-layer="svg2"/><metadata><rdf:RDF><cc:Work rdf:about="https://nomisma.org/svg/monogram.01565.svg"><dc:title>Monogram 1565</dc:title><dc:description>Monogram 1565 published by Nomisma.org. See matching URIs and bibliographic references for further information about the usage of this symbol on coinage.</dc:description><foaf:focus rdf:resource="http://nomisma.org/symbol/monogram.01565"/><dc:format>image/svg+xml</dc:format><dc:type rdf:resource="http://purl.org/dc/dcmitype/StillImage"/><cc:license rdf:resource="https://creativecommons.org/choose/mark/"/><crm:P106_is_composed_of>N</crm:P106_is_composed_of><crm:P106_is_composed_of>Z</crm:P106_is_composed_of><crm:P106_is_composed_of>O</crm:P106_is_composed_of><crm:P106_is_composed_of>E</crm:P106_is_composed_of></cc:Work></rdf:RDF></metadata><defs id="defs6"><clipPath id="clipPath18" clipPathUnits="userSpaceOnUse"><path id="path16" d="M 0,200 H 200 V 0 H 0 Z" inkscape:connector-curvature="0"/></clipPath></defs><g transform="matrix(1.3333333,0,0,-1.3333333,-49.045199,178.49453)" id="g10"><g id="g12"><g clip-path="url(#clipPath18)" id="g14"><g transform="translate(122.5299,106.4879)" id="g20"><path id="path22" style="fill:#231f20;fill-opacity:1;fill-rule:nonzero;stroke:none"
                     d="m 0,0 v -47.054 l -27.148,21.103 z m -4.466,15.756 c 0,3.781 3.072,6.853 6.853,6.853 3.781,0 6.853,-3.072 6.853,-6.853 0,-3.78 -3.072,-6.853 -6.853,-6.853 -3.781,0 -6.853,3.073 -6.853,6.853 m -48.027,-51.751 c -1.319,0 -2.387,-1.068 -2.387,-2.387 0,-9.972 -1.757,-9.972 -7.585,-9.972 -2.656,0 -3.067,1.916 -3.076,3.058 0,0.017 0,0.04 -0.001,0.052 V -2.15 l 66.05,-51.341 c 0.434,-0.341 0.951,-0.504 1.464,-0.504 0.066,0 0.131,0.017 0.196,0.022 0.073,-0.007 0.144,-0.022 0.219,-0.022 h 17.902 c 1.319,0 2.386,1.068 2.386,2.387 0,1.319 -1.067,2.387 -2.386,2.387 H 4.774 V 3.197 h 14.927 c 1.32,0 2.387,1.068 2.387,2.387 0,1.319 -1.067,2.387 -2.387,2.387 h -8.704 c 1.868,2.064 3.017,4.79 3.017,7.785 0,6.41 -5.217,11.627 -11.627,11.627 -6.41,0 -11.627,-5.217 -11.627,-11.627 0,-4.943 3.109,-9.166 7.469,-10.844 L -30.959,-22.989 -60.971,0.339 h 4.753 c 0.975,0 1.856,0.597 2.215,1.502 0.363,0.909 0.14,1.944 -0.569,2.615 l -19.09,18.153 h 17.444 c 1.32,0 2.387,1.068 2.387,2.387 0,1.319 -1.067,2.387 -2.387,2.387 h -23.421 c -0.974,0 -1.855,-0.597 -2.214,-1.501 -0.364,-0.909 -0.14,-1.944 0.568,-2.615 L -62.194,5.113 h -17.445 c -1.319,0 -2.387,-1.067 -2.387,-2.387 0,-1.319 1.068,-2.387 2.387,-2.387 h 9.324 v -45.583 c 0,-0.012 0,-0.035 0,-0.052 -0.01,-1.142 -0.42,-3.058 -3.072,-3.058 -5.828,0 -7.585,0 -7.585,9.972 0,1.319 -1.068,2.387 -2.387,2.387 -1.319,0 -2.387,-1.068 -2.387,-2.387 0,-12.615 3.813,-14.746 12.359,-14.746 2.751,0 4.468,1.066 5.459,2.019 0.99,-0.953 2.713,-2.019 5.463,-2.019 8.546,0 12.359,2.131 12.359,14.746 0,1.319 -1.067,2.387 -2.387,2.387"
                     inkscape:connector-curvature="0"/></g></g></g></g></svg>