<?xml version="1.0" encoding="UTF-8"?>
<svg xmlns:foaf="http://xmlns.com/foaf/0.1/" xmlns:svg="http://www.w3.org/2000/svg"
     xmlns:dc="http://purl.org/dc/elements/1.1/"
     xmlns:crm="http://www.cidoc-crm.org/cidoc-crm/"
     xmlns="http://www.w3.org/2000/svg"
     xmlns:sodipodi="http://sodipodi.sourceforge.net/DTD/sodipodi-0.dtd"
     xmlns:cc="http://creativecommons.org/ns#"
     xmlns:inkscape="http://www.inkscape.org/namespaces/inkscape"
     xmlns:nmo="http://nomisma.org/ontology#"
     xmlns:rdf="http://www.w3.org/1999/02/22-rdf-syntax-ns#"
     viewBox="0 0 149.81333 112.33866"
     height="112.33866"
     width="149.81332"
     xml:space="preserve"
     id="svg2"
     version="1.1"
     sodipodi:docname="pg_0041.svg"
     inkscape:version="0.92.3 (2405546, 2018-03-11)"><sodipodi:namedview pagecolor="#ffffff" bordercolor="#666666" borderopacity="1"
                       objecttolerance="10"
                       gridtolerance="10"
                       guidetolerance="10"
                       inkscape:pageopacity="0"
                       inkscape:pageshadow="2"
                       inkscape:window-width="640"
                       inkscape:window-height="480"
                       id="namedview12"
                       showgrid="false"
                       inkscape:zoom="0.88500003"
                       inkscape:cx="87.758929"
                       inkscape:cy="53.243077"
                       inkscape:window-x="83"
                       inkscape:window-y="27"
                       inkscape:window-maximized="0"
                       inkscape:current-layer="svg2"/><metadata><rdf:RDF><cc:Work rdf:about="https://nomisma.org/svg/monogram.01565.svg"><dc:title>Monogram 1565</dc:title><dc:description>Monogram 1565 published by Nomisma.org. See matching URIs and bibliographic references for further information about the usage of this symbol on coinage.</dc:description><foaf:focus rdf:resource="http://nomisma.org/symbol/monogram.01565"/><dc:format>image/svg+xml</dc:format><dc:type rdf:resource="http://purl.org/dc/dcmitype/StillImage"/><cc:license rdf:resource="https://creativecommons.org/choose/mark/"/><crm:P106_is_composed_of>N</crm:P106_is_composed_of><crm:P106_is_composed_of>Z</crm:P106_is_composed_of><crm:P106_is_composed_of>O</crm:P106_is_composed_of><crm:P106_is_composed_of>E</crm:P106_is_composed_of></cc:Work></rdf:RDF></metadata><defs id="defs6"><clipPath id="clipPath18" clipPathUnits="userSpaceOnUse"><path id="path16" d="M 0,200 H 200 V 0 H 0 Z" inkscape:connector-curvature="0"/></clipPath></defs><g transform="matrix(1.3333333,0,0,-1.3333333,-45.574399,192.42893)" id="g10"><g id="g12"><g clip-path="url(#clipPath18)" id="g14"><g transform="translate(44.3898,132.6997)" id="g20"><path id="path22" style="fill:#231f20;fill-opacity:1;fill-rule:nonzero;stroke:none"
                     d="m 0,0 c 0,3.776 3.072,6.848 6.853,6.848 3.776,0 6.848,-3.072 6.848,-6.848 0,-3.781 -3.072,-6.853 -6.848,-6.853 C 3.072,-6.853 0,-3.781 0,0 m 99.764,-33.02 c 1.32,0 2.387,1.067 2.387,2.387 0,1.319 -1.067,2.387 -2.387,2.387 H 80.31 V 6.848 h 19.454 c 1.32,0 2.387,1.068 2.387,2.387 0,1.32 -1.067,2.387 -2.387,2.387 H 77.923 c -1.319,0 -2.386,-1.067 -2.386,-2.387 v -46.772 l -37.571,10.76 22.401,21.383 c 0.666,0.639 0.909,1.604 0.615,2.485 -0.294,0.876 -1.072,1.506 -1.99,1.613 L 34.997,1.501 c -1.282,0.14 -2.494,-0.783 -2.648,-2.098 -0.149,-1.31 0.788,-2.494 2.098,-2.648 L 53.393,-5.45 32.647,-25.253 9.995,-18.765 v 7.582 c 4.886,1.376 8.48,5.863 8.48,11.183 0,6.41 -5.212,11.622 -11.622,11.622 C 0.443,11.622 -4.774,6.41 -4.774,0 c 0,-5.855 4.357,-10.701 9.995,-11.499 v -52.378 c 0,-0.012 0,-0.034 0,-0.052 -0.009,-1.142 -0.42,-3.058 -3.072,-3.058 -5.827,0 -7.585,0 -7.585,9.972 0,1.319 -1.067,2.387 -2.387,2.387 -1.319,0 -2.386,-1.068 -2.386,-2.387 0,-12.615 3.813,-14.745 12.358,-14.745 2.751,0 4.469,1.065 5.459,2.018 0.991,-0.953 2.708,-2.018 5.459,-2.018 8.546,0 12.359,2.13 12.359,14.745 0,1.319 -1.068,2.387 -2.387,2.387 -1.319,0 -2.387,-1.068 -2.387,-2.387 0,-9.972 -1.757,-9.972 -7.585,-9.972 -2.652,0 -3.062,1.911 -3.072,3.058 0,0.018 0,0.04 0,0.052 v 40.148 l 22.272,-6.379 c 0.225,-0.105 0.461,-0.17 0.702,-0.201 l 42.568,-12.192 v -27.744 c 0,-1.32 1.067,-2.387 2.386,-2.387 h 21.841 c 1.32,0 2.387,1.067 2.387,2.387 0,1.319 -1.067,2.387 -2.387,2.387 H 80.31 v 34.838 z"
                     inkscape:connector-curvature="0"/></g></g></g></g></svg>