<?xml version="1.0" encoding="UTF-8"?>
<svg xmlns:foaf="http://xmlns.com/foaf/0.1/" xmlns:svg="http://www.w3.org/2000/svg"
     xmlns:dc="http://purl.org/dc/elements/1.1/"
     xmlns:crm="http://www.cidoc-crm.org/cidoc-crm/"
     xmlns="http://www.w3.org/2000/svg"
     xmlns:sodipodi="http://sodipodi.sourceforge.net/DTD/sodipodi-0.dtd"
     xmlns:cc="http://creativecommons.org/ns#"
     xmlns:inkscape="http://www.inkscape.org/namespaces/inkscape"
     xmlns:nmo="http://nomisma.org/ontology#"
     xmlns:rdf="http://www.w3.org/1999/02/22-rdf-syntax-ns#"
     viewBox="0 0 533.33331 533.33331"
     height="533.33331"
     width="533.33331"
     xml:space="preserve"
     id="svg2"
     version="1.1"><metadata><rdf:RDF><cc:Work rdf:about="https://nomisma.org/svg/monogram.01886.svg"><dc:title>Monogram 1886</dc:title><dc:description>Monogram 1886 published by Nomisma.org. See matching URIs and bibliographic references for further information about the usage of this symbol on coinage.</dc:description><foaf:focus rdf:resource="http://nomisma.org/symbol/monogram.01886"/><dc:format>image/svg+xml</dc:format><dc:type rdf:resource="http://purl.org/dc/dcmitype/StillImage"/><dc:creator rdf:resource="https://orcid.org/0000-0001-7542-4252"/><cc:license rdf:resource="https://creativecommons.org/choose/mark/"/><crm:P106_is_composed_of>Ο</crm:P106_is_composed_of><crm:P106_is_composed_of>Α</crm:P106_is_composed_of><crm:P106_is_composed_of>Μ</crm:P106_is_composed_of><crm:P106_is_composed_of>Λ</crm:P106_is_composed_of></cc:Work></rdf:RDF></metadata><defs id="defs6"><clipPath id="clipPath18" clipPathUnits="userSpaceOnUse"><path id="path16" d="M 0,400 H 400 V 0 H 0 Z"/></clipPath></defs><g transform="matrix(1.3333333,0,0,-1.3333333,0,533.33333)" id="g10"><g id="g12"><g clip-path="url(#clipPath18)" id="g14"><g transform="translate(126.0371,200.6992)" id="g20"><path id="path22"
                     style="fill:none;stroke:#000000;stroke-width:20;stroke-linecap:round;stroke-linejoin:miter;stroke-miterlimit:10;stroke-dasharray:none;stroke-opacity:1"
                     d="m 0,0 73.717,-130.264 c 0.135,-0.239 0.36,-0.241 0.499,-0.004 L 150.014,-0.97 c 0.139,0.237 0.352,0.229 0.474,-0.017 l 73.253,-147.866 c 0.122,-0.247 0.122,-0.247 0,0 L 76.259,148.853 c -0.122,0.246 -0.324,0.247 -0.449,0.002 L -76.037,-149.301"/></g><g transform="translate(212.4424,180)" id="g24"><path id="path26" style="fill:#000000;fill-opacity:1;fill-rule:nonzero;stroke:none"
                     d="m 0,0 c 0,-6.95 -5.57,-12.585 -12.442,-12.585 -6.872,0 -12.443,5.635 -12.443,12.585 0,6.95 5.571,12.585 12.443,12.585 C -5.57,12.585 0,6.95 0,0"/></g><g transform="translate(212.4424,180)" id="g28"><path id="path30"
                     style="fill:none;stroke:#000000;stroke-width:20;stroke-linecap:butt;stroke-linejoin:miter;stroke-miterlimit:10;stroke-dasharray:none;stroke-opacity:1"
                     d="m 0,0 c 0,-6.95 -5.57,-12.585 -12.442,-12.585 -6.872,0 -12.443,5.635 -12.443,12.585 0,6.95 5.571,12.585 12.443,12.585 C -5.57,12.585 0,6.95 0,0 Z"/></g></g></g></g></svg>