<?xml version="1.0" encoding="UTF-8"?>
<svg xmlns:foaf="http://xmlns.com/foaf/0.1/" xmlns:svg="http://www.w3.org/2000/svg"
     xmlns:dc="http://purl.org/dc/elements/1.1/"
     xmlns:crm="http://www.cidoc-crm.org/cidoc-crm/"
     xmlns="http://www.w3.org/2000/svg"
     xmlns:sodipodi="http://sodipodi.sourceforge.net/DTD/sodipodi-0.dtd"
     xmlns:cc="http://creativecommons.org/ns#"
     xmlns:inkscape="http://www.inkscape.org/namespaces/inkscape"
     xmlns:nmo="http://nomisma.org/ontology#"
     xmlns:rdf="http://www.w3.org/1999/02/22-rdf-syntax-ns#"
     viewBox="0 0 142.39333 140.67732"
     height="140.67732"
     width="142.39333"
     xml:space="preserve"
     id="svg2"
     version="1.1"
     sodipodi:docname="pg_0026.svg"
     inkscape:version="0.92.3 (2405546, 2018-03-11)"><sodipodi:namedview pagecolor="#ffffff" bordercolor="#666666" borderopacity="1"
                       objecttolerance="10"
                       gridtolerance="10"
                       guidetolerance="10"
                       inkscape:pageopacity="0"
                       inkscape:pageshadow="2"
                       inkscape:window-width="640"
                       inkscape:window-height="480"
                       id="namedview12"
                       showgrid="false"
                       inkscape:zoom="0.7953412"
                       inkscape:cx="71.196943"
                       inkscape:cy="70.338537"
                       inkscape:window-x="83"
                       inkscape:window-y="27"
                       inkscape:window-maximized="0"
                       inkscape:current-layer="svg2"/><metadata><rdf:RDF><cc:Work rdf:about="https://nomisma.org/svg/monogram.01518.svg"><dc:title>Monogram 1518</dc:title><dc:description>Monogram 1518 published by Nomisma.org. See matching URIs and bibliographic references for further information about the usage of this symbol on coinage.</dc:description><foaf:focus rdf:resource="http://nomisma.org/symbol/monogram.01518"/><dc:format>image/svg+xml</dc:format><dc:type rdf:resource="http://purl.org/dc/dcmitype/StillImage"/><cc:license rdf:resource="https://creativecommons.org/choose/mark/"/><crm:P106_is_composed_of>N</crm:P106_is_composed_of><crm:P106_is_composed_of>Z</crm:P106_is_composed_of><crm:P106_is_composed_of>O</crm:P106_is_composed_of><crm:P106_is_composed_of>E</crm:P106_is_composed_of></cc:Work></rdf:RDF></metadata><defs id="defs6"><clipPath id="clipPath18" clipPathUnits="userSpaceOnUse"><path id="path16" d="M 0,222.546 H 213.021 V 0 H 0 Z"
               inkscape:connector-curvature="0"/></clipPath></defs><g transform="matrix(1.3333333,0,0,-1.3333333,-70.817065,218.70279)" id="g10"><g id="g12"><g clip-path="url(#clipPath18)" id="g14"><g transform="translate(132.7708,148.6101)" id="g20"><path id="path22" style="fill:#231f20;fill-opacity:1;fill-rule:nonzero;stroke:none"
                     d="m 0,0 c 0,3.781 3.072,6.853 6.848,6.853 3.781,0 6.853,-3.072 6.853,-6.853 0,-3.776 -3.072,-6.848 -6.853,-6.848 C 3.072,-6.848 0,-3.776 0,0 m 24.75,-13.487 c 1.319,0 2.387,1.068 2.387,2.387 0,1.319 -1.068,2.387 -2.387,2.387 H 14.517 c 2.42,2.131 3.958,5.242 3.958,8.713 0,6.41 -5.216,11.627 -11.627,11.627 C 0.438,11.627 -4.774,6.41 -4.774,0 c 0,-5.592 3.967,-10.27 9.235,-11.374 v -70.09 l -30.576,34.125 c -0.977,1.541 -2.305,2.956 -3.693,4.314 -2.988,2.923 -2.848,4.616 -2.643,4.914 l 0.326,0.392 c 0.462,0.666 2.27,2.671 6.163,0.284 3.697,-2.261 3.193,-4.932 3.114,-5.259 -0.34,-1.254 0.382,-2.554 1.632,-2.918 1.277,-0.373 2.592,0.359 2.96,1.618 0.079,0.261 1.767,6.363 -5.217,10.634 -6.372,3.888 -10.908,0.764 -12.531,-1.572 -0.148,-0.177 -0.341,-0.441 -0.531,-0.778 l -21.584,24.088 h 4.27 c 1.319,0 2.386,1.067 2.386,2.387 0,1.319 -1.067,2.387 -2.386,2.387 h -17.445 l 19.09,18.148 c 0.709,0.672 0.933,1.707 0.569,2.616 -0.359,0.904 -1.24,1.501 -2.214,1.501 h -23.422 c -1.319,0 -2.387,-1.068 -2.387,-2.387 0,-1.319 1.068,-2.387 2.387,-2.387 h 17.445 l -19.09,-18.149 c -0.709,-0.671 -0.933,-1.706 -0.569,-2.615 0.359,-0.904 1.24,-1.501 2.214,-1.501 h 11.422 v -76.082 c 0,-1.319 1.068,-2.387 2.387,-2.387 1.319,0 2.387,1.068 2.387,2.387 v 72.228 l 31.089,-34.697 c 1.047,-1.822 0.736,-3.131 -0.344,-4.898 -0.746,-1.221 -1.506,-1.487 -2.014,-1.58 -1.804,-0.331 -4.303,1.184 -5.086,1.795 -0.672,0.494 -2.62,2.321 -2.774,4.237 -0.103,1.315 -1.249,2.247 -2.564,2.191 -1.315,-0.102 -2.298,-1.249 -2.191,-2.564 0.345,-4.405 4.265,-7.393 4.638,-7.659 0.401,-0.317 3.679,-2.821 7.417,-2.821 0.457,0 0.924,0.038 1.39,0.122 2.158,0.382 3.976,1.697 5.258,3.79 0.439,0.718 0.771,1.406 1.032,2.073 L 5.072,-89.298 c 0.013,-0.015 0.029,-0.024 0.042,-0.038 0.073,-0.078 0.156,-0.148 0.24,-0.216 0.044,-0.036 0.086,-0.077 0.133,-0.11 0.088,-0.062 0.185,-0.111 0.282,-0.16 0.046,-0.024 0.09,-0.054 0.138,-0.075 0.128,-0.055 0.264,-0.096 0.403,-0.128 0.018,-0.004 0.035,-0.013 0.054,-0.016 0.156,-0.033 0.318,-0.05 0.484,-0.05 H 24.75 c 1.319,0 2.387,1.068 2.387,2.387 0,1.319 -1.068,2.387 -2.387,2.387 H 9.235 v 33.528 H 24.75 c 1.319,0 2.387,1.068 2.387,2.387 0,1.319 -1.068,2.387 -2.387,2.387 H 9.235 v 33.528 z"
                     inkscape:connector-curvature="0"/></g></g></g></g></svg>