<?xml version="1.0" encoding="UTF-8"?>
<svg xmlns:foaf="http://xmlns.com/foaf/0.1/" xmlns:svg="http://www.w3.org/2000/svg"
     xmlns:dc="http://purl.org/dc/elements/1.1/"
     xmlns:crm="http://www.cidoc-crm.org/cidoc-crm/"
     xmlns="http://www.w3.org/2000/svg"
     xmlns:sodipodi="http://sodipodi.sourceforge.net/DTD/sodipodi-0.dtd"
     xmlns:cc="http://creativecommons.org/ns#"
     xmlns:inkscape="http://www.inkscape.org/namespaces/inkscape"
     xmlns:nmo="http://nomisma.org/ontology#"
     xmlns:rdf="http://www.w3.org/1999/02/22-rdf-syntax-ns#"
     viewBox="0 0 144.1815 108.91413"
     height="108.91413"
     width="144.1815"
     xml:space="preserve"
     id="svg2"
     version="1.1"
     sodipodi:docname="pg_0011.svg"
     inkscape:version="0.92.3 (2405546, 2018-03-11)"><sodipodi:namedview pagecolor="#ffffff" bordercolor="#666666" borderopacity="1"
                       objecttolerance="10"
                       gridtolerance="10"
                       guidetolerance="10"
                       inkscape:pageopacity="0"
                       inkscape:pageshadow="2"
                       inkscape:window-width="614"
                       inkscape:window-height="450"
                       id="namedview14"
                       showgrid="false"
                       inkscape:zoom="0.89388969"
                       inkscape:cx="83.316407"
                       inkscape:cy="48.535866"
                       inkscape:window-x="83"
                       inkscape:window-y="27"
                       inkscape:window-maximized="0"
                       inkscape:current-layer="svg2"/><metadata><rdf:RDF><cc:Work rdf:about="https://nomisma.org/svg/monogram.01547.svg"><dc:title>Monogram 1547</dc:title><dc:description>Monogram 1547 published by Nomisma.org. See matching URIs and bibliographic references for further information about the usage of this symbol on coinage.</dc:description><foaf:focus rdf:resource="http://nomisma.org/symbol/monogram.01547"/><dc:format>image/svg+xml</dc:format><dc:type rdf:resource="http://purl.org/dc/dcmitype/StillImage"/><cc:license rdf:resource="https://creativecommons.org/choose/mark/"/><crm:P106_is_composed_of>S</crm:P106_is_composed_of><crm:P106_is_composed_of>R</crm:P106_is_composed_of><crm:P106_is_composed_of>M</crm:P106_is_composed_of></cc:Work></rdf:RDF></metadata><defs id="defs6"><clipPath id="clipPath18" clipPathUnits="userSpaceOnUse"><path id="path16" d="M 0,198.011 H 198.011 V 0 H 0 Z"
               inkscape:connector-curvature="0"/></clipPath></defs><g transform="matrix(1.3333333,0,0,-1.3333333,-48.690932,192.3856)" id="g10"><g id="g12"><g clip-path="url(#clipPath18)" id="g14"><g transform="translate(100.5242,110.9572)" id="g20"><path id="path22" style="fill:#231f20;fill-opacity:1;fill-rule:nonzero;stroke:none"
                     d="M 0,0 19.381,22.686 V -14.528 Z M -17.91,-13.613 -42.878,-0.55 V 26.172 L -6.937,-0.769 Z M 34.863,11.85 c 0,-9.721 -6.591,-15.132 -10.708,-17.566 V 26.221 C 28.048,25.068 34.863,21.653 34.863,11.85 M 43.124,-21.725 26.42,-9.914 c 5.036,2.94 13.217,9.587 13.217,21.764 0,14.113 -11.467,19.033 -17.573,19.671 -0.013,0.002 -0.026,0.004 -0.04,0.005 -0.004,0 -0.009,0.001 -0.014,0.002 -0.043,0.005 -0.085,-10e-4 -0.127,0.002 -0.039,0.002 -0.076,0.012 -0.115,0.012 -0.027,0 -0.052,-0.007 -0.078,-0.008 -0.118,-0.003 -0.233,-0.015 -0.348,-0.035 -0.034,-0.006 -0.068,-0.012 -0.101,-0.02 -0.114,-0.026 -0.224,-0.06 -0.332,-0.103 -0.044,-0.017 -0.088,-0.035 -0.131,-0.054 -0.085,-0.04 -0.166,-0.084 -0.245,-0.134 -0.058,-0.035 -0.115,-0.071 -0.169,-0.111 -0.024,-0.017 -0.05,-0.032 -0.073,-0.05 -0.035,-0.028 -0.064,-0.061 -0.098,-0.09 -0.061,-0.055 -0.121,-0.11 -0.177,-0.171 -0.019,-0.021 -0.042,-0.037 -0.061,-0.059 L -3.828,2.869 -43.834,32.856 c -0.016,0.012 -0.034,0.019 -0.05,0.03 -0.071,0.051 -0.147,0.092 -0.224,0.135 -0.06,0.033 -0.119,0.07 -0.182,0.098 -0.076,0.035 -0.157,0.058 -0.237,0.085 -0.068,0.022 -0.135,0.047 -0.204,0.063 -0.078,0.018 -0.158,0.025 -0.238,0.035 -0.076,0.01 -0.152,0.021 -0.229,0.023 -0.023,10e-4 -0.044,0.007 -0.067,0.007 -0.038,0 -0.073,-0.01 -0.11,-0.011 -0.037,0.001 -0.072,0.011 -0.109,0.011 h -16.06 c -1.32,0 -2.388,-1.068 -2.388,-2.387 0,-1.319 1.068,-2.387 2.388,-2.387 h 13.892 V -41.93 h -13.967 c -1.319,0 -2.387,-1.067 -2.387,-2.387 0,-1.319 1.068,-2.386 2.387,-2.386 h 16.06 c 0.05,0 0.097,0.011 0.147,0.014 0.05,-0.003 0.097,-0.014 0.147,-0.014 1.319,0 2.387,1.067 2.387,2.386 v 38.378 l 24.442,-12.788 c 0.026,-0.014 0.054,-0.018 0.08,-0.03 0.127,-0.061 0.257,-0.11 0.391,-0.147 0.043,-0.011 0.084,-0.024 0.127,-0.033 0.167,-0.036 0.337,-0.061 0.507,-0.061 0.194,0 0.387,0.031 0.576,0.078 0.057,0.014 0.11,0.036 0.166,0.055 0.132,0.043 0.259,0.096 0.383,0.162 0.058,0.031 0.113,0.063 0.168,0.099 0.116,0.075 0.224,0.164 0.328,0.26 0.045,0.043 0.094,0.082 0.137,0.129 0.017,0.019 0.038,0.032 0.055,0.052 l 12.41,14.525 22.489,-16.858 v -23.821 c 0,-1.319 1.068,-2.386 2.387,-2.386 1.319,0 2.387,1.067 2.387,2.386 v 30.157 l 16.209,-11.462 c 0.42,-0.299 0.9,-0.439 1.38,-0.439 0.746,0 1.483,0.35 1.949,1.007 0.76,1.077 0.503,2.569 -0.569,3.329"
                     inkscape:connector-curvature="0"/></g><g transform="translate(95.7659,93.0176)" id="g24"><path id="path26" style="fill:#231f20;fill-opacity:1;fill-rule:nonzero;stroke:none"
                     d="m 0,0 c -7.473,0.685 -10.153,-4.07 -10.596,-6.876 -0.173,-0.667 -0.378,-2.149 0.456,-3.879 1.087,-2.256 3.488,-4.014 7.133,-5.235 5.748,-1.921 6.615,-3.315 6.299,-6.536 -0.136,-1.427 -0.705,-1.996 -1.124,-2.299 -1.515,-1.109 -4.396,-0.815 -5.347,-0.61 -0.886,0.172 -3.394,0.969 -4.35,2.606 -0.666,1.142 -2.13,1.534 -3.263,0.858 -1.138,-0.662 -1.524,-2.126 -0.858,-3.264 2.229,-3.818 7.063,-4.797 7.515,-4.876 0.257,-0.056 1.459,-0.303 3.026,-0.303 1.837,0 4.172,0.34 6.074,1.715 1.776,1.292 2.839,3.264 3.081,5.707 0.723,7.459 -4.317,9.785 -9.542,11.533 -3.963,1.324 -4.574,2.909 -4.518,3.273 l 0.121,0.489 c 0.126,0.797 0.942,3.417 5.427,2.942 4.307,-0.415 5.026,-3.04 5.1,-3.375 0.233,-1.278 1.487,-2.131 2.741,-1.916 1.301,0.219 2.177,1.45 1.958,2.75 C 9.287,-7.03 8.14,-0.793 0,0"
                     inkscape:connector-curvature="0"/></g></g></g></g></svg>