<?xml version="1.0" encoding="UTF-8"?>
<svg xmlns:foaf="http://xmlns.com/foaf/0.1/" xmlns:svg="http://www.w3.org/2000/svg"
     xmlns:dc="http://purl.org/dc/elements/1.1/"
     xmlns:crm="http://www.cidoc-crm.org/cidoc-crm/"
     xmlns="http://www.w3.org/2000/svg"
     xmlns:sodipodi="http://sodipodi.sourceforge.net/DTD/sodipodi-0.dtd"
     xmlns:cc="http://creativecommons.org/ns#"
     xmlns:inkscape="http://www.inkscape.org/namespaces/inkscape"
     xmlns:nmo="http://nomisma.org/ontology#"
     xmlns:rdf="http://www.w3.org/1999/02/22-rdf-syntax-ns#"
     viewBox="0 0 123.98667 128.34738"
     height="128.34738"
     width="123.98666"
     xml:space="preserve"
     id="svg2"
     version="1.1"
     sodipodi:docname="pg_0047.svg"
     inkscape:version="0.92.3 (2405546, 2018-03-11)"><sodipodi:namedview pagecolor="#ffffff" bordercolor="#666666" borderopacity="1"
                       objecttolerance="10"
                       gridtolerance="10"
                       guidetolerance="10"
                       inkscape:pageopacity="0"
                       inkscape:pageshadow="2"
                       inkscape:window-width="614"
                       inkscape:window-height="450"
                       id="namedview14"
                       showgrid="false"
                       inkscape:zoom="0.88500003"
                       inkscape:cx="41.909464"
                       inkscape:cy="64.17361"
                       inkscape:window-x="83"
                       inkscape:window-y="27"
                       inkscape:window-maximized="0"
                       inkscape:current-layer="svg2"/><metadata><rdf:RDF><cc:Work rdf:about="https://nomisma.org/svg/monogram.01534.svg"><dc:title>Monogram 1534</dc:title><dc:description>Monogram 1534 published by Nomisma.org. See matching URIs and bibliographic references for further information about the usage of this symbol on coinage.</dc:description><foaf:focus rdf:resource="http://nomisma.org/symbol/monogram.01534"/><dc:format>image/svg+xml</dc:format><dc:type rdf:resource="http://purl.org/dc/dcmitype/StillImage"/><cc:license rdf:resource="https://creativecommons.org/choose/mark/"/><crm:P106_is_composed_of>A</crm:P106_is_composed_of><crm:P106_is_composed_of>E</crm:P106_is_composed_of><crm:P106_is_composed_of>T</crm:P106_is_composed_of><crm:P106_is_composed_of>N</crm:P106_is_composed_of><crm:P106_is_composed_of>P</crm:P106_is_composed_of></cc:Work></rdf:RDF></metadata><defs id="defs6"><clipPath id="clipPath18" clipPathUnits="userSpaceOnUse"><path id="path16" d="M 0,200 H 200 V 0 H 0 Z" inkscape:connector-curvature="0"/></clipPath></defs><g transform="matrix(1.3333333,0,0,-1.3333333,-91.423864,197.50712)" id="g10"><g id="g12"><g clip-path="url(#clipPath18)" id="g14"><g transform="translate(112.8709,92.8338)" id="g20"><path id="path22" style="fill:#231f20;fill-opacity:1;fill-rule:nonzero;stroke:none"
                     d="M 0,0 26.012,30.084 V 0 Z M 26.012,-32.503 0.255,-4.774 H 26.012 Z M -39.53,0 V 31.049 L -10.69,0 Z m -0.638,38.745 c -0.007,0.007 -0.015,0.011 -0.021,0.018 -0.084,0.089 -0.177,0.166 -0.274,0.241 -0.029,0.023 -0.055,0.049 -0.085,0.07 -0.095,0.067 -0.197,0.121 -0.302,0.173 -0.035,0.018 -0.068,0.041 -0.104,0.057 -0.093,0.041 -0.192,0.069 -0.291,0.098 -0.051,0.015 -0.101,0.036 -0.153,0.047 -0.079,0.018 -0.162,0.023 -0.243,0.033 -0.077,0.009 -0.153,0.021 -0.23,0.023 -0.016,0 -0.03,0.005 -0.046,0.005 -0.06,0 -0.117,-0.014 -0.177,-0.018 -0.083,-0.006 -0.165,-0.011 -0.247,-0.025 -0.078,-0.014 -0.152,-0.037 -0.226,-0.059 -0.074,-0.02 -0.148,-0.039 -0.22,-0.068 -0.08,-0.031 -0.153,-0.071 -0.229,-0.11 -0.06,-0.032 -0.121,-0.06 -0.179,-0.097 -0.09,-0.058 -0.172,-0.125 -0.253,-0.193 -0.03,-0.025 -0.063,-0.043 -0.091,-0.069 -0.007,-0.007 -0.012,-0.015 -0.019,-0.021 -0.08,-0.077 -0.151,-0.162 -0.22,-0.249 -0.031,-0.039 -0.067,-0.075 -0.095,-0.115 -0.05,-0.072 -0.09,-0.152 -0.132,-0.229 -0.033,-0.061 -0.071,-0.119 -0.098,-0.181 -0.027,-0.062 -0.044,-0.129 -0.066,-0.193 -0.028,-0.084 -0.059,-0.167 -0.078,-0.253 -0.012,-0.054 -0.014,-0.11 -0.022,-0.165 -0.015,-0.102 -0.029,-0.203 -0.031,-0.306 0,-0.013 -0.003,-0.024 -0.003,-0.036 v -75.7 c 0,-1.319 1.067,-2.387 2.386,-2.387 1.32,0 2.387,1.068 2.387,2.387 V -4.774 H -6.255 L 26.65,-40.199 c 0.007,-0.007 0.014,-0.012 0.021,-0.018 0.095,-0.101 0.201,-0.191 0.312,-0.273 0.02,-0.015 0.038,-0.034 0.058,-0.048 0.386,-0.268 0.852,-0.426 1.358,-0.426 H 46.3 c 1.319,0 2.387,1.068 2.387,2.387 0,1.319 -1.068,2.387 -2.387,2.387 H 30.785 V -4.774 H 46.3 c 1.319,0 2.387,1.068 2.387,2.387 C 48.687,-1.068 47.619,0 46.3,0 H 30.785 V 34.736 H 46.3 c 1.319,0 2.387,1.067 2.387,2.387 0,1.319 -1.068,2.387 -2.387,2.387 H 10.497 c -1.319,0 -2.387,-1.068 -2.387,-2.387 0,-1.32 1.068,-2.387 2.387,-2.387 H 23.724 L -5.282,1.187 Z"
                     inkscape:connector-curvature="0"/></g><g transform="translate(103.7879,143.1402)" id="g24"><path id="path26" style="fill:#231f20;fill-opacity:1;fill-rule:nonzero;stroke:none"
                     d="M 0,0 C 0.55,-0.14 1.091,-0.364 1.478,-0.718 1.781,-0.993 2.182,-1.501 2.182,-2.708 2.182,-4.531 1.133,-5.65 0,-6.326 Z m 6.956,-2.708 c 0,2.871 -1.241,4.596 -2.28,5.538 -2.76,2.494 -6.848,2.177 -7.301,2.112 L -4.774,4.727 v -14.349 -0.075 -3.748 h -8.853 c -1.319,0 -2.387,-1.067 -2.387,-2.387 0,-1.319 1.068,-2.387 2.387,-2.387 h 8.853 v -12.135 c 0,-1.319 1.068,-2.386 2.387,-2.386 1.319,0 2.387,1.067 2.387,2.386 v 12.135 h 7.659 c 1.32,0 2.387,1.068 2.387,2.387 0,1.32 -1.067,2.387 -2.387,2.387 H 0 v 1.916 c 3.119,1.054 6.956,3.683 6.956,8.821"
                     inkscape:connector-curvature="0"/></g></g></g></g></svg>