<?xml version="1.0" encoding="UTF-8"?>
<svg xmlns:foaf="http://xmlns.com/foaf/0.1/" xmlns:svg="http://www.w3.org/2000/svg"
     xmlns:dc="http://purl.org/dc/elements/1.1/"
     xmlns:crm="http://www.cidoc-crm.org/cidoc-crm/"
     xmlns="http://www.w3.org/2000/svg"
     xmlns:sodipodi="http://sodipodi.sourceforge.net/DTD/sodipodi-0.dtd"
     xmlns:cc="http://creativecommons.org/ns#"
     xmlns:inkscape="http://www.inkscape.org/namespaces/inkscape"
     xmlns:nmo="http://nomisma.org/ontology#"
     xmlns:rdf="http://www.w3.org/1999/02/22-rdf-syntax-ns#"
     width="400"
     height="400"
     xml:space="preserve"
     viewBox="0 0 378 380">
  <title property="dc:title">Monogram 1328</title><desc proprety="dc:description">Monogram 1328 published by Nomisma.org. See matching URIs and bibliographic references for further information about the usage of this symbol on coinage.</desc>
    <desc xmlns:xlink="http://www.w3.org/1999/xlink" property="dc:creator">Corpus Nummorum https://www.corpus-nummorum.eu</desc>
    <desc xmlns:xlink="http://www.w3.org/1999/xlink">lettercomb: ΔΕΜΠ</desc>    
    <metadata><rdf:RDF><cc:Work rdf:about="https://nomisma.org/svg/monogram.01328.svg"><dc:title>Monogram 1328</dc:title><dc:description>Monogram 1328 published by Nomisma.org. See matching URIs and bibliographic references for further information about the usage of this symbol on coinage.</dc:description><foaf:focus rdf:resource="http://nomisma.org/symbol/monogram.01328"/><dc:format>image/svg+xml</dc:format><dc:type rdf:resource="http://purl.org/dc/dcmitype/StillImage"/><dc:creator rdf:resource="http://nomisma.org/editor/vstolba"/><cc:license rdf:resource="https://creativecommons.org/choose/mark/"/><crm:P106_is_composed_of>Δ</crm:P106_is_composed_of><crm:P106_is_composed_of>Ε</crm:P106_is_composed_of><crm:P106_is_composed_of>Μ</crm:P106_is_composed_of><crm:P106_is_composed_of>Π</crm:P106_is_composed_of></cc:Work></rdf:RDF></metadata>
    <path xmlns:xlink="http://www.w3.org/1999/xlink"
         d="M5.8 1.6C-.4 4.9 0-8.4 0 189.8c0 129.8.3 181.8 1.1 184.1 2.2 6.4-2.6 6.1 99.8 6.1H194l3.1-2.8c2.7-2.4 3.1-3.5 3.1-7.3-.1-3.6-.6-4.9-3.2-7.2l-3-2.7H20V198l63.5-.2 63.5-.3 2.7-2.8c4.1-4 3.9-9.9-.5-13.8L146 178H20v-74c0-40.7.2-74 .5-74s2.9 1.5 5.8 3.3c2.8 1.8 5.9 3.7 6.8 4.2.9.6 9.4 6.3 18.8 12.7C61.4 56.7 69.4 62 69.8 62c.4 0 3.6 2 7.2 4.5 7.2 5 25.4 17.3 43 28.9 6.3 4.2 14.4 9.7 18 12.1 3.6 2.5 6.8 4.5 7.3 4.5.8 0 9.8 5.8 10.7 7 .8 1 22.2 15.1 26.7 17.7 2.3 1.2 5.5 2.3 7.1 2.3 3.2 0 11.3-3.3 13.5-5.5.8-.7 6.5-4.8 12.6-8.9 6.2-4.2 12.2-8.5 13.3-9.6 1.2-1.1 3.1-2.3 4.2-2.6 2-.7 6.3-3.5 28.5-18.9 5.1-3.6 9.9-6.5 10.6-6.5.7 0 1.8-.7 2.5-1.5.6-.8 6-4.7 11.8-8.7 5.9-4 12.7-8.7 15.2-10.6 2.4-1.9 5.5-3.8 6.8-4.3 2.4-.9 14.3-8.7 15.2-10 .8-1.1 21.4-14.9 22.3-14.9.4 0 1.6-.8 2.7-1.8 1-.9 3.2-2.5 4.9-3.5l3.1-1.8v171.3c0 168 0 171.4 2 174.5 3.5 5.7 12.5 5.8 16 0 2-3.2 2-5.7 1.8-186.5l-.3-183.4-3.3-2.9L370 0H189.2C31.3.1 8.2.3 5.8 1.6zM332 21.8c-1.3.9-4.3 3.1-6.5 4.7-7.6 5.7-14 10-16.5 11.1-1.4.6-4.6 2.7-7.1 4.6-6 4.6-25.4 17.9-28.8 19.7-3.7 2-20.3 13.2-22 14.8-2.1 2.2-12.3 8.8-16.2 10.7-2 .9-4.5 2.5-5.5 3.5-2.2 2-25.1 17.7-29.2 20.1-1.5.8-4.2 2.6-6.1 3.9-3.4 2.4-3.5 2.4-6.5.7-1.7-1-4.4-2.6-6.1-3.6-4.4-2.5-24.9-16.2-25.5-17-.9-1.2-9.8-7-12.2-7.9-1.3-.5-4.5-2.6-7.3-4.5-2.7-2-10.2-7-16.5-11.3-6.3-4.2-11.7-7.9-12-8.3-.3-.4-1.3-.9-2.2-1.3-1.6-.6-16.2-10.3-27.3-18.3-2.7-1.9-6.7-4.4-8.7-5.5-2-1-9-5.5-15.4-9.9l-11.7-8 145.9.1c137.5 0 145.8.1 143.4 1.7z"/>
</svg>