<?xml version="1.0" encoding="UTF-8"?>
<svg xmlns:foaf="http://xmlns.com/foaf/0.1/" xmlns:svg="http://www.w3.org/2000/svg"
     xmlns:dc="http://purl.org/dc/elements/1.1/"
     xmlns:crm="http://www.cidoc-crm.org/cidoc-crm/"
     xmlns="http://www.w3.org/2000/svg"
     xmlns:sodipodi="http://sodipodi.sourceforge.net/DTD/sodipodi-0.dtd"
     xmlns:cc="http://creativecommons.org/ns#"
     xmlns:inkscape="http://www.inkscape.org/namespaces/inkscape"
     xmlns:nmo="http://nomisma.org/ontology#"
     xmlns:rdf="http://www.w3.org/1999/02/22-rdf-syntax-ns#"
     viewBox="0 0 71.085578 73.390121"
     height="73.390121"
     width="71.085579"
     xml:space="preserve"
     id="svg2"
     version="1.1"
     sodipodi:docname="pg_0059.svg"
     inkscape:version="0.92.3 (2405546, 2018-03-11)"><sodipodi:namedview pagecolor="#ffffff" bordercolor="#666666" borderopacity="1"
                       objecttolerance="10"
                       gridtolerance="10"
                       guidetolerance="10"
                       inkscape:pageopacity="0"
                       inkscape:pageshadow="2"
                       inkscape:window-width="640"
                       inkscape:window-height="480"
                       id="namedview12"
                       showgrid="false"
                       inkscape:zoom="0.96711798"
                       inkscape:cx="63.910124"
                       inkscape:cy="53.775734"
                       inkscape:window-x="83"
                       inkscape:window-y="27"
                       inkscape:window-maximized="0"
                       inkscape:current-layer="svg2"/><metadata><rdf:RDF><cc:Work rdf:about="https://nomisma.org/svg/monogram.01508.svg"><dc:title>Monogram 1508</dc:title><dc:description>Monogram 1508 published by Nomisma.org. See matching URIs and bibliographic references for further information about the usage of this symbol on coinage.</dc:description><foaf:focus rdf:resource="http://nomisma.org/symbol/monogram.01508"/><dc:format>image/svg+xml</dc:format><dc:type rdf:resource="http://purl.org/dc/dcmitype/StillImage"/><cc:license rdf:resource="https://creativecommons.org/choose/mark/"/></cc:Work></rdf:RDF></metadata><defs id="defs6"><clipPath id="clipPath18" clipPathUnits="userSpaceOnUse"><path id="path16" d="M 0,183.018 H 178.031 V 0 H 0 Z"
               inkscape:connector-curvature="0"/></clipPath></defs><g transform="matrix(1.3333333,0,0,-1.3333333,-54.777208,141.62639)" id="g10"><g id="g12"><g clip-path="url(#clipPath18)" id="g14"><g transform="translate(86.4625,104.8052)" id="g20"><path id="path22" style="fill:#231f20;fill-opacity:1;fill-rule:nonzero;stroke:none"
                     d="m 0,0 -44.091,-45.82 c -1.765,-1.837 -1.711,-4.755 0.126,-6.52 0.896,-0.86 2.044,-1.288 3.197,-1.288 1.211,0 2.418,0.473 3.323,1.414 l 21.789,22.643 c 0.961,0.685 5.731,3.814 8.686,0.425 -0.086,-2.486 -3.711,-6.782 -6.138,-8.902 -1.913,-1.676 -2.111,-4.584 -0.441,-6.502 0.91,-1.05 2.193,-1.585 3.476,-1.585 1.072,0 2.148,0.373 3.017,1.13 1.509,1.31 9.042,8.209 9.303,15.53 0.103,2.922 -0.941,5.565 -3.013,7.637 -1.438,1.439 -2.989,2.394 -4.579,2.983 L 6.646,-6.394 C 8.411,-4.557 8.357,-1.639 6.52,0.126 4.683,1.891 1.765,1.837 0,0"
                     inkscape:connector-curvature="0"/></g></g></g></g></svg>