<?xml version="1.0" encoding="UTF-8"?>
<svg xmlns:foaf="http://xmlns.com/foaf/0.1/" xmlns:svg="http://www.w3.org/2000/svg"
     xmlns:dc="http://purl.org/dc/elements/1.1/"
     xmlns:crm="http://www.cidoc-crm.org/cidoc-crm/"
     xmlns="http://www.w3.org/2000/svg"
     xmlns:sodipodi="http://sodipodi.sourceforge.net/DTD/sodipodi-0.dtd"
     xmlns:cc="http://creativecommons.org/ns#"
     xmlns:inkscape="http://www.inkscape.org/namespaces/inkscape"
     xmlns:nmo="http://nomisma.org/ontology#"
     xmlns:rdf="http://www.w3.org/1999/02/22-rdf-syntax-ns#"
     viewBox="0 0 136.308 135.624"
     height="135.62399"
     width="136.308"
     xml:space="preserve"
     id="svg2"
     version="1.1"
     sodipodi:docname="pg_0020.svg"
     inkscape:version="0.92.3 (2405546, 2018-03-11)"><sodipodi:namedview pagecolor="#ffffff" bordercolor="#666666" borderopacity="1"
                       objecttolerance="10"
                       gridtolerance="10"
                       guidetolerance="10"
                       inkscape:pageopacity="0"
                       inkscape:pageshadow="2"
                       inkscape:window-width="640"
                       inkscape:window-height="480"
                       id="namedview14"
                       showgrid="false"
                       inkscape:zoom="0.83090395"
                       inkscape:cx="60.63241"
                       inkscape:cy="80.762527"
                       inkscape:window-x="83"
                       inkscape:window-y="27"
                       inkscape:window-maximized="0"
                       inkscape:current-layer="svg2"/><metadata><rdf:RDF><cc:Work rdf:about="https://nomisma.org/svg/monogram.01536.svg"><dc:title>Monogram 1536</dc:title><dc:description>Monogram 1536 published by Nomisma.org. See matching URIs and bibliographic references for further information about the usage of this symbol on coinage.</dc:description><foaf:focus rdf:resource="http://nomisma.org/symbol/monogram.01536"/><dc:format>image/svg+xml</dc:format><dc:type rdf:resource="http://purl.org/dc/dcmitype/StillImage"/><cc:license rdf:resource="https://creativecommons.org/choose/mark/"/><crm:P106_is_composed_of>N</crm:P106_is_composed_of><crm:P106_is_composed_of>S</crm:P106_is_composed_of><crm:P106_is_composed_of>E</crm:P106_is_composed_of><crm:P106_is_composed_of>O</crm:P106_is_composed_of></cc:Work></rdf:RDF></metadata><defs id="defs6"><clipPath id="clipPath18" clipPathUnits="userSpaceOnUse"><path id="path16" d="M 0,213.021 H 213.021 V 0 H 0 Z"
               inkscape:connector-curvature="0"/></clipPath></defs><g transform="matrix(1.3333333,0,0,-1.3333333,-81.381598,196.87546)" id="g10"><g id="g12"><g clip-path="url(#clipPath18)" id="g14"><g transform="translate(65.8102,136.0296)" id="g20"><path id="path22" style="fill:#231f20;fill-opacity:1;fill-rule:nonzero;stroke:none"
                     d="m 0,0 c 0,3.781 3.072,6.853 6.853,6.853 3.781,0 6.853,-3.072 6.853,-6.853 0,-3.776 -3.072,-6.848 -6.853,-6.848 C 3.072,-6.848 0,-3.776 0,0 m 95.07,-13.487 c 1.319,0 2.387,1.068 2.387,2.387 0,1.319 -1.068,2.387 -2.387,2.387 H 77.168 c -0.042,0 -0.08,-0.01 -0.121,-0.012 -0.041,0.002 -0.08,0.012 -0.121,0.012 H 59.024 c -1.319,0 -2.387,-1.068 -2.387,-2.387 0,-1.319 1.068,-2.387 2.387,-2.387 h 15.757 v -67.977 l -63.405,70.758 c 4.17,1.766 7.103,5.899 7.103,10.706 0,6.41 -5.216,11.627 -11.626,11.627 C 0.443,11.627 -4.774,6.41 -4.774,0 c 0,-5.592 3.971,-10.27 9.24,-11.374 v -76.33 c 0,-1.319 1.068,-2.387 2.387,-2.387 h 17.901 c 1.32,0 2.387,1.068 2.387,2.387 0,1.319 -1.067,2.387 -2.387,2.387 H 9.24 v 69.842 l 66.152,-73.823 c 0.012,-0.015 0.028,-0.024 0.041,-0.038 0.074,-0.078 0.156,-0.148 0.241,-0.216 0.044,-0.036 0.086,-0.077 0.132,-0.11 0.09,-0.062 0.187,-0.112 0.285,-0.161 0.045,-0.024 0.088,-0.054 0.135,-0.074 0.129,-0.056 0.267,-0.097 0.407,-0.129 0.017,-0.004 0.033,-0.012 0.05,-0.015 0.157,-0.033 0.319,-0.05 0.485,-0.05 H 95.07 c 1.319,0 2.387,1.068 2.387,2.387 0,1.319 -1.068,2.387 -2.387,2.387 H 79.555 v 33.528 H 95.07 c 1.319,0 2.387,1.068 2.387,2.387 0,1.319 -1.068,2.387 -2.387,2.387 H 79.555 v 33.528 z"
                     inkscape:connector-curvature="0"/></g><g transform="translate(107.3522,105.4756)" id="g24"><path id="path26" style="fill:#231f20;fill-opacity:1;fill-rule:nonzero;stroke:none"
                     d="m 0,0 c 0.256,-0.056 1.459,-0.303 3.03,-0.303 1.837,0 4.173,0.34 6.074,1.72 1.777,1.287 2.84,3.259 3.082,5.702 0.723,7.459 -4.317,9.785 -9.543,11.533 -3.962,1.324 -4.573,2.909 -4.517,3.273 l 0.125,0.527 c 0.047,0.345 0.583,3.398 5.418,2.904 4.312,-0.42 5.025,-3.044 5.1,-3.375 0.238,-1.282 1.478,-2.126 2.741,-1.916 1.301,0.219 2.177,1.45 1.958,2.75 -0.047,0.266 -1.184,6.503 -9.333,7.296 C -3.329,30.792 -6.014,26.041 -6.457,23.235 -6.629,22.568 -6.834,21.086 -6,19.356 -4.914,17.1 -2.513,15.342 1.133,14.121 6.881,12.2 7.748,10.806 7.431,7.585 7.296,6.158 6.727,5.59 6.308,5.286 4.792,4.177 1.916,4.475 0.956,4.676 0.07,4.848 -2.434,5.646 -3.394,7.286 -4.061,8.424 -5.524,8.797 -6.662,8.14 -7.799,7.473 -8.182,6.009 -7.515,4.872 -5.282,1.058 -0.452,0.079 0,0"
                     inkscape:connector-curvature="0"/></g></g></g></g></svg>