<?xml version="1.0" encoding="UTF-8"?>
<svg xmlns:foaf="http://xmlns.com/foaf/0.1/" xmlns:svg="http://www.w3.org/2000/svg"
     xmlns:dc="http://purl.org/dc/elements/1.1/"
     xmlns:crm="http://www.cidoc-crm.org/cidoc-crm/"
     xmlns="http://www.w3.org/2000/svg"
     xmlns:sodipodi="http://sodipodi.sourceforge.net/DTD/sodipodi-0.dtd"
     xmlns:cc="http://creativecommons.org/ns#"
     xmlns:inkscape="http://www.inkscape.org/namespaces/inkscape"
     xmlns:nmo="http://nomisma.org/ontology#"
     xmlns:rdf="http://www.w3.org/1999/02/22-rdf-syntax-ns#"
     id="Drawing_layer"
     data-name="Drawing layer"
     viewBox="0 0 263 320.66"
     version="1.1"
     sodipodi:docname="monogram.lorber.258.svg"
     width="263"
     height="320.66"
     inkscape:version="0.92.3 (2405546, 2018-03-11)">
   <metadata>
      <rdf:RDF>
         <cc:Work rdf:about="https://nomisma.org/svg/monogram.01823.svg">
            <dc:title>Monogram 1823</dc:title>
            <dc:description>Monogram 1823 published by Nomisma.org. See matching URIs and bibliographic references for further information about the usage of this symbol on coinage.</dc:description>
            <foaf:focus rdf:resource="http://nomisma.org/symbol/monogram.01823"/>
            <dc:format>image/svg+xml</dc:format>
            <dc:type rdf:resource="http://purl.org/dc/dcmitype/StillImage"/>
            <dc:creator rdf:resource="http://nomisma.org/editor/ltomanelli"/>
            <cc:license rdf:resource="https://creativecommons.org/choose/mark/"/>
            <crm:P106_is_composed_of>Ρ</crm:P106_is_composed_of>
            <crm:P106_is_composed_of>Γ</crm:P106_is_composed_of>
         </cc:Work>
      </rdf:RDF>
   </metadata>
   <defs id="defs11"/>
   <sodipodi:namedview pagecolor="#ffffff" bordercolor="#666666" borderopacity="1"
                       objecttolerance="10"
                       gridtolerance="10"
                       guidetolerance="10"
                       inkscape:pageopacity="0"
                       inkscape:pageshadow="2"
                       inkscape:window-width="640"
                       inkscape:window-height="480"
                       id="namedview9"
                       showgrid="false"
                       inkscape:zoom="0.44277674"
                       inkscape:cx="127.5"
                       inkscape:cy="158.16"
                       inkscape:window-x="83"
                       inkscape:window-y="27"
                       inkscape:window-maximized="0"
                       inkscape:current-layer="Drawing_layer"/>
   <title property="dc:title">Monogram 1823</title>
   <desc proprety="dc:description">Monogram 1823 published by Nomisma.org. See matching URIs and bibliographic references for further information about the usage of this symbol on coinage.</desc>
   <path d="M 20,116 V 10 L 10,20 H 253 L 243,10 v 301 c 0,12.87 20,12.89 20,0 V 10 A 10.14,10.14 0 0 0 253,0 H 10 A 10.14,10.14 0 0 0 0,10 v 106 c 0,12.87 20,12.89 20,0 z"
         id="path4"
         inkscape:connector-curvature="0"/>
   <path d="M 124.9,214.33 V 21.14 l -7.34,9.65 a 9.87,9.87 0 0 1 1.18,-0.24 c 1.14,-0.12 5.39,-0.66 1.5,-0.3 4,-0.37 8,-0.79 12.06,-0.77 2.43,0 4.84,0.16 7.26,0.36 0.63,0 1.26,0.13 1.88,0.21 -2.43,-0.31 -0.59,-0.09 0,0 1.4,0.3 2.81,0.52 4.2,0.87 1.39,0.35 2.54,0.68 3.79,1.09 0.75,0.26 1.49,0.53 2.23,0.81 -0.32,-0.12 -1.87,-0.87 -0.19,-0.07 1.2,0.57 2.39,1.17 3.54,1.85 0.57,0.34 1.12,0.73 1.69,1.07 2.13,1.3 -0.56,-0.63 0.89,0.63 1,0.91 2,1.87 3,2.86 a 16.69,16.69 0 0 1 1.1,1.27 c -1.42,-1.74 0.32,0.51 0.48,0.77 0.78,1.3 1.55,2.58 2.2,3.95 0.13,0.27 0.68,1.74 0.11,0.25 0.42,1.09 0.77,2.21 1.09,3.33 a 38.63,38.63 0 0 1 1.35,11.5 c 0,0.41 -0.14,0.85 -0.11,1.26 0,0.74 0.6,-3.14 0.06,-0.61 -0.34,1.66 -0.66,3.3 -1.15,4.92 -0.26,0.87 -0.58,1.72 -0.87,2.59 -0.8,2.42 0.82,-1.34 -0.27,0.62 A 63.28,63.28 0 0 1 161,75 c 1.55,-2.19 -1.09,1.18 -1.72,1.82 -0.63,0.64 -3.92,3.33 -2.13,2 a 36.54,36.54 0 0 1 -4.32,2.73 c -0.53,0.29 -1.07,0.55 -1.6,0.82 -2,1 0.88,-0.25 -1.1,0.48 -9.33,3.45 -18.14,3.42 -28.26,2.39 -5.39,-0.55 -10,5 -10,10 0,5.86 4.6,9.45 10,10 18.1,1.84 38.17,-0.76 51.55,-14.29 A 48.35,48.35 0 0 0 186.68,62.18 48.93,48.93 0 0 0 176.35,27 C 167.12,15.55 152.61,10.91 138.44,9.74 a 88.37,88.37 0 0 0 -26.2,1.76 c -4.25,1 -7.34,5.41 -7.34,9.64 v 193.19 c 0,12.87 20,12.9 20,0 z"
         id="path6"
         inkscape:connector-curvature="0"/>
</svg>