<?xml version="1.0" encoding="UTF-8"?>
<svg xmlns:foaf="http://xmlns.com/foaf/0.1/" xmlns:svg="http://www.w3.org/2000/svg"
     xmlns:dc="http://purl.org/dc/elements/1.1/"
     xmlns:crm="http://www.cidoc-crm.org/cidoc-crm/"
     xmlns="http://www.w3.org/2000/svg"
     xmlns:sodipodi="http://sodipodi.sourceforge.net/DTD/sodipodi-0.dtd"
     xmlns:cc="http://creativecommons.org/ns#"
     xmlns:inkscape="http://www.inkscape.org/namespaces/inkscape"
     xmlns:nmo="http://nomisma.org/ontology#"
     xmlns:rdf="http://www.w3.org/1999/02/22-rdf-syntax-ns#"
     viewBox="0 0 122.00082 108.56"
     height="108.56"
     width="122.00082"
     xml:space="preserve"
     id="svg2"
     version="1.1"
     sodipodi:docname="pg_0007.svg"
     inkscape:version="0.92.3 (2405546, 2018-03-11)"><sodipodi:namedview pagecolor="#ffffff" bordercolor="#666666" borderopacity="1"
                       objecttolerance="10"
                       gridtolerance="10"
                       guidetolerance="10"
                       inkscape:pageopacity="0"
                       inkscape:pageshadow="2"
                       inkscape:window-width="640"
                       inkscape:window-height="480"
                       id="namedview14"
                       showgrid="false"
                       inkscape:zoom="0.89388969"
                       inkscape:cx="61.388541"
                       inkscape:cy="62.732532"
                       inkscape:window-x="83"
                       inkscape:window-y="27"
                       inkscape:window-maximized="0"
                       inkscape:current-layer="svg2"/><metadata><rdf:RDF><cc:Work rdf:about="https://nomisma.org/svg/monogram.01525.svg"><dc:title>Monogram 1525</dc:title><dc:description>Monogram 1525 published by Nomisma.org. See matching URIs and bibliographic references for further information about the usage of this symbol on coinage.</dc:description><foaf:focus rdf:resource="http://nomisma.org/symbol/monogram.01525"/><dc:format>image/svg+xml</dc:format><dc:type rdf:resource="http://purl.org/dc/dcmitype/StillImage"/><cc:license rdf:resource="https://creativecommons.org/choose/mark/"/><crm:P106_is_composed_of>S</crm:P106_is_composed_of><crm:P106_is_composed_of>R</crm:P106_is_composed_of><crm:P106_is_composed_of>M</crm:P106_is_composed_of></cc:Work></rdf:RDF></metadata><defs id="defs6"><clipPath id="clipPath18" clipPathUnits="userSpaceOnUse"><path id="path16" d="M 0,198.011 H 198.011 V 0 H 0 Z"
               inkscape:connector-curvature="0"/></clipPath></defs><g transform="matrix(1.3333333,0,0,-1.3333333,-70.618798,177.8348)" id="g10"><g id="g12"><g clip-path="url(#clipPath18)" id="g14"><g transform="translate(119.9971,124.4841)" id="g20"><path id="path22" style="fill:#231f20;fill-opacity:1;fill-rule:nonzero;stroke:none"
                     d="m 0,0 v -38.075 l -25.888,19.037 z M -62.26,-39.865 V 1.79 l 28.323,-20.828 z m 77.742,27.275 c 0,-9.721 -6.591,-15.132 -10.708,-17.566 V 1.781 C 8.667,0.628 15.482,-2.788 15.482,-12.59 m 7.263,-33.053 -17.971,5.222 v 4.866 c 4.231,2.008 15.482,8.684 15.482,22.965 C 20.256,1.461 8.892,6.398 2.766,7.071 2.742,7.075 2.719,7.077 2.695,7.08 2.674,7.082 2.651,7.085 2.629,7.088 2.593,7.092 2.557,7.087 2.521,7.089 2.511,7.09 2.503,7.09 2.494,7.091 2.458,7.092 2.423,7.102 2.387,7.102 2.376,7.102 2.366,7.099 2.356,7.098 2.313,7.098 2.27,7.097 2.227,7.094 2.137,7.089 2.052,7.074 1.965,7.059 1.937,7.054 1.909,7.052 1.882,7.046 1.852,7.039 1.822,7.033 1.792,7.025 1.697,7.001 1.606,6.968 1.515,6.932 1.485,6.92 1.455,6.91 1.425,6.896 1.404,6.887 1.384,6.879 1.363,6.869 1.281,6.829 1.203,6.783 1.125,6.734 1.082,6.707 1.039,6.679 0.997,6.649 0.99,6.644 0.981,6.641 0.974,6.635 L 0.94,6.61 C 0.917,6.592 0.892,6.577 0.87,6.559 L -29.913,-16.078 -63.234,8.426 c -0.007,0.005 -0.015,0.008 -0.022,0.013 -0.09,0.065 -0.187,0.118 -0.286,0.17 -0.045,0.024 -0.089,0.053 -0.135,0.074 -0.075,0.033 -0.155,0.056 -0.234,0.082 -0.073,0.023 -0.145,0.051 -0.219,0.067 -0.061,0.014 -0.125,0.018 -0.187,0.027 -0.095,0.013 -0.19,0.027 -0.286,0.028 -0.014,10e-4 -0.028,0.005 -0.043,0.005 -0.051,0 -0.098,-0.012 -0.148,-0.015 -0.091,-0.006 -0.182,-0.011 -0.271,-0.027 -0.077,-0.014 -0.149,-0.036 -0.223,-0.056 -0.073,-0.021 -0.145,-0.04 -0.216,-0.067 -0.08,-0.031 -0.156,-0.07 -0.231,-0.109 -0.06,-0.031 -0.119,-0.06 -0.176,-0.096 -0.082,-0.051 -0.156,-0.11 -0.231,-0.17 -0.044,-0.036 -0.089,-0.069 -0.13,-0.108 -0.086,-0.08 -0.162,-0.168 -0.234,-0.259 -0.019,-0.024 -0.043,-0.043 -0.061,-0.068 -0.005,-0.007 -0.008,-0.015 -0.013,-0.022 -0.069,-0.095 -0.126,-0.197 -0.18,-0.302 -0.02,-0.039 -0.044,-0.075 -0.062,-0.115 -0.039,-0.087 -0.066,-0.179 -0.094,-0.27 -0.019,-0.061 -0.042,-0.12 -0.056,-0.181 -0.017,-0.074 -0.022,-0.151 -0.032,-0.228 -0.01,-0.081 -0.022,-0.162 -0.024,-0.243 -10e-4,-0.018 -0.005,-0.034 -0.005,-0.051 v -75.262 c 0,-1.319 1.067,-2.387 2.387,-2.387 1.319,0 2.386,1.068 2.386,2.387 v 22.973 L -29.913,-21.997 0,-43.994 v -24.763 c 0,-1.319 1.067,-2.387 2.387,-2.387 1.319,0 2.387,1.068 2.387,2.387 v 23.361 l 16.638,-4.834 c 0.224,-0.066 0.448,-0.094 0.667,-0.094 1.035,0 1.99,0.676 2.293,1.721 0.369,1.268 -0.363,2.592 -1.627,2.96"
                     inkscape:connector-curvature="0"/></g><g transform="translate(90.063,82.3701)" id="g24"><path id="path26" style="fill:#231f20;fill-opacity:1;fill-rule:nonzero;stroke:none"
                     d="m 0,0 c -7.543,0.699 -10.149,-4.07 -10.592,-6.876 -0.172,-0.672 -0.377,-2.149 0.457,-3.879 1.086,-2.256 3.487,-4.014 7.133,-5.235 5.743,-1.921 6.61,-3.315 6.294,-6.541 -0.136,-1.422 -0.705,-1.991 -1.12,-2.294 -1.515,-1.104 -4.391,-0.815 -5.351,-0.61 -0.886,0.172 -3.39,0.969 -4.35,2.61 -0.667,1.138 -2.121,1.511 -3.268,0.853 -1.137,-0.666 -1.52,-2.13 -0.853,-3.267 2.233,-3.814 7.063,-4.793 7.515,-4.872 0.256,-0.056 1.459,-0.303 3.026,-0.303 1.841,0 4.177,0.34 6.079,1.72 1.776,1.287 2.839,3.263 3.076,5.702 0.728,7.454 -4.312,9.785 -9.538,11.533 -3.962,1.324 -4.573,2.909 -4.517,3.273 l 0.121,0.489 c 0.126,0.802 0.937,3.403 5.422,2.942 4.312,-0.42 5.025,-3.044 5.1,-3.371 0.238,-1.282 1.534,-2.14 2.741,-1.916 1.301,0.219 2.177,1.455 1.958,2.751 C 9.287,-7.025 8.14,-0.793 0,0"
                     inkscape:connector-curvature="0"/></g></g></g></g></svg>