<?xml version="1.0" encoding="UTF-8"?>
<!-- Generator: Adobe Illustrator 12.0.0, SVG Export Plug-In . SVG Version: 6.00 Build 51448)  --><svg xmlns:foaf="http://xmlns.com/foaf/0.1/" xmlns:svg="http://www.w3.org/2000/svg"
     xmlns:dc="http://purl.org/dc/elements/1.1/"
     xmlns:crm="http://www.cidoc-crm.org/cidoc-crm/"
     xmlns="http://www.w3.org/2000/svg"
     xmlns:sodipodi="http://sodipodi.sourceforge.net/DTD/sodipodi-0.dtd"
     xmlns:cc="http://creativecommons.org/ns#"
     xmlns:inkscape="http://www.inkscape.org/namespaces/inkscape"
     xmlns:nmo="http://nomisma.org/ontology#"
     xmlns:rdf="http://www.w3.org/1999/02/22-rdf-syntax-ns#"
     version="1.1"
     id="Export"
     width="50.391903"
     height="48.083363"
     viewBox="0 0 50.391903 48.083363"
     overflow="visible"
     enable-background="new 0 0 533 533"
     xml:space="preserve"
     sodipodi:docname="monogram.bop.261var.svg"
     style="overflow:visible"
     inkscape:version="0.92.5 (2060ec1f9f, 2020-04-08)"><metadata><rdf:RDF><cc:Work rdf:about="https://nomisma.org/svg/monogram.00308.svg"><dc:title>Monogram 308</dc:title><dc:description>Monogram 308 published by Nomisma.org. See matching URIs and bibliographic references for further information about the usage of this symbol on coinage.</dc:description><foaf:focus rdf:resource="http://nomisma.org/symbol/monogram.00308"/><dc:format>image/svg+xml</dc:format><dc:type rdf:resource="http://purl.org/dc/dcmitype/StillImage"/><dc:creator rdf:resource="http://nomisma.org/editor/ltomanelli"/><cc:license rdf:resource="https://creativecommons.org/choose/mark/"/><crm:P106_is_composed_of>Ρ</crm:P106_is_composed_of><crm:P106_is_composed_of>Η</crm:P106_is_composed_of><crm:P106_is_composed_of>Τ</crm:P106_is_composed_of><crm:P106_is_composed_of>Δ</crm:P106_is_composed_of></cc:Work></rdf:RDF></metadata><defs id="defs47"/><sodipodi:namedview pagecolor="#ffffff" bordercolor="#666666" borderopacity="1"
                       objecttolerance="10"
                       gridtolerance="10"
                       guidetolerance="10"
                       inkscape:pageopacity="0"
                       inkscape:pageshadow="2"
                       inkscape:window-width="632"
                       inkscape:window-height="450"
                       id="namedview45"
                       showgrid="false"
                       inkscape:zoom="0.44277674"
                       inkscape:cx="241.06089"
                       inkscape:cy="-184.2387"
                       inkscape:window-x="88"
                       inkscape:window-y="27"
                       inkscape:window-maximized="0"
                       inkscape:current-layer="Export"/>
<title property="dc:title">Monogram 308</title><desc proprety="dc:description">Monogram 308 published by Nomisma.org. See matching URIs and bibliographic references for further information about the usage of this symbol on coinage.</desc>
<g id="g10" transform="translate(-25.439114,-34.177941)">
	<g id="g8">
		<path d="m 27.017,35.647 c 0,0 20.45,17.824 0,45.028" id="path4"
               inkscape:connector-curvature="0"
               style="fill:none"/>
		<path d="m 25.957,36.708 c 13.236,11.727 8.977,30.557 -0.235,43.211 -1.141,1.567 1.464,3.062 2.591,1.514 9.983,-13.714 13.997,-34.237 -0.235,-46.846 -1.443,-1.278 -3.572,0.836 -2.121,2.121 z"
               id="path6"
               inkscape:connector-curvature="0"/>
	</g>
</g>
<g id="g18" transform="translate(-25.439114,-34.177941)">
	<g id="g16">
		<path d="m 74.296,35.647 c 0,0 -21.013,18.949 0,45.028" id="path12"
               inkscape:connector-curvature="0"
               style="fill:none"/>
		<path d="m 73.236,34.587 c -3.994,3.658 -6.75,8.791 -8.417,13.871 -3.922,11.945 1.083,23.861 8.417,33.279 1.188,1.525 3.294,-0.614 2.121,-2.121 -9.848,-12.647 -12.927,-31.065 0,-42.907 1.43,-1.31 -0.698,-3.426 -2.121,-2.122 z"
               id="path14"
               inkscape:connector-curvature="0"/>
	</g>
</g>
<g id="g26" transform="translate(-25.439114,-34.177941)">
	<g id="g24">
		<path d="m 27.017,35.647 c 0,0 20.45,17.824 0,45.028" id="path20"
               inkscape:connector-curvature="0"
               style="fill:none"/>
		<path d="m 25.957,36.708 c 13.236,11.727 8.977,30.557 -0.235,43.211 -1.141,1.567 1.464,3.062 2.591,1.514 9.983,-13.714 13.997,-34.237 -0.235,-46.846 -1.443,-1.278 -3.572,0.836 -2.121,2.121 z"
               id="path22"
               inkscape:connector-curvature="0"/>
	</g>
</g>
<g id="g34" transform="translate(-25.439114,-34.177941)">
	<g id="g32">
		<path d="m 74.296,35.647 c 0,0 -21.013,18.949 0,45.028" id="path28"
               inkscape:connector-curvature="0"
               style="fill:none"/>
		<path d="m 73.236,34.587 c -3.994,3.658 -6.75,8.791 -8.417,13.871 -3.922,11.945 1.083,23.861 8.417,33.279 1.188,1.525 3.294,-0.614 2.121,-2.121 -9.848,-12.647 -12.927,-31.065 0,-42.907 1.43,-1.31 -0.698,-3.426 -2.121,-2.122 z"
               id="path30"
               inkscape:connector-curvature="0"/>
	</g>
</g>
<g id="g42" transform="translate(-25.439114,-34.177941)">
	<g id="g40">
		<polyline points="36.398,60.649 48.218,80.162 63.978,57.647 36.105,57.647   "
                   id="polyline36"
                   style="fill:none"/>
		<path d="m 35.103,61.406 c 3.94,6.504 7.88,13.009 11.82,19.513 0.618,1.02 1.952,0.913 2.591,0 5.253,-7.505 10.506,-15.01 15.76,-22.515 0.668,-0.956 -0.229,-2.257 -1.295,-2.257 -9.291,0 -18.582,0 -27.873,0 -1.935,0 -1.935,3 0,3 9.291,0 18.582,0 27.873,0 -0.432,-0.752 -0.863,-1.505 -1.295,-2.257 -5.253,7.505 -10.506,15.01 -15.76,22.515 0.864,0 1.727,0 2.591,0 -3.94,-6.504 -7.88,-13.009 -11.82,-19.513 -1.003,-1.652 -3.597,-0.145 -2.592,1.514 z"
               id="path38"
               inkscape:connector-curvature="0"/>
	</g>
</g>
</svg>