<?xml version="1.0" encoding="UTF-8"?>
<svg xmlns:foaf="http://xmlns.com/foaf/0.1/" xmlns:svg="http://www.w3.org/2000/svg"
     xmlns:dc="http://purl.org/dc/elements/1.1/"
     xmlns:crm="http://www.cidoc-crm.org/cidoc-crm/"
     xmlns="http://www.w3.org/2000/svg"
     xmlns:sodipodi="http://sodipodi.sourceforge.net/DTD/sodipodi-0.dtd"
     xmlns:cc="http://creativecommons.org/ns#"
     xmlns:inkscape="http://www.inkscape.org/namespaces/inkscape"
     xmlns:nmo="http://nomisma.org/ontology#"
     xmlns:rdf="http://www.w3.org/1999/02/22-rdf-syntax-ns#"
     viewBox="0 0 147.33544 108.504"
     height="108.504"
     width="147.33543"
     xml:space="preserve"
     id="svg2"
     version="1.1"
     sodipodi:docname="pg_0033.svg"
     inkscape:version="0.92.3 (2405546, 2018-03-11)"><sodipodi:namedview pagecolor="#ffffff" bordercolor="#666666" borderopacity="1"
                       objecttolerance="10"
                       gridtolerance="10"
                       guidetolerance="10"
                       inkscape:pageopacity="0"
                       inkscape:pageshadow="2"
                       inkscape:window-width="640"
                       inkscape:window-height="480"
                       id="namedview12"
                       showgrid="false"
                       inkscape:zoom="0.88500003"
                       inkscape:cx="72.82237"
                       inkscape:cy="58.729877"
                       inkscape:window-x="83"
                       inkscape:window-y="27"
                       inkscape:window-maximized="0"
                       inkscape:current-layer="svg2"/><metadata><rdf:RDF><cc:Work rdf:about="https://nomisma.org/svg/monogram.01542.svg"><dc:title>Monogram 1542</dc:title><dc:description>Monogram 1542 published by Nomisma.org. See matching URIs and bibliographic references for further information about the usage of this symbol on coinage.</dc:description><foaf:focus rdf:resource="http://nomisma.org/symbol/monogram.01542"/><dc:format>image/svg+xml</dc:format><dc:type rdf:resource="http://purl.org/dc/dcmitype/StillImage"/><cc:license rdf:resource="https://creativecommons.org/choose/mark/"/><crm:P106_is_composed_of>N</crm:P106_is_composed_of><crm:P106_is_composed_of>Z</crm:P106_is_composed_of><crm:P106_is_composed_of>O</crm:P106_is_composed_of></cc:Work></rdf:RDF></metadata><defs id="defs6"><clipPath id="clipPath18" clipPathUnits="userSpaceOnUse"><path id="path16" d="M 0,200 H 200 V 0 H 0 Z" inkscape:connector-curvature="0"/></clipPath></defs><g transform="matrix(1.3333333,0,0,-1.3333333,-60.510959,183.10746)" id="g10"><g id="g12"><g clip-path="url(#clipPath18)" id="g14"><g transform="translate(67.6678,89.7886)" id="g20"><path id="path22" style="fill:#231f20;fill-opacity:1;fill-rule:nonzero;stroke:none"
                     d="M 0,0 V 18.025 L 23.327,0 Z M 65.542,-4.774 V -26.589 L 37.31,-4.774 Z m -4.467,40.689 c 0,3.781 3.072,6.853 6.853,6.853 3.776,0 6.849,-3.072 6.849,-6.853 0,-3.781 -3.073,-6.853 -6.849,-6.853 -3.781,0 -6.853,3.072 -6.853,6.853 m -77.559,9.24 c 0,-1.319 1.067,-2.387 2.386,-2.387 H 3.347 l -19.09,-18.153 c -0.709,-0.672 -0.933,-1.706 -0.569,-2.616 0.359,-0.904 1.24,-1.501 2.214,-1.501 h 9.324 V -28.88 c -10.491,1.447 -12.688,11.372 -12.783,11.818 -0.261,1.3 -1.571,2.139 -2.806,1.874 -1.296,-0.257 -2.135,-1.516 -1.874,-2.807 1.086,-5.438 6.617,-15.668 19.773,-15.833 0.026,-10e-4 0.051,-0.008 0.077,-0.008 0.016,0 0.031,0.005 0.047,0.005 0.066,-10e-4 0.129,-0.005 0.195,-0.005 13.585,0 18.005,10.545 18.438,16.121 0.108,1.314 -0.876,2.461 -2.191,2.564 -1.272,0.144 -2.461,-0.877 -2.564,-2.191 C 11.503,-17.794 10.588,-27.751 0,-28.943 v 24.169 h 29.505 l 36.964,-28.563 c 0.02,-0.016 0.042,-0.026 0.062,-0.04 0.054,-0.039 0.11,-0.074 0.166,-0.108 0.071,-0.043 0.143,-0.082 0.216,-0.117 0.054,-0.026 0.108,-0.049 0.164,-0.071 0.088,-0.034 0.177,-0.06 0.267,-0.083 0.05,-0.012 0.097,-0.027 0.147,-0.036 0.145,-0.027 0.291,-0.044 0.437,-0.044 H 85.83 c 1.319,0 2.387,1.068 2.387,2.387 0,1.319 -1.068,2.387 -2.387,2.387 H 70.315 v 52.418 h 14.923 c 1.319,0 2.387,1.068 2.387,2.387 0,1.319 -1.068,2.387 -2.387,2.387 h -8.702 c 1.866,2.064 3.014,4.79 3.014,7.785 0,6.41 -5.212,11.627 -11.622,11.627 -6.41,0 -11.626,-5.217 -11.626,-11.627 0,-5.592 3.97,-10.273 9.24,-11.378 V 0 H 31.132 L 4.605,20.498 h 4.719 c 1.319,0 2.387,1.068 2.387,2.387 0,1.32 -1.068,2.387 -2.387,2.387 H -8.121 l 19.09,18.153 c 0.709,0.672 0.933,1.707 0.569,2.616 -0.359,0.904 -1.24,1.501 -2.214,1.501 h -23.422 c -1.319,0 -2.386,-1.068 -2.386,-2.387"
                     inkscape:connector-curvature="0"/></g></g></g></g></svg>