<?xml version="1.0" encoding="UTF-8"?>
<svg xmlns:foaf="http://xmlns.com/foaf/0.1/" xmlns:svg="http://www.w3.org/2000/svg"
     xmlns:dc="http://purl.org/dc/elements/1.1/"
     xmlns:crm="http://www.cidoc-crm.org/cidoc-crm/"
     xmlns="http://www.w3.org/2000/svg"
     xmlns:sodipodi="http://sodipodi.sourceforge.net/DTD/sodipodi-0.dtd"
     xmlns:cc="http://creativecommons.org/ns#"
     xmlns:inkscape="http://www.inkscape.org/namespaces/inkscape"
     xmlns:nmo="http://nomisma.org/ontology#"
     xmlns:rdf="http://www.w3.org/1999/02/22-rdf-syntax-ns#"
     viewBox="0 0 427.04645 392.61755"
     height="392.61755"
     width="427.04645"
     xml:space="preserve"
     id="svg2"
     version="1.1"
     sodipodi:docname="monogram.lorber.255.svg"
     inkscape:version="0.92.3 (2405546, 2018-03-11)"><sodipodi:namedview pagecolor="#ffffff" bordercolor="#666666" borderopacity="1"
                       objecttolerance="10"
                       gridtolerance="10"
                       guidetolerance="10"
                       inkscape:pageopacity="0"
                       inkscape:pageshadow="2"
                       inkscape:window-width="640"
                       inkscape:window-height="480"
                       id="namedview20"
                       showgrid="false"
                       inkscape:zoom="0.44250002"
                       inkscape:cx="213.52322"
                       inkscape:cy="179.28398"
                       inkscape:window-x="83"
                       inkscape:window-y="27"
                       inkscape:window-maximized="0"
                       inkscape:current-layer="svg2"/><metadata><rdf:RDF><cc:Work rdf:about="https://nomisma.org/svg/monogram.01822.svg"><dc:title>Monogram 1822</dc:title><dc:description>Monogram 1822 published by Nomisma.org. See matching URIs and bibliographic references for further information about the usage of this symbol on coinage.</dc:description><foaf:focus rdf:resource="http://nomisma.org/symbol/monogram.01822"/><dc:format>image/svg+xml</dc:format><dc:type rdf:resource="http://purl.org/dc/dcmitype/StillImage"/><dc:creator rdf:resource="https://orcid.org/0000-0001-7542-4252"/><cc:license rdf:resource="https://creativecommons.org/choose/mark/"/><crm:P106_is_composed_of>Ω</crm:P106_is_composed_of><crm:P106_is_composed_of>Λ</crm:P106_is_composed_of></cc:Work></rdf:RDF></metadata><defs id="defs6"><clipPath id="clipPath18" clipPathUnits="userSpaceOnUse"><path id="path16" d="M 0,400 H 400 V 0 H 0 Z" inkscape:connector-curvature="0"/></clipPath></defs><g transform="matrix(1.3333333,0,0,-1.3333333,-53.143432,480.00025)" id="g10"><g id="g12"><g clip-path="url(#clipPath18)" id="g14"><g transform="translate(116.1338,75.6172)" id="g20"><path id="path22"
                     style="fill:none;stroke:#000000;stroke-width:20;stroke-linecap:round;stroke-linejoin:round;stroke-miterlimit:10;stroke-dasharray:none;stroke-opacity:1"
                     d="m 0,0 c -7.98,5.392 -15.414,11.53 -22.2,18.316 -6.786,6.787 -12.925,14.22 -18.316,22.201 -5.391,7.979 -10.035,16.506 -13.83,25.479 -3.795,8.973 -6.742,18.392 -8.74,28.156 -1.998,9.765 -3.048,19.875 -3.048,30.231 0,10.355 1.05,20.466 3.048,30.23 1.998,9.764 4.945,19.184 8.74,28.157 3.795,8.973 8.439,17.499 13.83,25.479 5.391,7.98 11.53,15.414 18.316,22.2 6.786,6.786 14.22,12.925 22.2,18.316 7.98,5.391 16.506,10.035 25.479,13.83 8.973,3.795 18.393,6.742 28.157,8.74 9.764,1.998 19.875,3.048 30.23,3.048 10.356,0 20.466,-1.05 30.231,-3.048 9.764,-1.998 19.183,-4.945 28.156,-8.74 8.973,-3.795 17.5,-8.439 25.479,-13.83 7.981,-5.391 15.414,-11.53 22.201,-18.316 6.786,-6.786 12.924,-14.22 18.316,-22.2 5.391,-7.98 10.034,-16.506 13.829,-25.479 3.796,-8.973 6.742,-18.393 8.74,-28.157 1.998,-9.764 3.048,-19.875 3.048,-30.23 0,-10.356 -1.05,-20.466 -3.048,-30.231 -1.998,-9.764 -4.944,-19.183 -8.74,-28.156 -3.795,-8.973 -8.438,-17.5 -13.829,-25.479 C 202.857,32.536 196.719,25.103 189.933,18.316 183.146,11.53 175.713,5.392 167.732,0"
                     inkscape:connector-curvature="0"/></g><g transform="translate(350,75.6172)" id="g24"><path id="path26"
                     style="fill:none;stroke:#000000;stroke-width:20;stroke-linecap:round;stroke-linejoin:round;stroke-miterlimit:10;stroke-dasharray:none;stroke-opacity:1"
                     d="M 0,0 H -66.134"
                     inkscape:connector-curvature="0"/></g><g transform="translate(50,75.6172)" id="g28"><path id="path30"
                     style="fill:none;stroke:#000000;stroke-width:20;stroke-linecap:round;stroke-linejoin:round;stroke-miterlimit:10;stroke-dasharray:none;stroke-opacity:1"
                     d="M 0,0 H 66.134"
                     inkscape:connector-curvature="0"/></g><g transform="translate(200,300)" id="g32"><path id="path34"
                     style="fill:none;stroke:#000000;stroke-width:20;stroke-linecap:round;stroke-linejoin:round;stroke-miterlimit:10;stroke-dasharray:none;stroke-opacity:1"
                     d="M 0,0 -90,-160"
                     inkscape:connector-curvature="0"/></g><g transform="translate(290,140)" id="g36"><path id="path38"
                     style="fill:none;stroke:#000000;stroke-width:20;stroke-linecap:round;stroke-linejoin:round;stroke-miterlimit:10;stroke-dasharray:none;stroke-opacity:1"
                     d="M 0,0 -90,160"
                     inkscape:connector-curvature="0"/></g></g></g></g></svg>